<svg width="640" height="640" viewBox="0 0 640 640" fill="none" xmlns="http://www.w3.org/2000/svg">
    <g clip-path="url(#clip0_150_1126)">
        <path d="M422.879 96.5704C432.096 102.783 439.425 111.518 442.57 122.371C445.101 137.857 442.788 155.149 434.434 168.504C428.926 176.056 421.898 181.975 413 185C412.01 185 411.02 185 410 185C413.816 192.119 417.797 199.103 422 206C429.854 203.91 437.106 200.91 444.5 197.563C471.511 185.432 471.511 185.432 483.187 189.563C491.042 193.141 496.551 198.277 500.086 206.199C502.807 214.537 502.837 222.438 499.328 230.508C494.309 239.926 486.861 243.484 477.524 247.806C473.682 249.623 469.903 251.561 466.114 253.484C435.149 269.18 435.149 269.18 420.437 269.313C419.39 269.342 418.343 269.371 417.264 269.4C410.014 269.459 404.504 268.211 398 265C397.758 265.993 397.515 266.985 397.266 268.008C396.928 269.38 396.589 270.753 396.25 272.125C396.073 272.843 395.896 273.562 395.714 274.302C394.218 280.304 392.483 286.205 390.637 292.109C389.642 296.626 390.971 299.254 393.379 303.07C393.88 303.871 394.38 304.671 394.896 305.496C395.446 306.364 395.996 307.231 396.562 308.125C397.752 310.023 398.941 311.922 400.129 313.82C400.759 314.825 401.39 315.829 402.039 316.864C405.39 322.224 408.693 327.613 412 333C416.448 340.238 420.907 347.47 425.392 354.685C427.493 358.069 429.584 361.459 431.672 364.851C432.834 366.731 434.007 368.602 435.184 370.473C443.844 384.609 446.563 399.669 449.375 415.75C449.761 417.908 450.148 420.067 450.535 422.225C453.109 436.635 455.581 451.063 458 465.5C458.148 466.381 458.295 467.261 458.447 468.168C458.864 470.664 459.277 473.16 459.687 475.656C459.807 476.373 459.926 477.09 460.049 477.828C460.87 482.87 461.476 487.919 462 493C462.784 493.041 463.567 493.083 464.375 493.125C474.707 495.619 483.121 503.305 488.812 512.063C489.56 513.365 490.29 514.677 491 516C491.598 517.093 492.196 518.186 492.812 519.313C494.743 525.308 495.244 530.788 492.934 536.754C489.793 542.497 486.103 546.472 480 549C476.717 549.763 473.643 550.135 470.277 550.177C469.368 550.19 468.46 550.203 467.524 550.216C466.068 550.227 466.068 550.227 464.582 550.238C463.57 550.246 462.557 550.255 461.514 550.263C459.373 550.277 457.232 550.287 455.091 550.295C452.914 550.307 450.737 550.327 448.56 550.357C445.401 550.4 442.242 550.416 439.082 550.426C437.641 550.452 437.641 550.452 436.171 550.479C427.13 550.45 419.355 547.966 412.625 541.75C411.833 541.044 411.042 540.337 410.226 539.609C405.21 533.73 403.252 527.121 401.625 519.688C401.419 518.787 401.214 517.886 401.002 516.957C400.324 513.974 399.662 510.987 399 508C398.52 505.87 398.04 503.74 397.559 501.609C395.223 491.22 392.955 480.817 390.747 470.399C388.336 459.028 385.839 447.688 383.026 436.409C380.948 428.062 380.948 428.062 380.379 423.941C379.017 414.98 374.481 410.666 367.641 405.296C366.006 404.005 364.419 402.671 362.836 401.316C358.444 396.946 358.444 396.946 353 395C352.253 396.542 352.253 396.542 351.49 398.114C349.608 401.99 347.708 405.857 345.804 409.722C344.988 411.384 344.176 413.048 343.369 414.714C333.913 434.225 323.194 450.084 302 458C292.075 461.409 282.533 461.392 272.187 461.25C270.497 461.238 268.807 461.227 267.117 461.217C256.76 461.137 246.413 460.868 236.062 460.5C221.145 459.972 221.145 459.972 206.223 459.658C204.256 459.626 202.289 459.568 200.322 459.51C192.167 459.436 186.976 460.886 180 465C171.578 468.594 159.572 468.663 150.832 466.055C144.098 462.468 140.398 457.195 138 450C136.1 441.346 140.877 434.245 145 427C145.531 426.065 146.062 425.13 146.609 424.166C167.293 387.922 167.293 387.922 178.766 384.453C190.733 382.026 198.88 386.107 209 392C209.771 392.535 210.543 393.07 211.338 393.621C214.566 395.293 216.543 395.283 220.156 395.109C221.345 395.059 222.533 395.009 223.758 394.957C224.993 394.889 226.228 394.82 227.5 394.75C229.306 394.671 229.306 394.671 231.148 394.59C236.979 394.32 242.79 393.947 248.605 393.457C255.017 392.944 261.383 392.886 267.812 392.938C268.898 392.942 269.984 392.947 271.103 392.951C273.736 392.963 276.368 392.979 279 393C279.195 391.488 279.195 391.488 279.394 389.945C281.097 378.854 284.527 367.998 287.638 357.233C289.833 349.633 291.928 342.007 293.995 334.371C294.229 333.508 294.462 332.646 294.703 331.758C294.923 330.936 295.144 330.114 295.371 329.267C295.915 327.308 296.522 325.366 297.141 323.43C298.188 319.249 298.377 315.293 298.5 311C298.662 305.313 299.212 300.421 301 295C300.34 294.959 299.68 294.918 299 294.875C292.129 292.871 285.789 287.014 282 281C279.682 275.446 278.386 270.392 277.683 264.434C277.581 263.637 277.48 262.841 277.374 262.02C277.053 259.494 276.745 256.966 276.437 254.438C276.228 252.77 276.018 251.103 275.807 249.436C275.394 246.173 274.987 242.909 274.584 239.645C274.212 236.653 273.824 233.664 273.416 230.677C273.324 230.003 273.232 229.33 273.137 228.636C272.89 226.841 272.639 225.046 272.388 223.251C270.57 208.032 273.813 196.301 283 184C291.906 173.078 305.055 168.755 317.812 163.938C319.392 163.334 320.97 162.729 322.549 162.123C325.607 160.951 328.667 159.786 331.73 158.627C334.456 157.594 337.172 156.542 339.881 155.465C341.031 155.01 342.182 154.555 343.367 154.086C344.359 153.688 345.352 153.29 346.374 152.88C349.806 151.73 352.427 151.585 356 152C355.76 151.188 355.76 151.188 355.516 150.359C352.696 137.457 355.68 121.357 362.469 110.192C364.411 107.412 366.423 105.209 369 103C369.895 102.155 369.895 102.155 370.808 101.293C385.521 87.6702 405.685 86.2114 422.879 96.5704Z"
              fill="black"/>
        <path d="M321 298C330.04 298.933 338.93 300.413 347.866 302.054C349.75 302.394 351.636 302.72 353.525 303.033C356.277 303.492 359.018 303.993 361.762 304.504C363.018 304.7 363.018 304.7 364.3 304.9C368.954 305.819 371.422 306.959 374.341 310.777C375.254 312.168 376.142 313.575 377 315C377.661 316.022 378.322 317.044 379.004 318.098C379.589 319.076 380.174 320.054 380.777 321.062C381.448 322.177 382.119 323.292 382.81 324.441C383.157 325.021 383.504 325.601 383.861 326.199C385.72 329.309 387.593 332.41 389.465 335.512C389.844 336.141 390.223 336.769 390.614 337.417C394.343 343.591 398.162 349.706 402 355.812C406.815 363.485 411.616 371.16 416.207 378.969C417.278 380.779 418.372 382.576 419.512 384.344C427.531 397.252 428.524 415.096 430.937 429.812C431.631 433.989 432.328 438.164 433.027 442.34C433.281 443.861 433.281 443.861 433.54 445.414C435.088 454.636 436.781 463.827 438.629 472.995C438.813 473.943 438.997 474.891 439.187 475.867C439.346 476.652 439.504 477.437 439.668 478.246C440.137 482.137 440 486.08 440 490C432.08 490 424.16 490 416 490C415.648 488.338 415.296 486.677 414.933 484.965C411.644 469.492 408.254 454.046 404.73 438.625C403.575 433.569 402.455 428.507 401.363 423.438C401.101 422.246 400.84 421.054 400.57 419.827C400.079 417.589 399.598 415.349 399.129 413.107C397.306 404.912 394.494 400.96 387.875 395.75C384.147 392.764 380.526 389.722 377 386.5C373.604 383.404 370.138 380.448 366.562 377.562C361.793 373.706 357.275 369.635 352.765 365.48C349.995 362.995 347.149 360.646 344.25 358.312C331.175 347.671 321.823 335.236 320 318C319.32 304.111 319.32 304.111 321 298Z"
              fill="#33CBCA"/>
        <path d="M311 353C313.811 355.726 316.428 358.494 318.938 361.5C324.414 367.857 330.803 373.362 337 379C335.441 384.183 333.23 388.862 330.824 393.688C330.214 394.919 330.214 394.919 329.591 396.175C328.731 397.904 327.87 399.631 327.006 401.358C325.694 403.987 324.395 406.622 323.096 409.258C322.256 410.943 321.416 412.628 320.574 414.312C319.999 415.485 319.999 415.485 319.412 416.68C316.122 423.206 312.396 428.381 306.312 432.625C305.546 433.174 304.779 433.723 303.988 434.289C303.002 434.854 302.016 435.418 301 436C300.383 436.36 299.765 436.719 299.129 437.09C290.381 441.403 280.872 440.471 271.375 440.312C269.485 440.295 267.594 440.28 265.704 440.266C246.466 440.091 227.229 439.59 208 439C209.692 433.688 211.866 429.046 214.562 424.188C214.955 423.412 215.348 422.637 215.752 421.838C216.165 421.101 216.578 420.364 217.004 419.605C217.363 418.937 217.722 418.268 218.092 417.579C221.268 414.951 225.037 415.189 229 415C230.032 414.948 231.063 414.896 232.126 414.843C235.766 414.68 239.406 414.55 243.047 414.422C245.775 414.314 248.503 414.202 251.23 414.09C255.505 413.915 259.779 413.747 264.055 413.604C267.535 413.487 271.014 413.348 274.493 413.192C276.449 413.111 278.407 413.054 280.364 412.998C287.223 412.749 287.223 412.749 293.229 409.763C294.989 407.018 296.027 404.824 296.844 401.676C297.255 400.145 297.255 400.145 297.675 398.584C297.947 397.505 298.219 396.425 298.5 395.312C298.943 393.644 298.943 393.644 299.396 391.941C299.993 389.69 300.585 387.437 301.17 385.182C302.314 380.795 303.527 376.428 304.75 372.062C304.951 371.34 305.152 370.617 305.358 369.873C309.682 354.318 309.682 354.318 311 353Z"
              fill="white"/>
        <path d="M405 362C408.259 365.872 410.88 369.904 413.438 374.25C413.832 374.92 414.227 375.591 414.634 376.281C415.411 377.604 416.187 378.928 416.962 380.252C417.797 381.659 418.67 383.042 419.555 384.418C427.561 397.272 428.534 415.151 430.938 429.812C431.631 433.989 432.328 438.164 433.027 442.34C433.197 443.354 433.366 444.369 433.54 445.414C435.088 454.636 436.782 463.827 438.629 472.995C438.813 473.943 438.997 474.891 439.188 475.867C439.346 476.652 439.505 477.437 439.668 478.246C440.137 482.137 440 486.08 440 490C432.08 490 424.16 490 416 490C415.648 488.338 415.296 486.677 414.934 484.965C411.644 469.492 408.254 454.046 404.73 438.625C403.576 433.569 402.456 428.507 401.363 423.438C401.102 422.246 400.84 421.054 400.57 419.827C400.079 417.589 399.598 415.349 399.129 413.107C397.281 404.8 394.374 400.868 387.688 395.562C383.387 392.115 379.665 388.61 375.5 385C380.005 381.301 384.209 377.904 388.938 374.5C389.723 373.932 390.509 373.363 391.318 372.777C394.674 370.357 398.026 367.961 401.504 365.719C404.081 364.24 404.081 364.24 405 362Z"
              fill="white"/>
        <path d="M388 194C391.18 196.976 392.817 198.854 393.198 203.326C393.307 210.246 392.235 216.044 390.148 222.617C389.852 223.595 389.555 224.573 389.25 225.58C388.305 228.683 387.341 231.779 386.375 234.875C385.438 237.924 384.506 240.975 383.574 244.026C382.958 246.04 382.34 248.054 381.72 250.066C379.355 257.76 377.109 265.484 374.934 273.233C373.725 277.529 372.456 281.78 371 286C362.845 285.379 354.902 283.972 346.875 282.438C345.011 282.087 345.011 282.087 343.109 281.729C340.072 281.156 337.035 280.58 334 280C334.33 278.948 334.66 277.896 335 276.812C337.756 265.592 335.63 253.364 334.5 242C334.284 239.785 334.069 237.57 333.858 235.355C333.667 233.366 333.471 231.378 333.275 229.391C333.046 226.57 332.943 223.827 333 221C333.669 220.864 334.339 220.728 335.028 220.589C338.124 219.959 341.218 219.323 344.312 218.688C345.365 218.474 346.417 218.261 347.502 218.041C368.984 213.902 368.984 213.902 385 200C386.171 198.021 387.098 196.122 388 194Z"
              fill="#33CBCA"/>
        <path d="M367.063 174.937C369.814 179.285 369.899 182.985 369 188C366.848 191.689 364.856 193.35 361 195C358.786 195.579 356.557 196.101 354.321 196.586C353.671 196.729 353.022 196.872 352.353 197.019C350.278 197.476 348.202 197.926 346.125 198.375C338.111 200.109 330.111 201.889 322.18 203.976C321.061 204.268 319.942 204.56 318.789 204.861C315.673 206.133 314.573 207.054 313 210C312.889 212.832 312.953 215.381 313.188 218.187C313.243 219.009 313.298 219.832 313.355 220.679C313.768 226.594 314.294 232.502 314.794 238.41C316.235 255.658 316.235 255.658 316.438 263.812C316.478 265.118 316.518 266.424 316.559 267.769C316 271 316 271 313.696 273.418C310.167 275.488 308.028 275.585 304 275C300.095 271.994 299.301 269.4 298.5 264.625C298.388 263.957 298.275 263.289 298.159 262.601C297.748 260.071 297.373 257.536 297 255C296.83 253.869 296.659 252.738 296.483 251.573C290.282 209.978 290.282 209.978 297.418 198.773C302.608 191.923 309.304 189.087 317.108 186.106C319.984 185.006 322.851 183.881 325.715 182.752C331.931 180.303 338.155 177.874 344.391 175.476C345.567 175.023 346.743 174.57 347.954 174.104C354.733 171.647 360.727 170.929 367.063 174.937Z"
              fill="white"/>
        <path d="M408.426 111.648C414.146 114.247 417.66 118.593 421.148 123.672C422.482 127.318 422.288 130.899 422.25 134.75C422.262 135.91 422.262 135.91 422.273 137.093C422.247 144.889 421.033 152.738 416 159C409.082 165.095 404.094 166.621 394.852 166.414C387.98 165.675 384.178 162.289 379.562 157.437C376.235 152.246 375.686 147.779 375.75 141.687C375.742 140.966 375.735 140.245 375.727 139.502C375.754 131.954 376.984 123.947 382 118C390.193 111.515 397.915 108.839 408.426 111.648Z"
              fill="white"/>
        <path d="M476 209C479.692 211.592 480.829 213.041 481.625 217.5C480.823 221.99 479.442 223.049 476 226C473.366 227.607 470.628 228.933 467.84 230.25C466.661 230.82 466.661 230.82 465.459 231.403C463.8 232.204 462.138 233.001 460.474 233.792C457.965 234.986 455.463 236.195 452.963 237.406C422.329 252.187 422.329 252.187 410.336 248.089C408.125 247 408.125 247 405 245C405.511 238.563 406.729 233.04 409 227C409.516 227.309 410.031 227.618 410.562 227.937C414.787 229.779 418.021 230.584 422.47 229.27C425.408 228.095 428.28 226.821 431.156 225.503C432.217 225.036 433.278 224.568 434.372 224.087C437.755 222.594 441.128 221.08 444.5 219.562C447.872 218.049 451.247 216.541 454.628 215.048C456.73 214.12 458.826 213.18 460.916 212.227C466.167 209.904 470.236 208.192 476 209Z"
              fill="white"/>
        <path d="M311 353C313.811 355.726 316.428 358.494 318.938 361.5C324.414 367.857 330.803 373.362 337 379C335.546 383.775 333.558 388.148 331.305 392.586C330.952 393.288 330.6 393.99 330.237 394.713C329.12 396.935 327.998 399.155 326.875 401.375C326.113 402.889 325.351 404.403 324.59 405.918C322.731 409.614 320.867 413.308 319 417C314.458 415.576 311.232 413.961 307.438 411.062C304.05 408.492 300.686 406.126 297 404C297.602 397.847 298.922 392.228 300.688 386.312C301.227 384.47 301.766 382.628 302.305 380.785C302.583 379.84 302.861 378.896 303.147 377.922C304.014 374.952 304.858 371.975 305.695 368.996C305.966 368.033 306.238 367.071 306.517 366.079C307.041 364.216 307.563 362.353 308.083 360.49C308.32 359.652 308.557 358.815 308.801 357.953C309.009 357.212 309.217 356.471 309.431 355.708C310 354 310 354 311 353Z"
              fill="#33CBCA"/>
        <path d="M186.625 404.562C191.67 404.646 195.056 407.063 199 410C198.072 416.068 195.016 420.655 191.937 425.875C191.389 426.843 190.84 427.811 190.275 428.809C185.384 437.14 179.581 444.192 170 447C166.648 447.217 163.352 447.182 160 447C159 444 159 444 160.26 441.232C160.897 440.132 161.534 439.032 162.191 437.898C162.533 437.303 162.876 436.707 163.228 436.093C163.958 434.827 164.692 433.565 165.431 432.305C166.543 430.408 167.641 428.504 168.736 426.598C181.072 405.233 181.072 405.233 186.625 404.562Z"
              fill="white"/>
        <path d="M421 511.001C425.659 510.876 430.317 510.786 434.977 510.726C436.558 510.701 438.139 510.667 439.719 510.624C450.937 510.322 459.034 510.923 467.938 518.501C473 524.637 473 524.637 473 529.001C466.986 529.125 460.973 529.215 454.958 529.275C452.913 529.3 450.869 529.335 448.824 529.378C445.88 529.439 442.937 529.467 439.992 529.489C439.083 529.515 438.173 529.541 437.236 529.567C432.889 529.569 429.926 529.418 426.453 526.647C423.823 523.81 422.952 522.054 422.125 518.313C421.901 517.361 421.676 516.408 421.445 515.427C421 513.001 421 513.001 421 511.001Z"
              fill="white"/>
        <path d="M404.714 361C407.91 364.834 410.596 368.859 413.161 373.132C413.533 373.745 413.905 374.359 414.289 374.991C415.196 376.488 416.098 377.987 417 379.486C412.294 383.355 407.396 386.942 402.475 390.527C401.636 391.145 400.797 391.764 399.933 392.401C399.131 392.984 398.33 393.568 397.504 394.17C396.775 394.703 396.046 395.236 395.295 395.786C393.452 396.946 394.548 397.5 392.5 397.5C392.162 398.178 390.729 398.302 390.381 399C388.418 397.204 386.455 395.406 384.494 393.608C383.942 393.104 383.391 392.599 382.822 392.08C379.811 389.316 376.859 386.518 374 383.595C374.536 383.228 375.071 382.861 375.623 382.483C380.773 378.955 385.92 375.423 391.063 371.885C393.036 370.53 395.011 369.178 396.988 367.828C397.89 367.206 398.793 366.584 399.723 365.943C400.867 365.158 400.867 365.158 402.035 364.358C403.834 363.132 403.834 363.132 404.714 361Z"
              fill="#33CBCA"/>
        <path d="M302 382C310.354 387.302 318.681 392.644 327 398C326.382 402.553 324.532 406.285 322.438 410.312C322.108 410.958 321.779 411.603 321.439 412.268C320.632 413.848 319.817 415.424 319 417C314.433 415.702 311.202 413.938 307.438 411.062C304.05 408.492 300.686 406.126 297 404C297.61 396.369 299.796 389.298 302 382Z"
              fill="#33CBCA"/>
    </g>
    <defs>
        <clipPath id="clip0_150_1126">
            <rect width="640" height="640" fill="white"/>
        </clipPath>
    </defs>
</svg>
