<svg width="640" height="640" viewBox="0 0 640 640" fill="none" xmlns="http://www.w3.org/2000/svg">
<g clip-path="url(#clip0_150_1341)">
<path d="M423.999 86.9993C433.801 94.3256 440.978 103.721 442.999 115.999C444.176 132.942 441.683 149.409 430.999 162.999C425.235 168.697 417.478 174.999 408.999 174.999C409.432 175.86 409.432 175.86 409.874 176.738C417.729 194.71 411.471 213.243 405.999 230.999C407.216 231.395 408.433 231.791 409.687 232.199C415.847 234.255 421.925 236.516 427.999 238.812C429.123 239.225 430.247 239.638 431.405 240.064C439.7 243.208 448.652 246.624 453.437 254.562C453.889 255.285 454.342 256.008 454.808 256.753C458.754 264.192 459.252 271.567 456.874 279.687C454.028 287.121 449.057 293.224 441.999 296.999C439.062 297.812 439.062 297.812 436.999 297.999C436.999 298.659 436.999 299.319 436.999 299.999C437.856 300.118 438.712 300.236 439.595 300.358C445.004 301.377 449.996 303.435 455.128 305.39C457.028 306.112 458.934 306.818 460.841 307.523C477.355 313.721 491.498 320.793 499.999 336.999C502.375 342.541 503.434 347.074 503.327 353.136C503.326 353.889 503.324 354.643 503.323 355.419C503.313 357.842 503.282 360.264 503.249 362.687C503.237 364.364 503.226 366.04 503.216 367.717C503.135 377.992 502.821 388.237 502.222 398.495C501.823 405.658 501.915 412.829 501.999 419.999C502.533 420.256 503.067 420.512 503.616 420.777C515.601 426.935 523.703 435.339 528.312 447.937C530.416 454.766 531.359 460.495 528.437 467.187C525.133 473.057 520.337 476.851 513.999 478.999C511.562 479.292 509.114 479.493 506.663 479.632C505.955 479.674 505.247 479.716 504.517 479.759C502.22 479.891 499.922 480.009 497.624 480.124C496.452 480.186 496.452 480.186 495.255 480.249C485.447 480.76 475.633 481.227 465.812 481.374C464.919 481.4 464.025 481.426 463.105 481.453C456.176 481.473 451.296 479.543 445.827 475.324C438.883 468.122 435.761 461.76 435.832 451.726C435.957 448.944 436.183 446.306 436.539 443.553C438.229 430.149 437.473 417.902 435.624 404.562C435.249 401.698 434.88 398.834 434.514 395.969C434.287 394.21 434.054 392.453 433.813 390.696C433.239 386.426 432.869 382.321 432.999 377.999C432.462 378.017 431.925 378.035 431.372 378.053C423.209 378.197 415.173 377.327 407.07 376.468C405.546 376.311 404.023 376.154 402.5 375.997C398.52 375.587 394.54 375.172 390.56 374.754C384.171 374.085 377.78 373.424 371.39 372.765C369.165 372.534 366.941 372.3 364.716 372.067C363.354 371.925 361.991 371.783 360.629 371.642C359.442 371.518 358.255 371.393 357.032 371.265C353.843 370.941 353.843 370.941 349.999 370.999C349.623 371.651 349.248 372.302 348.86 372.973C348.327 373.897 347.794 374.821 347.245 375.773C346.645 376.813 346.045 377.852 345.427 378.924C344.085 381.251 342.742 383.578 341.399 385.905C337.272 393.056 333.151 400.212 329.035 407.37C327.154 410.634 325.265 413.893 323.374 417.152C321.336 420.666 319.33 424.193 317.374 427.753C316.624 429.085 315.874 430.417 315.124 431.749C314.529 432.837 313.933 433.925 313.32 435.046C307.529 442.416 298.01 446.272 289.874 450.562C281.229 455.166 272.637 459.843 264.124 464.687C256.662 468.926 249.193 473.151 241.687 477.312C240.838 477.786 239.989 478.261 239.115 478.75C238.338 479.179 237.561 479.608 236.761 480.05C235.739 480.617 235.739 480.617 234.697 481.196C232.999 481.999 232.999 481.999 230.999 481.999C231.022 482.773 231.046 483.546 231.07 484.343C231.286 496.832 228.27 508.76 219.902 518.421C214.093 523.676 209.491 524.363 201.757 524.281C196.639 523.759 193.441 521.627 190.013 517.755C187.858 514.805 186.302 511.882 184.722 508.589C184.429 507.981 184.135 507.373 183.833 506.746C183.216 505.463 182.602 504.178 181.991 502.891C181.074 500.963 180.148 499.041 179.22 497.118C167.235 472.183 167.235 472.183 168.999 463.999C173.163 452.978 181.327 445.539 190.902 439.116C194.989 436.323 198.958 433.382 202.937 430.437C203.754 429.833 204.572 429.228 205.415 428.606C207.103 427.358 208.791 426.11 210.479 424.862C214.482 421.903 218.491 418.951 222.499 415.999C224.064 414.846 225.629 413.692 227.195 412.538C230.541 410.072 233.891 407.609 237.241 405.148C238.53 404.2 238.53 404.2 239.845 403.234C241.486 402.027 243.128 400.821 244.771 399.616C247.875 397.333 250.936 395.051 253.913 392.601C255.999 390.999 255.999 390.999 257.999 390.999C258.245 390.175 258.49 389.35 258.743 388.501C260.2 384.439 262.089 380.779 264.105 376.972C274.227 357.416 281.277 339.875 285.318 318.209C287.711 306.941 292.899 296.522 298.616 286.601C300.916 282.274 301.187 279.752 299.999 274.999C299.233 275.432 299.233 275.432 298.452 275.874C291.306 279.523 284.342 280.419 276.515 278.339C267.283 274.662 260.902 268.062 256.999 258.999C254.531 251.009 255.981 243.127 258.161 235.247C259.459 230.449 260.466 225.649 261.355 220.757C261.598 219.439 261.841 218.121 262.085 216.803C262.563 214.204 263.015 211.605 263.453 208.998C265.605 197.382 270.107 187.29 278.312 178.687C278.777 178.199 279.242 177.711 279.721 177.208C284.12 172.687 288.842 168.627 293.999 164.999C295.051 164.227 296.103 163.455 297.187 162.659C304.086 158.404 312.149 156.349 319.812 153.874C321.417 153.345 323.022 152.815 324.626 152.284C348.316 144.487 348.316 144.487 355.999 144.999C355.759 143.712 355.759 143.712 355.515 142.398C353.175 126.973 355.331 109.726 364.527 96.8626C379.428 78.4554 403.996 74.4398 423.999 86.9993Z" fill="black"/>
<path d="M322 288C328.131 288.622 334.138 289.488 340.191 290.629C341.437 290.86 341.437 290.86 342.709 291.095C345.327 291.581 347.945 292.072 350.562 292.562C352.352 292.895 354.142 293.228 355.932 293.561C360.288 294.37 364.644 295.184 369 296C367.627 299.657 365.977 302.956 364.016 306.332C363.418 307.365 362.819 308.398 362.203 309.463C361.559 310.568 360.914 311.674 360.25 312.812C359.573 313.98 358.896 315.147 358.219 316.314C356.151 319.879 354.076 323.44 352 327C351.395 328.038 350.79 329.076 350.166 330.146C347.873 334.079 345.578 338.011 343.281 341.941C338.261 350.536 333.289 359.159 328.322 367.786C324.563 374.308 320.777 380.812 316.928 387.282C314.59 391.232 312.312 395.212 310.071 399.219C308.64 401.779 307.202 404.335 305.764 406.891C305.053 408.16 304.345 409.432 303.642 410.706C302.65 412.503 301.644 414.293 300.637 416.082C300.056 417.126 299.476 418.17 298.878 419.245C295.755 423.827 291.721 426.315 286.895 428.883C285.921 429.405 284.947 429.927 283.943 430.465C282.91 431.013 281.877 431.561 280.812 432.125C278.631 433.293 276.45 434.463 274.27 435.633C273.198 436.207 272.126 436.781 271.022 437.372C266.993 439.543 262.994 441.765 259 444C251.701 448.066 244.39 452.111 237.062 456.125C236.013 456.706 234.963 457.288 233.881 457.887C232.901 458.422 231.92 458.957 230.91 459.508C229.597 460.229 229.597 460.229 228.258 460.965C226 462 226 462 223 462C221.826 459.9 220.66 457.795 219.5 455.688C219.166 455.093 218.832 454.498 218.488 453.885C216.932 451.042 216 449.293 216 446C217.966 444.381 219.891 442.974 222 441.562C223.299 440.665 224.598 439.765 225.895 438.863C226.573 438.394 227.252 437.924 227.952 437.44C231.254 435.119 234.469 432.686 237.688 430.25C244.506 425.105 251.373 420.028 258.266 414.983C259.725 413.913 261.18 412.836 262.628 411.751C264.135 410.639 265.661 409.552 267.21 408.501C273.388 404.124 276.405 399.668 279.551 392.859C280.25 391.415 280.25 391.415 280.963 389.942C282.434 386.888 283.873 383.819 285.312 380.75C286.296 378.706 287.281 376.663 288.268 374.621C289.218 372.639 290.167 370.656 291.113 368.672C291.546 367.766 291.978 366.861 292.423 365.928C296.129 358.018 299.737 349.883 301.273 341.238C301.455 340.272 301.637 339.307 301.824 338.312C302.006 337.322 302.188 336.332 302.375 335.312C305.707 318.38 311.323 301.817 322 288Z" fill="#33CBCA"/>
<path d="M388 304C391.319 304.603 394.397 305.407 397.565 306.563C398.441 306.881 399.317 307.198 400.219 307.526C401.159 307.87 402.098 308.215 403.066 308.57C404.055 308.93 405.044 309.289 406.062 309.659C409.23 310.811 412.397 311.968 415.562 313.125C419.688 314.629 423.815 316.131 427.941 317.633C428.955 318.002 429.968 318.371 431.012 318.752C438.462 321.461 445.936 324.099 453.44 326.655C465 330.638 475.704 334.696 481.554 346.003C483.498 350.614 483.368 354.977 483.25 359.914C483.238 360.869 483.227 361.823 483.215 362.807C483.041 374.004 482.531 385.19 482 396.375C481.903 398.491 481.807 400.607 481.711 402.723C481.479 407.815 481.241 412.908 481 418C478.667 418.34 476.334 418.672 474 419C472.701 419.186 471.401 419.371 470.062 419.562C466.02 420.069 462.071 420.073 458 420C457.304 414.363 456.61 408.725 455.919 403.087C455.684 401.174 455.448 399.26 455.212 397.347C452.798 377.797 452.798 377.797 452.239 370.003C451.85 366.743 450.963 364.618 449 362C443.133 358.841 437.536 358.268 430.961 357.719C429.894 357.62 428.826 357.521 427.727 357.419C424.277 357.102 420.826 356.801 417.375 356.5C415.015 356.286 412.655 356.07 410.296 355.853C405.652 355.426 401.008 355.004 396.364 354.584C388.319 353.852 380.284 353.036 372.25 352.188C370.48 352.002 370.48 352.002 368.673 351.812C366.115 351.544 363.558 351.273 361 351C366.666 340.126 372.705 329.521 379 319C379.436 318.27 379.872 317.54 380.322 316.789C382.874 312.521 385.434 308.259 388 304Z" fill="white"/>
<path d="M127.92 110.731C128.711 110.726 129.503 110.722 130.319 110.717C132.968 110.705 135.617 110.706 138.266 110.708C140.167 110.702 142.067 110.695 143.968 110.687C149.129 110.67 154.29 110.665 159.451 110.664C163.761 110.662 168.07 110.655 172.379 110.647C182.546 110.631 192.712 110.626 202.879 110.628C213.366 110.629 223.852 110.608 234.339 110.576C243.344 110.55 252.348 110.539 261.353 110.541C266.731 110.541 272.108 110.535 277.485 110.514C282.543 110.495 287.601 110.495 292.659 110.509C294.513 110.511 296.368 110.507 298.223 110.495C300.758 110.479 303.292 110.488 305.828 110.504C306.559 110.494 307.29 110.483 308.043 110.473C313.516 110.546 316.595 111.975 321.001 114.998C322.737 118.471 322.603 122.21 322.001 125.998C319.819 128.754 318.129 130.434 315.001 131.998C312.445 132.103 309.916 132.146 307.36 132.145C306.562 132.149 305.764 132.153 304.942 132.157C302.254 132.168 299.565 132.172 296.877 132.175C294.955 132.182 293.034 132.188 291.112 132.195C285.881 132.213 280.649 132.223 275.417 132.231C272.151 132.237 268.884 132.243 265.617 132.249C255.401 132.268 245.184 132.282 234.968 132.291C223.166 132.3 211.364 132.327 199.562 132.367C190.446 132.397 181.33 132.412 172.214 132.415C166.767 132.418 161.32 132.427 155.872 132.452C150.747 132.475 145.623 132.479 140.498 132.469C138.617 132.469 136.736 132.475 134.855 132.489C132.286 132.506 129.718 132.499 127.15 132.486C126.406 132.497 125.662 132.508 124.896 132.519C119.803 132.456 116.911 131.223 113.001 127.998C110.509 124.261 110.543 122.425 111.001 117.998C115.101 111.164 120.466 110.699 127.92 110.731Z" fill="#33CBCA"/>
<path d="M290 370C290.495 370.99 290.495 370.99 291 372C292.962 372.53 292.962 372.53 295.34 372.781C296.239 372.901 297.138 373.021 298.064 373.145C299.013 373.262 299.961 373.379 300.938 373.5C308.026 374.41 315.009 375.504 322 377C317.997 385.253 313.666 393.23 309 401.125C308.41 402.132 307.819 403.139 307.211 404.176C306.044 406.163 304.872 408.148 303.697 410.13C302.571 412.034 301.458 413.945 300.356 415.862C299.582 417.195 299.582 417.195 298.793 418.555C298.117 419.734 298.117 419.734 297.427 420.937C292.204 428.49 280.959 432.249 273.016 436.371C268.403 438.774 263.85 441.271 259.312 443.812C251.911 447.944 244.497 452.053 237.062 456.125C236.013 456.706 234.963 457.287 233.882 457.886C232.901 458.421 231.921 458.956 230.91 459.508C230.035 459.989 229.16 460.47 228.258 460.965C226 462 226 462 223 462C221.826 459.9 220.66 457.795 219.5 455.688C219.166 455.093 218.832 454.498 218.488 453.885C216.932 451.042 216 449.293 216 446C217.966 444.381 219.891 442.974 222 441.562C223.299 440.665 224.598 439.765 225.895 438.863C226.573 438.394 227.252 437.924 227.952 437.44C231.254 435.119 234.469 432.686 237.688 430.25C244.506 425.105 251.373 420.028 258.266 414.983C259.775 413.877 261.275 412.759 262.767 411.631C265 410 265 410 267.266 408.621C275.536 403.216 278.621 394.754 282.562 386.062C283.29 384.504 284.02 382.946 284.752 381.389C286.526 377.603 288.271 373.806 290 370Z" fill="white"/>
<path d="M380 177.999C383.028 179.278 384.642 180.617 386.875 182.999C389.94 191.171 386.108 201.616 384.063 209.749C383.798 210.833 383.533 211.918 383.26 213.035C382.195 217.362 381.121 221.674 379.832 225.941C379.055 228.797 378.672 231.237 378.625 234.187C378.583 235.415 378.583 235.415 378.539 236.667C379.172 239.867 380.552 240.876 383 242.999C385.619 244.399 385.619 244.399 388.559 245.515C389.658 245.958 390.757 246.401 391.889 246.857C393.646 247.546 393.646 247.546 395.438 248.249C396.637 248.729 397.836 249.208 399.071 249.702C407.529 253.07 416.022 256.353 424.551 259.537C425.746 259.985 425.746 259.985 426.965 260.441C427.652 260.695 428.339 260.95 429.047 261.212C434.646 263.468 434.646 263.468 437 266.999C437.566 271.362 437.494 273.297 434.938 276.937C431.209 279.555 429.507 279.332 425 278.999C422.232 278.366 419.58 277.481 416.899 276.55C416.14 276.296 415.382 276.041 414.601 275.779C412.189 274.966 409.782 274.139 407.375 273.312C405.783 272.775 404.191 272.239 402.598 271.704C368.63 260.24 368.63 260.24 361.891 246.785C360.734 243.167 360.618 239.76 360.625 235.999C360.625 235.174 360.626 234.349 360.626 233.499C360.787 223.809 361.846 214.19 362.875 204.562C362.962 203.733 363.049 202.905 363.139 202.051C363.393 199.659 363.659 197.268 363.93 194.878C364.007 194.158 364.084 193.438 364.164 192.696C364.776 187.51 365.551 183.576 369.125 179.687C372.897 177.473 375.727 177.289 380 177.999Z" fill="white"/>
<path d="M409.539 101.884C414.954 105.041 420.003 110.009 422 116.001C422.583 128.829 423.076 140.888 414 151.001C408.291 155.938 402.485 156.743 395.086 156.415C387.96 155.459 383.749 152.324 379.227 146.88C375.9 141.784 375.645 137.233 375.688 131.313C375.696 130.11 375.696 130.11 375.705 128.882C375.882 120.194 377.094 112.894 383.363 106.473C390.646 99.9209 400.13 98.612 409.539 101.884Z" fill="white"/>
<path d="M182.117 309.383C183.027 309.378 183.936 309.372 184.873 309.366C187.874 309.355 190.874 309.379 193.875 309.405C195.963 309.406 198.052 309.406 200.14 309.405C204.515 309.406 208.889 309.425 213.264 309.456C218.869 309.496 224.474 309.5 230.08 309.493C234.392 309.49 238.703 309.502 243.015 309.519C245.082 309.526 247.149 309.529 249.216 309.528C252.105 309.53 254.994 309.552 257.883 309.578C258.736 309.576 259.589 309.573 260.468 309.57C265.125 309.636 268.222 309.973 272 312.998C273.894 316.098 274.003 317.906 273.875 321.561C272.921 325.31 271.995 326.638 269 328.998C265.676 330.66 261.954 330.146 258.299 330.144C257.398 330.147 256.497 330.15 255.569 330.154C252.58 330.163 249.591 330.165 246.602 330.166C244.529 330.17 242.456 330.173 240.384 330.176C236.034 330.182 231.685 330.184 227.335 330.184C221.757 330.184 216.18 330.197 210.602 330.214C206.32 330.226 202.037 330.228 197.755 330.227C195.698 330.228 193.642 330.233 191.585 330.24C188.71 330.25 185.835 330.247 182.959 330.241C182.107 330.247 181.255 330.253 180.377 330.258C179.592 330.254 178.807 330.25 177.998 330.246C177.319 330.246 176.639 330.247 175.939 330.247C173.579 329.944 172.02 329.248 170 327.998C167.709 324.601 167 322.552 167 318.436C169.413 310.142 174.46 309.264 182.117 309.383Z" fill="#33CBCA"/>
<path d="M388 304C392.222 304.704 396.041 306.019 400.051 307.504C400.71 307.747 401.368 307.989 402.047 308.239C404.137 309.01 406.225 309.786 408.312 310.562C409.735 311.088 411.157 311.614 412.58 312.139C416.055 313.422 419.528 314.71 423 316C422.407 320.414 421.294 324.167 419.602 328.281C418.882 330.039 418.882 330.039 418.148 331.832C417.646 333.042 417.143 334.253 416.625 335.5C416.13 336.71 415.635 337.921 415.125 339.168C412.912 344.546 410.649 349.82 408 355C392.261 354.389 376.65 352.709 361 351C366.666 340.126 372.705 329.521 379 319C379.436 318.27 379.872 317.54 380.322 316.789C382.874 312.521 385.434 308.259 388 304Z" fill="#33CBCA"/>
<path d="M317 178C315.669 186.381 314.016 194.151 310.082 201.711C307.914 205.995 306.447 210.349 305.063 214.938C304.808 215.76 304.554 216.583 304.292 217.43C302.833 222.171 301.432 226.927 300.052 231.691C298.278 237.815 296.449 243.908 294.375 249.938C293.991 251.06 293.607 252.183 293.211 253.34C292 256 292 256 289 258C281.976 258.78 281.976 258.78 278.5 256C275.301 249.601 277.309 242.309 278.758 235.602C278.944 234.727 279.129 233.852 279.32 232.95C279.714 231.109 280.113 229.268 280.516 227.429C281.121 224.644 281.698 221.854 282.274 219.062C285.775 202.63 291.628 191.23 305.875 181.5C309.744 179.004 312.276 178 317 178Z" fill="white"/>
<path d="M168.272 206.837C169.925 206.823 169.925 206.823 171.611 206.808C172.806 206.804 174.002 206.8 175.234 206.795C176.46 206.79 177.686 206.784 178.949 206.778C181.548 206.768 184.148 206.762 186.747 206.758C190.719 206.752 194.692 206.717 198.664 206.686C201.187 206.679 203.711 206.674 206.234 206.67C207.422 206.658 208.61 206.646 209.833 206.633C216.637 206.651 221.746 206.853 226.875 211.811C228.424 214.823 228.469 216.644 228 219.998C226.276 223.317 225.087 225.451 221.707 227.153C218.784 228.066 216.429 228.258 213.371 228.273C211.714 228.287 211.714 228.287 210.023 228.302C208.248 228.301 208.248 228.301 206.437 228.299C205.213 228.303 203.989 228.308 202.728 228.312C200.143 228.318 197.557 228.318 194.971 228.314C191.015 228.311 187.058 228.334 183.101 228.36C180.588 228.362 178.075 228.363 175.562 228.362C173.787 228.375 173.787 228.375 171.976 228.39C170.871 228.383 169.767 228.377 168.629 228.371C167.66 228.371 166.691 228.372 165.693 228.373C162.467 227.924 160.617 226.914 158 224.998C155.331 220.996 155.166 217.705 156 212.998C159.821 208.172 162.296 206.879 168.272 206.837Z" fill="#33CBCA"/>
<path d="M349 172C348.546 173.114 348.093 174.227 347.625 175.375C345.439 182.056 344.931 188.909 344.29 195.868C344.01 198.893 343.716 201.916 343.42 204.94C343.136 207.852 342.859 210.764 342.583 213.677C342.446 215.124 342.308 216.571 342.167 218.017C340.193 238.535 340.439 253.356 354 270C354.99 271.485 354.99 271.485 356 273C348.53 272.65 341.27 271.397 333.938 270C332.997 269.822 332.056 269.644 331.087 269.46C324.265 268.132 324.265 268.132 322 267C323.468 253.734 325.626 240.596 327.831 227.436C328.438 223.81 329.037 220.184 329.635 216.557C330.026 214.211 330.417 211.865 330.809 209.52C330.984 208.456 331.159 207.392 331.339 206.296C335.673 180.605 335.673 180.605 342.586 174.629C344.728 173.119 346.328 172 349 172Z" fill="#33CBCA"/>
<path d="M502.82 444.574C505.863 447.727 507.311 450.426 508.16 454.734C508.322 455.536 508.485 456.337 508.652 457.163C508.824 458.072 508.824 458.072 509 459C504.093 459.289 499.185 459.574 494.278 459.854C492.614 459.95 490.95 460.047 489.286 460.145C484.562 460.424 479.839 460.681 475.113 460.9C473.171 460.992 471.231 461.097 469.291 461.203C467.7 461.257 467.7 461.257 466.078 461.312C464.73 461.368 464.73 461.368 463.356 461.426C460.151 460.846 458.984 459.524 457 457C456.574 453.906 456.574 453.906 456.687 450.5C456.712 449.376 456.736 448.252 456.761 447.094C456.957 444.558 457.346 442.435 458 440C461.603 439.658 465.207 439.328 468.812 439C469.817 438.904 470.822 438.809 471.857 438.711C493.76 436.739 493.76 436.739 502.82 444.574Z" fill="white"/>
<path d="M423 316C433.395 319.465 433.395 319.465 444 323C443.34 323.33 442.68 323.66 442 324C441.638 325.661 441.312 327.329 441 329C440.206 331.219 439.366 333.423 438.496 335.613C438.132 336.535 438.132 336.535 437.761 337.475C436.99 339.423 436.214 341.368 435.438 343.312C434.912 344.639 434.386 345.965 433.861 347.291C432.579 350.529 431.291 353.765 430 357C431.485 357.495 431.485 357.495 433 358C429.77 357.692 426.541 357.378 423.312 357.062C422.4 356.975 421.488 356.888 420.549 356.799C419.663 356.712 418.776 356.625 417.863 356.535C417.052 356.457 416.24 356.378 415.404 356.297C412.902 355.988 410.465 355.524 408 355C409.492 351.053 410.985 347.106 412.48 343.159C412.987 341.821 413.493 340.483 413.999 339.145C414.733 337.203 415.468 335.262 416.203 333.32C416.643 332.158 417.083 330.995 417.536 329.797C419.315 325.182 421.163 320.593 423 316Z" fill="#33CBCA"/>
<path d="M290 370C290.33 370.66 290.66 371.32 291 372C292.962 372.53 292.962 372.53 295.34 372.781C296.239 372.901 297.138 373.021 298.064 373.145C299.013 373.262 299.961 373.379 300.938 373.5C308.026 374.41 315.009 375.504 322 377C321.086 378.855 320.169 380.709 319.25 382.562C318.484 384.111 318.484 384.111 317.703 385.691C315.9 389.194 313.977 392.593 312 396C310.344 395.793 308.688 395.586 307.031 395.379C305.985 395.248 304.938 395.117 303.859 394.982C295.93 393.991 295.93 393.991 288 393C287.153 392.894 286.306 392.788 285.434 392.679C283.622 392.453 281.811 392.226 280 392C283.03 384.495 286.266 377.182 290 370Z" fill="#33CBCA"/>
<path d="M200 460C201.483 462.769 202.961 465.54 204.438 468.312C204.858 469.098 205.279 469.884 205.713 470.693C206.317 471.829 206.317 471.829 206.934 472.988C207.491 474.033 207.491 474.033 208.06 475.099C211.198 481.448 211.055 489.369 209.105 496.078C208.152 498.438 207.148 500.729 206 503C203.192 500.552 201.895 498.009 200.371 494.633C199.893 493.582 199.416 492.532 198.924 491.449C198.433 490.352 197.943 489.255 197.438 488.125C196.696 486.491 196.696 486.491 195.939 484.824C190 471.692 190 471.692 190 468.562C191.769 464.03 194.96 460 200 460Z" fill="white"/>
<path d="M168 315C168.66 315.99 169.32 316.98 170 318C172.059 318.724 172.059 318.724 174 319C174 319.66 174 320.32 174 321C173.34 321 172.68 321 172 321C172 321.66 172 322.32 172 323C170.02 323.99 170.02 323.99 168 325C166.875 317.25 166.875 317.25 168 315Z" fill="#33CBCA"/>
<path d="M411 347C412.32 347.33 413.64 347.66 415 348C415.33 350.31 415.66 352.62 416 355C415.34 355 414.68 355 414 355C413.34 354.01 412.68 353.02 412 352C411.01 353.485 411.01 353.485 410 355C409.34 354.67 408.68 354.34 408 354C408.99 351.69 409.98 349.38 411 347Z" fill="#33CBCA"/>
<path d="M436 321C439.96 321.99 439.96 321.99 444 323C443.01 323.495 443.01 323.495 442 324C441.67 324.99 441.34 325.98 441 327C438.69 326.34 436.38 325.68 434 325C434 324.34 434 323.68 434 323C434.66 323 435.32 323 436 323C436 322.34 436 321.68 436 321Z" fill="#33CBCA"/>
<path d="M270 322C270.66 322 271.32 322 272 322C272.33 322.99 272.66 323.98 273 325C271.688 326.354 270.354 327.687 269 329C268.67 329 268.34 329 268 329C267.875 326.625 267.875 326.625 268 324C268.66 323.34 269.32 322.68 270 322Z" fill="#33CBCA"/>
<path d="M284 387C285.5 388.375 285.5 388.375 287 390C287 390.66 287 391.32 287 392C284.69 392 282.38 392 280 392C281.75 388.125 281.75 388.125 284 387Z" fill="#33CBCA"/>
<path d="M419 326C419.66 326.33 420.32 326.66 421 327C420.746 328.482 420.471 329.961 420.188 331.438C420.037 332.261 419.886 333.085 419.73 333.934C419.489 334.616 419.248 335.297 419 336C418.01 336.33 417.02 336.66 416 337C416.672 333.194 417.727 329.648 419 326Z" fill="#33CBCA"/>
</g>
<defs>
<clipPath id="clip0_150_1341">
<rect width="640" height="640" fill="white"/>
</clipPath>
</defs>
</svg>
