<svg width="640" height="640" viewBox="0 0 640 640" fill="none" xmlns="http://www.w3.org/2000/svg">
<g clip-path="url(#clip0_150_1365)">
<path d="M427.348 92.7495C432.999 97.4284 436.765 102.434 440.001 109C440.341 109.661 440.681 110.322 441.032 111.003C446.757 124.546 442.815 142.278 438.091 155.558C433.553 165.635 424.594 173.303 414.501 177.375C413.005 177.929 411.507 178.475 410.001 179C410.217 179.501 410.434 180.002 410.657 180.519C416.751 197.08 412.172 213.87 407.001 230C407.639 230.106 408.277 230.213 408.935 230.323C416.525 231.641 423.973 233.353 431.438 235.25C432.576 235.524 433.713 235.799 434.885 236.082C445.694 238.832 456.15 242.172 462.665 251.722C467.222 259.49 468.523 267.402 466.462 276.335C463.713 284.22 459.1 289.682 452.001 294C449.69 295.068 447.358 296.036 445.001 297C445.816 297.271 446.632 297.543 447.472 297.822C450.561 298.855 453.647 299.896 456.732 300.942C458.055 301.39 459.38 301.834 460.705 302.274C477.225 307.773 492.673 314.426 502.001 330C505.961 338.348 506.777 346.424 507.188 355.562C507.261 356.925 507.335 358.287 507.41 359.649C507.596 363.1 507.759 366.552 507.912 370.004C507.997 371.923 508.087 373.843 508.176 375.762C508.715 387.515 509.065 399.232 509.001 411C509.898 411.252 509.898 411.252 510.814 411.509C521.953 414.735 530.708 421.65 536.575 431.695C540.729 439.86 542.084 446.775 541.001 456C539.509 459.279 537.605 461.538 535.001 464C534.217 464.783 533.433 465.567 532.626 466.375C526.948 469.889 519.781 470.439 513.251 471.289C512.434 471.397 511.618 471.505 510.777 471.616C509.056 471.842 507.335 472.066 505.614 472.287C503.034 472.62 500.457 472.97 497.88 473.32C468.213 477.234 468.213 477.234 459.895 471.621C454.039 466.609 448.46 460.69 447.679 452.721C447.707 450.947 447.707 450.947 447.735 449.136C447.738 447.776 447.738 446.416 447.737 445.056C447.742 443.988 447.742 443.988 447.747 442.899C447.776 424.235 444.452 407.051 440.001 389C439.586 387.315 439.177 385.629 438.778 383.941C438.625 383.31 438.471 382.679 438.313 382.029C437.899 379.341 437.953 376.714 438.001 374C436.944 374.016 435.886 374.033 434.797 374.05C422.841 374.178 411.04 373.502 399.126 372.562C395.587 372.289 392.048 372.02 388.509 371.753C387.643 371.688 386.778 371.622 385.886 371.554C378.843 371.031 371.797 370.655 364.74 370.363C359.778 370.145 354.922 369.676 350.001 369C349.731 369.714 349.461 370.428 349.182 371.165C347.989 374.028 346.612 376.654 345.094 379.359C344.521 380.383 343.948 381.407 343.357 382.461C342.744 383.547 342.132 384.632 341.501 385.75C340.866 386.878 340.232 388.007 339.578 389.17C335.794 395.885 331.937 402.547 327.982 409.162C325.231 413.805 322.6 418.51 320.005 423.242C319.65 423.887 319.296 424.532 318.931 425.197C317.154 428.44 315.383 431.687 313.62 434.938C304.372 451.934 304.372 451.934 298.001 454C296.06 454.351 294.107 454.635 292.149 454.866C290.985 455.007 289.821 455.148 288.623 455.293C286.733 455.511 286.733 455.511 284.805 455.734C283.471 455.893 282.137 456.053 280.803 456.213C277.967 456.554 275.13 456.89 272.293 457.225C267.865 457.749 263.439 458.291 259.013 458.838C234.49 461.862 234.49 461.862 222.532 463.132C218.55 463.561 214.572 464.027 210.596 464.502C208.798 464.707 206.999 464.894 205.197 465.062C195.538 465.702 195.538 465.702 187.507 470.465C185.739 473.242 184.352 476.003 183.001 479C175.037 489.28 165.282 498.452 152.016 500.449C145.42 500.825 141.106 499.754 135.844 495.722C131.769 491.914 129.138 487.837 128.861 482.122C128.869 472.303 129.298 462.547 130.008 452.755C130.129 451.035 130.24 449.314 130.342 447.593C131.561 427.015 131.561 427.015 139.141 418.632C139.837 418.135 140.534 417.637 141.251 417.125C142.279 416.355 142.279 416.355 143.329 415.57C150.92 411.108 157.794 409.312 166.501 408.25C176.792 406.827 186.81 404.772 196.876 402.25C199.654 401.555 202.433 400.861 205.212 400.168C206.268 399.903 206.268 399.903 207.346 399.634C215.245 397.671 223.178 395.865 231.121 394.093C232.689 393.743 234.256 393.391 235.823 393.037C243.521 391.298 251.116 389.63 259.001 389C259.244 388.177 259.487 387.355 259.738 386.508C261.217 382.398 263.153 378.71 265.212 374.867C275.066 356.015 281.903 340.327 283.661 318.919C285.074 306.778 290.676 293.327 298.677 284.058C300.463 281.282 300.407 279.225 300.501 275.937C300.952 266.841 302.48 257.969 304.001 249C303.626 249.736 303.25 250.472 302.864 251.23C300.09 256.519 297.663 261.133 293.001 265C292.477 265.439 291.954 265.879 291.415 266.332C285.275 271.152 278.776 272.67 271.001 272C262.534 270.447 255.771 266.791 250.399 259.964C246.05 252.958 244.152 244.487 245.501 236.312C246.969 230.45 249.09 224.779 251.173 219.113C252.569 215.283 253.84 211.426 255.079 207.543C262.356 185.015 262.356 185.015 271.001 176C271.807 175.04 271.807 175.04 272.63 174.062C281.822 163.741 296.368 156.369 309.731 153.675C310.643 153.484 311.556 153.292 312.496 153.094C314.417 152.693 316.339 152.298 318.262 151.907C321.166 151.317 324.065 150.705 326.964 150.091C336.643 148.074 346.093 146.32 356.001 146C355.671 145.01 355.341 144.02 355.001 143C353.929 127.116 355.603 110.723 366.376 98.2495C367.242 97.507 368.108 96.7645 369.001 95.9995C369.896 95.1546 369.896 95.1546 370.809 94.2925C387.218 79.0997 409.714 79.6041 427.348 92.7495Z" fill="black"/>
<path d="M323.509 291.078C332.133 292.14 340.663 293.902 349.188 295.562C350.921 295.895 352.653 296.228 354.386 296.56C358.592 297.368 362.797 298.182 367.001 299C365.71 302.39 364.243 305.521 362.454 308.675C361.946 309.573 361.438 310.471 360.915 311.395C360.366 312.358 359.817 313.32 359.251 314.312C358.674 315.327 358.098 316.342 357.504 317.387C352.854 325.554 348.131 333.678 343.384 341.788C338.325 350.429 333.323 359.101 328.328 367.778C324.9 373.727 321.443 379.657 317.938 385.562C314.458 391.431 311.101 397.363 307.78 403.323C305.97 406.569 304.146 409.806 302.321 413.043C300.31 416.619 298.36 420.21 296.493 423.863C295.767 425.221 295.04 426.579 294.313 427.937C293.732 429.081 293.151 430.224 292.552 431.402C285.899 438.177 269.363 437.265 260.095 438.382C258.279 438.604 256.463 438.825 254.648 439.046C250.866 439.507 247.084 439.966 243.302 440.423C238.451 441.009 233.601 441.6 228.752 442.192C225.013 442.648 221.275 443.102 217.536 443.556C215.747 443.773 213.957 443.991 212.168 444.209C209.677 444.512 207.186 444.813 204.694 445.113C203.586 445.249 203.586 445.249 202.456 445.387C199.615 445.728 196.866 446 194.001 446C193.169 440.961 192.893 436.187 192.938 431.062C192.943 430.378 192.947 429.694 192.952 428.99C192.964 427.326 192.982 425.663 193.001 424C194.055 423.764 195.11 423.528 196.197 423.285C206.7 420.933 217.2 418.57 227.698 416.197C231.024 415.445 234.351 414.696 237.679 413.951C241.747 413.039 245.811 412.114 249.876 411.187C251.661 410.79 251.661 410.79 253.482 410.384C266.034 408.161 266.034 408.161 275.559 400.699C276.219 399.378 276.844 398.039 277.438 396.687C277.792 395.957 278.146 395.226 278.51 394.473C279.282 392.868 280.04 391.255 280.784 389.636C282.087 386.813 283.437 384.017 284.798 381.222C286.718 377.268 288.612 373.302 290.481 369.324C291.921 366.261 293.381 363.217 294.927 360.207C299.582 350.908 301.026 341.653 302.516 331.48C304.269 319.564 307.061 309.563 313.001 299C313.662 297.727 313.662 297.727 314.337 296.429C316.843 292.271 318.535 290.478 323.509 291.078Z" fill="white"/>
<path d="M389 303C396.663 303.979 403.707 306.124 410.978 308.62C415.956 310.326 420.944 311.918 426 313.375C433.452 315.537 440.888 317.748 448.312 320C449.386 320.32 450.459 320.64 451.564 320.97C477.397 328.843 477.397 328.843 483.406 339.492C486.973 347.873 487.23 356.514 487.562 365.5C487.605 366.61 487.647 367.719 487.691 368.863C488.173 382.905 488.092 396.951 488 411C473.403 414.444 473.403 414.444 466 414C465.844 413.181 465.689 412.363 465.529 411.519C464.114 404.093 462.681 396.671 461.224 389.254C460.575 385.95 459.933 382.646 459.306 379.339C458.702 376.159 458.073 372.986 457.438 369.812C457.265 368.871 457.092 367.929 456.913 366.959C456.044 362.749 455.561 360.566 452.473 357.449C449.25 355.561 447.361 354.853 443.659 354.643C442.302 354.562 442.302 354.562 440.917 354.48C439.928 354.426 438.94 354.372 437.922 354.316C436.895 354.257 435.868 354.197 434.81 354.135C432.603 354.007 430.396 353.881 428.188 353.757C423.61 353.498 419.031 353.23 414.453 352.962C412.175 352.828 409.897 352.696 407.619 352.563C398.473 352.031 389.329 351.473 380.188 350.875C378.994 350.8 377.801 350.724 376.571 350.647C375.489 350.575 374.408 350.503 373.293 350.43C372.381 350.37 371.468 350.311 370.528 350.25C367.968 349.997 365.512 349.548 363 349C364.249 344.924 365.748 341.4 367.906 337.727C368.768 336.252 368.768 336.252 369.648 334.748C370.259 333.717 370.87 332.687 371.5 331.625C372.123 330.566 372.746 329.507 373.387 328.416C378.445 319.851 383.649 311.384 389 303Z" fill="white"/>
<path d="M108.021 110.861C108.859 110.858 109.698 110.855 110.562 110.852C113.389 110.843 116.215 110.842 119.042 110.84C121.062 110.836 123.082 110.83 125.102 110.825C130.602 110.812 136.102 110.806 141.602 110.801C145.037 110.798 148.471 110.794 151.905 110.79C162.645 110.776 173.385 110.766 184.124 110.762C196.532 110.758 208.939 110.74 221.347 110.711C230.93 110.69 240.513 110.68 250.096 110.678C255.823 110.677 261.549 110.671 267.276 110.654C272.664 110.637 278.051 110.635 283.439 110.644C285.417 110.644 287.394 110.64 289.372 110.63C292.072 110.618 294.771 110.623 297.471 110.634C298.645 110.622 298.645 110.622 299.843 110.609C305.562 110.661 309.611 111.92 313.937 115.689C315.562 119.224 315.184 122.404 314 126.001C311.43 129.18 309.878 130.709 306 132.001C303.276 132.102 300.577 132.145 297.852 132.142C297.012 132.145 296.172 132.148 295.306 132.151C292.48 132.159 289.654 132.161 286.828 132.162C284.807 132.167 282.785 132.172 280.763 132.177C275.263 132.191 269.763 132.197 264.263 132.201C260.829 132.204 257.395 132.209 253.96 132.213C243.221 132.227 232.482 132.236 221.743 132.24C209.336 132.245 196.928 132.262 184.521 132.291C174.937 132.313 165.353 132.323 155.769 132.324C150.042 132.325 144.314 132.331 138.587 132.349C133.201 132.365 127.815 132.368 122.429 132.359C120.451 132.358 118.473 132.362 116.495 132.372C113.797 132.385 111.099 132.379 108.401 132.369C107.617 132.377 106.832 132.385 106.023 132.393C101.503 132.352 98.5723 131.833 94.9998 129.001C92.3315 124.999 92.1658 121.708 92.9998 117.001C97.6092 111.179 100.982 110.853 108.021 110.861Z" fill="#33CBCA"/>
<path d="M323.508 291.078C332.133 292.14 340.662 293.902 349.188 295.562C350.92 295.895 352.652 296.228 354.385 296.56C358.591 297.368 362.796 298.182 367 299C365.709 302.39 364.242 305.521 362.453 308.675C361.945 309.573 361.438 310.471 360.915 311.395C360.365 312.358 359.816 313.32 359.25 314.312C358.385 315.834 358.385 315.834 357.503 317.387C352.289 326.544 346.979 335.644 341.656 344.738C337.618 351.642 333.619 358.569 329.625 365.5C329.29 366.081 328.955 366.662 328.609 367.261C326.739 370.507 324.869 373.753 323 377C294.607 373.803 294.607 373.803 291 372C291.546 367.143 293.151 363.402 295.375 359.125C299.251 351.254 300.784 343.634 302 335C303.918 321.838 306.421 310.7 313 299C313.441 298.151 313.882 297.303 314.336 296.429C316.843 292.271 318.534 290.478 323.508 291.078Z" fill="#33CBCA"/>
<path d="M382.001 180.999C385.582 183.133 387.512 185.135 389.001 188.999C389.05 191.693 389.05 191.693 388.755 194.788C388.645 195.941 388.536 197.094 388.423 198.282C387.623 205.328 386.653 212.347 385.655 219.368C385.38 221.315 385.11 223.263 384.841 225.21C384.599 226.916 384.599 226.916 384.352 228.657C383.579 235.367 383.579 235.367 385.19 241.804C387.33 244.398 388.795 245.098 391.974 246.132C392.955 246.454 393.936 246.775 394.947 247.106C399.746 248.51 404.572 249.728 409.438 250.874C417.389 252.82 425.318 254.812 433.188 257.062C434.416 257.393 434.416 257.393 435.669 257.731C440.633 259.187 443.682 260.82 447.001 264.999C447.626 267.999 447.626 267.999 447.001 270.999C444.526 274.374 442.937 275.773 438.849 276.761C434.293 277.043 430.849 276.234 426.501 274.999C420.071 273.26 413.635 271.676 407.114 270.316C405.73 270.022 404.346 269.729 402.962 269.435C400.906 268.999 398.85 268.569 396.788 268.159C385.51 265.91 377.335 262.748 370.29 253.417C366.138 245.629 365.534 238.238 365.532 229.519C365.524 228.347 365.517 227.176 365.509 225.969C365.498 223.505 365.495 221.042 365.5 218.579C365.501 214.813 365.459 211.048 365.415 207.283C365.41 204.882 365.407 202.482 365.407 200.081C365.391 198.959 365.374 197.837 365.357 196.681C365.434 187.997 365.434 187.997 368.413 184.307C372.723 180.464 376.375 180.289 382.001 180.999Z" fill="white"/>
<path d="M161.503 309.74C162.426 309.733 163.348 309.726 164.298 309.719C165.308 309.721 166.318 309.724 167.359 309.726C168.424 309.721 169.489 309.716 170.587 309.711C174.118 309.697 177.649 309.698 181.18 309.7C183.63 309.696 186.08 309.692 188.53 309.687C193.669 309.68 198.809 309.68 203.949 309.685C210.539 309.691 217.128 309.674 223.718 309.651C228.78 309.636 233.841 309.635 238.902 309.638C241.332 309.638 243.762 309.633 246.191 309.623C249.589 309.61 252.985 309.617 256.382 309.629C257.891 309.617 257.891 309.617 259.43 309.605C268.042 309.671 268.042 309.671 272 313.001C273.894 316.101 274.003 317.909 273.875 321.563C272.921 325.312 271.995 326.641 269 329.001C266.65 330.176 265.237 330.137 262.617 330.155C261.235 330.168 261.235 330.168 259.826 330.181C258.812 330.185 257.799 330.189 256.755 330.194C255.689 330.202 254.624 330.21 253.527 330.219C249.991 330.243 246.454 330.26 242.918 330.274C241.712 330.28 240.507 330.285 239.265 330.291C232.886 330.317 226.506 330.337 220.127 330.351C213.529 330.368 206.931 330.412 200.334 330.463C195.268 330.497 190.202 330.509 185.137 330.514C182.704 330.521 180.271 330.536 177.839 330.56C174.437 330.592 171.036 330.592 167.634 330.584C166.122 330.609 166.122 330.609 164.581 330.634C159.857 330.592 157.721 330.558 153.886 327.593C151.074 323.728 151 321.771 151 317.001C153.223 311.888 155.932 309.755 161.503 309.74Z" fill="#33CBCA"/>
<path d="M408.426 104.648C414.137 107.243 417.73 111.589 421.145 116.719C422.413 120.1 422.341 123.437 422.313 127C422.305 128.132 422.305 128.132 422.296 129.286C422.105 138.19 421.251 147.048 414.637 153.597C408.156 159.15 403.23 159.757 394.673 159.512C388.361 158.632 384.508 155.871 380.384 151.148C374.497 143.333 375.282 133.545 376.309 124.191C377.758 116.793 380.314 111.89 386.626 107.625C393.481 103.366 400.448 102.516 408.426 104.648Z" fill="white"/>
<path d="M389 303C398.404 304.201 407.088 307.203 415.995 310.305C418.655 311.227 421.327 312.116 424 313C423.414 318.149 422.23 322.794 420.496 327.684C420.132 328.734 420.132 328.734 419.761 329.806C418.992 332.019 418.215 334.228 417.438 336.438C416.912 337.947 416.386 339.457 415.861 340.967C414.581 344.647 413.293 348.324 412 352C402.095 352.13 392.32 351.758 382.438 351.062C381.098 350.974 379.759 350.886 378.42 350.799C367.814 350.075 367.814 350.075 363 349C364.249 344.924 365.748 341.4 367.906 337.727C368.768 336.252 368.768 336.252 369.648 334.748C370.259 333.717 370.87 332.687 371.5 331.625C372.123 330.566 372.746 329.507 373.387 328.416C378.445 319.851 383.649 311.384 389 303Z" fill="#33CBCA"/>
<path d="M153.06 206.724C153.763 206.718 154.466 206.713 155.19 206.708C157.51 206.694 159.829 206.695 162.148 206.697C163.765 206.694 165.382 206.689 166.998 206.684C170.386 206.677 173.773 206.677 177.161 206.683C181.494 206.688 185.827 206.671 190.16 206.648C193.499 206.633 196.838 206.633 200.177 206.636C201.774 206.635 203.371 206.63 204.969 206.62C207.206 206.607 209.443 206.614 211.681 206.626C212.953 206.625 214.224 206.625 215.534 206.624C220.156 207.123 223.525 208.572 226.875 211.811C228.424 214.822 228.47 216.644 228 219.998C226.306 223.261 225.097 225.422 221.804 227.152C218.375 228.187 215.409 228.267 211.826 228.289C211.123 228.295 210.42 228.302 209.696 228.309C207.382 228.328 205.068 228.332 202.754 228.334C201.139 228.341 199.524 228.347 197.908 228.354C194.527 228.366 191.145 228.37 187.763 228.369C183.438 228.369 179.113 228.396 174.788 228.43C171.453 228.453 168.119 228.457 164.784 228.456C163.19 228.458 161.595 228.467 160.001 228.482C157.768 228.502 155.536 228.496 153.303 228.484C151.4 228.488 151.4 228.488 149.459 228.493C145.36 227.907 143.2 226.581 140 223.998C138.123 220.67 137.431 217.79 138 213.998C142.127 207.66 145.703 206.75 153.06 206.724Z" fill="#33CBCA"/>
<path d="M348 175C348.66 175.33 349.32 175.66 350 176C349.515 176.859 349.031 177.717 348.531 178.602C346.004 184.55 346.506 191.023 346.496 197.375C346.486 198.786 346.476 200.198 346.466 201.609C346.448 204.565 346.442 207.52 346.444 210.475C346.444 214.219 346.404 217.962 346.352 221.706C346.318 224.623 346.312 227.54 346.314 230.458C346.31 231.835 346.297 233.213 346.274 234.59C346.055 248.728 349.968 261.631 360 272C361.943 273.768 363.927 275.382 366 277C366 277.33 366 277.66 366 278C357.941 277.462 350.207 276.174 342.312 274.5C340.163 274.049 338.014 273.601 335.863 273.156C334.928 272.958 333.992 272.761 333.029 272.557C329.362 271.883 325.702 271.436 322 271C323.325 258.337 325.236 245.807 327.349 233.253C327.873 230.137 328.388 227.02 328.902 223.902C330.486 214.37 332.136 204.848 334.008 195.367C334.149 194.604 334.29 193.841 334.436 193.055C336.017 185.349 339.854 180.677 346 176C346.66 175.67 347.32 175.34 348 175Z" fill="#33CBCA"/>
<path d="M321 173.001C320.567 173.743 320.134 174.486 319.688 175.251C318.018 178.452 317.478 181.592 316.813 185.126C315.561 190.553 315.561 190.553 313.137 192.489C311 193.438 311 193.438 308.938 194.059C304.316 196.305 302.533 202.949 300.453 207.434C300.119 208.149 299.785 208.863 299.44 209.599C298.374 211.878 297.312 214.158 296.25 216.438C288.299 233.499 288.299 233.499 284.172 241.911C283.632 243.017 283.091 244.123 282.534 245.263C281.181 247.677 280.188 249.336 278 251.001C273.628 251.649 271.712 251.5 268.063 248.938C265.467 245.242 265.695 243.455 266 239.001C266.839 235.858 266.839 235.858 268.012 232.684C268.441 231.507 268.869 230.329 269.311 229.116C269.765 227.902 270.22 226.689 270.688 225.438C271.123 224.252 271.558 223.065 272.006 221.843C272.886 219.443 273.772 217.045 274.663 214.649C275.577 212.156 276.468 209.664 277.329 207.154C277.756 205.919 278.182 204.684 278.621 203.411C278.998 202.3 279.375 201.189 279.764 200.044C284.614 188.108 295.846 180.498 307 175.001C311.61 173.427 316.118 172.686 321 173.001Z" fill="white"/>
<path d="M510.958 433.437C515.365 436.808 518.819 440.875 521.001 445.999C521.001 446.989 521.001 447.979 521.001 448.999C514.987 449.859 508.973 450.714 502.959 451.563C500.914 451.852 498.869 452.143 496.825 452.436C493.881 452.857 490.937 453.272 487.993 453.687C487.083 453.818 486.174 453.949 485.236 454.085C473.214 455.763 473.214 455.763 469.641 453.515C467.346 449.996 467.565 446.797 467.751 442.749C467.769 442.004 467.787 441.259 467.805 440.492C467.852 438.66 467.924 436.83 468.001 434.999C472.122 434.15 476.248 433.323 480.376 432.499C481.532 432.261 482.688 432.022 483.879 431.777C502.411 428.112 502.411 428.112 510.958 433.437Z" fill="white"/>
<path d="M172 428.999C176.124 451.991 176.124 451.991 169.938 462.316C164.763 469.482 159.213 476.257 151 479.999C150.34 479.999 149.68 479.999 149 479.999C149.241 474.674 149.517 469.352 149.825 464.03C149.947 461.924 150.064 459.817 150.179 457.71C150.37 454.326 150.589 450.944 150.812 447.562C150.87 446.478 150.928 445.395 150.988 444.279C151.06 443.26 151.132 442.24 151.207 441.191C151.264 440.285 151.32 439.38 151.378 438.447C152.175 435.31 153.546 434.051 156 431.999C161.207 429.42 166.253 428.632 172 428.999Z" fill="white"/>
<path d="M424 313C434.89 315.97 434.89 315.97 446 319C445.34 319.33 444.68 319.66 444 320C443.328 321.865 443.328 321.865 442.812 324.25C441.264 330.301 439.349 336.202 437.375 342.125C437.062 343.074 436.748 344.023 436.425 345.001C435.979 346.335 435.979 346.335 435.523 347.695C435.255 348.5 434.986 349.304 434.708 350.133C434 352 434 352 433 353C430.592 353.101 428.22 353.139 425.812 353.125C424.499 353.128 423.185 353.13 421.832 353.133C418.448 353.016 415.317 352.65 412 352C412.656 347.203 413.947 342.763 415.504 338.195C415.747 337.471 415.989 336.747 416.239 336.001C417.01 333.708 417.786 331.416 418.562 329.125C419.088 327.563 419.614 326 420.139 324.438C421.42 320.623 422.71 316.812 424 313Z" fill="#33CBCA"/>
<path d="M290 370C290.33 370.66 290.66 371.32 291 372C293.959 372.591 293.959 372.591 297.562 372.938C303.403 373.622 309.163 374.515 314.938 375.625C315.641 375.76 316.345 375.896 317.071 376.035C318.714 376.353 320.357 376.676 322 377C318.83 383.436 315.651 389.822 312 396C301.233 395.365 290.645 393.679 280 392C281.102 389.457 282.207 386.916 283.312 384.375C283.621 383.662 283.93 382.949 284.248 382.215C286.05 378.079 287.941 374.017 290 370Z" fill="#33CBCA"/>
<path d="M273 318C274.282 321.031 273.986 322.036 272.75 325.188C271 328 271 328 268 329C268 327.35 268 325.7 268 324C268.639 323.752 269.279 323.505 269.938 323.25C272.187 322.184 272.187 322.184 272.75 319.875C272.833 319.256 272.915 318.637 273 318Z" fill="#33CBCA"/>
<path d="M156 311C157 313 157 313 156.547 314.91C156.284 315.62 156.021 316.331 155.75 317.062C155.371 318.132 155.371 318.132 154.984 319.223C154 321 154 321 151 322C151.492 315.6 151.492 315.6 154.062 312.562C154.702 312.047 155.341 311.531 156 311Z" fill="#33CBCA"/>
<path d="M283 384C284.65 384.33 286.3 384.66 288 385C288 386.65 288 388.3 288 390C285.69 390.33 283.38 390.66 281 391C281.66 388.69 282.32 386.38 283 384Z" fill="#33CBCA"/>
<path d="M425 314C429.95 314.99 429.95 314.99 435 316C434.67 316.66 434.34 317.32 434 318C431.03 317.67 428.06 317.34 425 317C425 316.01 425 315.02 425 314Z" fill="#33CBCA"/>
</g>
<defs>
<clipPath id="clip0_150_1365">
<rect width="640" height="640" fill="white"/>
</clipPath>
</defs>
</svg>
