<svg width="640" height="640" viewBox="0 0 640 640" fill="none" xmlns="http://www.w3.org/2000/svg">
<g clip-path="url(#clip0_150_1413)">
<path d="M427.09 99.4905C434.797 105.673 441.443 115.092 443.001 124.998C444.425 142.114 442.092 159.233 430.993 172.858C426.211 177.996 420.534 182.354 414.001 184.998C413.011 184.998 412.021 184.998 411.001 184.998C411.303 185.8 411.606 186.603 411.918 187.429C413.041 190.408 414.158 193.388 415.273 196.369C415.756 197.659 416.241 198.948 416.728 200.236C417.428 202.089 418.12 203.944 418.813 205.799C419.232 206.914 419.651 208.03 420.083 209.179C421.001 211.998 421.001 211.998 421.001 214.998C421.805 214.768 422.609 214.537 423.438 214.299C434.712 211.172 446.114 208.813 457.581 206.507C459.121 206.183 460.655 205.833 462.181 205.447C469.882 203.546 477.209 205.154 484.001 208.998C491.314 214.187 496.217 220.111 498.001 228.998C498.905 239.239 497.195 246.303 490.751 254.311C485.729 260.24 478.226 262.488 470.938 264.373C470.177 264.578 469.416 264.782 468.632 264.992C466.091 265.671 463.546 266.336 461.001 266.998C459.081 267.502 457.162 268.006 455.243 268.51C452.277 269.288 449.31 270.062 446.34 270.824C442.106 271.913 437.884 273.011 433.696 274.268C422.521 277.555 412.121 278.696 400.989 274.655C398.875 273.842 398.875 273.842 396.001 273.998C394.797 278.077 393.615 282.162 392.438 286.248C392.096 287.407 391.754 288.566 391.401 289.76C391.082 290.875 390.763 291.99 390.434 293.139C390.136 294.165 389.837 295.192 389.53 296.249C388.667 300.732 390 303.292 392.301 307.096C393.015 308.283 393.015 308.283 393.744 309.493C394.262 310.341 394.78 311.188 395.313 312.061C395.852 312.951 396.391 313.84 396.947 314.757C401.479 322.211 406.124 329.592 410.801 336.955C416.31 345.629 421.762 354.337 427.18 363.068C428.363 364.972 429.549 366.873 430.739 368.773C443.216 388.711 450.082 408.035 453.464 431.291C454.073 435.427 454.735 439.554 455.387 443.684C456.208 448.894 457.012 454.105 457.761 459.326C458.374 463.592 459.039 467.847 459.739 472.099C459.994 473.708 460.231 475.319 460.446 476.933C461.476 486.132 461.476 486.132 466.807 493.262C469.83 494.769 472.815 495.893 476.001 496.998C484.142 503.261 491.743 512.471 493.751 522.803C494.563 529.935 495.135 536.85 491.411 543.244C488.12 547.337 483.966 550.343 479.001 551.998C477.29 552.111 475.576 552.167 473.862 552.191C472.289 552.215 472.289 552.215 470.684 552.24C465.873 552.284 461.063 552.325 456.252 552.348C453.722 552.365 451.192 552.392 448.661 552.43C445.002 552.485 441.344 552.507 437.684 552.522C436.564 552.544 435.444 552.567 434.29 552.59C425.111 552.566 418.376 549.988 411.313 544.123C404.258 536.314 400.616 527.096 400.563 516.686C400.488 507.497 398.661 498.939 396.501 490.061C396.327 489.346 396.153 488.631 395.974 487.894C394.871 483.379 393.739 478.871 392.599 474.365C391.57 470.296 390.556 466.223 389.54 462.151C388.358 457.416 387.174 452.681 385.971 447.952C385.789 447.232 385.607 446.512 385.42 445.771C385.067 444.378 384.711 442.986 384.353 441.594C383.416 437.897 382.724 434.249 382.192 430.475C381.123 424.89 377.802 421.72 373.813 417.873C372.506 416.559 371.2 415.244 369.895 413.928C369.25 413.286 368.605 412.645 367.941 411.984C362.998 406.926 358.498 401.45 354.001 395.998C351.495 401.419 349.275 406.874 347.263 412.495C341.831 427.528 334.721 444.754 319.84 452.682C314.044 455.168 308.665 457.127 302.328 457.116C301.393 457.117 300.458 457.118 299.495 457.12C298.476 457.116 297.458 457.112 296.408 457.108C294.173 457.109 291.937 457.109 289.702 457.11C288.517 457.109 287.332 457.107 286.111 457.106C279.832 457.102 273.554 457.128 267.276 457.149C259.288 457.173 251.3 457.189 243.311 457.173C236.855 457.162 230.399 457.179 223.943 457.216C221.486 457.224 219.029 457.222 216.572 457.209C213.127 457.192 209.685 457.213 206.24 457.241C205.231 457.227 204.223 457.214 203.184 457.199C196.797 457.302 193.014 458.647 187.928 462.541C179.321 469.046 165.602 469.6 155.208 469.307C148.718 468.399 144.196 464.918 140.254 459.838C136.72 454.651 135.074 449.556 135.286 443.303C136.769 436.444 140.774 430.627 144.382 424.689C146.154 421.743 147.866 418.768 149.571 415.783C150.797 413.646 152.023 411.51 153.251 409.373C153.828 408.366 154.406 407.359 155.001 406.322C161.473 395.203 166.171 387.713 179.001 383.998C188.342 382.722 194.93 383.486 203.126 387.998C212.284 392.825 219.992 392.828 230.173 392.222C234.955 391.942 239.739 391.733 244.524 391.522C254.686 391.064 264.843 390.544 275.001 389.998C282.658 369.499 289.242 349.803 290.886 327.874C291.737 316.569 293.381 305.316 298.188 294.936C300.379 289.818 300.432 284.961 300.653 279.447C301.181 270.548 303.279 261.729 305.001 252.998C304.749 253.604 304.497 254.211 304.238 254.835C303.895 255.637 303.553 256.438 303.2 257.264C302.865 258.056 302.531 258.848 302.187 259.663C300.191 263.591 297.4 266.259 294.001 268.998C293.065 269.762 293.065 269.762 292.11 270.541C285.086 275.326 277.112 274.987 269.001 273.998C260.365 271.627 254.538 265.585 249.84 258.166C244.706 247.204 248.352 234.405 251.504 223.451C253.643 215.926 255.179 208.257 256.769 200.601C259.852 186.205 263.986 173.979 276.098 164.854C289.083 156.552 302.716 154.857 317.751 153.873C319.004 153.788 320.257 153.703 321.548 153.616C333.038 152.893 344.493 152.777 356.001 152.998C355.671 152.008 355.341 151.018 355.001 149.998C353.929 134.115 355.603 117.722 366.376 105.248C367.242 104.506 368.108 103.763 369.001 102.998C369.896 102.153 369.896 102.153 370.809 101.291C387.181 86.1322 409.297 86.7857 427.09 99.4905Z" fill="black"/>
<path d="M319 298C328.771 298.512 338.148 300.532 347.688 302.562C349.275 302.896 350.863 303.228 352.451 303.561C356.302 304.367 360.152 305.181 364 306C355.31 330.959 346.264 355.782 337.102 380.572C334.996 386.275 332.918 391.987 330.871 397.711C330.205 399.558 330.205 399.558 329.526 401.442C328.76 403.57 328.002 405.702 327.255 407.838C323.94 416.988 319.589 426.641 312 433C311.231 433.792 311.231 433.792 310.446 434.6C306.619 436.79 302.883 436.392 298.55 436.341C297.115 436.341 297.115 436.341 295.652 436.342C292.491 436.34 289.332 436.316 286.172 436.293C283.98 436.287 281.789 436.283 279.597 436.28C273.83 436.269 268.063 436.239 262.296 436.206C256.411 436.175 250.526 436.162 244.641 436.146C233.094 436.114 221.547 436.063 210 436C210.466 434.576 210.934 433.153 211.404 431.73C211.664 430.938 211.925 430.145 212.193 429.329C213.312 426.099 214.668 423.061 216.188 420C216.717 418.886 217.247 417.773 217.793 416.625C220.395 413.53 221.737 413.53 225.623 413.162C230.045 412.861 234.466 412.661 238.895 412.5C239.923 412.459 240.951 412.419 242.01 412.377C245.277 412.248 248.545 412.124 251.812 412C255.069 411.876 258.326 411.751 261.583 411.623C263.602 411.544 265.621 411.467 267.641 411.393C270.429 411.283 273.214 411.145 276 411C276.993 410.963 277.985 410.925 279.008 410.887C284.611 410.636 284.611 410.636 289.555 408.271C291.147 405.768 292.174 403.477 293.113 400.66C293.471 399.607 293.829 398.553 294.197 397.468C294.565 396.344 294.933 395.22 295.312 394.062C295.701 392.908 296.089 391.754 296.489 390.565C297.284 388.196 298.074 385.824 298.858 383.451C299.917 380.25 300.991 377.054 302.07 373.859C303.737 368.914 305.396 363.967 307 359C307.373 357.891 307.745 356.783 308.129 355.641C309.335 350.601 309.644 345.597 310 340.438C312.259 311.248 312.259 311.248 319 298Z" fill="#33CBCA"/>
<path d="M378 326C378.66 326 379.32 326 380 326C381.366 327.822 381.366 327.822 382.949 330.406C383.542 331.366 384.136 332.325 384.747 333.313C385.387 334.365 386.028 335.417 386.688 336.5C388.052 338.714 389.416 340.927 390.781 343.141C391.488 344.292 392.195 345.444 392.902 346.596C395.513 350.832 398.159 355.046 400.808 359.259C403.889 364.162 406.947 369.08 410 374C410.575 374.924 411.15 375.849 411.742 376.801C427.057 401.518 432.463 425.918 436.979 454.349C437.429 457.165 437.888 459.981 438.348 462.796C438.792 465.522 439.233 468.25 439.673 470.977C439.982 472.896 440.293 474.815 440.604 476.734C440.788 477.893 440.972 479.053 441.161 480.248C441.405 481.774 441.405 481.774 441.654 483.331C442 486 442 486 442 490C433.977 490.9 426.07 491.115 418 491C415.382 481.876 412.873 472.738 410.688 463.5C410.49 462.668 410.293 461.836 410.089 460.979C408.885 455.863 407.714 450.739 406.563 445.609C405.87 442.529 405.166 439.45 404.462 436.372C404.115 434.844 403.772 433.314 403.435 431.784C402.956 429.615 402.462 427.45 401.965 425.285C401.682 424.026 401.4 422.766 401.109 421.469C399.37 416.03 396.27 412.053 392.355 407.977C391.678 407.265 391.001 406.553 390.303 405.82C389.256 404.734 389.256 404.734 388.188 403.625C384.176 399.436 380.186 395.256 376.402 390.859C374.233 388.346 372.008 385.997 369.586 383.727C369.054 383.211 368.521 382.695 367.973 382.164C366.891 381.122 365.786 380.104 364.66 379.109C363.001 377.454 361.925 376.156 361 374C361.188 370.41 362.666 367.307 364 364C364.497 362.622 364.987 361.241 365.471 359.858C366.863 355.887 368.288 351.929 369.726 347.975C370.633 345.479 371.535 342.982 372.438 340.484C373.013 338.896 373.588 337.307 374.164 335.719C374.569 334.6 374.569 334.6 374.982 333.459C376.884 328.233 376.884 328.233 378 326Z" fill="white"/>
<path d="M89.7682 110.854C90.4721 110.85 91.176 110.846 91.9013 110.843C94.2718 110.831 96.6424 110.828 99.013 110.824C100.708 110.818 102.403 110.811 104.098 110.804C108.712 110.787 113.325 110.776 117.939 110.768C120.821 110.763 123.702 110.757 126.584 110.75C135.597 110.731 144.61 110.717 153.622 110.709C164.031 110.699 174.44 110.673 184.849 110.632C192.891 110.602 200.933 110.587 208.974 110.584C213.779 110.581 218.584 110.572 223.388 110.547C227.909 110.524 232.43 110.52 236.951 110.53C238.609 110.531 240.268 110.524 241.926 110.511C244.193 110.493 246.458 110.5 248.724 110.513C249.992 110.511 251.26 110.508 252.566 110.506C256.663 111.096 258.801 112.417 262 115.001C264.26 118.39 264.215 120.04 263.617 123.997C262.621 127.233 260.58 128.925 258 131.001C255.077 132.463 252.498 132.14 249.232 132.155C248.528 132.159 247.825 132.164 247.099 132.168C244.729 132.181 242.358 132.188 239.988 132.194C238.293 132.202 236.598 132.21 234.903 132.219C229.326 132.245 223.749 132.26 218.172 132.274C216.254 132.28 214.335 132.285 212.417 132.29C204.437 132.312 196.457 132.331 188.478 132.342C177.035 132.358 165.593 132.391 154.151 132.448C146.11 132.487 138.068 132.507 130.026 132.512C125.221 132.516 120.417 132.528 115.612 132.56C111.091 132.59 106.571 132.596 102.05 132.585C100.391 132.584 98.7329 132.593 97.0745 132.61C94.8077 132.633 92.5429 132.625 90.2761 132.609C89.0085 132.612 87.7408 132.615 86.4348 132.619C81.8852 131.8 80.2559 130.231 77.0003 127.001C75.3918 123.784 75.3872 120.479 76.0003 117.001C80.3893 111.572 82.9985 110.877 89.7682 110.854Z" fill="#33CBCA"/>
<path d="M351 183.001C350.677 183.71 350.355 184.419 350.023 185.149C348.944 188.156 348.667 190.442 348.625 193.626C348.582 195.038 348.582 195.038 348.539 196.478C349.791 206.049 354.65 214.648 359.125 223.064C359.694 224.145 360.262 225.226 360.849 226.34C364.383 233.029 367.968 239.69 371.625 246.314C372.026 247.041 372.427 247.769 372.84 248.519C374.359 251.236 375.81 253.779 377.835 256.153C379 258.001 379 258.001 378.812 260.454C378.544 261.377 378.276 262.3 378 263.251C377.704 264.293 377.409 265.334 377.105 266.407C376.74 267.593 376.375 268.779 376 270.001C375.68 271.051 375.68 271.051 375.354 272.122C373.938 276.76 372.482 281.384 371 286.001C360.991 285.265 351.222 283.293 341.375 281.439C339.589 281.105 337.804 280.773 336.019 280.44C331.678 279.632 327.339 278.818 323 278.001C321.641 273.924 322.548 270.491 323.257 266.357C323.401 265.487 323.544 264.617 323.692 263.721C324.162 260.876 324.643 258.032 325.125 255.189C325.451 253.233 325.777 251.277 326.102 249.322C326.756 245.397 327.413 241.473 328.073 237.55C328.895 232.646 329.691 227.739 330.476 222.829C330.696 221.467 330.916 220.105 331.136 218.743C331.532 216.285 331.925 213.826 332.313 211.367C335.342 192.857 335.342 192.857 340.437 187.501C341.301 186.557 341.301 186.557 342.183 185.595C345.356 182.811 346.866 181.623 351 183.001Z" fill="#33CBCA"/>
<path d="M137.141 309.861C138.231 309.855 139.32 309.85 140.442 309.844C141.643 309.843 142.844 309.842 144.081 309.84C145.341 309.835 146.601 309.83 147.899 309.825C151.362 309.812 154.825 309.806 158.288 309.801C160.451 309.798 162.615 309.794 164.778 309.79C171.546 309.776 178.313 309.767 185.081 309.763C192.894 309.758 200.708 309.741 208.521 309.712C214.559 309.69 220.598 309.68 226.636 309.679C230.243 309.678 233.849 309.672 237.456 309.654C241.481 309.634 245.505 309.639 249.53 309.645C250.724 309.636 251.919 309.627 253.149 309.617C254.796 309.626 254.796 309.626 256.476 309.634C257.428 309.633 258.379 309.631 259.359 309.63C262.554 310.08 264.405 311.107 266.999 313.002C269.443 316.667 269.846 319.741 268.999 324.002C266.562 326.939 266.562 326.939 263.999 329.002C263.669 329.332 263.339 329.662 262.999 330.002C261.315 330.106 259.627 330.141 257.939 330.149C256.843 330.156 255.747 330.163 254.617 330.17C252.797 330.174 252.797 330.174 250.94 330.179C249.035 330.188 249.035 330.188 247.092 330.198C243.598 330.216 240.104 330.226 236.61 330.235C234.428 330.24 232.245 330.246 230.063 330.252C223.238 330.271 216.413 330.285 209.587 330.294C201.705 330.304 193.822 330.33 185.94 330.37C179.851 330.4 173.762 330.415 167.672 330.419C164.034 330.421 160.396 330.43 156.758 330.455C152.697 330.483 148.637 330.478 144.576 330.472C142.768 330.491 142.768 330.491 140.924 330.51C132.774 330.459 132.774 330.459 128.776 328.097C125.966 324.783 125.667 322.402 125.706 318.041C126.162 314.87 127.752 313.182 129.999 311.002C132.535 309.733 134.301 309.87 137.141 309.861Z" fill="#33CBCA"/>
<path d="M296 394C300.444 396.161 304.6 398.736 308.812 401.312C309.594 401.786 310.376 402.26 311.182 402.748C315.937 405.652 320.506 408.706 325 412C322.88 420.055 318.282 427.545 312 433C311.486 433.531 310.972 434.061 310.442 434.608C306.617 436.789 302.877 436.392 298.55 436.341C297.115 436.341 297.115 436.341 295.652 436.342C292.491 436.34 289.332 436.316 286.172 436.293C283.98 436.287 281.789 436.283 279.597 436.28C273.83 436.269 268.063 436.239 262.296 436.206C256.411 436.175 250.526 436.162 244.641 436.146C233.094 436.114 221.547 436.063 210 436C210.466 434.576 210.934 433.153 211.404 431.73C211.794 430.542 211.794 430.542 212.193 429.329C213.312 426.099 214.668 423.061 216.188 420C216.982 418.329 216.982 418.329 217.793 416.625C220.395 413.53 221.737 413.53 225.623 413.162C230.045 412.861 234.466 412.661 238.895 412.5C239.923 412.459 240.951 412.419 242.01 412.377C245.277 412.248 248.545 412.124 251.812 412C255.069 411.876 258.326 411.751 261.583 411.623C263.602 411.544 265.621 411.467 267.641 411.393C272.449 411.204 277.248 410.946 282.046 410.575C282.936 410.507 283.825 410.438 284.742 410.368C287.188 410.13 287.188 410.13 289.551 408.293C291.196 405.69 292.23 403.239 293.188 400.312C294.931 395.069 294.931 395.069 296 394Z" fill="white"/>
<path d="M379.249 183.749C383.365 183.827 385.86 184.129 388.999 186.999C392.086 192.18 394.127 197.791 396.058 203.479C396.614 205.071 397.171 206.663 397.728 208.254C398.587 210.728 399.442 213.202 400.288 215.68C401.115 218.097 401.96 220.507 402.808 222.917C403.177 224.021 403.177 224.021 403.554 225.149C405.197 229.77 406.914 233.022 410.999 235.999C416.748 236.78 422.369 235.28 427.984 234.065C428.921 233.868 429.859 233.67 430.824 233.467C432.795 233.051 434.765 232.631 436.734 232.208C439.752 231.561 442.772 230.922 445.792 230.286C447.711 229.879 449.628 229.472 451.546 229.065C452.449 228.873 453.353 228.682 454.283 228.484C455.121 228.304 455.959 228.124 456.823 227.938C457.927 227.702 457.927 227.702 459.053 227.461C461.196 226.982 461.196 226.982 463.999 225.999C469.215 225.494 469.215 225.494 471.999 225.999C474.937 228.436 474.937 228.436 476.999 230.999C477.329 231.329 477.659 231.659 477.999 231.999C477.763 238.252 477.763 238.252 474.844 241.106C471.747 243.167 469.214 244.048 465.617 244.963C464.376 245.286 463.135 245.609 461.857 245.942C460.529 246.274 459.202 246.605 457.874 246.936C456.514 247.283 455.153 247.632 453.793 247.981C451.758 248.503 449.723 249.024 447.687 249.539C443.857 250.51 440.049 251.532 436.253 252.628C426.152 255.528 416.594 257.945 406.187 254.874C405.135 254.255 404.083 253.636 402.999 252.999C402.052 252.482 402.052 252.482 401.085 251.956C394.586 247.878 391.557 241.662 388.094 235.058C386.544 232.141 384.909 229.274 383.282 226.4C381.152 222.619 379.076 218.809 376.999 214.999C376.596 214.267 376.192 213.536 375.776 212.782C367.399 197.509 367.399 197.509 368.999 189.999C371.437 186.999 371.437 186.999 373.999 184.999C375.56 183.438 377.089 183.792 379.249 183.749Z" fill="white"/>
<path d="M124.338 206.613C125.354 206.608 126.369 206.602 127.415 206.597C130.758 206.584 134.099 206.593 137.441 206.603C139.771 206.601 142.101 206.598 144.431 206.594C149.307 206.59 154.183 206.596 159.059 206.61C165.306 206.627 171.552 206.617 177.799 206.599C182.607 206.588 187.416 206.592 192.224 206.6C194.527 206.602 196.831 206.599 199.134 206.592C202.353 206.585 205.572 206.596 208.791 206.613C209.741 206.607 210.69 206.601 211.668 206.595C217.762 206.653 222.307 207.398 226.875 211.814C228.424 214.825 228.47 216.647 228 220.001C226.359 223.161 225.112 225.363 221.987 227.156C217.618 228.392 213.41 228.288 208.889 228.276C207.366 228.283 207.366 228.283 205.812 228.291C202.46 228.305 199.107 228.304 195.754 228.302C193.421 228.306 191.089 228.31 188.756 228.315C183.868 228.322 178.98 228.322 174.092 228.317C167.829 228.311 161.567 228.328 155.305 228.351C150.488 228.366 145.671 228.367 140.854 228.364C138.545 228.364 136.236 228.369 133.927 228.379C130.698 228.392 127.47 228.385 124.24 228.373C122.812 228.385 122.812 228.385 121.354 228.397C116.153 228.355 112.486 227.937 108 225.001C105.732 222.204 105.053 220.525 104.688 216.939C105.182 212.294 105.182 212.294 107 210.001C112.845 206.846 117.774 206.571 124.338 206.613Z" fill="#33CBCA"/>
<path d="M408.426 111.648C414.146 114.247 417.66 118.593 421.148 123.672C422.482 127.318 422.288 130.899 422.25 134.75C422.262 135.91 422.262 135.91 422.273 137.093C422.247 144.889 421.033 152.738 416 159C409.426 164.791 405.172 166.37 396.398 166.273C389.76 165.739 385.038 163.489 380.562 158.562C376.287 153.312 375.68 148.316 375.75 141.687C375.742 140.966 375.735 140.245 375.727 139.502C375.754 131.954 376.984 123.947 382 118C390.193 111.515 397.915 108.839 408.426 111.648Z" fill="white"/>
<path d="M378 326C378.66 326 379.32 326 380 326C381.366 327.822 381.366 327.822 382.949 330.406C383.543 331.367 384.137 332.327 384.749 333.316C385.388 334.367 386.028 335.417 386.688 336.5C388.043 338.699 389.398 340.899 390.754 343.098C391.102 343.665 391.45 344.232 391.809 344.816C394.233 348.766 396.685 352.698 399.152 356.621C399.819 357.681 400.485 358.74 401.171 359.832C402.442 361.852 403.714 363.872 404.987 365.891C408.506 371.502 411.856 377.17 415 383C414.416 383.338 413.833 383.676 413.231 384.024C404.223 389.267 395.64 395.179 387 401C382.655 397.365 378.737 393.762 375.121 389.395C373.404 387.456 371.669 385.717 369.785 383.949C369.224 383.401 368.663 382.854 368.085 382.289C366.964 381.198 365.819 380.132 364.648 379.095C362.993 377.447 361.922 376.149 361 374C361.188 370.41 362.666 367.307 364 364C364.497 362.622 364.987 361.241 365.471 359.858C366.863 355.887 368.288 351.929 369.726 347.975C370.633 345.479 371.535 342.982 372.438 340.484C373.013 338.896 373.588 337.307 374.164 335.719C374.569 334.6 374.569 334.6 374.982 333.459C376.884 328.233 376.884 328.233 378 326Z" fill="#33CBCA"/>
<path d="M324 174.999C323.59 175.711 323.18 176.424 322.758 177.159C319.82 182.38 317.302 187.138 316 192.999C315.408 193.013 314.817 193.027 314.207 193.042C313.417 193.089 312.627 193.137 311.812 193.186C311.035 193.221 310.258 193.256 309.457 193.292C305.823 194.337 304.439 196.104 302 198.999C300.501 202.098 299.44 205.307 298.371 208.577C298.055 209.503 297.738 210.429 297.412 211.383C296.407 214.334 295.421 217.291 294.438 220.249C293.446 223.191 292.451 226.132 291.452 229.072C290.833 230.896 290.219 232.723 289.612 234.551C284.784 248.907 284.784 248.907 281.188 253.124C277.757 254.496 275.509 254.001 272 252.999C269.5 250.999 269.5 250.999 268 247.999C268.376 239.907 270.443 232.054 272.274 224.19C272.806 221.901 273.33 219.61 273.854 217.319C275.521 210.057 277.256 202.814 279.137 195.604C279.447 194.415 279.757 193.225 280.077 191.999C282.079 185.492 285.605 183.014 291.5 179.749C301.938 174.868 312.653 174.664 324 174.999Z" fill="white"/>
<path d="M444.337 509.871C457.785 509.145 457.785 509.145 463.288 513.374C472.54 522.161 472.54 522.161 473.999 527.999C473.999 529.319 473.999 530.639 473.999 531.999C467.701 532.177 461.403 532.299 455.103 532.384C452.961 532.419 450.819 532.466 448.678 532.527C445.595 532.612 442.513 532.652 439.429 532.683C438.476 532.719 437.522 532.755 436.54 532.792C430.011 532.796 430.011 532.796 427.068 530.478C422.908 525.711 420.903 521.71 420.96 515.335C420.966 514.523 420.971 513.712 420.977 512.876C420.985 512.256 420.992 511.637 420.999 510.999C427.086 510.668 433.173 510.375 439.263 510.119C440.955 510.045 442.646 509.964 444.337 509.871Z" fill="white"/>
<path d="M191 405C193.929 406.075 196.298 407.399 199 409C196.967 415.744 194.28 421.959 191.125 428.25C190.703 429.121 190.282 429.993 189.848 430.891C186.027 438.556 181.689 443.223 174 447C168.483 448.505 162.68 448.091 157 448C157.533 443.539 158.614 440.433 160.914 436.586C161.511 435.577 162.108 434.567 162.723 433.527C163.35 432.487 163.978 431.447 164.625 430.375C165.532 428.849 165.532 428.849 166.457 427.293C167.678 425.239 168.904 423.188 170.134 421.14C172.66 416.89 175.1 412.591 177.533 408.288C180.564 403.561 185.906 404.43 191 405Z" fill="white"/>
<path d="M403 364C406.121 367.733 408.745 371.652 411.25 375.812C411.614 376.41 411.977 377.007 412.352 377.623C413.237 379.08 414.119 380.54 415 382C411.87 384.399 408.643 386.609 405.359 388.793C404.289 389.505 403.22 390.217 402.117 390.951C400.995 391.697 399.872 392.442 398.75 393.188C397.612 393.945 396.474 394.702 395.336 395.459C392.558 397.307 389.779 399.154 387 401C383.13 397.773 379.407 394.592 376.125 390.75C375.55 390.085 374.975 389.42 374.383 388.734C373 387 373 387 372 385C372.993 384.383 373.985 383.765 375.008 383.129C379.344 380.428 383.673 377.716 388 375C388.698 374.563 389.396 374.126 390.116 373.675C392.06 372.456 393.999 371.229 395.938 370C396.832 369.44 396.832 369.44 397.745 368.869C400.902 366.947 400.902 366.947 403 364Z" fill="#33CBCA"/>
<path d="M302 373C302.574 373.366 303.147 373.732 303.738 374.109C313.141 380.102 322.571 386.05 332 392C330.237 399.002 328.163 405.497 325 412C314.922 406.686 305.472 400.314 296 394C296.182 393.406 296.364 392.811 296.551 392.199C298.483 385.829 300.277 379.429 302 373Z" fill="#33CBCA"/>
<path d="M380 393C386.702 394.936 386.702 394.936 389 398C389 398.66 389 399.32 389 400C388.01 400.33 387.02 400.66 386 401C384.994 400.048 383.995 399.088 383 398.125C382.443 397.591 381.886 397.058 381.312 396.508C380 395 380 395 380 393Z" fill="#33CBCA"/>
<path d="M403 364C405.062 366.312 405.062 366.312 407 369C406.67 369.99 406.34 370.98 406 372C404.35 371.67 402.7 371.34 401 371C401 370.34 401 369.68 401 369C400.34 368.67 399.68 368.34 399 368C400.32 366.68 401.64 365.36 403 364Z" fill="#33CBCA"/>
<path d="M262 117C262.66 117.33 263.32 117.66 264 118C263.25 125.75 263.25 125.75 261 128C260.67 126.68 260.34 125.36 260 124C260.66 124 261.32 124 262 124C262 121.69 262 119.38 262 117Z" fill="#33CBCA"/>
</g>
<defs>
<clipPath id="clip0_150_1413">
<rect width="640" height="640" fill="white"/>
</clipPath>
</defs>
</svg>
