<svg width="640" height="640" viewBox="0 0 640 640" fill="none" xmlns="http://www.w3.org/2000/svg">
<g clip-path="url(#clip0_150_1495)">
<path d="M424.203 101.086C433.281 107.299 439.724 116.43 442.531 127.125C445.399 144.715 441.845 161.669 431.75 176.25C426.464 181.537 419.954 186.186 413 189C411.68 189 410.36 189 409 189C409.433 190.095 409.433 190.095 409.875 191.211C416.05 208.577 412.725 222.951 407.115 239.895C406.704 241.144 406.294 242.393 405.871 243.68C405.298 245.362 405.298 245.362 404.713 247.078C404.007 249.972 403.859 251.293 405 254C406.753 255.934 406.753 255.934 409.063 257.813C409.955 258.589 410.847 259.365 411.766 260.165C412.272 260.604 412.778 261.044 413.299 261.498C416.695 264.498 420 267.596 423.313 270.688C424.335 271.632 424.335 271.632 425.377 272.595C433.751 280.414 438.729 287.086 439.563 298.875C439.242 307.357 434.734 314.771 428.75 320.563C422.801 325.406 416.333 326.534 409 328C409.452 328.744 409.904 329.487 410.37 330.253C412.497 333.752 414.624 337.251 416.75 340.75C417.328 341.702 417.328 341.702 417.918 342.673C423.339 351.595 428.73 360.534 434.078 369.499C437.2 374.717 440.418 379.848 443.793 384.907C448.006 392.214 446.807 403.972 445.504 412.09C441.759 425.484 432.614 437.477 421 445C420.027 445.364 419.054 445.727 418.052 446.102C414.011 448.616 413.195 451.498 411.895 455.852C411.644 456.625 411.393 457.399 411.135 458.196C410.339 460.666 409.576 463.145 408.813 465.625C408.289 467.271 407.764 468.915 407.236 470.559C406.26 473.609 405.297 476.663 404.347 479.722C402.96 484.169 401.488 488.586 400 493C400.99 493.31 400.99 493.31 402 493.625C413.858 499.06 421.149 509.197 426 521C427.965 528.752 427.869 535.953 424 543C421.027 547.735 417.226 550.201 412 552C407.961 552.551 403.977 552.538 399.906 552.497C398.76 552.498 397.614 552.499 396.433 552.501C394.019 552.499 391.606 552.488 389.192 552.467C385.512 552.438 381.833 552.446 378.152 552.459C375.8 552.453 373.447 552.445 371.094 552.434C370.001 552.437 368.908 552.44 367.782 552.443C358.46 552.329 351.813 550.494 344.887 544.016C335.694 534.196 333.565 524.1 333 511C332.901 510.039 332.802 509.077 332.699 508.086C331.925 496.585 336.381 485.748 340 475C340.33 474.01 340.66 473.02 341 472C323.838 476.294 323.838 476.294 310.508 487.282C306.1 492.06 300.65 494.862 295 498C294.292 498.455 293.585 498.911 292.856 499.379C286.997 502.919 280.661 502.951 274 502C268.073 499.822 263.462 495.204 260 490C255.92 481.166 258.197 471.248 259.813 462C260.183 459.807 260.553 457.613 260.922 455.418C261.106 454.34 261.289 453.262 261.479 452.15C261.963 449.225 262.407 446.298 262.828 443.364C262.953 442.506 263.079 441.648 263.208 440.764C263.437 439.182 263.659 437.599 263.872 436.014C264.867 429.311 267.257 423.865 272 419C284.763 410.008 296.492 410.161 311.392 412.289C319.463 413.428 324.346 412.782 331.688 409.5C333.189 408.839 334.693 408.183 336.199 407.532C337.187 407.092 337.187 407.092 338.194 406.643C340 406 340 406 343 406C340.373 399.77 337.724 393.55 335.059 387.336C334.16 385.23 333.264 383.122 332.375 381.012C327.516 369.497 322.56 358.403 315.632 347.964C312.495 343.18 310.566 338.502 309 333C308.01 333.33 307.02 333.66 306 334C297.49 334.953 290.5 333.193 283.512 328.235C277.49 323.228 274.477 318.431 272 311C271.906 309.644 271.865 308.284 271.861 306.925C271.858 306.106 271.855 305.287 271.851 304.444C271.855 303.556 271.859 302.669 271.863 301.754C271.866 300.824 271.869 299.894 271.872 298.936C271.943 289.227 272.394 279.55 273.007 269.862C273.188 266.937 273.341 264.011 273.494 261.084C274.705 240.432 278.015 216.816 294 202C297.029 199.37 300.141 196.859 303.285 194.37C306.679 191.66 310.024 188.888 313.375 186.125C314.103 185.526 314.831 184.927 315.582 184.31C320.087 180.598 324.555 176.847 329 173.063C330.998 171.373 332.999 169.687 335 168C335.82 167.298 336.64 166.595 337.484 165.872C343.025 161.296 348.641 158 356 158C355.839 157.288 355.678 156.575 355.512 155.84C353.053 142.197 355.199 125.132 362.688 113.344C377.679 93.2747 402.903 87.9494 424.203 101.086Z" fill="black"/>
<path d="M322.001 302C324.68 302.446 327.36 302.893 330.039 303.34C332.923 303.822 335.808 304.298 338.693 304.773C343.074 305.496 347.453 306.233 351.831 306.977C353.668 307.287 355.506 307.592 357.344 307.893C360.025 308.333 362.702 308.788 365.38 309.246C366.202 309.377 367.023 309.509 367.87 309.644C371.923 310.354 374.329 310.856 377.001 314C378.336 316.085 379.609 318.17 380.852 320.309C381.224 320.939 381.595 321.569 381.977 322.218C382.779 323.578 383.578 324.939 384.375 326.302C386.506 329.941 388.653 333.572 390.798 337.203C391.452 338.313 391.452 338.313 392.12 339.445C395.975 345.974 399.882 352.47 403.82 358.949C404.872 360.682 405.92 362.417 406.968 364.152C410.21 369.503 413.501 374.803 416.95 380.023C417.562 380.964 418.174 381.904 418.804 382.872C419.93 384.593 421.075 386.302 422.244 387.993C426.133 393.976 426.994 398.92 426.001 406C422.771 416.124 416.439 424.405 407.146 429.526C403.756 431.115 400.472 432.131 396.864 433.137C389.147 435.336 381.492 437.708 373.845 440.137C372.682 440.505 371.52 440.873 370.322 441.253C365.486 442.786 360.651 444.321 355.817 445.861C352.244 446.998 348.669 448.13 345.095 449.262C344.013 449.608 342.932 449.953 341.818 450.31C335.916 452.175 330.066 453.759 324.001 455C324.201 452.641 324.421 450.291 324.688 447.938C324.896 445.985 325.042 444.024 325.126 442.062C325.387 439.059 325.845 436.785 327.001 434C328.792 432.701 328.792 432.701 331.227 431.711C332.218 431.3 333.209 430.89 334.23 430.467C335.486 429.976 336.743 429.487 338.001 429C339.629 428.36 341.257 427.719 342.885 427.078C349.583 424.457 356.288 421.854 363.007 419.29C365.905 418.182 368.797 417.059 371.688 415.934C372.579 415.598 373.469 415.263 374.387 414.917C375.212 414.593 376.037 414.269 376.888 413.935C377.612 413.657 378.336 413.379 379.082 413.093C381.439 411.75 382.554 410.275 384.001 408C385.04 404.062 384.835 400.476 382.817 396.906C380.963 394.523 378.991 392.271 377.001 390C375.282 387.82 373.575 385.632 371.876 383.438C366.616 376.723 361.24 370.105 355.848 363.496C355.361 362.897 354.874 362.297 354.372 361.679C353.134 360.163 351.879 358.661 350.622 357.16C349.001 355 349.001 355 349.001 353C348.444 352.773 347.887 352.546 347.313 352.312C344.306 350.605 342.368 348.532 340.001 346C339.195 345.219 339.195 345.219 338.372 344.422C328.207 333.962 321.797 316.483 322.001 302Z" fill="white"/>
<path d="M322.001 302C324.68 302.446 327.36 302.893 330.039 303.34C332.923 303.822 335.808 304.298 338.693 304.773C343.074 305.496 347.453 306.233 351.831 306.977C353.668 307.287 355.506 307.592 357.344 307.893C360.025 308.333 362.702 308.788 365.38 309.246C366.202 309.377 367.023 309.509 367.87 309.644C371.924 310.354 374.333 310.851 377.001 314C378.441 316.26 379.821 318.522 381.169 320.836C381.567 321.511 381.966 322.186 382.376 322.882C383.651 325.044 384.92 327.209 386.188 329.375C387.436 331.497 388.684 333.618 389.933 335.739C390.754 337.133 391.575 338.527 392.394 339.922C395.694 345.527 399.117 351.049 402.596 356.545C404.001 359 404.001 359 404.001 361C399.242 363.478 394.473 365.935 389.694 368.373C388.069 369.206 386.448 370.044 384.829 370.888C382.503 372.099 380.167 373.29 377.829 374.477C377.106 374.859 376.383 375.241 375.638 375.635C370.613 378.149 370.613 378.149 367.705 377.44C365.876 375.895 364.396 374.358 362.907 372.48C362.074 371.441 362.074 371.441 361.223 370.381C360.655 369.657 360.087 368.933 359.501 368.188C358.932 367.475 358.364 366.763 357.778 366.029C356.676 364.647 355.578 363.262 354.485 361.873C353.212 360.267 351.907 358.687 350.595 357.113C349.001 355 349.001 355 349.001 353C348.444 352.773 347.887 352.546 347.313 352.312C344.306 350.605 342.368 348.532 340.001 346C339.195 345.219 339.195 345.219 338.372 344.422C328.207 333.962 321.797 316.483 322.001 302Z" fill="#33CBCA"/>
<path d="M379.999 190.001C382.705 192.199 384.447 193.896 385.999 197.001C385.914 203.204 384.302 208.884 382.277 214.692C381.733 216.312 381.189 217.933 380.646 219.553C379.791 222.065 378.933 224.574 378.071 227.083C377.234 229.533 376.411 231.987 375.589 234.442C375.33 235.182 375.07 235.922 374.803 236.684C373.149 241.648 372.588 245.762 372.999 251.001C375.452 254.756 378.325 257.318 381.702 260.231C385.81 263.81 389.791 267.508 393.749 271.251C399.636 276.796 405.563 282.291 411.546 287.731C412.356 288.48 413.165 289.229 413.999 290.001C414.755 290.679 415.51 291.357 416.288 292.055C418.502 294.573 418.686 296.723 418.519 300.028C417.519 303.822 415.298 305.009 411.999 307.001C409.366 307.526 407.715 307.403 405.357 306.077C403.411 304.719 401.548 303.287 399.687 301.813C398.992 301.278 398.298 300.743 397.583 300.191C391.158 295.208 384.851 290.074 378.573 284.907C375.735 282.578 372.83 280.367 369.874 278.188C362.405 272.366 357.252 264.22 354.999 255.001C354.011 244.649 355.976 234.564 357.825 224.424C358.313 221.744 358.781 219.06 359.247 216.376C359.555 214.641 359.865 212.907 360.175 211.172C360.313 210.385 360.45 209.597 360.592 208.785C363.167 194.833 363.167 194.833 367.624 190.376C372.068 188.565 375.434 188.521 379.999 190.001Z" fill="white"/>
<path d="M81.5034 206.733C82.4006 206.724 83.2977 206.716 84.2221 206.707C85.6871 206.708 85.6871 206.708 87.1818 206.71C88.2164 206.703 89.251 206.696 90.3169 206.689C93.7402 206.67 97.1633 206.667 100.587 206.664C102.965 206.658 105.344 206.651 107.723 206.644C112.712 206.632 117.7 206.629 122.688 206.63C129.08 206.63 135.471 206.603 141.862 206.568C146.776 206.546 151.69 206.542 156.604 206.543C158.96 206.541 161.316 206.532 163.673 206.516C166.969 206.497 170.264 206.502 173.561 206.515C174.533 206.503 175.506 206.492 176.508 206.48C182.168 206.533 185.562 207.128 190.001 211C192.492 214.738 192.459 216.574 192.001 221C189.8 224.537 187.82 226.429 184.001 228C181.87 228.255 181.87 228.255 179.536 228.261C178.647 228.268 177.758 228.275 176.843 228.283C175.875 228.28 174.908 228.278 173.911 228.275C172.886 228.28 171.862 228.285 170.806 228.291C167.415 228.304 164.024 228.303 160.633 228.301C158.277 228.305 155.921 228.309 153.564 228.314C148.623 228.322 143.682 228.321 138.74 228.316C132.41 228.31 126.079 228.327 119.748 228.35C114.881 228.365 110.013 228.366 105.145 228.363C102.811 228.363 100.478 228.369 98.1436 228.379C94.8784 228.391 91.6139 228.384 88.3488 228.373C86.9038 228.384 86.9038 228.384 85.4297 228.396C79.2955 228.348 74.7904 227.604 70.1257 223.25C68.4805 219.96 68.555 217.629 69.0007 214C72.1899 208.875 75.5061 206.759 81.5034 206.733Z" fill="#33CBCA"/>
<path d="M415.187 120.251C419.32 124.292 422.149 128.22 422.46 134.051C422.456 135.472 422.427 136.893 422.374 138.313C422.357 139.061 422.339 139.808 422.32 140.579C421.976 150.988 420.771 158.445 412.999 166.001C407.767 170.175 402.378 170.568 395.832 170.321C388.74 169.519 383.224 166.024 378.738 160.426C373.916 152.627 375.291 142.174 376.749 133.501C378.579 125.933 381.731 121.744 387.999 117.165C396.726 112.085 407.472 114.805 415.187 120.251Z" fill="white"/>
<path d="M128.342 309.709C129.626 309.697 130.911 309.684 132.235 309.671C133.635 309.668 135.034 309.665 136.434 309.664C137.873 309.658 139.313 309.651 140.752 309.644C143.768 309.632 146.783 309.628 149.798 309.629C153.656 309.63 157.514 309.602 161.372 309.568C164.344 309.546 167.317 309.541 170.29 309.543C171.712 309.54 173.134 309.531 174.556 309.516C176.547 309.496 178.538 309.505 180.529 309.514C181.661 309.511 182.792 309.508 183.958 309.505C187.671 310.109 189.327 311.406 192 314C193.601 317.202 193.499 320.526 193 324C191.206 326.81 189.981 328.509 187 330C184.959 330.102 182.914 330.138 180.87 330.145C179.581 330.152 178.293 330.158 176.966 330.165C175.553 330.166 174.14 330.167 172.727 330.168C171.282 330.171 169.837 330.174 168.392 330.178C165.361 330.184 162.329 330.186 159.298 330.185C155.415 330.185 151.532 330.199 147.65 330.216C144.664 330.227 141.679 330.229 138.693 330.229C137.262 330.23 135.831 330.234 134.4 330.242C132.396 330.252 130.393 330.248 128.389 330.243C126.679 330.245 126.679 330.245 124.935 330.247C122.031 330.003 120.413 329.588 118 328C115.872 325.263 115.056 323.45 114.625 320C115.056 316.55 115.872 314.737 118 312C121.404 309.769 124.329 309.736 128.342 309.709Z" fill="#33CBCA"/>
<path d="M377.157 509.903C387.196 509.497 393.658 511.078 401.198 517.959C404.726 521.954 406.999 526.644 406.999 531.998C400.824 532.073 394.65 532.127 388.475 532.163C386.375 532.178 384.275 532.199 382.175 532.225C379.154 532.261 376.134 532.278 373.112 532.291C372.176 532.307 371.239 532.322 370.274 532.338C365.365 532.34 361.96 532.25 357.999 528.998C356.636 527.053 356.636 527.053 355.687 524.873C355.361 524.17 355.034 523.466 354.698 522.741C353.699 518.823 353.866 515.02 353.999 510.998C361.717 510.587 369.436 510.245 377.157 509.903Z" fill="white"/>
<path d="M298.063 431.374C298.92 431.464 299.777 431.555 300.66 431.648C303 431.999 303 431.999 306 432.999C304.603 465.225 304.603 465.225 299.188 471.187C297.375 472.577 297.375 472.577 295 473.999C294.178 474.511 294.178 474.511 293.34 475.032C282.083 481.999 282.083 481.999 279 481.999C278.692 473.999 279.637 466.393 280.875 458.499C281.049 457.34 281.223 456.181 281.402 454.987C281.911 451.654 282.452 448.327 283 444.999C283.145 444.021 283.289 443.042 283.439 442.034C283.585 441.146 283.732 440.258 283.883 439.343C284.063 438.186 284.063 438.186 284.247 437.005C285.243 434.352 286.626 433.473 289 431.999C292.142 430.844 294.761 431.006 298.063 431.374Z" fill="white"/>
<path d="M90.458 110.795C91.1979 110.79 91.9379 110.784 92.7003 110.778C94.268 110.769 95.8358 110.762 97.4035 110.758C99.7938 110.748 102.183 110.717 104.573 110.686C106.097 110.679 107.621 110.674 109.145 110.67C109.857 110.658 110.569 110.646 111.302 110.633C115.721 110.652 118.502 111.265 122.001 113.998C124.672 118.005 124.827 121.287 124.001 125.998C121.471 129.28 119.924 130.691 116.001 131.998C113.546 132.119 111.121 132.186 108.665 132.201C107.59 132.21 107.59 132.21 106.494 132.219C104.98 132.228 103.465 132.235 101.95 132.239C99.6412 132.248 97.3331 132.279 95.0244 132.311C93.5504 132.317 92.0765 132.323 90.6025 132.326C89.9159 132.339 89.2293 132.351 88.5218 132.364C84.1662 132.344 81.4868 131.621 78.0009 128.998C75.6766 126.01 75.5298 122.701 75.6064 118.967C76.2789 115.611 78.4038 114.039 81.0009 111.998C84.0183 110.49 87.147 110.815 90.458 110.795Z" fill="#33CBCA"/>
<path d="M344 188C345 190 345 190 344.168 192.523C343.59 194.244 343.59 194.244 343 196C342.329 199.193 341.823 202.411 341.309 205.633C341.158 206.547 341.008 207.461 340.854 208.403C340.377 211.31 339.907 214.217 339.438 217.125C338.963 220.04 338.488 222.954 338.011 225.868C337.715 227.677 337.421 229.487 337.129 231.297C336.996 232.118 336.862 232.94 336.724 233.786C336.608 234.505 336.492 235.224 336.373 235.965C336.118 237.356 335.815 238.74 335.472 240.112C332.448 252.209 336.937 266.315 343.164 276.721C344.722 279.184 346.353 281.595 348 284C348.495 284.99 348.495 284.99 349 286C339.883 285.276 330.984 283.657 322 282C322.616 273.667 323.795 265.495 325.18 257.258C325.393 255.972 325.607 254.687 325.826 253.363C326.276 250.658 326.729 247.954 327.183 245.25C327.759 241.823 328.328 238.395 328.894 234.967C329.444 231.647 329.999 228.327 330.555 225.008C330.755 223.797 330.955 222.586 331.161 221.339C335.345 196.568 335.345 196.568 341 190C341.99 189.34 342.98 188.68 344 188Z" fill="#33CBCA"/>
<path d="M310.999 215C312.148 218.448 311.83 220.057 311.21 223.607C311.013 224.76 310.816 225.913 310.613 227.102C310.393 228.355 310.172 229.608 309.944 230.898C309.606 232.886 309.268 234.874 308.931 236.863C308.1 241.75 307.254 246.635 306.402 251.519C302.846 271.957 299.494 292.228 301.999 313C296.534 312.393 296.534 312.393 294.323 310.77C292.553 308.404 292.626 306.936 292.636 303.996C292.635 302.962 292.634 301.928 292.633 300.863C292.651 299.732 292.668 298.602 292.687 297.438C292.703 295.67 292.703 295.67 292.721 293.866C292.856 284.739 293.176 275.618 293.639 266.502C293.711 265.068 293.779 263.634 293.841 262.199C294.505 247.571 296.329 229.321 306.718 218.152C308.374 216.75 308.374 216.75 310.999 215Z" fill="white"/>
<path d="M404.314 361.077C406.422 362.232 407.169 363.297 408.359 365.38C408.949 366.39 408.949 366.39 409.551 367.421C409.947 368.128 410.342 368.835 410.75 369.563C411.161 370.274 411.572 370.985 411.996 371.718C413.009 373.472 414.006 375.236 415 377.001C412.03 380.181 408.624 381.874 404.75 383.751C404.051 384.095 403.351 384.439 402.631 384.794C395.47 388.3 388.244 391.67 381 395.001C379.155 392.76 377.324 390.509 375.5 388.251C374.975 387.617 374.451 386.982 373.91 386.329C373.414 385.71 372.918 385.091 372.406 384.454C371.945 383.888 371.485 383.323 371.01 382.74C370 381.001 370 381.001 370 377.001C374.476 374.689 378.96 372.392 383.452 370.11C384.979 369.331 386.504 368.549 388.026 367.761C390.215 366.631 392.411 365.515 394.609 364.403C395.289 364.048 395.968 363.693 396.668 363.327C401.359 360.98 401.359 360.98 404.314 361.077Z" fill="#33CBCA"/>
<path d="M390 456C389.292 460.108 388.084 463.898 386.715 467.832C386.494 468.469 386.274 469.105 386.047 469.761C385.347 471.779 384.642 473.796 383.938 475.812C383.46 477.187 382.983 478.561 382.506 479.936C381.341 483.292 380.17 486.646 379 490C368.11 490.495 368.11 490.495 357 491C357.598 488.587 358.196 486.174 358.812 483.688C358.994 482.952 359.176 482.217 359.363 481.46C359.701 480.099 360.058 478.743 360.425 477.389C361.057 474.943 361.057 474.943 361.382 472.167C361.912 469.079 362.485 466.75 364 464C367.767 461.51 371.72 460.444 376.062 459.312C377.734 458.815 377.734 458.815 379.439 458.307C387.315 456 387.315 456 390 456Z" fill="white"/>
</g>
<defs>
<clipPath id="clip0_150_1495">
<rect width="640" height="640" fill="white"/>
</clipPath>
</defs>
</svg>
