<svg width="640" height="640" viewBox="0 0 640 640" fill="none" xmlns="http://www.w3.org/2000/svg">
    <g clip-path="url(#clip0_150_1142)">
        <path d="M398.938 95.625C400.201 95.6076 400.201 95.6076 401.491 95.5898C412.089 95.6388 420.711 99.4713 429 106C434.127 111.264 438.279 117.157 441 124C441.357 124.893 441.715 125.787 442.082 126.707C443.198 130.71 443.344 134.303 443.313 138.438C443.308 139.224 443.303 140.011 443.298 140.822C442.993 156.332 439.271 169.313 428.465 180.73C422.487 186.235 417.1 189.119 409 190C413.485 200.546 413.485 200.546 418.438 210.875C420 214 420 214 420 216C420.926 215.671 421.851 215.343 422.805 215.004C424.909 214.257 427.014 213.514 429.123 212.779C433.912 211.106 438.676 209.378 443.426 207.598C470.317 197.66 470.317 197.66 483.5 203.562C488.419 206.355 491.933 209.256 495 214C495.41 214.571 495.82 215.142 496.243 215.73C500.097 221.964 499.796 228.911 499 236C496.638 245.102 492.015 251.088 484 256C480.459 257.696 476.829 259.122 473.168 260.539C472.137 260.947 471.105 261.354 470.042 261.774C467.868 262.631 465.692 263.483 463.514 264.33C460.205 265.618 456.902 266.921 453.6 268.227C451.477 269.061 449.354 269.894 447.231 270.727C446.254 271.111 445.278 271.495 444.272 271.892C435.449 275.317 427.064 278.564 417.5 278.375C416.771 278.368 416.042 278.362 415.291 278.355C408.753 278.193 402.875 276.937 397 274C396.746 275.039 396.492 276.078 396.231 277.148C395.884 278.557 395.536 279.966 395.188 281.375C395.008 282.104 394.829 282.834 394.644 283.585C393.438 288.428 392.068 293.173 390.418 297.887C389.563 302.212 391.144 305.657 393.371 309.301C393.858 310.104 394.344 310.907 394.845 311.735C395.371 312.585 395.896 313.436 396.438 314.312C396.983 315.207 397.528 316.101 398.089 317.023C401.662 322.872 405.279 328.693 408.926 334.495C415.088 344.302 421.14 354.177 427.191 364.053C428.727 366.555 430.27 369.052 431.817 371.547C438.988 383.193 446.051 395.121 446.411 409.103C446.431 409.775 446.451 410.448 446.471 411.141C446.534 413.349 446.584 415.557 446.633 417.766C446.674 419.324 446.716 420.883 446.759 422.442C446.847 425.71 446.929 428.978 447.006 432.246C447.103 436.378 447.211 440.51 447.322 444.641C447.754 460.76 448.174 476.874 448 493C448.623 493.202 449.245 493.403 449.887 493.611C450.701 493.878 451.515 494.145 452.354 494.419C453.162 494.683 453.97 494.946 454.802 495.218C464.109 498.53 471.61 507.844 475.938 516.375C478.842 522.577 480.489 528.461 478.282 535.191C475.362 541.395 471.182 545.909 465 549C461.722 549.787 458.643 550.135 455.277 550.177C454.369 550.19 453.46 550.203 452.524 550.216C451.068 550.227 451.068 550.227 449.582 550.238C448.57 550.246 447.558 550.254 446.514 550.263C444.374 550.277 442.233 550.287 440.092 550.295C437.915 550.307 435.738 550.327 433.561 550.357C430.401 550.4 427.242 550.416 424.082 550.426C422.641 550.452 422.641 550.452 421.171 550.479C410.444 550.445 402.78 546.736 395.125 539.332C388.935 532.539 387.454 523.92 385.498 515.165C385.036 513.154 384.523 511.155 384.007 509.157C382.568 502.645 382.334 496.035 381.965 489.395C381.881 487.984 381.797 486.573 381.712 485.162C381.491 481.464 381.278 477.765 381.067 474.067C380.812 469.609 380.546 465.152 380.282 460.695C380.076 457.219 379.872 453.742 379.672 450.266C379.526 447.74 379.377 445.215 379.223 442.689C379.071 440.176 378.928 437.662 378.792 435.148C378.718 433.918 378.645 432.688 378.569 431.421C378.508 430.329 378.446 429.237 378.383 428.112C377.781 423.212 376.835 419.147 372.953 415.93C372.355 415.426 371.757 414.922 371.141 414.402C370.517 413.898 369.893 413.394 369.25 412.875C368.642 412.363 368.033 411.851 367.407 411.324C363.752 408.287 360 405.564 356 403C355.746 404.29 355.492 405.581 355.231 406.91C354.097 411.993 352.354 416.656 350.313 421.438C349.958 422.269 349.604 423.101 349.239 423.958C341.046 442.646 327.533 453.119 309.067 460.836C305.204 462.302 301.98 463.126 297.848 463.111C297.029 463.111 296.209 463.11 295.364 463.11C294.474 463.105 293.583 463.1 292.665 463.094C290.705 463.091 288.746 463.089 286.787 463.086C285.748 463.083 284.71 463.08 283.64 463.077C278.124 463.066 272.608 463.086 267.092 463.102C260.081 463.12 253.07 463.129 246.059 463.1C240.387 463.077 234.716 463.089 229.044 463.123C226.892 463.129 224.739 463.124 222.587 463.105C211.186 463.013 202.206 462.949 192.434 469.402C187.482 472.655 182.361 472.183 176.625 472.188C175.787 472.2 174.95 472.212 174.086 472.225C165.926 472.244 160.787 470.505 154.77 464.914C150.557 460.357 149.183 455.029 149.411 448.953C150.605 442.972 153.776 437.758 156.678 432.455C158.148 429.726 159.555 426.971 160.957 424.207C161.992 422.18 163.027 420.152 164.063 418.125C164.545 417.175 165.026 416.224 165.523 415.245C171.067 404.541 176.73 394.568 188.188 389.625C201.562 387.433 209.573 390.48 221 397C230.042 401.521 247.345 397.366 257.188 396.5C267.477 395.6 277.658 394.722 288 395C288.058 394.319 288.115 393.639 288.175 392.937C288.525 388.795 289.014 384.817 289.957 380.766C291.064 375.935 291.706 371.102 292.313 366.188C293.275 358.64 294.5 351.192 295.947 343.722C297.967 333.197 299.569 322.77 300.188 312.062C300.267 311.021 300.345 309.979 300.427 308.905C300.768 303.805 300.768 303.805 298.74 299.327C296.958 297.812 296.958 297.812 294 296C285.463 286.314 284.024 270.227 281.336 257.948C280.808 255.54 280.273 253.134 279.737 250.729C279.393 249.175 279.05 247.621 278.707 246.066C278.55 245.359 278.393 244.652 278.231 243.923C274.409 226.395 274.172 211.734 283.875 196.188C289.695 187.457 297.109 182.915 306.375 178.312C307.566 177.71 308.757 177.107 309.947 176.503C313.62 174.646 317.309 172.821 321 171C322.174 170.419 323.348 169.837 324.557 169.238C327.908 167.585 331.264 165.944 334.625 164.312C335.636 163.82 336.648 163.327 337.689 162.82C343.37 160.101 348.981 157.856 355 156C354.966 155.031 354.931 154.061 354.895 153.062C354.511 137.661 355.761 122.75 366.11 110.504C375.422 100.726 385.344 95.4386 398.938 95.625Z"
              fill="black"/>
        <path d="M322.001 304C337.663 303.66 360.789 305.067 373.977 314.021C378.28 318.639 380.479 324.092 382.701 329.929C385.129 335.665 388.654 340.767 392.001 346C393.361 348.204 394.716 350.409 396.067 352.618C398.562 356.673 401.069 360.72 403.591 364.758C408.554 372.709 413.488 380.667 418.126 388.813C418.48 389.429 418.835 390.044 419.2 390.679C427.027 404.654 426.126 419.438 426.447 435.011C426.702 447.338 426.987 459.652 427.694 471.963C428.051 478.324 428.077 484.629 428.001 491C419.751 491 411.501 491 403.001 491C402.796 487.856 402.591 484.712 402.38 481.473C402.178 478.405 401.976 475.337 401.774 472.269C401.635 470.148 401.496 468.027 401.358 465.905C401.159 462.845 400.957 459.784 400.755 456.723C400.694 455.785 400.634 454.847 400.572 453.881C400.239 448.892 399.791 443.938 399.213 438.971C398.945 436.476 398.826 433.993 398.755 431.485C398.706 430.073 398.706 430.073 398.655 428.633C398.594 426.696 398.536 424.758 398.483 422.821C398.192 414.838 396.984 410.508 391.181 404.946C387.825 401.951 384.328 399.14 380.825 396.321C378.143 394.117 375.565 391.84 373.001 389.5C369.605 386.405 366.139 383.449 362.563 380.563C357.735 376.655 353.133 372.55 348.563 368.344C346.344 366.314 344.094 364.335 341.813 362.375C340.542 361.252 339.271 360.127 338.001 359C337.333 358.434 336.665 357.869 335.977 357.286C326.999 349.15 320.662 335.962 319.857 323.839C319.208 308.172 319.208 308.172 322.001 304Z"
              fill="#33CBCA"/>
        <path d="M314 364C317.892 367.168 321.45 370.445 325 374C327.022 375.918 329.071 377.805 331.125 379.688C331.65 380.173 332.174 380.658 332.715 381.158C335.065 383.315 337.339 385.226 340 387C338.648 393.874 336.609 400.169 334.062 406.688C333.715 407.598 333.368 408.509 333.01 409.447C327.67 423.294 320.253 433.316 306.787 440.118C297.854 443.876 289.153 443.51 279.645 443.391C277.889 443.383 276.134 443.377 274.378 443.373C269.793 443.358 265.208 443.319 260.623 443.275C255.931 443.233 251.238 443.215 246.545 443.195C237.363 443.153 228.182 443.084 219 443C220.877 438.251 223.107 433.819 225.5 429.312C225.903 428.541 226.307 427.769 226.723 426.975C227.113 426.237 227.504 425.499 227.906 424.738C228.26 424.068 228.614 423.398 228.979 422.708C230 421 230 421 232 419C234.744 418.597 234.744 418.597 238.282 418.377C238.926 418.335 239.571 418.292 240.234 418.248C241.635 418.156 243.035 418.069 244.436 417.985C246.657 417.851 248.876 417.703 251.095 417.553C257.406 417.126 263.718 416.719 270.032 416.328C273.893 416.088 277.753 415.831 281.612 415.563C283.081 415.464 284.549 415.372 286.019 415.288C288.081 415.169 290.14 415.027 292.2 414.881C293.371 414.807 294.542 414.734 295.748 414.657C299.623 413.874 301.922 412.449 305 410C307.248 405.3 307.736 400.042 308.473 394.918C308.665 393.636 308.665 393.636 308.86 392.328C309.266 389.615 309.665 386.901 310.062 384.188C310.464 381.456 310.867 378.724 311.275 375.994C311.529 374.298 311.778 372.602 312.023 370.906C312.888 365.112 312.888 365.112 314 364Z"
              fill="white"/>
        <path d="M407 370C408.341 371.829 408.341 371.829 409.863 374.391C410.419 375.322 410.974 376.253 411.546 377.213C412.129 378.215 412.712 379.217 413.312 380.25C414.197 381.769 414.197 381.769 415.099 383.318C425.071 400.657 426.041 415.367 426.446 435.011C426.701 447.338 426.986 459.652 427.693 471.962C428.05 478.323 428.076 484.629 428 491C419.75 491 411.5 491 403 491C402.795 487.856 402.59 484.712 402.379 481.473C402.177 478.405 401.975 475.336 401.773 472.268C401.634 470.147 401.495 468.026 401.357 465.905C401.158 462.844 400.956 459.783 400.754 456.723C400.693 455.785 400.633 454.847 400.571 453.881C400.238 448.891 399.79 443.937 399.212 438.971C398.944 436.476 398.825 433.992 398.754 431.484C398.721 430.543 398.688 429.602 398.654 428.633C398.593 426.695 398.535 424.758 398.482 422.82C398.192 414.851 396.986 410.533 391.211 404.965C387.717 401.86 384.047 398.98 380.355 396.113C378.086 394.077 377.236 392.707 376 390C376.523 389.643 377.046 389.286 377.585 388.918C380.016 387.258 382.445 385.598 384.875 383.938C385.743 383.345 386.611 382.752 387.506 382.142C392.812 378.515 398.083 374.85 403.285 371.074C405 370 405 370 407 370Z"
              fill="white"/>
        <path d="M388 199C388.66 199 389.32 199 390 199C395.186 208.94 392.852 218.062 389.875 228.438C389.557 229.58 389.24 230.722 388.912 231.899C386.823 239.335 384.588 246.718 382.207 254.066C379.996 260.899 378.021 267.792 376.092 274.71C374.552 280.198 372.853 285.609 371 291C365.121 291.247 359.856 290.329 354.125 289.062C353.259 288.88 352.392 288.698 351.5 288.51C345.139 287.139 345.139 287.139 344 286C344.02 283.736 344.08 281.473 344.156 279.211C344.313 269.109 342.424 259.503 340.5 249.625C339.998 246.972 339.5 244.318 339.002 241.664C338.694 240.029 338.383 238.395 338.067 236.762C337 231.211 337 231.211 337 229C338.013 228.668 339.026 228.336 340.07 227.994C343.871 226.744 347.666 225.476 351.459 224.203C353.094 223.657 354.73 223.116 356.367 222.58C372.623 217.725 372.623 217.725 384.5 206.312C384.964 205.566 385.428 204.82 385.906 204.051C387.126 201.902 387.126 201.902 388 199Z"
              fill="#33CBCA"/>
        <path d="M363.001 178.001C366.337 180.059 367.827 181.74 370.001 185.001C370.465 189.103 370.326 191.389 368.376 195.059C365.581 198.52 363.81 199.328 359.626 200.751C358.967 200.983 358.308 201.216 357.629 201.455C353.254 202.978 348.838 204.375 344.425 205.783C341.714 206.651 339.007 207.529 336.299 208.407C334.273 209.056 332.242 209.684 330.21 210.31C328.937 210.718 327.664 211.126 326.391 211.536C325.257 211.89 324.123 212.245 322.955 212.61C319.515 214.229 318.03 215.813 316.001 219.001C315.391 224.51 316.587 229.642 317.751 235.001C318.117 236.77 318.482 238.539 318.844 240.309C319.034 241.233 319.223 242.157 319.419 243.11C320.42 248.084 321.35 253.07 322.251 258.063C322.426 258.989 322.601 259.916 322.781 260.87C325.656 277.034 325.656 277.034 322.501 282.688C319.059 284.495 315.795 285.008 312.001 284.001C308.179 280.902 307.167 278.148 306.016 273.426C305.855 272.775 305.693 272.124 305.527 271.453C305.001 269.306 304.499 267.154 304.001 265.001C303.826 264.259 303.652 263.518 303.472 262.754C302.368 258.048 301.31 253.333 300.281 248.61C299.747 246.171 299.198 243.735 298.649 241.299C293.701 218.922 293.701 218.922 300.001 209.001C304.351 202.709 309.533 199.645 316.313 196.313C317.309 195.812 318.304 195.311 319.329 194.795C321.448 193.733 323.57 192.68 325.696 191.634C329.063 189.97 332.409 188.267 335.755 186.559C337.961 185.454 340.168 184.351 342.376 183.251C343.402 182.725 344.429 182.2 345.486 181.658C351.674 178.634 356.101 177.231 363.001 178.001Z"
              fill="white"/>
        <path d="M412.73 119.363C416.929 122.391 419.703 126.406 422 131C423.31 155.157 423.31 155.157 415.688 164.5C411.933 168.63 407.967 170.743 402.414 171.468C394.645 171.532 388.818 171.501 383 166C378.688 161.755 376.208 157.676 375.734 151.582C375.823 130.252 375.823 130.252 383.605 122.375C392.24 114.445 402.545 113.765 412.73 119.363Z"
              fill="white"/>
        <path d="M475.001 222C477.501 224.125 477.501 224.125 479.001 227C479.001 230.661 478.759 232.974 476.563 235.949C472.76 238.994 468.526 240.5 464.013 242.258C462.548 242.842 462.548 242.842 461.053 243.437C458.99 244.257 456.925 245.072 454.857 245.883C451.706 247.118 448.561 248.369 445.417 249.622C443.407 250.418 441.398 251.214 439.388 252.008C438.452 252.379 437.516 252.75 436.552 253.132C426.888 256.914 417.732 260.193 407.438 256.688C406.304 256.131 405.17 255.574 404.001 255C402.61 250.829 404.098 247.818 405.438 243.813C405.681 243.063 405.924 242.314 406.175 241.541C406.775 239.692 407.387 237.846 408.001 236C408.774 236.495 408.774 236.495 409.563 237C416.238 239.739 422.509 237.105 428.88 234.79C429.81 234.461 430.74 234.133 431.699 233.795C434.657 232.749 437.61 231.687 440.563 230.625C442.552 229.919 444.541 229.213 446.53 228.508C450.183 227.213 453.834 225.912 457.483 224.604C458.267 224.326 459.05 224.048 459.858 223.762C461.702 223.107 463.543 222.444 465.383 221.779C468.99 220.706 471.39 220.997 475.001 222Z"
              fill="white"/>
        <path d="M314 364C317.892 367.168 321.45 370.445 325 374C327.022 375.918 329.071 377.805 331.125 379.688C331.65 380.173 332.174 380.658 332.715 381.158C335.065 383.315 337.339 385.226 340 387C338.674 393.577 336.843 399.717 334.5 406C334.192 406.857 333.884 407.714 333.566 408.598C333.266 409.411 332.966 410.224 332.656 411.062C332.386 411.796 332.116 412.529 331.838 413.285C331 415 331 415 329 416C327.076 415.227 327.076 415.227 324.754 413.98C323.917 413.535 323.079 413.09 322.217 412.631C321.341 412.155 320.465 411.678 319.562 411.188C318.254 410.49 318.254 410.49 316.92 409.779C313.516 407.956 310.216 406.144 307 404C307.831 398.463 308.667 392.927 309.509 387.392C309.794 385.508 310.078 383.623 310.361 381.738C310.767 379.034 311.178 376.332 311.59 373.629C311.716 372.781 311.842 371.933 311.972 371.059C312.886 365.114 312.886 365.114 314 364Z"
              fill="#33CBCA"/>
        <path d="M202 410C204.802 411.482 207.409 413.176 210 415C208.357 421.039 205.28 426.175 202.188 431.562C201.666 432.495 201.145 433.428 200.607 434.389C197.829 439.256 195.224 443.301 191 447C190.381 447.557 189.762 448.114 189.125 448.687C183.123 452.394 176.802 452.246 170 452C171.601 447.72 173.637 443.718 175.773 439.687C176.138 438.996 176.503 438.305 176.88 437.592C177.65 436.136 178.421 434.681 179.194 433.226C180.37 431.01 181.537 428.79 182.703 426.57C183.455 425.151 184.208 423.731 184.961 422.312C185.306 421.654 185.651 420.996 186.006 420.317C192.649 407.888 192.649 407.888 202 410Z"
              fill="white"/>
        <path d="M406 511C410.677 510.9 415.354 510.828 420.032 510.78C421.62 510.76 423.207 510.733 424.795 510.698C434.808 510.484 443.07 510.486 451.34 516.781C451.867 517.348 452.394 517.916 452.938 518.5C453.483 519.067 454.028 519.634 454.59 520.219C456.94 523.187 458 525.177 458 529C451.986 529.124 445.973 529.214 439.958 529.275C437.913 529.3 435.869 529.334 433.824 529.377C430.88 529.438 427.937 529.466 424.992 529.488C424.083 529.514 423.173 529.54 422.236 529.566C417.889 529.568 414.926 529.417 411.453 526.646C408.823 523.809 407.952 522.053 407.125 518.312C406.901 517.36 406.676 516.407 406.445 515.426C406 513 406 513 406 511Z"
              fill="white"/>
        <path d="M407 370C408.672 372.388 410.195 374.754 411.688 377.25C412.116 377.932 412.545 378.614 412.986 379.316C413.387 379.98 413.787 380.644 414.199 381.328C414.569 381.936 414.938 382.543 415.319 383.169C416.21 385.563 415.991 386.661 415 389C413.545 390.385 413.545 390.385 411.684 391.621C411.001 392.082 410.318 392.543 409.615 393.018C408.537 393.72 408.537 393.72 407.438 394.438C406.746 394.902 406.054 395.367 405.342 395.846C400.624 398.998 395.826 402.017 391 405C390.336 404.397 389.672 403.793 388.988 403.172C388.105 402.373 387.222 401.573 386.312 400.75C385.442 399.961 384.572 399.172 383.676 398.359C381.893 396.787 380.054 395.275 378.168 393.828C377.453 393.225 376.737 392.622 376 392C376 391.34 376 390.68 376 390C377.585 388.691 377.585 388.691 379.805 387.207C381.015 386.389 381.015 386.389 382.25 385.555C383.116 384.98 383.983 384.405 384.875 383.812C386.621 382.639 388.368 381.464 390.113 380.289C390.957 379.723 391.801 379.158 392.67 378.575C396.261 376.147 399.777 373.62 403.285 371.074C405 370 405 370 407 370Z"
              fill="#33CBCA"/>
        <path d="M314 364C317.892 367.168 321.45 370.445 325 374C327.022 375.918 329.071 377.805 331.125 379.688C331.65 380.173 332.174 380.658 332.715 381.158C335.065 383.315 337.339 385.226 340 387C339.34 389.97 338.68 392.94 338 396C334.077 395.403 331.16 394.2 327.699 392.277C326.723 391.739 325.746 391.201 324.74 390.646C323.733 390.083 322.725 389.519 321.688 388.938C320.661 388.37 319.634 387.802 318.576 387.217C316.047 385.817 313.522 384.411 311 383C311.14 381.088 311.286 379.177 311.434 377.266C311.514 376.201 311.595 375.137 311.677 374.04C312.056 370.469 312.845 367.389 314 364Z"
              fill="#33CBCA"/>
        <path d="M317.938 112.313C320.351 114.288 321.815 115.959 322.371 119.087C322.499 123.501 322.475 125.385 319.688 129.001C315.363 132.219 311.255 132.567 306 132.001C301.977 130.436 300.409 129.613 298 126.001C297.455 122.935 297.462 120.068 298 117.001C302.997 110.519 310.486 108.984 317.938 112.313Z"
              fill="#33CBCA"/>
        <path d="M382 386C384 388 384 388 384 391C381.688 391.625 381.688 391.625 379 392C378.01 391.34 377.02 390.68 376 390C377.98 388.68 379.96 387.36 382 386Z"
              fill="#33CBCA"/>
        <path d="M306 111C307.458 110.946 308.916 110.907 310.375 110.875C311.187 110.852 311.999 110.829 312.836 110.805C315 111 315 111 317 113C317 113.99 317 114.98 317 116C316.34 116 315.68 116 315 116C315 115.34 315 114.68 315 114C314.34 114 313.68 114 313 114C313 113.34 313 112.68 313 112C310.69 112 308.38 112 306 112C306 111.67 306 111.34 306 111Z"
              fill="#33CBCA"/>
        <path d="M303 112C303.33 113.32 303.66 114.64 304 116C303.01 116.66 302.02 117.32 301 118C300.67 118.66 300.34 119.32 300 120C299.34 119.67 298.68 119.34 298 119C299.293 116.116 300.659 114.128 303 112Z"
              fill="#33CBCA"/>
        <path d="M386 383C386.99 383.33 387.98 383.66 389 384C388.34 385.32 387.68 386.64 387 388C385.68 387.34 384.36 386.68 383 386C383.99 385.01 384.98 384.02 386 383Z"
              fill="#33CBCA"/>
    </g>
    <defs>
        <clipPath id="clip0_150_1142">
            <rect width="640" height="640" fill="white"/>
        </clipPath>
    </defs>
</svg>
