<svg width="640" height="640" viewBox="0 0 640 640" fill="none" xmlns="http://www.w3.org/2000/svg">
<g clip-path="url(#clip0_150_1589)">
<path d="M428.562 90.5638C436.605 97.8384 442.538 107.848 443.238 118.693C443.74 136.48 440.421 152.571 428.136 165.923C422.588 171.32 416.362 173.905 408.999 176.001C409.474 177.053 409.948 178.105 410.437 179.189C417.927 195.797 410.931 214.753 405.999 231.001C406.549 231.03 407.099 231.059 407.665 231.088C416.968 231.749 426.073 233.494 435.224 235.22C438.056 235.75 440.892 236.259 443.728 236.767C461.327 240.017 461.327 240.017 468.999 245.001C469.928 245.599 470.856 246.198 471.812 246.814C477.544 252.546 480.144 258.493 480.312 266.564C480.211 275.479 478.4 281.765 472.312 288.376C465.348 294.7 459.129 296.564 449.773 296.275C442.488 295.747 435.245 294.912 427.999 294.001C428.723 294.232 429.447 294.463 430.192 294.701C487.086 312.953 487.086 312.953 499.589 334.974C502.377 340.958 503.292 346.497 503.226 353.048C503.227 353.82 503.227 354.591 503.227 355.386C503.226 357.913 503.21 360.439 503.195 362.966C503.191 364.727 503.188 366.489 503.186 368.25C503.179 372.868 503.159 377.486 503.137 382.103C503.116 386.823 503.107 391.542 503.097 396.261C503.076 405.508 503.042 414.755 502.999 424.001C503.758 424.409 504.517 424.816 505.298 425.235C506.788 426.04 506.788 426.04 508.309 426.861C509.787 427.658 509.787 427.658 511.295 428.47C520.049 433.427 526.533 441.069 530.999 450.001C531.763 457.912 531.312 465.166 526.999 472.001C521.363 478.269 516.147 481.999 507.582 482.533C506.902 482.566 506.223 482.6 505.523 482.634C504.444 482.697 504.444 482.697 503.344 482.761C501.021 482.893 498.698 483.011 496.374 483.126C495.585 483.167 494.797 483.208 493.984 483.25C489.331 483.489 484.678 483.707 480.024 483.911C478.236 483.991 476.448 484.079 474.66 484.168C456.497 485.025 456.497 485.025 448.999 479.001C442.722 473.274 437.405 465.5 436.766 456.836C436.713 455.53 436.66 454.225 436.605 452.88C436.538 451.389 436.471 449.898 436.403 448.406C436.368 447.617 436.333 446.828 436.297 446.016C435.581 430.134 434.245 414.41 432.32 398.63C432.19 397.547 432.19 397.547 432.057 396.442C431.822 394.503 431.579 392.565 431.335 390.627C430.973 386.713 430.944 382.929 430.999 379.001C429.875 378.904 429.875 378.904 428.728 378.805C411.221 377.274 393.762 375.459 376.312 373.376C375.385 373.266 374.459 373.156 373.504 373.043C370.853 372.727 368.201 372.408 365.55 372.087C364.759 371.993 363.967 371.898 363.152 371.8C359.398 371.34 355.695 370.814 351.999 370.001C346.458 380.989 340.926 391.975 335.678 403.106C324.347 427.125 315.075 442.277 290.562 454.251C283.601 457.692 276.672 461.177 269.812 464.814C261.669 469.131 253.496 473.388 245.312 477.626C244.698 477.944 244.084 478.263 243.451 478.59C239.968 480.395 236.484 482.198 232.999 484.001C233.012 485.021 233.025 486.041 233.039 487.091C233.049 488.448 233.06 489.805 233.07 491.161C233.084 492.166 233.084 492.166 233.098 493.191C233.151 502.818 230.519 509.936 223.999 517.001C218.417 522.439 214.312 525.29 206.312 525.501C204.574 525.579 204.574 525.579 202.8 525.658C196.46 524.563 192.011 521.659 188.118 516.516C186.297 513.604 184.629 510.649 182.999 507.626C181.799 505.464 180.598 503.301 179.398 501.138C178.823 500.087 178.247 499.035 177.655 497.952C176.209 495.375 174.697 492.881 173.101 490.396C167.644 481.797 164.971 474.367 166.999 464.001C171.75 450.19 183.52 442.734 195.179 435.173C199.913 432.091 204.499 428.831 209.062 425.501C214.843 421.289 220.646 417.114 226.499 413.001C232.595 408.706 238.684 404.402 244.749 400.064C245.5 399.532 246.251 399 247.025 398.453C248.087 397.69 248.087 397.69 249.171 396.911C250.101 396.248 250.101 396.248 251.049 395.572C256.059 391.537 258.88 387.855 260.995 381.802C261.262 381.078 261.528 380.355 261.802 379.609C262.385 378.021 262.961 376.43 263.532 374.838C264.782 371.351 266.063 367.875 267.341 364.398C268.047 362.476 268.752 360.554 269.455 358.63C273.97 346.296 278.649 334.024 283.317 321.747C284.8 317.845 286.281 313.943 287.761 310.04C288.68 307.617 289.599 305.194 290.519 302.771C290.942 301.655 291.366 300.539 291.802 299.389C292.194 298.356 292.587 297.323 292.991 296.258C293.332 295.36 293.673 294.461 294.025 293.535C294.697 291.789 295.384 290.048 296.085 288.313C296.955 286.114 297.579 283.986 298.124 281.689C298.558 279.864 298.558 279.864 298.999 278.001C298.112 278.508 298.112 278.508 297.206 279.025C288.778 283.782 282.429 286.548 272.597 284.501C264.102 281.945 259.08 277.76 254.261 270.38C247.041 256.766 251.996 239.606 254.453 225.252C254.959 222.244 255.422 219.233 255.874 216.216C258.762 197.98 265.983 181.621 280.672 169.69C290.285 162.716 301.96 159.426 313.124 155.814C314.72 155.289 316.315 154.764 317.91 154.238C321.633 153.012 325.363 151.807 329.096 150.613C330.76 150.078 332.42 149.53 334.078 148.98C339.009 147.394 343.26 146.635 348.499 146.751C349.685 146.767 350.871 146.782 352.093 146.798C354.999 147.001 354.999 147.001 356.999 148.001C356.669 146.991 356.339 145.98 355.999 144.939C352.816 131.909 354.572 115.174 360.562 103.126C366.851 92.8259 375.957 84.876 387.531 81.1966C402.698 77.6927 416.307 81.1369 428.562 90.5638Z" fill="black"/>
<path d="M319 288C328.964 288.605 338.708 290.331 348.5 292.188C349.382 292.355 350.265 292.522 351.174 292.694C371.132 296.546 390.135 302.773 409.318 309.398C415.614 311.566 421.96 313.567 428.312 315.562C431.877 316.701 435.439 317.848 439 319C439.697 319.224 440.393 319.448 441.111 319.679C455.032 324.206 473.625 330.566 481.142 344.031C482.53 347.217 482.526 350.363 482.454 353.771C482.455 354.514 482.455 355.256 482.456 356.021C482.453 358.45 482.422 360.879 482.391 363.309C482.383 365.003 482.377 366.696 482.373 368.39C482.358 372.831 482.319 377.271 482.275 381.711C482.234 386.25 482.215 390.788 482.195 395.326C482.153 404.218 482.082 413.109 482 422C473.42 422.33 464.84 422.66 456 423C455.56 419.155 455.119 415.311 454.679 411.466C454.31 408.233 453.938 405.001 453.565 401.769C452 388.183 452 388.183 451.395 381.914C451.314 381.099 451.233 380.283 451.15 379.443C450.955 377.426 450.772 375.408 450.59 373.391C449.766 368.656 448.473 364.473 445 361C437.844 359.066 430.647 358.3 423.285 357.562C422.075 357.437 420.866 357.311 419.619 357.182C415.767 356.783 411.915 356.391 408.062 356C405.51 355.737 402.957 355.474 400.404 355.211C398.537 355.018 398.537 355.018 396.632 354.822C394.165 354.567 391.699 354.312 389.232 354.057C388.053 353.934 386.873 353.812 385.658 353.687C384.526 353.569 383.393 353.452 382.226 353.331C379.285 353.029 376.344 352.737 373.402 352.446C371.799 352.282 370.196 352.118 368.594 351.953C367.902 351.888 367.21 351.823 366.497 351.756C353.585 350.396 342.081 343.013 333.207 333.812C322.586 320.277 319.609 304.74 319 288Z" fill="#33CBCA"/>
<path d="M304 325C304.66 325 305.32 325 306 325C306.473 326.039 306.946 327.078 307.434 328.148C313.68 341.479 321.863 350.374 333 360C330.945 366.874 328.143 373.154 324.922 379.555C324.432 380.537 323.943 381.519 323.438 382.531C322.405 384.598 321.37 386.664 320.332 388.728C318.76 391.855 317.202 394.987 315.645 398.121C312.822 403.779 309.94 409.402 307 415C306.66 415.654 306.32 416.308 305.97 416.982C301.911 424.643 297.65 428.192 289.812 431.75C287.755 432.753 285.699 433.758 283.645 434.766C282.564 435.286 281.483 435.806 280.37 436.342C275.097 438.936 269.938 441.739 264.773 444.54C255.191 449.728 245.574 454.852 235.938 459.938C234.492 460.709 234.492 460.709 233.018 461.496C232.134 461.96 231.25 462.424 230.34 462.902C229.57 463.31 228.801 463.717 228.008 464.136C226 465 226 465 223 465C221.495 462.378 219.996 459.753 218.5 457.125C218.071 456.379 217.641 455.632 217.199 454.863C216.59 453.79 216.59 453.79 215.969 452.695C215.403 451.706 215.403 451.706 214.826 450.696C214 449 214 449 214 447C216.423 445.145 218.856 443.405 221.375 441.688C222.946 440.599 224.516 439.509 226.086 438.418C226.9 437.854 227.715 437.29 228.554 436.708C232.404 434.02 236.201 431.26 240 428.5C246.683 423.654 253.404 418.866 260.168 414.133C261.471 413.218 262.767 412.295 264.057 411.362C266 410 266 410 268.082 408.759C274.8 404.474 276.717 398.812 279.312 391.5C279.771 390.274 280.229 389.048 280.7 387.785C281.917 384.527 283.103 381.259 284.281 377.987C285.461 374.726 286.665 371.475 287.867 368.223C289.727 363.183 291.571 358.138 293.406 353.09C296.833 343.686 300.403 334.339 304 325Z" fill="white"/>
<path d="M425 315C471.03 326.961 471.03 326.961 480.933 343.224C483.358 349.534 482.597 356.74 482.488 363.406C482.479 365.099 482.472 366.791 482.467 368.484C482.448 372.916 482.399 377.348 482.343 381.78C482.292 386.312 482.269 390.843 482.244 395.375C482.191 404.25 482.103 413.125 482 422C473.42 422.33 464.84 422.66 456 423C455.56 419.155 455.119 415.311 454.679 411.466C454.31 408.233 453.938 405.001 453.565 401.769C452 388.183 452 388.183 451.395 381.914C451.314 381.099 451.233 380.283 451.15 379.443C450.955 377.426 450.772 375.408 450.59 373.391C449.766 368.656 448.473 364.473 445 361C436.814 358.686 428.377 358.134 419.938 357.375C418.485 357.24 417.033 357.105 415.58 356.969C412.054 356.64 408.527 356.318 405 356C405.901 355.712 405.901 355.712 406.82 355.418C410.038 353.325 410.559 350.872 411.875 347.305C412.252 346.305 412.252 346.305 412.636 345.286C413.438 343.154 414.22 341.015 415 338.875C416.035 336.078 417.078 333.285 418.125 330.492C418.497 329.494 418.497 329.494 418.877 328.476C420.639 323.803 422.628 319.39 425 315Z" fill="white"/>
<path d="M380 174C386.083 178.628 390.553 183.658 393 191C393.785 199.259 392.143 206.25 389.625 214.062C388.892 216.431 388.16 218.799 387.43 221.168C387.037 222.424 386.645 223.68 386.241 224.974C384.213 231.51 382.315 238.085 380.398 244.655C377.341 255.127 374.239 265.582 371 276C365.16 276.222 359.848 275.384 354.129 274.25C352.745 273.984 352.745 273.984 351.334 273.712C348.409 273.147 345.486 272.574 342.562 272C340.571 271.614 338.58 271.229 336.588 270.844C331.724 269.903 326.862 268.953 322 268C323.474 256.067 325.04 244.167 327.062 232.312C327.225 231.34 327.387 230.367 327.554 229.365C327.713 228.457 327.871 227.549 328.035 226.613C328.173 225.817 328.311 225.021 328.453 224.2C329.056 221.776 329.537 220.041 331 218C333.455 217.166 333.455 217.166 336.531 216.691C337.653 216.501 338.774 216.311 339.93 216.115C341.697 215.842 341.697 215.842 343.5 215.562C353.99 213.93 364.887 212.085 371.691 203.121C377.391 193.883 379.029 184.611 380 174Z" fill="#33CBCA"/>
<path d="M356 169.938C359.704 173.757 359.27 177.115 359.223 182.235C358.882 186.463 357.336 189.252 354.806 192.563C352.182 194.651 349.703 194.905 346.418 195.5C345.767 195.622 345.117 195.744 344.446 195.87C342.362 196.258 340.275 196.629 338.188 197C336.826 197.249 335.465 197.499 334.104 197.75C333.433 197.874 332.762 197.998 332.071 198.125C329.378 198.623 326.687 199.125 323.996 199.63C322.661 199.878 321.325 200.121 319.989 200.359C318.069 200.704 316.154 201.071 314.238 201.438C313.131 201.643 312.024 201.848 310.884 202.059C307.583 203.136 306.165 204.319 304 207C302.967 209.394 302.14 211.647 301.375 214.125C301.133 214.869 300.892 215.612 300.643 216.378C299.065 221.324 297.619 226.305 296.208 231.301C295.561 233.593 294.908 235.884 294.254 238.174C293.38 241.238 292.529 244.307 291.691 247.382C291.283 248.824 290.874 250.266 290.465 251.707C290.291 252.368 290.117 253.029 289.938 253.71C288.602 258.315 286.695 260.968 283 264C279.133 264.725 277.563 264.338 274.188 262.313C271.599 259.576 271.367 258.708 271 255C271.202 251.766 271.655 248.58 272.125 245.375C272.261 244.427 272.397 243.479 272.538 242.501C273.71 234.567 274.998 226.652 276.375 218.75C276.559 217.633 276.744 216.516 276.934 215.365C278.637 205.958 281.734 197.893 288.188 190.688C288.862 189.908 289.536 189.128 290.23 188.325C297.089 182.568 305.539 179.956 314 177.438C321.159 175.277 328.091 172.864 335 170C342.394 167.018 348.895 165.349 356 169.938Z" fill="white"/>
<path d="M413.999 104.998C419.072 109.412 421.768 114.058 422.3 120.819C422.32 122.253 422.323 123.688 422.312 125.123C422.304 126.252 422.304 126.252 422.295 127.404C422.108 136.056 421.027 144.164 414.706 150.561C408.386 155.883 402.58 156.713 394.343 156.44C387.437 155.528 383.756 152.222 379.562 146.873C374.416 139.667 375.425 130.518 376.308 122.033C377.407 115.719 379.034 110.412 384.121 106.272C393.781 99.5775 403.625 98.9745 413.999 104.998Z" fill="white"/>
<path d="M304 325C304.66 325 305.32 325 306 325C306.473 326.039 306.946 327.078 307.434 328.148C313.68 341.479 321.863 350.374 333 360C330.633 367.988 327.095 375.157 323.312 382.562C321.229 386.667 319.146 390.771 317 395C304.79 393.68 292.58 392.36 280 391C281.813 384.958 283.608 379.071 285.812 373.188C286.092 372.436 286.371 371.684 286.658 370.909C292.37 355.58 298.198 340.295 304 325Z" fill="#33CBCA"/>
<path d="M400 250C401.863 250.208 403.716 250.499 405.562 250.82C407.33 251.125 407.33 251.125 409.133 251.436C410.409 251.663 411.685 251.891 413 252.125C414.297 252.354 415.594 252.582 416.93 252.818C420.956 253.532 424.978 254.263 429 255C430.235 255.226 431.47 255.451 432.742 255.684C436.164 256.316 439.583 256.966 443 257.625C444.555 257.915 444.555 257.915 446.141 258.211C455.456 260.053 455.456 260.053 459 263C460.062 266.375 460.062 266.375 460 270C458.429 272.698 458.429 272.698 456 275C452.856 275.574 452.856 275.574 449.078 275.465C448.385 275.447 447.692 275.429 446.978 275.41C438.442 275.094 429.96 274.017 421.496 272.919C418.713 272.558 415.929 272.21 413.145 271.865C411.362 271.641 409.579 271.417 407.797 271.191C406.558 271.035 406.558 271.035 405.294 270.876C404.525 270.776 403.756 270.676 402.964 270.573C402.293 270.486 401.621 270.399 400.93 270.31C398.915 269.986 396.972 269.522 395 269C396.429 253.571 396.429 253.571 400 250Z" fill="white"/>
<path d="M477.457 441.874C488.359 441.353 496.295 441.571 505.116 448.716C507.864 451.238 509.705 453.282 511.124 456.751C510.999 459.001 510.999 459.001 509.966 460.596C507.006 462.711 503.921 462.594 500.402 462.732C499.653 462.772 498.904 462.812 498.132 462.854C495.734 462.979 493.336 463.084 490.937 463.189C489.349 463.27 487.761 463.353 486.173 463.437C482.431 463.629 478.689 463.791 474.945 463.928C473.215 463.993 471.485 464.072 469.756 464.152C468.869 464.178 467.983 464.205 467.069 464.232C466.339 464.258 465.608 464.284 464.855 464.311C462.4 463.902 461.547 462.991 459.937 461.126C457.183 456.686 456.885 454.615 456.937 449.376C456.946 448.188 456.955 446.999 456.964 445.775C456.976 444.86 456.987 443.944 456.999 443.001C463.816 442.55 470.635 442.229 477.457 441.874Z" fill="white"/>
<path d="M425 315C432.036 316.886 439.034 318.869 446 321C445.559 321.692 445.118 322.383 444.664 323.095C442.911 326.155 441.639 329.183 440.371 332.473C439.893 333.702 439.416 334.931 438.924 336.197C438.428 337.486 437.933 338.774 437.438 340.062C436.46 342.596 435.478 345.128 434.496 347.66C434.065 348.78 433.634 349.901 433.189 351.055C432.224 353.444 431.199 355.722 430 358C421.664 357.368 413.33 356.705 405 356C405.901 355.712 405.901 355.712 406.82 355.418C410.038 353.325 410.559 350.872 411.875 347.305C412.252 346.305 412.252 346.305 412.636 345.286C413.438 343.154 414.22 341.015 415 338.875C416.035 336.078 417.078 333.285 418.125 330.492C418.497 329.494 418.497 329.494 418.877 328.476C420.639 323.803 422.628 319.39 425 315Z" fill="#33CBCA"/>
<path d="M287 370C287.866 370.121 287.866 370.121 288.75 370.244C301.152 371.966 313.557 373.597 326 375C324 381 324 381 317 395C298.685 393.02 298.685 393.02 280 391C283.375 379.75 283.375 379.75 285.188 374.875C285.532 373.944 285.876 373.014 286.23 372.055C286.484 371.377 286.738 370.699 287 370Z" fill="#33CBCA"/>
<path d="M194.999 460C199.107 461.251 200.396 463.925 202.355 467.473C202.733 468.183 203.11 468.893 203.499 469.625C203.877 470.312 204.255 470.999 204.644 471.707C205.783 473.794 206.892 475.895 207.999 478C208.381 478.696 208.763 479.393 209.156 480.11C212.232 485.89 212.828 490.463 211.999 497C210.106 502.395 210.106 502.395 206.89 504.152C206.266 504.432 205.642 504.712 204.999 505C204.682 504.415 204.365 503.83 204.038 503.227C200.637 496.969 197.201 490.73 193.749 484.5C193.095 483.316 193.095 483.316 192.428 482.108C192.013 481.361 191.598 480.614 191.171 479.844C190.801 479.175 190.431 478.507 190.049 477.818C189.099 476.172 188.054 474.582 186.999 473C186.922 469.611 187.441 467.665 189.632 465.055C191.376 463.311 193.15 461.632 194.999 460Z" fill="white"/>
<path d="M90 208.999C92.3125 210.624 92.3125 210.624 94 212.999C94.5982 216.588 94.3464 219.834 93.3125 223.312C90.8087 226.531 88.505 227.788 84.4375 228.359C79.7424 228.588 76.1259 228.694 72.375 225.624C69.8424 222.825 69.1057 221.93 68.6875 218.249C69.0851 214.114 70.3412 212.161 73 208.999C78.3159 205.838 84.6212 206.092 90 208.999Z" fill="#33CBCA"/>
<path d="M283 381C283.33 381 283.66 381 284 381C284.33 384.3 284.66 387.6 285 391C283.35 391 281.7 391 280 391C280.99 387.7 281.98 384.4 283 381Z" fill="#33CBCA"/>
<path d="M411 349C411.99 349.99 412.98 350.98 414 352C413.01 352.99 412.02 353.98 411 355C411.66 355.33 412.32 355.66 413 356C410.36 356 407.72 356 405 356C405.928 355.66 405.928 355.66 406.875 355.312C409.614 353.621 410.05 352.008 411 349Z" fill="#33CBCA"/>
</g>
<defs>
<clipPath id="clip0_150_1589">
<rect width="640" height="640" fill="white"/>
</clipPath>
</defs>
</svg>
