<svg width="640" height="640" viewBox="0 0 640 640" fill="none" xmlns="http://www.w3.org/2000/svg">
<g clip-path="url(#clip0_150_1608)">
<path d="M427.348 92.7495C432.999 97.4284 436.764 102.434 440.001 109C440.341 109.661 440.681 110.322 441.032 111.003C446.756 124.546 442.815 142.278 438.09 155.558C433.553 165.635 424.594 173.303 414.501 177.375C413.005 177.929 411.507 178.475 410.001 179C410.217 179.501 410.434 180.002 410.657 180.519C416.332 195.942 412.743 211.874 408.001 227C408.642 226.924 409.283 226.849 409.943 226.772C417.961 225.834 425.98 224.913 434.001 224C435.261 223.855 436.521 223.711 437.819 223.563C441.545 223.14 445.273 222.725 449.001 222.312C450.149 222.181 451.298 222.05 452.482 221.914C474.741 219.482 474.741 219.482 484.231 226.695C490.06 232.097 494.332 238.192 495.442 246.175C495.77 255.181 493.85 262.64 488.313 269.812C481.62 276.743 473.563 278.937 464.313 280.5C463.208 280.699 462.102 280.898 460.963 281.104C457.312 281.755 453.657 282.379 450.001 283C448.638 283.234 447.275 283.469 445.913 283.705C439.26 284.854 432.603 285.983 425.942 287.082C424.329 287.348 424.329 287.348 422.682 287.62C420.001 288 420.001 288 417.001 288C417.001 288.66 417.001 289.32 417.001 290C417.684 290.086 418.367 290.172 419.071 290.261C445.098 293.889 479.807 300.172 498.001 321C505.146 330.522 507.362 340.616 507.879 352.324C507.937 353.387 507.995 354.45 508.054 355.546C508.235 358.926 508.4 362.306 508.563 365.687C508.788 370.108 509.02 374.528 509.254 378.949C509.311 380.029 509.367 381.108 509.426 382.221C510.02 393.17 510.964 404.084 512.001 415C513.244 415.467 513.244 415.467 514.512 415.944C526.442 420.503 537.213 428.254 543.001 440C544.048 447.718 544.054 455.411 539.626 462.066C532.924 470.04 526.788 472.984 516.508 474.289C515.685 474.397 514.862 474.505 514.014 474.616C512.272 474.843 510.528 475.067 508.785 475.287C506.167 475.619 503.553 475.969 500.938 476.32C471.142 480.207 471.142 480.207 462.024 473.558C453.51 466.686 448.897 458.892 447.661 448.012C447.339 444.447 447.045 440.88 446.751 437.312C445.67 425.3 443.731 413.772 441.136 401.979C439.238 393.338 437.805 384.811 437.001 376C436.058 376.011 435.116 376.023 434.145 376.035C422.57 376.126 411.008 375.868 399.438 375.562C398.276 375.533 398.276 375.533 397.091 375.503C392.497 375.385 387.904 375.247 383.311 375.082C381.753 375.026 380.194 374.974 378.636 374.925C369.067 374.609 360.216 373.872 351.001 371C348.911 375.3 346.822 379.602 344.734 383.904C343.625 386.188 342.515 388.472 341.404 390.755C338.248 397.252 335.096 403.748 332.063 410.304C314.032 449.28 314.032 449.28 298.001 457C290.649 458.895 282.956 459.555 275.422 460.367C273.806 460.546 273.806 460.546 272.157 460.729C269.867 460.983 267.577 461.236 265.288 461.486C259.328 462.14 253.369 462.807 247.411 463.476C246.243 463.607 245.075 463.738 243.871 463.873C231.209 465.302 218.577 466.92 205.947 468.609C201.655 469.178 197.36 469.717 193.063 470.25C191.255 470.474 191.255 470.474 189.411 470.703C188.218 470.85 188.218 470.85 187.001 471C186.781 471.629 186.562 472.258 186.337 472.906C182.258 483.916 175.861 490.764 166.626 497.812C158.676 501.408 150.126 501.907 141.805 499.316C135.483 496.612 131.665 491.811 128.947 485.588C127.608 480.513 127.656 475.619 127.629 470.39C127.616 468.707 127.616 468.707 127.602 466.99C127.588 464.62 127.579 462.25 127.575 459.879C127.563 456.276 127.514 452.673 127.463 449.07C127.454 446.76 127.447 444.45 127.442 442.14C127.413 440.54 127.413 440.54 127.383 438.907C127.431 430.735 129.312 424.083 134.882 417.917C144.095 409.093 154.563 406.752 166.899 405.652C182.479 404.257 197.697 401.133 213.001 398C214.134 397.768 215.267 397.536 216.435 397.298C225.165 395.507 233.884 393.669 242.598 391.8C243.92 391.518 243.92 391.518 245.269 391.23C246.915 390.879 248.56 390.525 250.205 390.167C253.197 389.527 255.931 389 259.001 389C259.175 388.395 259.349 387.79 259.529 387.168C261.344 380.983 263.399 374.931 265.633 368.886C265.983 367.934 266.332 366.982 266.693 366.001C267.834 362.895 268.98 359.791 270.126 356.687C270.923 354.518 271.721 352.35 272.518 350.181C276.59 339.127 280.708 328.091 284.899 317.082C285.289 316.056 285.679 315.03 286.081 313.973C287.942 309.081 289.811 304.192 291.692 299.307C292.368 297.538 293.044 295.769 293.719 294C294.176 292.826 294.176 292.826 294.642 291.629C296.382 287.051 297.645 282.559 298.581 277.75C299.001 276 299.001 276 300.001 275C300.442 272.788 300.829 270.565 301.192 268.339C301.302 267.675 301.411 267.01 301.524 266.326C301.874 264.197 302.219 262.067 302.563 259.937C302.799 258.496 303.035 257.055 303.272 255.615C303.852 252.077 304.428 248.539 305.001 245C304.795 245.533 304.589 246.067 304.377 246.617C295.236 270.055 295.236 270.055 282.43 276.089C274.403 279.096 267.217 278.721 259.458 275.324C252.314 271.474 245.909 265.171 243.46 257.251C241.48 247.545 243.539 238.151 246.188 228.812C246.507 227.642 246.826 226.471 247.154 225.265C247.794 222.925 248.44 220.585 249.094 218.249C249.897 215.371 250.675 212.489 251.438 209.601C254.872 196.689 258.641 186.596 267.001 176C267.743 175.008 267.743 175.008 268.501 173.996C274.209 166.747 281.562 162.278 290.141 159.089C290.832 158.833 291.522 158.576 292.233 158.311C299.971 155.526 307.874 153.539 315.881 151.702C318.372 151.125 320.854 150.516 323.337 149.906C334.376 147.288 344.673 146.494 356.001 147C355.84 146.404 355.679 145.808 355.513 145.194C352.413 131.924 355.506 114.643 362.469 103.191C364.412 100.411 366.423 98.2087 369.001 95.9995C369.896 95.1546 369.896 95.1546 370.809 94.2925C387.217 79.0997 409.713 79.6041 427.348 92.7495Z" fill="black"/>
<path d="M320 291C327.208 291.593 334.233 292.672 341.332 294.039C342.925 294.342 342.925 294.342 344.55 294.65C347.972 295.303 351.392 295.963 354.812 296.625C356.563 296.962 356.563 296.962 358.349 297.306C375.025 300.523 391.525 304.08 407.986 308.259C413.008 309.493 418.065 310.556 423.125 311.625C474.581 322.634 474.581 322.634 483.783 336.713C487.553 343.797 487.414 352.761 487.816 360.605C487.878 361.688 487.939 362.77 488.002 363.885C488.196 367.319 488.379 370.753 488.562 374.188C488.689 376.472 488.816 378.757 488.943 381.041C489.129 384.357 489.313 387.672 489.495 390.988C489.935 398.997 490.433 406.999 491 415C487.417 415.504 483.834 416.003 480.25 416.5C479.234 416.643 478.218 416.786 477.172 416.934C476.192 417.069 475.212 417.204 474.203 417.344C472.852 417.532 472.852 417.532 471.474 417.725C469 418 469 418 465 418C464.773 416.837 464.547 415.673 464.313 414.474C463.458 410.085 462.603 405.696 461.747 401.307C461.379 399.421 461.012 397.535 460.644 395.649C460.467 394.739 460.29 393.83 460.107 392.893C459.931 391.988 459.756 391.084 459.574 390.152C459.22 388.342 458.864 386.532 458.505 384.723C457.699 380.652 456.918 376.584 456.245 372.489C456.126 371.804 456.007 371.12 455.885 370.415C455.576 368.617 455.286 366.817 454.997 365.016C453.754 361.257 452.019 359.515 449 357C445.511 355.837 442.338 355.812 438.706 355.766C437.595 355.747 437.595 355.747 436.462 355.726C434.853 355.698 433.244 355.671 431.635 355.646C429.077 355.605 426.519 355.556 423.962 355.504C416.688 355.357 409.415 355.214 402.141 355.101C397.689 355.032 393.238 354.944 388.787 354.845C387.101 354.811 385.414 354.783 383.728 354.763C367.112 354.557 353.084 351.48 340.375 339.938C328.566 327.22 320 308.447 320 291Z" fill="#33CBCA"/>
<path d="M305 322C305.66 322 306.32 322 307 322C307.402 323.091 307.402 323.091 307.812 324.203C313.003 337.522 321.219 350.533 333 359C331.715 363.037 330.236 366.865 328.461 370.711C327.967 371.783 327.473 372.855 326.964 373.959C326.44 375.086 325.915 376.214 325.375 377.375C324.834 378.54 324.294 379.705 323.737 380.906C319.949 389.038 316.095 397.125 311.979 405.096C310.915 407.166 309.872 409.245 308.828 411.324C303.936 420.945 298.703 430.297 291 438C289.03 438.435 289.03 438.435 286.574 438.698C285.647 438.802 284.721 438.906 283.766 439.014C282.75 439.119 281.734 439.224 280.688 439.332C279.627 439.449 278.566 439.566 277.473 439.686C273.983 440.07 270.491 440.441 267 440.812C263.385 441.206 259.769 441.603 256.154 442C253.703 442.269 251.251 442.538 248.799 442.805C240.988 443.659 233.183 444.558 225.383 445.504C224.415 445.621 223.448 445.738 222.451 445.859C218.785 446.305 215.12 446.752 211.456 447.206C208.973 447.513 206.491 447.815 204.008 448.117C203.293 448.208 202.579 448.298 201.843 448.391C197.473 448.918 193.454 449 189 449C189 440.75 189 432.5 189 424C191.779 423.42 194.558 422.84 197.422 422.242C201.198 421.453 204.974 420.664 208.75 419.875C209.727 419.671 210.703 419.467 211.709 419.257C224.901 416.499 238.088 413.722 251.257 410.853C252.769 410.526 252.769 410.526 254.312 410.191C255.257 409.984 256.202 409.777 257.176 409.563C259.121 409.175 261.079 408.849 263.043 408.574C264.019 408.435 264.995 408.296 266 408.152C266.866 408.048 267.733 407.943 268.625 407.836C271.95 406.666 273.074 404.907 275 402C276.242 399.498 276.242 399.498 277.199 396.785C277.596 395.728 277.992 394.671 278.401 393.582C278.825 392.421 279.25 391.259 279.688 390.062C280.144 388.838 280.6 387.613 281.07 386.352C282.41 382.754 283.736 379.151 285.062 375.548C286.845 370.706 288.638 365.867 290.43 361.027C292.736 354.796 295.04 348.563 297.337 342.328C297.697 341.352 298.056 340.375 298.427 339.369C299.106 337.526 299.785 335.683 300.462 333.839C301.925 329.871 303.398 325.914 305 322Z" fill="white"/>
<path d="M424 312C434.739 313.925 445.13 316.464 455.5 319.875C456.477 320.19 457.454 320.505 458.461 320.83C469.389 324.525 479.743 328.892 485.312 339.5C487.176 346.277 487.331 353.331 487.719 360.312C487.813 361.942 487.813 361.942 487.909 363.605C488.109 367.07 488.305 370.535 488.5 374C488.759 378.542 489.02 383.083 489.281 387.625C489.343 388.709 489.405 389.794 489.469 390.911C489.931 398.944 490.437 406.973 491 415C487.417 415.504 483.834 416.003 480.25 416.5C479.234 416.643 478.218 416.786 477.172 416.934C476.192 417.069 475.212 417.204 474.203 417.344C473.302 417.469 472.402 417.595 471.474 417.725C469 418 469 418 465 418C464.773 416.837 464.547 415.673 464.313 414.474C463.458 410.085 462.603 405.696 461.747 401.307C461.379 399.421 461.012 397.535 460.644 395.649C460.467 394.739 460.29 393.83 460.107 392.893C459.931 391.988 459.756 391.084 459.574 390.152C459.22 388.342 458.864 386.532 458.505 384.723C457.699 380.652 456.918 376.584 456.245 372.489C456.126 371.804 456.007 371.12 455.885 370.415C455.576 368.617 455.286 366.817 454.997 365.016C453.754 361.257 452.019 359.515 449 357C446.186 356.062 444.357 355.851 441.437 355.795C440.516 355.775 439.595 355.755 438.647 355.734C437.656 355.718 436.665 355.701 435.645 355.684C434.628 355.663 433.611 355.642 432.563 355.621C429.313 355.555 426.063 355.496 422.812 355.438C420.61 355.394 418.408 355.351 416.205 355.307C410.803 355.2 405.402 355.098 400 355C400 354.67 400 354.34 400 354C404.29 354 408.58 354 413 354C413.208 353.112 413.415 352.224 413.629 351.309C415.963 341.628 418.719 332.13 421.713 322.633C422.009 321.685 422.305 320.738 422.609 319.762C422.877 318.916 423.145 318.07 423.421 317.198C424.127 314.895 424.127 314.895 424 312Z" fill="white"/>
<path d="M380 177C386.083 181.628 390.553 186.658 393 194C393.785 202.296 392.133 209.416 389.676 217.289C389.333 218.432 388.989 219.574 388.636 220.752C387.542 224.381 386.428 228.003 385.312 231.625C384.583 234.032 383.854 236.44 383.127 238.848C381.728 243.475 380.322 248.1 378.909 252.724C377.045 258.832 375.228 264.954 373.442 271.086C372.669 273.741 371.875 276.376 371 279C360.85 277.959 350.847 276.339 340.812 274.5C339.631 274.286 338.449 274.073 337.231 273.853C336.109 273.644 334.988 273.434 333.832 273.219C332.829 273.032 331.826 272.846 330.792 272.654C328.046 272.011 325.585 271.118 323 270C323.439 259.003 324.702 248.358 326.584 237.522C327.008 235.08 327.419 232.636 327.828 230.191C328.093 228.63 328.359 227.069 328.625 225.508C328.748 224.781 328.871 224.054 328.998 223.305C329.883 218.234 329.883 218.234 331 216C333.038 215.621 333.038 215.621 335.699 215.438C336.662 215.363 337.624 215.288 338.615 215.211C340.136 215.107 340.136 215.107 341.688 215C350.527 214.44 350.527 214.44 359 212C359.949 211.649 360.897 211.299 361.875 210.938C369.521 206.197 375.061 198.447 378 190C378.914 185.686 379.54 181.384 380 177Z" fill="#33CBCA"/>
<path d="M354.207 167.92C357.415 170.148 358.761 171.954 359.637 175.791C360.016 182.457 358.803 186.56 354.41 191.576C351.167 194.855 347.69 194.511 343.215 194.904C341.386 195.074 339.557 195.244 337.729 195.414C334.841 195.677 331.953 195.938 329.066 196.197C326.282 196.448 323.498 196.707 320.715 196.966C319.862 197.04 319.01 197.114 318.132 197.191C309.037 197.711 309.037 197.711 301.252 201.635C300.745 202.594 300.745 202.594 300.227 203.572C299.84 204.289 299.454 205.006 299.056 205.745C297.343 209.407 295.805 213.095 294.375 216.877C293.692 218.623 293.007 220.37 292.32 222.115C291.77 223.518 291.77 223.518 291.208 224.949C288.941 230.676 286.608 236.374 284.25 242.064C283.79 243.2 283.331 244.336 282.857 245.507C282.414 246.569 281.972 247.63 281.516 248.724C281.127 249.67 280.738 250.617 280.337 251.592C278.861 254.252 277.605 255.462 275 257.002C271.073 257.586 269.519 257.347 266.188 255.127C264 253.002 264 253.002 263 251.002C263.454 243.556 265.252 236.667 267.25 229.502C267.725 227.784 267.725 227.784 268.209 226.033C268.844 223.743 269.482 221.453 270.123 219.165C270.884 216.42 271.614 213.67 272.328 210.912C275.518 198.869 280.32 188.176 291 181.002C296.548 177.831 301.948 176.025 308.172 174.677C309.439 174.39 309.439 174.39 310.732 174.096C313.403 173.492 316.076 172.903 318.75 172.314C320.559 171.908 322.367 171.501 324.176 171.093C328.146 170.199 332.118 169.314 336.092 168.437C337.432 168.131 338.767 167.806 340.098 167.466C344.82 166.313 349.664 166.03 354.207 167.92Z" fill="white"/>
<path d="M408.426 104.648C414.137 107.243 417.73 111.589 421.145 116.719C422.413 120.1 422.341 123.437 422.313 127C422.305 128.132 422.305 128.132 422.296 129.286C422.105 138.19 421.251 147.048 414.637 153.597C408.156 159.15 403.23 159.757 394.673 159.512C388.361 158.632 384.508 155.871 380.384 151.148C374.497 143.333 375.282 133.545 376.309 124.191C377.758 116.793 380.314 111.89 386.626 107.625C393.481 103.366 400.448 102.516 408.426 104.648Z" fill="white"/>
<path d="M305 322C305.66 322 306.32 322 307 322C307.268 322.727 307.536 323.454 307.812 324.203C313.003 337.522 321.219 350.533 333 359C330.895 365.635 327.981 371.816 325.062 378.125C324.524 379.304 323.986 380.484 323.432 381.699C322.909 382.832 322.386 383.965 321.848 385.133C321.373 386.163 320.899 387.193 320.41 388.254C319.712 389.613 319.712 389.613 319 391C318.615 391.791 318.229 392.582 317.833 393.397C316 395 316 395 312.355 395.087C310.845 394.918 309.337 394.726 307.832 394.516C307.037 394.421 306.242 394.327 305.424 394.229C302.884 393.923 300.349 393.587 297.812 393.25C296.092 393.037 294.371 392.826 292.65 392.617C288.43 392.101 284.215 391.557 280 391C282.178 383.322 284.808 375.862 287.598 368.387C288.033 367.214 288.468 366.042 288.916 364.833C290.062 361.746 291.211 358.659 292.361 355.572C293.298 353.054 294.233 350.534 295.168 348.015C297.104 342.797 299.042 337.581 300.985 332.366C301.326 331.448 301.668 330.53 302.02 329.584C302.984 327.043 303.983 324.52 305 322Z" fill="#33CBCA"/>
<path d="M472.286 243.809C474.703 246.897 475.001 249.107 475.001 253.001C472.961 256.411 471.707 257.774 467.888 258.998C466.649 259.181 465.41 259.363 464.134 259.551C462.691 259.781 461.249 260.013 459.806 260.245C459.032 260.364 458.257 260.483 457.458 260.605C453.984 261.164 450.534 261.835 447.08 262.506C443.311 263.236 439.538 263.94 435.764 264.645C433.834 265.008 431.905 265.375 429.977 265.747C418.866 267.887 408.362 269.665 397.001 269.001C395.369 264.046 396.821 260.414 398.438 255.688C398.681 254.948 398.924 254.207 399.175 253.444C399.773 251.626 400.385 249.813 401.001 248.001C403.476 247.732 405.951 247.464 408.427 247.196C409.197 247.112 409.967 247.029 410.761 246.943C414.994 246.484 419.227 246.027 423.46 245.572C425.157 245.389 426.854 245.207 428.552 245.024C429.385 244.934 430.219 244.845 431.078 244.752C435.464 244.279 439.849 243.795 444.231 243.29C468.17 240.552 468.17 240.552 472.286 243.809Z" fill="white"/>
<path d="M516.376 439.647C521.624 443.939 521.624 443.939 522.903 447.533C523.001 449.998 523.001 449.998 522.014 451.566C518.935 453.757 515.557 453.938 511.895 454.385C511.097 454.492 510.299 454.598 509.477 454.708C507.787 454.932 506.097 455.149 504.406 455.361C501.839 455.683 499.274 456.023 496.71 456.367C495.063 456.583 493.417 456.797 491.77 457.01C491.012 457.11 490.253 457.21 489.471 457.313C476.415 458.929 476.415 458.929 472.942 456.643C468.145 450.268 467.985 445.801 468.001 437.998C471.001 437.517 474.001 437.038 477.001 436.561C478.26 436.359 478.26 436.359 479.544 436.152C505.418 432.041 505.418 432.041 516.376 439.647Z" fill="white"/>
<path d="M164.231 426.926C166.097 426.963 166.097 426.963 168 427.001C168.1 431.963 168.172 436.924 168.22 441.887C168.24 443.572 168.267 445.256 168.302 446.941C168.524 457.94 168.401 466.341 161.563 475.438C158.275 478.726 155.992 479.971 151.344 480.04C150.57 480.027 149.797 480.014 149 480.001C148.669 472.478 148.375 464.956 148.12 457.43C148.045 455.282 147.963 453.133 147.872 450.985C147.765 448.386 147.69 445.788 147.625 443.188C147.587 442.426 147.549 441.664 147.51 440.878C147.449 436.926 147.817 435.23 150.317 432.102C154.691 428.677 158.657 426.817 164.231 426.926Z" fill="white"/>
<path d="M424 312C427.085 312.616 430.168 313.244 433.25 313.875C434.559 314.136 434.559 314.136 435.895 314.402C437.161 314.663 437.161 314.663 438.453 314.93C439.616 315.165 439.616 315.165 440.802 315.406C443.062 316.017 444.948 316.884 447 318C446.34 318 445.68 318 445 318C444.832 318.713 444.664 319.425 444.491 320.159C442.599 327.977 440.307 335.606 437.812 343.25C435.925 349.066 435.925 349.066 434 355C422.78 355 411.56 355 400 355C400 354.67 400 354.34 400 354C404.29 354 408.58 354 413 354C413.208 353.112 413.415 352.224 413.629 351.309C415.963 341.628 418.719 332.13 421.713 322.633C422.009 321.685 422.305 320.738 422.609 319.762C422.877 318.916 423.145 318.07 423.421 317.198C424.127 314.895 424.127 314.895 424 312Z" fill="#33CBCA"/>
<path d="M287 370C287.888 370.121 288.776 370.242 289.691 370.367C301.764 371.951 313.866 373.008 326 374C323.592 381.225 320.221 388.099 317 395C298.685 393.02 298.685 393.02 280 391C283.375 379.75 283.375 379.75 285.188 374.875C285.532 373.944 285.876 373.014 286.23 372.055C286.484 371.377 286.738 370.699 287 370Z" fill="#33CBCA"/>
<path d="M424 312C430.27 313.32 436.54 314.64 443 316C442.67 316.66 442.34 317.32 442 318C434.476 318.125 434.476 318.125 431.625 317.375C431.089 317.251 430.553 317.127 430 317C429.34 317.66 428.68 318.32 428 319C425.375 319.625 425.375 319.625 423 320C423.33 317.36 423.66 314.72 424 312Z" fill="#33CBCA"/>
<path d="M432 314C437.445 314.99 437.445 314.99 443 316C442.67 316.66 442.34 317.32 442 318C439.36 318 436.72 318 434 318C433.34 316.68 432.68 315.36 432 314Z" fill="#33CBCA"/>
</g>
<defs>
<clipPath id="clip0_150_1608">
<rect width="640" height="640" fill="white"/>
</clipPath>
</defs>
</svg>
