<svg width="640" height="640" viewBox="0 0 640 640" fill="none" xmlns="http://www.w3.org/2000/svg">
<g clip-path="url(#clip0_150_1207)">
<path d="M398.938 95.625C400.201 95.6076 400.201 95.6076 401.49 95.5898C412.089 95.6388 420.711 99.4713 429 106C434.127 111.264 438.279 117.157 441 124C441.357 124.893 441.714 125.787 442.082 126.707C443.198 130.71 443.343 134.303 443.312 138.438C443.305 139.618 443.305 139.618 443.298 140.822C442.993 156.339 439.264 169.306 428.465 180.734C422.785 185.955 416.525 189.364 409 191C409.474 192.052 409.949 193.104 410.438 194.188C417.171 209.119 412.2 227.561 406.867 242.051C405.239 247.44 405.239 247.44 405 253C406.498 255.69 408.585 257.569 410.852 259.625C411.463 260.216 412.074 260.807 412.703 261.417C414.657 263.3 416.639 265.151 418.625 267C420.585 268.854 422.538 270.714 424.483 272.583C425.692 273.742 426.91 274.892 428.139 276.03C432.84 280.487 437.209 285.36 438.615 291.833C438.608 292.674 438.601 293.516 438.594 294.383C438.591 295.323 438.589 296.262 438.586 297.23C438.558 298.186 438.529 299.141 438.5 300.125C438.503 301.088 438.505 302.051 438.508 303.043C438.407 310.375 436.747 315.868 431.746 321.477C423.912 328.312 416.007 329.644 406.055 329.309C403 329 403 329 401 328C402.117 329.625 403.234 331.249 404.351 332.874C405.342 334.315 406.332 335.757 407.323 337.198C409.773 340.764 412.226 344.329 414.688 347.887C420.015 355.594 425.28 363.344 430.5 371.125C431.4 372.459 431.4 372.459 432.318 373.819C440.21 385.626 443.486 395.17 441.688 409.488C438.727 424.373 431.168 434.217 419 443C417.555 443.748 417.555 443.748 416.082 444.51C411.815 447.958 410.825 451.542 409.168 456.656C408.846 457.596 408.524 458.535 408.192 459.503C407.171 462.496 406.179 465.497 405.188 468.5C404.503 470.52 403.816 472.54 403.127 474.559C399.761 484.189 399.761 484.189 397 494C397.66 494.062 398.32 494.124 399 494.188C403.218 495.33 406.417 497.553 410 500C410.846 500.557 411.691 501.114 412.562 501.688C419.682 508.442 426.021 517.986 426.5 528C426.183 534.805 423.942 539.969 419.25 544.875C412.042 549.588 405.886 550.453 397.473 550.398C396.484 550.401 395.496 550.404 394.478 550.407C392.398 550.409 390.318 550.404 388.238 550.391C385.075 550.375 381.914 550.391 378.752 550.41C376.721 550.408 374.691 550.404 372.66 550.398C371.726 550.405 370.791 550.411 369.828 550.417C360.405 550.317 351.257 547.79 344.152 541.316C337.063 533.836 334.918 525.32 332.75 515.5C332.574 514.717 332.399 513.934 332.218 513.128C330.207 503.37 330.724 495.369 333.875 485.938C335.905 479.658 337.659 473.466 339 467C336.07 467.627 333.163 468.299 330.25 469C329.013 469.257 329.013 469.257 327.75 469.52C323.076 470.645 323.076 470.645 319.655 473.812C318.672 475.845 317.838 477.904 317 480C310.703 488.989 301.438 495.825 290.746 498.562C283.906 499.652 276.917 500.302 270.5 497.438C264.806 491.885 260.06 487.234 259.688 478.938C259.801 474.301 260.869 470.149 262.082 465.691C263.235 461.055 264.08 456.386 264.938 451.688C270.539 421.832 270.539 421.832 283.012 413.188C290.554 408.683 300.345 408.955 308.688 411C309.402 411.18 310.116 411.361 310.852 411.547C317.6 412.97 323.452 411.731 330 410C328.798 408.29 327.597 406.58 326.393 404.871C325.324 403.352 324.257 401.833 323.191 400.313C320.364 396.297 317.506 392.315 314.555 388.391C302.716 372.58 295.581 358.457 295.688 338.312C295.69 337.265 295.693 336.218 295.696 335.139C295.815 326.224 296.284 316.733 300.164 308.543C302.169 302.443 299.148 295.938 297.125 290.125C296.607 288.607 296.089 287.089 295.57 285.57C294.782 283.266 293.988 280.965 293.171 278.671C290.489 270.983 289.819 263.72 289.812 255.625C289.8 254.826 289.788 254.027 289.775 253.203C289.762 247.547 290.536 242.456 292 237C292.177 236.336 292.354 235.672 292.536 234.988C297.084 218.657 305.109 205.45 314.425 191.406C315.851 189.228 317.235 187.031 318.598 184.812C324.217 175.676 329.688 168.766 340 165C343.194 164.561 346.285 164.614 349.5 164.75C350.322 164.768 351.145 164.786 351.992 164.805C353.995 164.851 355.998 164.923 358 165C357.683 164.237 357.366 163.474 357.039 162.688C352.193 150.154 354.447 133.168 359.219 120.855C365.012 109.349 374.696 101.016 386.737 96.6196C390.782 95.5121 394.769 95.5678 398.938 95.625Z" fill="black"/>
<path d="M358 310C361.3 310.33 364.6 310.66 368 311C371.355 323.044 374.561 335.113 377.562 347.25C379.445 354.863 381.351 362.458 383.5 370C386.364 380.059 388.845 390.214 391.352 400.367C392.317 404.277 393.3 408.179 394.336 412.07C394.526 412.793 394.716 413.516 394.912 414.261C395.392 416.077 395.881 417.89 396.371 419.703C398.071 428.616 395.965 435.04 392.914 443.418C392.497 444.593 392.08 445.769 391.65 446.98C390.546 450.087 389.43 453.189 388.309 456.29C387.173 459.442 386.052 462.599 384.93 465.756C378.642 483.396 378.642 483.396 376 490C369.07 490 362.14 490 355 490C356.41 481.415 358.499 473.177 360.875 464.812C361.593 462.244 362.306 459.675 363.02 457.105C364.898 450.363 364.898 450.363 365.779 447.217C366.387 445.023 366.979 442.826 367.562 440.625C367.873 439.483 368.184 438.341 368.504 437.164C369.425 431.289 368.573 427.481 365.191 422.652C363.995 421.071 362.784 419.5 361.562 417.938C360.273 416.24 358.984 414.542 357.695 412.844C356.744 411.602 356.744 411.602 355.774 410.336C353.429 407.249 351.173 404.105 348.938 400.938C345.694 396.366 342.423 391.815 339.133 387.277C336.924 384.228 334.722 381.174 332.523 378.117C331.554 376.77 330.583 375.423 329.609 374.078C325.016 367.714 320.57 361.484 318 354C317.643 352.962 317.286 351.925 316.918 350.855C315.812 346.21 315.706 341.941 315.75 337.188C315.742 336.33 315.735 335.472 315.727 334.588C315.729 333.769 315.732 332.949 315.734 332.105C315.737 331.364 315.739 330.624 315.741 329.86C316 328 316 328 318 326C318.722 326.495 319.444 326.99 320.188 327.5C327.011 330.863 335.773 329.7 342.812 327.562C349.868 324.664 354.567 319.403 357.5 312.438C357.665 311.633 357.83 310.829 358 310Z" fill="#33CBCA"/>
<path d="M353 184.998C357.165 186.757 359.209 188.85 361 192.998C362.447 203.746 354.564 213.164 349 221.686C348.288 222.787 347.577 223.889 346.844 225.024C341.48 233.314 341.48 233.314 338.794 237.14C336.499 240.796 336.531 243.078 336.625 247.373C336.638 248.101 336.651 248.828 336.664 249.578C336.832 255.907 337.424 262.196 338 268.498C338.787 277.247 339.299 285.963 339.437 294.748C339.489 296.346 339.489 296.346 339.541 297.977C339.584 305.314 339.584 305.314 336.695 308.697C332.957 310.502 330.937 310.215 327 308.998C323.322 305.248 321.759 301.172 320.238 296.248C320.002 295.512 319.766 294.777 319.523 294.019C318.776 291.682 318.044 289.34 317.312 286.998C316.81 285.425 316.307 283.852 315.803 282.279C315.322 280.769 314.842 279.259 314.363 277.748C314.14 277.046 313.917 276.344 313.688 275.62C308.219 258.093 310.517 240.569 318 223.998C319.714 220.881 321.611 217.909 323.562 214.936C324.083 214.13 324.603 213.324 325.139 212.494C326.217 210.825 327.298 209.158 328.383 207.494C329.973 205.04 331.535 202.571 333.09 200.096C334.06 198.563 335.03 197.031 336 195.498C336.444 194.787 336.888 194.075 337.346 193.342C341.515 186.823 344.787 183.804 353 184.998Z" fill="white"/>
<path d="M389 390C389.242 391.042 389.485 392.083 389.734 393.156C390.073 394.604 390.411 396.052 390.75 397.5C390.928 398.263 391.105 399.026 391.288 399.812C392.197 403.692 393.134 407.559 394.156 411.41C394.34 412.109 394.523 412.808 394.712 413.527C395.223 415.459 395.744 417.388 396.266 419.316C398.082 428.426 396.038 434.839 392.914 443.418C392.497 444.593 392.08 445.769 391.65 446.98C390.546 450.087 389.43 453.189 388.309 456.29C387.173 459.442 386.052 462.599 384.93 465.756C378.642 483.396 378.642 483.396 376 490C369.07 490 362.14 490 355 490C356.41 481.415 358.499 473.177 360.875 464.812C361.593 462.244 362.306 459.675 363.02 457.105C364.898 450.363 364.898 450.363 365.779 447.217C366.387 445.023 366.979 442.826 367.562 440.625C367.873 439.483 368.184 438.341 368.504 437.164C369.468 431.013 368.439 427.281 364.875 422.266C363.597 420.583 362.305 418.912 361 417.25C359.705 415.57 358.413 413.888 357.125 412.203C356.55 411.467 355.975 410.732 355.383 409.974C354 408 354 408 353 405C357.479 402.854 361.963 400.718 366.452 398.591C367.978 397.867 369.503 397.139 371.026 396.409C373.217 395.359 375.413 394.319 377.609 393.281C378.289 392.953 378.968 392.625 379.668 392.287C383.101 390.677 385.131 390 389 390Z" fill="white"/>
<path d="M412.73 119.365C416.929 122.393 419.703 126.408 422 131.002C423.31 155.159 423.31 155.159 415.688 164.502C411.933 168.632 407.967 170.744 402.414 171.47C394.645 171.534 388.818 171.503 383 166.002C378.688 161.757 376.208 157.678 375.734 151.584C375.823 130.254 375.823 130.254 383.605 122.377C392.24 114.447 402.545 113.767 412.73 119.365Z" fill="white"/>
<path d="M380.999 190C386.832 194.346 390.954 198.877 392.999 206C393.874 213.875 392.033 220.914 389.874 228.438C389.556 229.58 389.239 230.722 388.911 231.899C386.822 239.335 384.587 246.718 382.206 254.066C379.995 260.899 378.02 267.792 376.091 274.71C374.551 280.198 372.852 285.609 370.999 291C366.387 291.181 363.209 290.847 358.999 289C358.355 280.5 357.771 271.999 357.239 263.491C357.05 260.737 356.808 258.005 356.515 255.262C355.773 245.11 359.744 239.558 365.656 231.811C373.722 220.932 379.672 210.277 380.562 196.688C380.645 195.433 380.729 194.179 380.815 192.887C380.906 191.458 380.906 191.458 380.999 190Z" fill="#33CBCA"/>
<path d="M256.899 110.823C258.138 110.81 259.376 110.798 260.652 110.784C262.012 110.776 263.371 110.769 264.73 110.762C265.415 110.758 266.099 110.754 266.805 110.75C270.431 110.729 274.057 110.714 277.683 110.705C281.417 110.694 285.152 110.66 288.886 110.62C291.766 110.594 294.646 110.585 297.526 110.582C298.902 110.577 300.278 110.565 301.654 110.547C315.132 110.376 315.132 110.376 321 115C322.872 118.744 322.448 123.344 321.375 127.313C318.694 130.603 315.049 131.868 310.927 132.388C309.839 132.393 308.751 132.399 307.631 132.404C306.389 132.417 305.148 132.43 303.869 132.443C302.527 132.441 301.185 132.438 299.844 132.434C298.454 132.438 297.065 132.444 295.675 132.45C292.77 132.459 289.865 132.456 286.96 132.446C283.248 132.435 279.537 132.455 275.824 132.484C272.957 132.503 270.09 132.502 267.223 132.497C265.855 132.496 264.486 132.502 263.118 132.515C249.803 132.619 249.803 132.619 245 128C243.264 124.528 243.398 120.788 244 117C248.039 111.898 250.6 110.88 256.899 110.823Z" fill="#33CBCA"/>
<path d="M309 432C305.128 464.61 305.128 464.61 295.688 473.312C291.111 476.917 286.939 479 281 479C281.784 471.418 283.33 464.021 284.875 456.562C285.26 454.655 285.26 454.655 285.652 452.709C289.245 435.294 289.245 435.294 292.625 430.875C297.819 428.961 303.735 430.923 309 432Z" fill="white"/>
<path d="M354.001 511C358.535 510.9 363.07 510.828 367.605 510.78C369.144 510.76 370.684 510.733 372.222 510.698C388.552 510.338 388.552 510.338 396.001 515C396.908 515.536 397.816 516.073 398.751 516.625C401.058 519.061 402.182 521.148 403.641 524.149C404.085 525.055 404.529 525.962 404.986 526.896C405.321 527.59 405.656 528.285 406.001 529C399.826 529.099 393.652 529.172 387.476 529.22C385.376 529.24 383.276 529.267 381.177 529.302C378.155 529.35 375.135 529.373 372.114 529.391C370.709 529.422 370.709 529.422 369.276 529.453C364.996 529.455 362.652 529.402 358.94 527.112C356.926 524.919 356.029 523.399 355.188 520.563C354.955 519.821 354.721 519.08 354.481 518.317C353.963 515.819 353.968 513.544 354.001 511Z" fill="white"/>
<path d="M389 390C389.277 391.192 389.554 392.385 389.84 393.613C390.206 395.18 390.572 396.746 390.938 398.312C391.12 399.098 391.302 399.884 391.49 400.693C391.667 401.451 391.845 402.208 392.027 402.988C392.19 403.685 392.352 404.381 392.519 405.099C392.938 406.753 393.46 408.381 394 410C393.406 410.252 392.811 410.503 392.199 410.763C389.465 411.922 386.733 413.086 384 414.25C383.065 414.646 382.131 415.041 381.168 415.449C380.246 415.842 379.325 416.236 378.375 416.641C377.537 416.997 376.699 417.353 375.836 417.72C372.174 419.373 368.594 421.203 365 423C359.06 414.585 359.06 414.585 353 406C357.999 402.251 363.406 399.829 369.045 397.219C370.998 396.314 372.944 395.395 374.891 394.475C376.135 393.895 377.38 393.316 378.625 392.738C379.752 392.213 380.878 391.687 382.039 391.146C385 390 385 390 389 390Z" fill="#33CBCA"/>
<path d="M258.5 309.561C259.246 309.553 259.993 309.546 260.762 309.539C265.307 309.591 268.304 310.096 272 312.998C273.894 316.098 274.003 317.906 273.875 321.561C272.921 325.309 271.995 326.638 269 328.998C265.631 330.683 261.889 330.309 258.188 330.373C256.976 330.429 256.976 330.429 255.74 330.486C251.351 330.551 249.566 330.437 245.984 327.662C243.694 324.588 243.08 322.818 243 318.998C244.975 310.702 250.997 309.36 258.5 309.561Z" fill="#33CBCA"/>
<path d="M397 275C402.025 279.211 406.755 283.6 411.375 288.25C412.003 288.874 412.631 289.498 413.277 290.141C413.874 290.739 414.471 291.337 415.086 291.953C415.623 292.491 416.159 293.029 416.712 293.583C418.798 295.879 419.017 297.15 419.375 300.312C419 304 419 304 416.938 306.938C413.22 309.547 411.474 309.519 407 309C404.086 306.953 404.086 306.953 401.375 304.25C398.027 300.969 394.712 297.868 391 295C391.619 292.415 392.245 289.832 392.875 287.25C393.049 286.52 393.223 285.791 393.402 285.039C393.576 284.33 393.75 283.621 393.93 282.891C394.087 282.241 394.244 281.592 394.406 280.923C395.059 278.809 395.964 276.951 397 275Z" fill="white"/>
<path d="M344 427C346.376 429.647 347.96 431.687 348.07 435.332C347.737 438.459 347.414 441.173 346 444C344.142 444.686 344.142 444.686 341.746 445.289C340.892 445.508 340.038 445.727 339.158 445.953C338.26 446.175 337.363 446.397 336.438 446.625C335.085 446.969 335.085 446.969 333.705 447.32C331.472 447.887 329.237 448.447 327 449C327.25 447.027 327.5 445.053 327.75 443.08C327.937 441.52 328.088 439.956 328.219 438.391C328.534 435.994 328.912 434.168 330 432C332.817 430.024 335.721 428.982 339 428C342 427 342 427 344 427Z" fill="white"/>
<path d="M405 372C409.117 375.835 412.182 379.922 415.25 384.625C415.696 385.293 416.142 385.96 416.602 386.648C421.311 393.784 421.749 399.57 421 408C419.992 411.216 418.687 414.086 417 417C415.547 414.283 414.571 411.755 413.852 408.762C413.653 407.948 413.454 407.135 413.249 406.297C413.043 405.436 412.837 404.575 412.625 403.688C412.186 401.886 411.746 400.086 411.305 398.285C411.087 397.393 410.868 396.501 410.644 395.583C409.441 390.755 408.118 385.96 406.797 381.164C406.03 378.12 405.469 375.103 405 372Z" fill="white"/>
<path d="M405 372C408.394 375.126 410.606 377.565 412 382C410.02 382.99 410.02 382.99 408 384C407.01 380.04 406.02 376.08 405 372Z" fill="#33CBCA"/>
<path d="M359 404C358.814 404.743 358.629 405.485 358.438 406.25C358.008 408.95 358.149 410.446 359 413C354.125 408.375 354.125 408.375 353 405C355 404 355 404 359 404Z" fill="#33CBCA"/>
<path d="M394 410C394.33 411.65 394.66 413.3 395 415C391.265 414.502 389.188 414.125 386 412C388.906 410.743 390.796 410 394 410Z" fill="white"/>
<path d="M269 323C270.32 323.66 271.64 324.32 273 325C271.68 326.32 270.36 327.64 269 329C268.34 328.67 267.68 328.34 267 328C267.66 326.35 268.32 324.7 269 323Z" fill="#33CBCA"/>
<path d="M388 390C390.178 394.355 390.03 395.466 389 400C388.01 400 387.02 400 386 400C386.66 396.7 387.32 393.4 388 390Z" fill="#33CBCA"/>
</g>
<defs>
<clipPath id="clip0_150_1207">
<rect width="640" height="640" fill="white"/>
</clipPath>
</defs>
</svg>
