<svg width="640" height="640" viewBox="0 0 640 640" fill="none" xmlns="http://www.w3.org/2000/svg">
<g clip-path="url(#clip0_150_1228)">
<path d="M426.386 100.914C432.969 106.168 437.893 113.187 441 121C441.357 121.893 441.714 122.787 442.082 123.707C443.198 127.71 443.343 131.303 443.312 135.438C443.305 136.618 443.305 136.618 443.297 137.822C442.99 153.461 439.205 166.316 428.324 177.809C422.697 183.114 416.081 186.066 409 189C409.288 189.502 409.577 190.003 409.875 190.52C418.511 208.123 410.771 228.025 405.375 245.375C404.652 247.76 403.932 250.145 403.215 252.531C401.816 257.172 400.408 261.809 398.991 266.443C397.13 272.552 395.308 278.67 393.535 284.805C393.289 285.643 393.043 286.482 392.789 287.346C390.042 296.597 390.042 296.597 391 306C392.901 308.601 394.884 310.6 397.347 312.672C400.236 315.207 402.636 317.949 405.137 320.859C408.217 324.399 411.458 327.784 414.687 331.188C421.051 337.923 427.376 344.69 433.637 351.521C434.988 352.987 436.351 354.441 437.715 355.895C450.147 369.262 458.998 382.976 458.461 401.816C457.605 413.151 450.977 424.094 442.689 431.577C437.68 435.797 432.333 439.585 427.008 443.391C422.2 446.829 417.524 450.414 412.875 454.063C411.403 455.212 409.932 456.362 408.461 457.512C407.37 458.365 407.37 458.365 406.257 459.236C402.346 462.293 398.428 465.34 394.5 468.375C393.775 468.941 393.05 469.507 392.304 470.09C391.636 470.604 390.969 471.119 390.281 471.649C389.694 472.104 389.107 472.56 388.502 473.029C387 474 387 474 385 474C385.165 474.681 385.33 475.361 385.5 476.063C387.418 487.335 384.263 495.783 378 505C375.635 508.268 373.421 510.833 370 513C369.34 513 368.68 513 368 513C368.288 513.667 368.577 514.333 368.875 515.02C371.945 522.643 374.112 529.863 370.859 537.774C367.353 544.066 363.907 547.698 357 550C345.6 550.923 334.818 549.054 323.681 546.802C320.914 546.245 318.142 545.719 315.369 545.195C313.588 544.846 311.807 544.494 310.027 544.141C308.799 543.909 308.799 543.909 307.546 543.673C300.195 542.151 294.886 538.764 290 533C281.738 518.479 280.699 499.602 284.64 483.364C288.332 470.653 293.771 458.473 299.002 446.337C301.475 440.543 303.766 434.678 306.062 428.813C306.485 427.793 306.908 426.773 307.343 425.723C307.902 424.323 307.902 424.323 308.472 422.895C308.795 422.109 309.117 421.324 309.449 420.515C311.064 413.136 307.319 405.42 305 398.531C304.604 397.337 304.208 396.143 303.8 394.912C302.539 391.106 301.271 387.303 300 383.5C298.326 378.492 296.661 373.481 295 368.469C294.614 367.324 294.229 366.179 293.832 364.999C287.171 344.891 288.593 324.357 297.824 305.266C298.809 303.368 299.837 301.494 300.875 299.625C302.235 296.452 301.713 295.308 301 292C300.955 290.374 300.959 288.747 301.008 287.121C301.026 286.206 301.045 285.291 301.064 284.349C301.084 283.388 301.104 282.427 301.125 281.438C301.242 272.49 301.242 272.49 299.5 263.75C294.402 246.824 299.42 230.329 307.218 215.156C309 212 309 212 311.101 209.106C313.39 205.362 314.077 202.073 314.875 197.813C317.101 187.367 321.066 177.468 330 171C338.889 165.874 347.511 161.572 358 162C357.505 160.866 357.01 159.731 356.5 158.563C352.036 145.043 354.883 128.32 360.625 115.688C365.264 107.076 372.252 100.374 381 96.0001C381.616 95.6817 382.232 95.3633 382.867 95.0352C396.94 89.094 414.197 92.7416 426.386 100.914Z" fill="black"/>
<path d="M321 305C323.873 308.451 326.388 312.034 328.857 315.775C334.682 324.556 340.087 331.694 350 336C352.688 336.356 355.185 336.596 357.875 336.688C358.563 336.722 359.252 336.756 359.961 336.791C361.64 336.873 363.32 336.938 365 337C364.726 348.002 364.385 359.001 364 370C363.971 370.846 363.942 371.692 363.911 372.563C363.73 377.744 363.526 382.923 363.296 388.102C363.225 389.761 363.159 391.421 363.1 393.08C363.014 395.443 362.906 397.803 362.793 400.164C362.773 400.835 362.753 401.506 362.733 402.197C361.998 415.756 356.705 427.604 350.609 439.465C349.896 440.878 349.185 442.291 348.474 443.705C346.626 447.376 344.76 451.038 342.891 454.698C340.977 458.454 339.079 462.219 337.18 465.982C333.469 473.33 329.74 480.668 326 488C324.264 487.86 322.528 487.714 320.793 487.566C319.826 487.486 318.86 487.405 317.864 487.323C314.104 486.899 310.637 486.029 307 485C309.546 477.101 312.429 469.334 315.327 461.56C316.199 459.22 317.067 456.879 317.934 454.538C320.445 447.775 322.969 441.021 325.633 434.316C326.008 433.367 326.383 432.417 326.769 431.438C327.439 429.752 328.12 428.07 328.815 426.394C329.109 425.651 329.404 424.909 329.707 424.145C330.086 423.222 330.086 423.222 330.472 422.281C331.965 415.832 330.823 410.31 328.656 404.188C328.411 403.464 328.166 402.741 327.914 401.995C327.12 399.66 326.31 397.33 325.5 395C324.949 393.386 324.4 391.771 323.852 390.155C322.497 386.166 321.129 382.181 319.757 378.197C318.276 373.899 316.803 369.598 315.344 365.293C314.678 363.329 314.006 361.368 313.324 359.41C311.561 354.22 310.465 349.466 310 344C309.921 343.122 309.843 342.244 309.762 341.34C309.344 327.813 314.196 316.334 321 305Z" fill="#33CBCA"/>
<path d="M360 187.999C363.336 190.057 364.826 191.738 367 194.999C369.406 207.383 359.425 218.055 352.961 227.639C351.211 230.224 349.447 232.797 347.664 235.358C347.032 236.291 346.401 237.225 345.75 238.186C345.208 238.964 344.667 239.741 344.109 240.542C342.078 245.039 342.604 249.383 344.266 253.92C344.843 255.345 345.433 256.764 346.035 258.178C346.351 258.949 346.668 259.721 346.994 260.515C348.005 262.973 349.033 265.423 350.062 267.874C350.727 269.48 351.39 271.087 352.053 272.694C355.98 282.205 355.98 282.205 360.023 291.668C360.344 292.419 360.666 293.171 360.997 293.945C361.597 295.346 362.206 296.744 362.827 298.136C364.843 302.881 366.242 307.794 366 312.999C363.565 316.024 361.844 316.779 358.125 317.749C350.337 315.88 345.316 305.285 341.187 298.936C339.964 297.07 338.74 295.204 337.515 293.339C336.92 292.43 336.326 291.521 335.713 290.584C334.188 288.283 332.632 286.012 331.047 283.753C322.634 271.705 316.469 259.108 318 243.999C320.455 232.51 326.056 223.194 332.403 213.458C334.113 210.824 335.79 208.171 337.465 205.514C338.621 203.696 339.778 201.878 340.937 200.061C341.481 199.203 342.024 198.344 342.584 197.459C343.101 196.659 343.619 195.858 344.152 195.034C344.606 194.326 345.059 193.619 345.527 192.89C349.571 187.697 353.723 186.968 360 187.999Z" fill="white"/>
<path d="M385 330C386.102 331.104 386.102 331.104 387.227 332.23C388.883 333.884 390.543 335.534 392.211 337.176C392.925 337.881 393.639 338.586 394.375 339.312C395.084 340.01 395.793 340.707 396.523 341.426C398.515 343.496 400.408 345.593 402.289 347.762C406.075 352.122 410.021 356.316 414 360.5C428.471 375.72 428.471 375.72 432.875 382.812C433.45 383.726 434.025 384.64 434.617 385.582C438.112 391.693 438.06 398.945 436.305 405.66C432.968 413.459 426.598 418.066 420 423C418.799 423.911 417.599 424.823 416.398 425.734C413.779 427.714 411.149 429.677 408.512 431.633C402.351 436.212 396.269 440.893 390.182 445.569C385.874 448.865 381.564 452.067 377 455C375.35 451.37 373.7 447.74 372 444C372.713 443.299 373.426 442.598 374.16 441.875C375.128 440.917 376.095 439.958 377.062 439C377.528 438.542 377.994 438.085 378.475 437.613C381.213 434.893 383.805 432.1 386.32 429.172C390.955 423.817 396.048 418.937 401.123 414.004C401.852 413.286 402.581 412.568 403.332 411.828C403.989 411.188 404.646 410.547 405.323 409.888C407.848 407.045 408.894 404.831 409.375 401.062C408.883 397.048 407.809 395.941 405 393C401.895 390.744 398.652 388.745 395.375 386.75C394.068 385.938 394.068 385.938 392.734 385.109C388.443 382.421 388.443 382.421 384 380C383.823 363.314 384.372 346.671 385 330Z" fill="white"/>
<path d="M362 384C362.119 387.854 362.188 391.708 362.25 395.563C362.3 397.163 362.3 397.163 362.352 398.795C362.532 413.897 357.364 426.322 350.609 439.465C349.896 440.878 349.185 442.292 348.474 443.706C346.626 447.376 344.76 451.038 342.891 454.698C340.977 458.455 339.079 462.219 337.18 465.983C333.469 473.33 329.74 480.668 326 488C324.264 487.86 322.528 487.714 320.793 487.567C319.826 487.486 318.86 487.406 317.864 487.323C314.104 486.899 310.637 486.03 307 485C309.546 477.102 312.429 469.334 315.327 461.56C316.199 459.22 317.067 456.879 317.934 454.538C320.445 447.775 322.969 441.021 325.633 434.317C326.008 433.367 326.383 432.417 326.769 431.439C327.439 429.752 328.12 428.07 328.815 426.394C332.53 417.027 330.817 410.322 327.5 401.125C326.841 399.254 326.185 397.381 325.531 395.508C325.091 394.281 325.091 394.281 324.643 393.028C324 391 324 391 324 389C331.049 387.305 338.056 386.244 345.25 385.375C346.843 385.174 346.843 385.174 348.469 384.969C353.014 384.41 357.415 383.923 362 384Z" fill="white"/>
<path d="M234.761 110.596C236.033 110.585 236.033 110.585 237.331 110.575C240.116 110.557 242.901 110.56 245.687 110.566C247.633 110.562 249.579 110.556 251.525 110.55C255.597 110.541 259.668 110.544 263.74 110.554C268.949 110.565 274.157 110.545 279.365 110.516C283.382 110.497 287.399 110.498 291.415 110.503C293.336 110.504 295.256 110.498 297.176 110.485C299.863 110.47 302.55 110.481 305.237 110.498C306.024 110.488 306.811 110.479 307.621 110.469C313.161 110.542 316.433 111.829 320.999 115C322.737 118.475 322.595 122.209 321.999 126C319.469 129.282 317.922 130.692 313.999 132C311.216 132.106 308.459 132.157 305.676 132.161C304.826 132.166 303.977 132.171 303.102 132.176C300.291 132.191 297.479 132.197 294.667 132.203C292.713 132.209 290.758 132.214 288.804 132.22C284.704 132.231 280.604 132.237 276.505 132.24C271.256 132.245 266.007 132.269 260.758 132.298C256.72 132.317 252.682 132.322 248.644 132.323C246.709 132.326 244.774 132.334 242.839 132.348C240.129 132.365 237.42 132.363 234.711 132.356C233.914 132.365 233.118 132.375 232.297 132.384C226.63 132.342 222.404 131.245 218.124 127.25C216.219 123.44 216.546 119.81 217.562 115.75C221.798 110.592 228.627 110.561 234.761 110.596Z" fill="#33CBCA"/>
<path d="M412.731 116.369C417.235 119.609 420.254 123.761 422.001 129.001C422.253 132.038 422.232 135.08 422.251 138.126C422.271 138.944 422.292 139.761 422.313 140.603C422.37 149.551 420.24 156.72 414.016 163.271C408.775 167.771 403.006 169.696 396.122 169.314C389.13 168.284 383.618 164.171 379.001 159.001C375.837 154.039 375.521 149.956 375.626 144.251C375.637 143.453 375.647 142.655 375.659 141.832C375.914 132.357 377.537 125.616 384.231 118.626C392.452 111.077 403.253 111.144 412.731 116.369Z" fill="white"/>
<path d="M385.001 330C385.735 330.736 386.47 331.472 387.227 332.23C388.883 333.884 390.543 335.534 392.211 337.176C392.926 337.881 393.64 338.586 394.376 339.312C395.084 340.01 395.793 340.707 396.524 341.426C398.506 343.486 400.39 345.572 402.262 347.73C406.202 352.268 410.306 356.638 414.438 361C415.17 361.775 415.901 362.549 416.655 363.348C418.435 365.233 420.217 367.117 422.001 369C418.144 372.966 414.086 376.602 409.876 380.188C409.255 380.721 408.635 381.254 407.997 381.803C405.385 384.035 402.866 386.089 400.001 388C393.663 387.372 388.092 384.912 384.001 380C382.907 374.345 383.33 368.988 383.776 363.271C384.033 359.522 384.162 355.775 384.266 352.02C384.285 351.337 384.305 350.654 384.324 349.95C384.363 348.571 384.401 347.191 384.44 345.812C384.595 340.54 384.802 335.27 385.001 330Z" fill="#33CBCA"/>
<path d="M386.999 194C391.626 198.42 393.082 202.083 393.245 208.472C393.189 214.592 391.613 220.002 389.823 225.816C389.498 226.913 389.172 228.009 388.836 229.139C387.799 232.618 386.743 236.09 385.687 239.562C384.988 241.897 384.291 244.233 383.595 246.568C380.847 255.754 378.075 264.918 374.999 274C371.575 269.718 369.78 265.114 367.749 260.062C367.373 259.169 366.996 258.275 366.609 257.354C366.258 256.485 365.907 255.617 365.546 254.723C365.225 253.936 364.903 253.15 364.572 252.34C363.618 248.446 364.479 245.928 366.41 242.48C367.002 241.606 367.593 240.732 368.202 239.832C368.853 238.856 369.504 237.879 370.175 236.873C370.859 235.863 371.544 234.853 372.249 233.812C382.613 218.476 382.613 218.476 386.562 200.75C386.645 199.487 386.729 198.223 386.816 196.922C386.906 195.476 386.906 195.476 386.999 194Z" fill="#33CBCA"/>
<path d="M250.266 309.761C252.294 309.752 254.321 309.721 256.349 309.689C257.632 309.684 258.916 309.679 260.238 309.674C262.002 309.66 262.002 309.66 263.802 309.645C267.318 310.037 269.171 310.921 272 313.002C274.566 316.423 274.509 319.85 274 324.002C271.827 326.632 270.053 328.475 267 330.002C262.914 330.282 258.827 330.315 254.733 330.352C253.374 330.368 252.015 330.396 250.657 330.434C248.692 330.489 246.727 330.507 244.761 330.525C243.585 330.545 242.409 330.565 241.198 330.585C237.089 329.836 235.651 328.136 233 325.002C232.67 324.672 232.34 324.342 232 324.002C231.41 316.926 231.41 316.926 233.875 313.064C238.493 308.581 244.145 309.779 250.266 309.761Z" fill="#33CBCA"/>
<path d="M362 384C362 392.25 362 400.5 362 409C361.505 407.02 361.505 407.02 361 405C360.34 405.091 359.68 405.182 359 405.275C355.98 405.688 352.959 406.094 349.938 406.5C348.899 406.643 347.861 406.786 346.791 406.934C341.478 407.642 336.36 408.182 331 408C330.67 408.66 330.34 409.32 330 410C328.995 406.876 327.997 403.751 327 400.625C326.714 399.736 326.428 398.846 326.133 397.93C325.727 396.654 325.727 396.654 325.312 395.352C325.061 394.566 324.81 393.781 324.551 392.971C324 391 324 391 324 389C331.049 387.304 338.056 386.243 345.25 385.375C346.843 385.174 346.843 385.174 348.469 384.969C353.05 384.405 357.369 384 362 384Z" fill="#33CBCA"/>
<path d="M304.001 505C312.059 505.999 320.037 507.294 328.001 508.875C328.801 509.024 329.601 509.173 330.426 509.327C337.258 510.73 342.1 513.589 346.813 518.812C347.397 519.438 347.981 520.063 348.583 520.707C350.456 523.736 350.675 526.491 351.001 530C343.991 529.063 336.992 528.063 330.001 527C328.52 526.775 328.52 526.775 327.009 526.546C324.147 526.098 321.293 525.617 318.438 525.125C317.553 524.988 316.668 524.851 315.756 524.71C311.591 523.959 309.547 523.543 306.473 520.492C304.247 516.725 303.887 514.762 303.938 510.375C303.947 509.372 303.956 508.369 303.965 507.336C303.977 506.565 303.989 505.794 304.001 505Z" fill="white"/>
<path d="M385 330C385.735 330.736 386.469 331.472 387.226 332.23C388.882 333.884 390.543 335.534 392.211 337.176C395.901 340.819 399.552 344.496 403.062 348.312C403.631 348.927 404.199 349.542 404.785 350.176C406 352 406 352 406 356C403.945 358.297 403.945 358.297 401.125 360.75C400.387 361.397 400.387 361.397 399.635 362.056C385.898 374 385.898 374 384 374C383.93 364.028 384.138 354.091 384.5 344.125C384.548 342.743 384.596 341.362 384.644 339.98C384.761 336.654 384.879 333.327 385 330Z" fill="#33CBCA"/>
<path d="M222.001 208.001C225.001 210.501 225.001 210.501 227.001 213.001C227.331 213.331 227.661 213.661 228.001 214.001C228.453 217.891 228.128 219.765 226.251 223.251C222.924 227.317 221.39 227.819 216.188 228.501C211.913 228.365 209.342 226.862 206.298 223.915C204.315 220.99 204.159 218.593 204.434 215.122C205.349 211.698 207.219 210.071 210.001 208.001C214.172 206.611 217.76 206.885 222.001 208.001Z" fill="#33CBCA"/>
<path d="M359.001 466C363.576 471.665 365.517 476.316 365.297 483.59C364.893 486.873 363.827 489.26 362.001 492C361.341 492.33 360.681 492.66 360.001 493C358.96 490.968 357.944 488.924 356.938 486.875C356.37 485.738 355.801 484.601 355.215 483.43C353.595 478.855 354.14 476.066 355.973 471.664C356.333 470.991 356.692 470.318 357.063 469.625C357.425 468.937 357.787 468.248 358.161 467.539C358.576 466.777 358.576 466.777 359.001 466Z" fill="white"/>
<path d="M238 311C237.67 312.32 237.34 313.64 237 315C236.34 315 235.68 315 235 315C235.516 315.598 236.031 316.196 236.562 316.812C237.037 317.534 237.511 318.256 238 319C237.67 319.99 237.34 320.98 237 322C236.01 322 235.02 322 234 322C233.67 322.99 233.34 323.98 233 325C232 324 232 324 231.688 320.25C231.718 316.897 232.005 315.993 233.875 313C236 311 236 311 238 311Z" fill="#33CBCA"/>
<path d="M407 354C407 357.991 405.854 360.484 404 364C401.312 365.438 401.312 365.438 399 366C398.67 364.68 398.34 363.36 398 362C400.97 359.36 403.94 356.72 407 354Z" fill="#33CBCA"/>
<path d="M219 206.999C218.381 207.247 217.762 207.494 217.125 207.749C214.857 208.814 214.857 208.814 214.062 210.999C212.602 213.749 210.887 214.088 208 214.999C208.33 214.401 208.66 213.803 209 213.187C210.208 210.946 210.208 210.946 210 207.999C213.196 206.934 215.657 206.925 219 206.999Z" fill="#33CBCA"/>
<path d="M421 369.999C416.25 374.874 416.25 374.874 414 375.999C413.67 374.349 413.34 372.699 413 370.999C415.928 370.023 417.956 369.917 421 369.999Z" fill="#33CBCA"/>
</g>
<defs>
<clipPath id="clip0_150_1228">
<rect width="640" height="640" fill="white"/>
</clipPath>
</defs>
</svg>
