<svg width="640" height="640" viewBox="0 0 640 640" fill="none" xmlns="http://www.w3.org/2000/svg">
<g clip-path="url(#clip0_150_1250)">
<path d="M398.5 89.6887C399.212 89.6832 399.924 89.6776 400.658 89.6719C408.898 89.7827 415.838 91.9862 423 96.0012C423.99 96.5375 424.98 97.0737 426 97.6262C434.479 104.339 440.062 113.687 443 124.001C444.481 141.18 442.133 158.774 430.812 172.251C426.42 176.923 421.683 180.096 416 183.001C415.305 183.383 414.61 183.764 413.894 184.157C412 185.001 412 185.001 409 185.001C409.433 185.879 409.433 185.879 409.875 186.775C418.873 207.583 409.317 230.286 402.781 250.431C400.947 256.115 399.226 261.828 397.562 267.564C397.303 268.438 397.044 269.313 396.777 270.214C394.903 276.045 394.903 276.045 395 282.001C396.663 284.696 398.629 287.11 400.625 289.564C406.335 296.868 411.767 304.219 413.738 313.466C415.384 318.077 417.798 320.029 421.562 323.001C422.517 323.786 422.517 323.786 423.492 324.587C425.314 326.077 427.152 327.544 429 329.001C429.779 329.619 430.559 330.236 431.363 330.872C432.729 331.936 434.1 332.993 435.476 334.044C441.066 338.379 446.525 342.879 451.994 347.365C453.865 348.891 455.75 350.397 457.64 351.9C467.951 360.198 477.494 370.516 480 384.001C480.147 386.703 480.23 389.362 480.25 392.064C480.28 393.115 480.28 393.115 480.312 394.187C480.395 405.637 475.694 415.319 470.676 425.339C468.869 428.947 467.095 432.571 465.316 436.193C464.774 437.291 464.774 437.291 464.222 438.412C460.563 445.851 457.045 453.353 453.562 460.876C453.013 462.058 452.464 463.239 451.898 464.456C449.232 470.141 449.232 470.141 447 476.001C448.039 477.602 448.039 477.602 449.625 479.126C457.618 488.01 461.824 499.401 461.339 511.427C460.38 518.694 458.601 525.089 453.062 530.126C447.913 534.009 443.522 535.733 437.023 535.552C430.128 534.296 424.052 530.384 418 527.001C417.067 526.487 416.134 525.973 415.173 525.443C380.891 506.523 380.891 506.523 377.5 495.31C377.335 494.548 377.17 493.786 377 493.001C376.814 492.147 376.628 491.292 376.437 490.411C375.33 479.882 380.61 471.454 385.3 462.357C389.655 453.855 392.089 445.313 394.437 436.064C394.742 434.875 395.047 433.687 395.361 432.463C397.691 423.336 399.914 414.187 402 405.001C400.838 404.652 399.677 404.303 398.48 403.943C391.192 401.513 384.28 398.149 377.312 394.939C375.224 393.979 373.135 393.02 371.045 392.065C369.754 391.475 368.463 390.882 367.175 390.285C363.512 388.609 359.843 387.207 356 386.001C355.793 387.156 355.587 388.311 355.375 389.501C354.343 394.074 352.903 398.472 351.312 402.876C351.093 403.511 350.873 404.146 350.647 404.8C348.313 411.081 344.672 416.43 341 422.001C339.876 423.762 338.756 425.525 337.64 427.29C332.33 435.65 327.015 444.006 321.625 452.314C317.279 459.014 312.952 465.725 308.64 472.446C307.588 474.086 306.534 475.724 305.48 477.362C302.183 482.507 298.96 487.655 296 493.001C296.712 493.535 297.425 494.069 298.16 494.618C307.959 502.241 315.213 510.635 318 523.001C318.773 529.747 318.95 536.292 315.41 542.282C312.082 546.338 307.964 549.346 303 551.001C301.004 551.174 299.002 551.268 297 551.314C295.948 551.351 294.896 551.388 293.812 551.427C289.512 550.947 286.04 549.71 282.02 548.162C278.898 546.962 275.754 545.863 272.589 544.782C270.951 544.22 270.951 544.22 269.279 543.646C267.047 542.882 264.816 542.119 262.584 541.357C239.084 533.278 239.084 533.278 234.687 525.064C231.763 519.054 231.792 512.609 231.75 506.064C231.729 505.31 231.708 504.557 231.687 503.781C231.593 489.551 235.94 477.791 242.125 465.314C242.832 463.854 243.537 462.394 244.241 460.932C245.72 457.866 247.206 454.804 248.699 451.744C252.207 444.535 255.611 437.277 259.025 430.022C260.433 427.034 261.845 424.049 263.26 421.065C263.922 419.661 264.579 418.255 265.231 416.847C266.638 413.812 268.071 410.876 269.726 407.964C275.695 397.014 275.782 384.898 276.75 372.689C276.944 370.426 277.14 368.164 277.339 365.902C277.629 362.605 277.918 359.308 278.201 356.011C280.351 331.11 280.351 331.11 283.75 321.689C284.006 320.939 284.263 320.189 284.527 319.416C286.431 314.051 288.846 309.218 291.996 304.458C294.181 299.109 291.438 291.71 290.406 286.068C290.095 284.35 289.783 282.631 289.472 280.913C288.986 278.236 288.499 275.559 288.011 272.883C287.536 270.278 287.065 267.673 286.593 265.068C286.448 264.278 286.304 263.488 286.154 262.674C281.98 239.56 284.154 221.475 297.437 201.564C302.469 194.839 308.94 189.645 315.409 184.361C318.308 181.883 320.561 179.305 322.75 176.189C329.664 167.009 339.569 161.124 351 159.001C353.333 158.962 355.667 158.956 358 159.001C357.505 157.97 357.01 156.939 356.5 155.876C354.194 149.731 354.706 143.463 355 137.001C355.042 136.013 355.085 135.024 355.128 134.005C356.032 120.458 360.915 109.15 370.863 99.7512C374.32 96.9198 377.97 94.9008 382 93.0012C383.732 92.104 383.732 92.104 385.5 91.1887C389.747 89.6816 394.041 89.718 398.5 89.6887Z" fill="black"/>
<path d="M323.938 297.363C328.051 298.218 329.583 299.95 332.438 303C333.156 303.755 333.156 303.755 333.888 304.525C337.084 307.911 340.163 311.399 343.16 314.961C346.265 318.402 349.731 321.487 353.156 324.605C355 327 355 327 354.707 329.365C354.055 331.796 353.345 334.168 352.529 336.549C352.082 337.858 352.082 337.858 351.627 339.194C351.304 340.13 350.981 341.066 350.648 342.031C350.143 343.511 350.143 343.511 349.627 345.02C348.546 348.181 347.461 351.341 346.375 354.5C345.316 357.59 344.258 360.681 343.2 363.771C342.499 365.821 341.796 367.869 341.091 369.918C339.38 374.9 337.703 379.889 336.1 384.907C335.796 385.848 335.493 386.788 335.181 387.757C334.619 389.505 334.066 391.256 333.524 393.011C330.871 401.238 326.38 407.967 321.417 414.975C319.121 418.256 316.973 421.629 314.812 425C313.897 426.414 312.982 427.828 312.066 429.242C308.441 434.857 304.848 440.492 301.25 446.125C292.931 459.145 284.571 472.144 276 485C271.942 484.345 268.46 483.054 264.688 481.438C263.619 480.982 262.55 480.527 261.449 480.059C260.237 479.535 260.237 479.535 259 479C261.789 471.616 265.069 464.534 268.543 457.449C270.096 454.282 271.637 451.108 273.176 447.934C273.492 447.282 273.808 446.631 274.133 445.959C278.103 437.75 281.923 429.471 285.736 421.188C286.238 420.099 286.74 419.009 287.258 417.887C287.692 416.94 288.127 415.994 288.575 415.018C289.337 413.404 290.118 411.795 291.01 410.249C294.2 404.544 294.901 399.23 295.449 392.773C295.552 391.708 295.655 390.643 295.761 389.545C296.085 386.156 296.386 382.766 296.688 379.375C296.9 377.121 297.114 374.867 297.33 372.613C298.17 363.731 298.973 354.855 299.512 345.949C299.856 340.896 300.598 336.265 302.125 331.438C302.344 330.727 302.563 330.016 302.788 329.284C305.667 320.392 313.621 299.6 323.938 297.363Z" fill="#33CBCA"/>
<path d="M406 337C411.466 340.994 416.721 345.203 421.941 349.512C424.687 351.745 427.462 353.929 430.257 356.098C436.756 361.145 442.992 366.37 449 372C449.928 372.846 450.856 373.691 451.812 374.562C452.895 375.769 452.895 375.769 454 377C454.696 377.768 454.696 377.768 455.406 378.551C459.844 384.307 460.068 390.884 459.376 397.97C457.418 408.532 450.85 418.931 446.25 428.562C445.468 430.204 444.687 431.845 443.906 433.486C442.747 435.922 441.588 438.358 440.428 440.793C436.59 448.849 432.791 456.923 429 465C423 462 417 459 411 456C412.49 448.025 414.389 440.177 416.375 432.312C416.684 431.076 416.994 429.84 417.313 428.566C418.613 423.393 419.918 418.225 421.348 413.086C421.536 412.407 421.724 411.729 421.918 411.03C422.393 409.344 422.881 407.662 423.371 405.98C424.118 402.439 424.432 399.608 424 396C420.741 392.172 417.627 390.05 413.047 388.055C411.881 387.54 410.715 387.026 409.515 386.496C408.9 386.231 408.286 385.967 407.653 385.695C405.725 384.864 403.804 384.019 401.884 383.17C395.466 380.341 389.021 377.58 382.562 374.848C381.413 374.356 380.263 373.864 379.079 373.358C376.894 372.426 374.703 371.507 372.507 370.603C371.53 370.186 370.553 369.769 369.547 369.34C368.689 368.983 367.832 368.626 366.948 368.258C365 367 365 367 364.126 365.138C363.972 362.536 364.498 360.883 365.433 358.453C365.753 357.609 366.072 356.764 366.4 355.895C366.743 355.022 367.085 354.149 367.437 353.25C367.776 352.362 368.114 351.474 368.463 350.559C369.299 348.368 370.145 346.183 371 344C372.004 344.157 373.008 344.315 374.043 344.477C384.559 345.868 394.05 346.355 403 340C404.028 339.029 405.039 338.037 406 337Z" fill="white"/>
<path d="M365 189.998C368.266 192.124 371.24 194.477 373 197.998C374.082 208.211 369.576 214.901 364 222.998C361.017 227.424 358.068 231.872 355.122 236.323C354.182 237.726 353.217 239.112 352.246 240.494C350.214 243.465 349.021 245.892 348.312 249.436C348.986 252.928 349.68 254.317 351.637 257.166C352.181 257.959 352.725 258.752 353.286 259.57C355.973 263.376 358.719 267.134 361.5 270.873C362.101 271.685 362.702 272.498 363.321 273.334C365.212 275.89 367.106 278.444 369 280.998C393.554 314.105 393.554 314.105 393 321.998C391.424 324.953 389.635 325.126 386.438 326.248C383.306 326.542 382.153 326.1 379.5 324.33C374.968 320.317 370.937 315.919 367.043 311.295C364.32 308.233 361.415 305.376 358.5 302.498C354.378 298.423 350.412 294.311 346.672 289.877C344.723 287.687 342.624 285.706 340.5 283.686C331.548 274.809 324.894 263.768 324.562 250.998C325.122 234.304 334.763 221.528 343.66 208.04C344.892 206.162 346.106 204.275 347.312 202.381C347.993 201.326 348.674 200.272 349.375 199.186C349.96 198.272 350.545 197.358 351.148 196.416C355.106 191.247 358.39 188.858 365 189.998Z" fill="white"/>
<path d="M297 372C297.495 372.99 297.495 372.99 298 374C300.473 374.453 302.864 374.78 305.359 375.035C306.101 375.119 306.842 375.202 307.606 375.288C309.986 375.555 312.368 375.809 314.75 376.062C317.117 376.322 319.484 376.584 321.851 376.847C323.326 377.011 324.8 377.171 326.275 377.328C329.896 377.721 333.443 378.214 337 379C336.288 381.655 335.567 384.306 334.824 386.953C334.34 388.743 333.889 390.543 333.52 392.359C331.569 400.867 326.296 407.678 321.482 414.797C319.213 418.169 317.014 421.584 314.812 425C314.369 425.684 313.926 426.369 313.47 427.074C309.37 433.408 305.311 439.767 301.25 446.125C292.931 459.145 284.571 472.144 276 485C271.942 484.345 268.46 483.054 264.688 481.438C263.619 480.982 262.55 480.527 261.449 480.059C260.237 479.535 260.237 479.535 259 479C261.789 471.616 265.069 464.534 268.543 457.449C270.096 454.282 271.637 451.108 273.176 447.934C273.492 447.282 273.808 446.631 274.133 445.959C278.103 437.75 281.923 429.471 285.736 421.188C286.238 420.099 286.74 419.009 287.258 417.887C287.728 416.853 288.199 415.819 288.684 414.753C290 412 290 412 291.191 410.016C295.268 403.221 295.173 395.214 295.75 387.5C295.875 385.995 296.001 384.489 296.129 382.984C296.437 379.324 296.724 375.663 297 372Z" fill="white"/>
<path d="M200.68 110.861C201.667 110.855 202.654 110.85 203.671 110.844C204.757 110.843 205.844 110.842 206.964 110.84C208.105 110.835 209.247 110.83 210.423 110.825C214.214 110.811 218.006 110.804 221.797 110.798C224.425 110.793 227.054 110.787 229.682 110.781C234.494 110.772 239.306 110.766 244.118 110.763C251.197 110.758 258.275 110.741 265.353 110.712C271.486 110.687 277.618 110.68 283.751 110.678C286.359 110.675 288.966 110.667 291.574 110.654C295.222 110.637 298.87 110.639 302.519 110.645C303.597 110.636 304.676 110.627 305.787 110.617C311.242 110.648 315.356 110.789 320 114.002C322.671 118.009 322.827 121.29 322 126.002C319.47 129.283 317.923 130.694 314 132.002C312.402 132.101 310.801 132.145 309.2 132.155C308.212 132.164 307.223 132.173 306.205 132.182C305.122 132.186 304.039 132.19 302.923 132.194C301.21 132.207 301.21 132.207 299.463 132.219C295.677 132.244 291.891 132.261 288.105 132.275C286.814 132.28 285.522 132.286 284.192 132.291C278.764 132.312 273.336 132.331 267.909 132.343C260.137 132.359 252.365 132.392 244.594 132.449C238.466 132.493 232.338 132.508 226.21 132.515C223.605 132.522 221 132.537 218.396 132.561C214.752 132.592 211.109 132.592 207.466 132.585C206.388 132.601 205.311 132.618 204.202 132.635C196.04 132.567 196.04 132.567 192.346 129.59C189.62 126.583 189.088 125.762 188.625 121.752C189.119 116.809 190.538 115.463 194 112.002C196.425 110.789 197.97 110.87 200.68 110.861Z" fill="#33CBCA"/>
<path d="M411.999 113C416.904 117.013 421.815 122.614 422.999 129C423.553 139.156 422.861 150.02 415.999 158C411.283 162.964 405.952 165.714 399.124 166.375C391.359 165.999 385.838 163.553 380.507 157.914C376.587 152.937 375.501 149.263 375.624 142.937C375.635 142.186 375.646 141.436 375.657 140.662C375.927 131.119 377.074 122.645 384.05 115.625C392.588 108.507 402.083 108.177 411.999 113Z" fill="white"/>
<path d="M406 337C411.615 341.103 417.022 345.427 422.387 349.852C424.907 351.924 427.448 353.967 430 356C428.553 360.697 425.79 363.678 422.438 367.125C416.987 372.865 411.923 378.797 407 385C399.123 381.925 391.351 378.615 383.593 375.254C381.543 374.367 379.491 373.484 377.439 372.602C376.127 372.034 374.816 371.466 373.504 370.898C371.738 370.135 371.738 370.135 369.936 369.357C367 368 367 368 364 366C365.44 358.277 368.055 351.272 371 344C372.004 344.157 373.008 344.315 374.043 344.477C384.559 345.868 394.05 346.355 403 340C404.028 339.029 405.039 338.037 406 337Z" fill="#33CBCA"/>
<path d="M228.095 309.837C229.362 309.823 229.362 309.823 230.654 309.808C232.026 309.802 232.026 309.802 233.426 309.795C234.835 309.787 234.835 309.787 236.273 309.778C238.265 309.768 240.256 309.762 242.248 309.758C245.29 309.748 248.331 309.717 251.373 309.686C253.307 309.679 255.241 309.674 257.176 309.67C258.084 309.658 258.992 309.646 259.929 309.633C264.784 309.65 268.059 309.831 272 312.998C274.128 315.61 274.115 317.756 273.875 320.998C273.289 324.787 272.115 326.638 269 328.998C266.728 330.134 265.429 330.142 262.905 330.175C262.06 330.188 261.216 330.201 260.345 330.214C259.431 330.222 258.516 330.229 257.574 330.237C256.634 330.245 255.694 330.253 254.726 330.261C252.735 330.275 250.743 330.286 248.752 330.294C245.71 330.311 242.669 330.355 239.627 330.399C237.692 330.409 235.758 330.417 233.824 330.424C232.915 330.442 232.007 330.459 231.071 330.477C226.849 330.463 224.604 330.375 220.948 328.097C217.917 324.832 217.666 322.496 217.707 318.037C218.162 314.867 219.753 313.179 222 310.998C224.276 309.86 225.566 309.86 228.095 309.837Z" fill="#33CBCA"/>
<path d="M414 344C417.937 346.224 421.337 348.799 424.812 351.688C425.788 352.496 426.764 353.304 427.77 354.137C428.506 354.752 429.242 355.366 430 356C428.553 360.697 425.79 363.678 422.438 367.125C416.987 372.865 411.923 378.797 407 385C397 381 397 381 387 377C390.009 372.247 393.4 368.082 397.125 363.875C398.278 362.559 399.431 361.243 400.582 359.926C401.154 359.272 401.726 358.618 402.315 357.944C406.287 353.361 410.141 348.678 414 344Z" fill="#33CBCA"/>
<path d="M402 475C408.299 475.969 413.389 479.133 418.938 482.125C420.009 482.682 421.081 483.239 422.186 483.812C429.767 487.887 434.583 491.811 438.875 499.25C440.37 504.234 440.252 508.838 440 514C434.935 513.432 431.091 511.049 426.75 508.562C425.969 508.12 425.187 507.678 424.383 507.222C422.746 506.292 421.111 505.359 419.478 504.421C417.039 503.022 414.592 501.638 412.145 500.254C410.617 499.379 409.089 498.503 407.562 497.625C406.847 497.221 406.132 496.817 405.396 496.401C401.892 494.361 398.995 492.671 397 489C397.12 483.738 399.533 479.521 402 475Z" fill="white"/>
<path d="M297 372C297.33 372.66 297.66 373.32 298 374C300.473 374.453 302.864 374.78 305.359 375.035C306.101 375.119 306.842 375.202 307.606 375.288C309.986 375.555 312.368 375.809 314.75 376.062C317.117 376.322 319.484 376.584 321.851 376.847C323.326 377.011 324.8 377.171 326.275 377.328C329.896 377.721 333.443 378.214 337 379C335.114 386.037 333.123 393.031 331 400C330.43 399.874 329.861 399.749 329.274 399.62C322.18 398.122 315.076 397.196 307.875 396.375C306.728 396.241 305.58 396.107 304.398 395.969C301.599 395.642 298.8 395.319 296 395C295.67 395.99 295.34 396.98 295 398C295.66 389.42 296.32 380.84 297 372Z" fill="#33CBCA"/>
<path d="M253.001 499C256.383 499.598 259.405 500.444 262.583 501.742C263.433 502.086 264.283 502.431 265.159 502.785C266.035 503.145 266.911 503.504 267.813 503.875C269.548 504.582 271.284 505.287 273.02 505.992C274.277 506.505 274.277 506.505 275.559 507.028C277.837 507.935 280.128 508.781 282.434 509.613C288.747 512.068 292.811 516.076 296.001 522C296.858 524.973 297.485 527.95 298.001 531C293.147 530.045 288.591 528.925 283.961 527.176C279.915 525.679 275.855 524.281 271.747 522.965C270.708 522.63 269.67 522.296 268.6 521.951C266.459 521.265 264.316 520.585 262.17 519.912C261.144 519.579 260.117 519.246 259.059 518.902C258.134 518.608 257.209 518.314 256.256 518.011C254.001 517 254.001 517 252.001 514C251.77 510.934 251.77 510.934 251.813 507.438C251.819 506.281 251.826 505.125 251.833 503.934C252.001 501 252.001 501 253.001 499Z" fill="white"/>
<path d="M212.375 206.625C213.661 206.597 214.948 206.568 216.273 206.539C221.12 207.139 224.388 208.967 227.438 212.812C228.313 216.218 227.891 218.613 227 222C224.81 224.583 223.032 226.484 220 228C217.547 228.151 215.141 228.231 212.688 228.25C211.371 228.276 210.055 228.302 208.699 228.328C204.845 227.986 203.039 227.321 200 225C197.851 222.258 197.066 220.452 196.562 217C197.113 213.227 198.324 211.676 201 209C204.64 206.579 208.081 206.668 212.375 206.625Z" fill="#33CBCA"/>
<path d="M390 216C391.217 219.65 390.651 220.841 389.488 224.453C389.144 225.541 388.8 226.629 388.445 227.75C388.071 228.905 387.698 230.06 387.312 231.25C386.567 233.606 385.823 235.963 385.082 238.32C384.542 240.036 384.542 240.036 383.991 241.786C382.134 247.808 380.533 253.889 379 260C372.549 253.644 372.549 253.644 371 250C372.1 246.582 373.691 243.704 375.645 240.707C376.157 239.911 376.669 239.115 377.197 238.295C378.262 236.659 379.327 235.024 380.393 233.389C384.009 227.768 387.13 222.036 390 216Z" fill="#33CBCA"/>
<path d="M397 364C397.66 364 398.32 364 399 364C398.844 364.699 398.688 365.397 398.527 366.117C398.333 367.027 398.138 367.937 397.938 368.875C397.74 369.78 397.543 370.685 397.34 371.617C396.768 374.01 396.768 374.01 398 376C393.545 375.01 393.545 375.01 389 374C389.956 372.707 390.915 371.416 391.875 370.125C392.409 369.406 392.942 368.686 393.492 367.945C395 366 395 366 397 364Z" fill="#33CBCA"/>
<path d="M309 223C310.313 226.94 309.351 228.812 308.125 232.75C306.643 237.539 305.598 242.041 305 247C304.67 247 304.34 247 304 247C303.466 238.505 304.378 231.752 308 224C308.33 223.67 308.66 223.34 309 223Z" fill="#33CBCA"/>
<path d="M425 359C425.99 359.33 426.98 359.66 428 360C427.043 361.126 426.084 362.251 425.125 363.375C424.591 364.001 424.058 364.628 423.508 365.273C422.386 366.558 421.206 367.794 420 369C419.34 366.69 418.68 364.38 418 362C418.99 362 419.98 362 421 362C421.66 361.484 422.32 360.969 423 360.438C423.66 359.963 424.32 359.489 425 359Z" fill="#33CBCA"/>
</g>
<defs>
<clipPath id="clip0_150_1250">
<rect width="640" height="640" fill="white"/>
</clipPath>
</defs>
</svg>
