<svg width="640" height="640" viewBox="0 0 640 640" fill="none" xmlns="http://www.w3.org/2000/svg">
<g clip-path="url(#clip0_150_1387)">
<path d="M418.738 90.1837C428.9 95.843 437.433 104.942 441.421 115.91C445.402 130.301 443.828 148.553 436.577 161.656C430.3 170.979 422.604 178.125 411.999 182C411.009 182 410.019 182 408.999 182C409.432 182.938 409.432 182.938 409.874 183.895C414.589 196.124 413.359 209.109 412.999 222C413.713 221.995 414.426 221.99 415.16 221.984C427.147 221.908 439.143 221.832 451.124 222.25C451.897 222.264 452.669 222.278 453.465 222.293C461.951 222.665 469.068 226.169 475.202 231.973C481.246 238.791 482.831 245.57 482.488 254.59C481.399 262.196 477.834 268.04 471.999 273C471.298 273.701 470.597 274.403 469.874 275.125C461.428 280.633 451.394 280.423 441.652 280.328C440.305 280.325 438.957 280.323 437.61 280.323C434.813 280.318 432.015 280.304 429.217 280.281C425.629 280.253 422.042 280.242 418.454 280.238C415.684 280.233 412.914 280.224 410.144 280.212C408.177 280.203 406.211 280.197 404.244 280.19C403.059 280.181 401.873 280.171 400.651 280.161C399.605 280.154 398.559 280.148 397.482 280.141C394.999 280 394.999 280 392.999 279C392.467 280.914 391.949 282.831 391.437 284.75C391.147 285.817 390.857 286.885 390.558 287.984C390.001 290.993 389.97 292.2 390.999 295C392.381 296.571 392.381 296.571 394.175 297.918C394.832 298.445 395.488 298.972 396.165 299.515C396.873 300.067 397.582 300.619 398.312 301.188C399.041 301.767 399.77 302.347 400.521 302.944C405.53 306.906 410.613 310.764 415.745 314.563C420.655 318.215 425.461 322.003 430.283 325.771C433.711 328.449 437.142 331.121 440.62 333.734C460.045 348.34 476.686 365.143 480.488 390.226C480.894 393.75 481.243 397.274 481.57 400.805C481.763 402.764 481.956 404.723 482.15 406.681C482.415 409.392 482.672 412.103 482.928 414.814C483.382 419.585 483.849 424.355 484.317 429.124C484.564 431.656 484.808 434.188 485.048 436.72C485.159 437.866 485.269 439.011 485.383 440.191C485.478 441.195 485.573 442.199 485.671 443.233C486.117 447.16 486.117 447.16 486.999 451C489.786 452.392 489.786 452.392 491.913 453.149C502.212 457.353 510.365 465.9 514.999 475.875C518.09 483.236 519.306 489.944 516.812 497.688C513.549 503.65 510.367 507.426 503.999 510C499.819 511.186 495.597 511.434 491.281 511.754C490.427 511.819 489.573 511.884 488.694 511.952C486.885 512.089 485.076 512.224 483.267 512.357C480.537 512.56 477.807 512.771 475.077 512.983C444.768 515.283 444.768 515.283 434.749 506.813C427.983 500.399 424.468 493.049 423.843 483.65C423.811 481.948 423.788 480.246 423.774 478.544C423.642 463.547 420.501 449.521 416.999 435C416.446 432.672 415.892 430.344 415.339 428.016C414.57 424.79 413.796 421.565 413.004 418.344C412.771 417.393 412.537 416.441 412.296 415.461C412.093 414.644 411.891 413.827 411.682 412.986C410.999 410 410.999 410 410.781 407.615C410.207 402.481 410.207 402.481 407.316 398.392C405.02 397.017 402.714 395.922 400.257 394.859C399.378 394.444 398.5 394.028 397.594 393.6C394.786 392.282 391.957 391.015 389.124 389.75C387.258 388.886 385.394 388.019 383.531 387.149C379.962 385.485 376.385 383.839 372.801 382.209C367.126 379.617 361.546 376.858 355.999 374C351.67 382.43 347.554 390.927 343.652 399.564C322.375 446.543 322.375 446.543 302.999 455C300.13 455.602 297.261 455.865 294.342 456.109C293.51 456.187 292.679 456.265 291.823 456.346C282.736 457.172 273.631 457.73 264.523 458.254C262.733 458.36 260.943 458.467 259.154 458.575C254.505 458.852 249.856 459.125 245.207 459.397C237.735 459.834 230.264 460.276 222.792 460.722C220.206 460.876 217.62 461.026 215.034 461.176C213.438 461.27 211.843 461.365 210.247 461.459C209.542 461.499 208.838 461.539 208.112 461.581C204.44 461.801 200.775 462.084 197.113 462.434C196.376 462.503 195.639 462.572 194.879 462.644C192.125 463.166 191.114 464.348 189.562 466.625C182.278 475.964 170.692 482.177 158.999 484C153.034 484.537 147.662 484.793 142.562 481.336C137.436 476.954 133.558 472.256 132.657 465.39C132.523 456.887 134.501 449.707 137.187 441.688C137.606 440.401 138.023 439.113 138.44 437.826C139.251 435.325 140.073 432.828 140.901 430.333C141.811 427.572 142.687 424.807 143.534 422.027C146.746 411.581 149.712 405.603 159.468 400.223C168.736 395.746 178.883 396.083 188.8 398.219C200.26 399.912 211.709 397.435 223.062 395.75C225.393 395.419 227.724 395.089 230.056 394.762C239.911 393.367 249.76 391.936 259.579 390.306C262.078 389.99 264.483 389.945 266.999 390C267.35 388.845 267.701 387.69 268.062 386.5C269.534 382.069 271.35 377.824 273.249 373.563C280.502 357.157 285.563 342.739 286.763 324.658C287.82 312.771 291.41 299.867 298.054 289.926C300.937 284.944 301.1 279.443 301.624 273.813C301.843 271.673 302.064 269.534 302.288 267.395C302.397 266.347 302.506 265.3 302.617 264.221C303.223 259.116 304.094 254.06 304.999 249C304.765 249.686 304.53 250.371 304.288 251.077C301.255 259.709 297.088 265.66 288.874 269.938C282.081 273.139 274.808 274.236 267.476 272.352C259.712 269.557 253.386 265.206 249.562 257.75C243.19 243.463 248.764 229.273 253.046 215.183C253.956 212.143 254.819 209.095 255.659 206.035C255.918 205.1 256.176 204.165 256.442 203.201C256.921 201.465 257.397 199.727 257.869 197.988C261.675 184.453 268.334 172.259 280.841 164.92C291.045 159.371 300.949 154.905 312.574 153.649C313.46 153.544 314.347 153.44 315.261 153.332C318.069 153.004 320.878 152.689 323.687 152.375C326.506 152.051 329.326 151.725 332.145 151.396C333.892 151.194 335.639 150.995 337.387 150.799C341.309 150.353 345.128 149.78 348.999 149C351.332 148.962 353.666 148.954 355.999 149C355.669 148.01 355.339 147.02 354.999 146C353.805 129.582 356.382 113.594 367.187 100.75C380.832 86.3111 400.441 82.7247 418.738 90.1837Z" fill="black"/>
<path d="M319 294C328.931 295.626 338.841 297.37 348.75 299.125C350.333 299.405 351.917 299.685 353.5 299.965C357.333 300.643 361.167 301.321 365 302C364.358 306.565 362.558 310.412 360.57 314.52C360.224 315.246 359.878 315.973 359.522 316.722C358.78 318.279 358.035 319.834 357.289 321.389C355.325 325.479 353.379 329.578 351.43 333.676C351.043 334.487 350.657 335.298 350.259 336.134C347.198 342.563 344.201 349.019 341.25 355.5C340.395 357.375 339.539 359.25 338.684 361.125C338.255 362.063 337.827 363.002 337.386 363.969C321.832 397.982 321.832 397.982 315 411C314.524 411.915 314.524 411.915 314.038 412.848C313.064 414.7 312.068 416.539 311.062 418.375C310.497 419.414 309.931 420.453 309.348 421.523C301.508 433.72 301.508 433.72 295.182 436.029C291.98 436.518 288.882 436.721 285.645 436.816C284.466 436.889 283.288 436.961 282.075 437.035C278.321 437.255 274.569 437.41 270.812 437.562C268.342 437.697 265.871 437.836 263.4 437.979C256.269 438.378 249.136 438.695 242 439C238.891 439.14 235.781 439.283 232.672 439.426C230.871 439.508 229.069 439.589 227.268 439.668C218.841 440.04 210.421 440.511 202 441C202.487 433.409 203.998 426.329 206 419C207.075 418.853 208.15 418.706 209.258 418.555C223.336 416.599 237.371 414.389 251.407 412.158C252.197 412.032 252.988 411.907 253.803 411.778C255.359 411.53 256.914 411.279 258.469 411.025C261.935 410.463 265.382 409.955 268.871 409.547C275.254 408.804 275.254 408.804 280.984 406.121C284.06 401.359 286.139 396.311 288.25 391.062C288.723 389.908 289.196 388.754 289.684 387.565C290.656 385.191 291.624 382.816 292.588 380.438C293.889 377.271 295.236 374.129 296.609 370.992C302.34 357.781 305.179 345.72 306.702 331.483C308.209 317.592 311.892 306.019 319 294Z" fill="white"/>
<path d="M382 315C389.388 319.632 396.161 324.981 402.976 330.398C406.654 333.309 410.359 336.184 414.062 339.062C414.827 339.658 415.591 340.253 416.379 340.866C419.8 343.528 423.227 346.181 426.684 348.797C433.416 353.896 439.913 359.135 446 365C446.562 365.536 447.124 366.072 447.703 366.625C457.355 376.785 460.146 389.091 461.312 402.5C461.463 403.999 461.616 405.497 461.771 406.996C462.143 410.66 462.485 414.327 462.816 417.995C463.085 420.927 463.385 423.856 463.684 426.785C464.487 434.896 465.098 442.844 465 451C462.48 451.339 459.959 451.671 457.438 452C456.733 452.095 456.029 452.191 455.303 452.289C450.826 452.867 446.513 453.095 442 453C441.289 449.849 440.577 446.699 439.866 443.548C439.242 440.784 438.616 438.02 437.989 435.256C436.489 428.636 434.997 422.014 433.553 415.38C432.939 412.556 432.317 409.733 431.695 406.91C431.4 405.56 431.108 404.21 430.819 402.859C430.414 400.964 429.996 399.072 429.578 397.18C429.229 395.567 429.229 395.567 428.872 393.921C427.398 388.985 425.829 386.27 421.331 383.715C419.794 382.924 418.25 382.147 416.699 381.383C415.445 380.744 415.445 380.744 414.166 380.093C411.45 378.715 408.726 377.357 406 376C404.168 375.076 402.337 374.151 400.506 373.226C394.951 370.423 389.383 367.647 383.812 364.875C381.876 363.909 379.939 362.943 378.002 361.977C373.336 359.649 368.668 357.324 364 355C365.489 350.231 367.368 345.763 369.441 341.23C369.933 340.148 369.933 340.148 370.435 339.044C371.123 337.53 371.813 336.016 372.505 334.503C373.566 332.179 374.622 329.852 375.678 327.525C376.349 326.052 377.02 324.579 377.691 323.105C378.008 322.408 378.325 321.71 378.651 320.991C380.885 316.115 380.885 316.115 382 315Z" fill="white"/>
<path d="M96.16 110.618C96.9653 110.613 97.7707 110.608 98.6004 110.604C101.29 110.592 103.98 110.601 106.67 110.611C108.602 110.607 110.534 110.601 112.466 110.595C117.708 110.581 122.949 110.586 128.191 110.596C133.677 110.603 139.164 110.596 144.65 110.592C153.864 110.586 163.077 110.593 172.29 110.608C182.941 110.624 193.592 110.619 204.243 110.602C213.388 110.589 222.534 110.587 231.68 110.594C237.142 110.599 242.604 110.6 248.065 110.59C253.2 110.581 258.335 110.587 263.47 110.605C265.354 110.609 267.238 110.607 269.122 110.601C271.695 110.593 274.267 110.603 276.84 110.618C277.585 110.611 278.33 110.604 279.097 110.598C284.674 110.66 288.825 111.896 292.875 115.811C294.424 118.823 294.47 120.644 294 123.999C292.323 127.229 291.101 129.404 287.861 131.154C284.19 132.238 280.707 132.282 276.915 132.266C275.702 132.273 275.702 132.273 274.463 132.28C271.754 132.293 269.045 132.291 266.336 132.289C264.393 132.295 262.449 132.302 260.506 132.31C255.229 132.327 249.952 132.332 244.676 132.333C240.272 132.335 235.868 132.343 231.464 132.35C221.077 132.366 210.69 132.371 200.303 132.369C189.582 132.368 178.862 132.389 168.141 132.421C158.939 132.447 149.737 132.458 140.536 132.456C135.038 132.456 129.542 132.462 124.045 132.483C118.877 132.502 113.709 132.502 108.541 132.488C106.644 132.486 104.746 132.49 102.849 132.502C100.26 132.518 97.673 132.509 95.0844 132.493C93.9558 132.509 93.9558 132.509 92.8043 132.524C87.9097 132.46 85.4279 131.486 81.9999 127.999C79.5324 124.297 79.6927 122.377 79.9999 117.999C80.8804 114.829 81.746 114.155 84.5759 112.413C88.5439 110.774 91.943 110.58 96.16 110.618Z" fill="#33CBCA"/>
<path d="M319 294C328.931 295.626 338.841 297.37 348.75 299.125C350.333 299.405 351.917 299.685 353.5 299.965C357.333 300.643 361.167 301.321 365 302C364.358 306.565 362.558 310.412 360.57 314.52C360.051 315.61 360.051 315.61 359.521 316.723C358.779 318.281 358.034 319.837 357.287 321.392C355.33 325.467 353.391 329.551 351.449 333.633C351.064 334.442 350.678 335.251 350.281 336.084C347.105 342.757 344 349.461 340.938 356.188C336.698 365.493 332.381 374.76 328 384C320.738 383.52 314.701 381.176 308 378.438C306.409 377.8 306.409 377.8 304.785 377.15C302.187 376.109 299.592 375.058 297 374C297.511 369.4 298.364 365.781 300.375 361.625C304.521 352.031 305.631 341.78 306.711 331.461C308.175 317.579 311.903 306.001 319 294Z" fill="#33CBCA"/>
<path d="M351 178C350.783 178.606 350.567 179.212 350.344 179.836C350.065 180.674 349.787 181.512 349.5 182.375C349.222 183.187 348.943 183.999 348.656 184.836C347.062 192.524 348.07 199.766 350.047 207.27C350.259 208.112 350.472 208.955 350.691 209.824C351.139 211.594 351.593 213.363 352.053 215.13C352.745 217.793 353.421 220.459 354.094 223.127C358.84 246.213 358.84 246.213 371.438 265.188C374 268 374 268 374 272C373.27 275.418 372.227 278.727 371 282C364.509 282.182 358.712 281.589 352.371 280.25C351.058 279.984 351.058 279.984 349.719 279.712C346.957 279.149 344.197 278.575 341.438 278C339.552 277.614 337.666 277.228 335.779 276.844C331.184 275.905 326.592 274.955 322 274C322.496 268.326 323.136 262.818 324.375 257.25C325.652 251.235 326.539 245.223 327.312 239.125C328.499 230.008 329.948 220.947 331.549 211.895C331.805 210.439 332.057 208.983 332.305 207.526C335.539 188.604 335.539 188.604 341.07 182.844C341.748 182.4 342.426 181.957 343.125 181.5C343.808 181.036 344.491 180.572 345.195 180.094C348.65 178 348.65 178 351 178Z" fill="#33CBCA"/>
<path d="M147.794 309.861C149.35 309.853 149.35 309.853 150.938 309.844C152.086 309.843 153.234 309.842 154.417 309.84C155.618 309.835 156.82 309.83 158.058 309.825C161.364 309.813 164.67 309.806 167.976 309.801C170.041 309.798 172.106 309.794 174.171 309.79C180.63 309.776 187.089 309.767 193.548 309.763C201.006 309.758 208.465 309.741 215.923 309.712C221.686 309.69 227.448 309.68 233.21 309.679C236.653 309.678 240.095 309.672 243.537 309.654C247.38 309.634 251.223 309.639 255.065 309.645C256.205 309.636 257.345 309.627 258.52 309.617C260.093 309.626 260.093 309.626 261.698 309.634C262.606 309.633 263.515 309.631 264.451 309.63C267.571 310.085 269.451 311.173 272 313.002C273.894 316.102 274.003 317.909 273.875 321.564C272.921 325.313 271.995 326.642 269 329.002C266.521 330.241 264.859 330.138 262.085 330.155C261.047 330.164 260.008 330.173 258.937 330.182C257.221 330.188 257.221 330.188 255.469 330.194C254.268 330.203 253.066 330.211 251.828 330.219C247.837 330.244 243.846 330.261 239.855 330.275C238.482 330.28 237.108 330.286 235.734 330.291C230.02 330.313 224.306 330.331 218.592 330.343C210.402 330.359 202.213 330.392 194.023 330.449C188.265 330.488 182.507 330.507 176.749 330.513C173.31 330.516 169.871 330.528 166.432 330.561C162.594 330.596 158.757 330.592 154.919 330.585C153.78 330.601 152.642 330.618 151.469 330.635C143.755 330.573 143.755 330.573 139.817 327.59C136.931 323.479 136.483 321.08 137 316.002C139.437 313.127 139.437 313.127 142 311.002C143.643 309.359 145.529 309.869 147.794 309.861Z" fill="#33CBCA"/>
<path d="M380.884 182.507C384.112 183.258 385.811 184.544 388.001 186.999C390.193 191.333 390.552 195.753 390.966 200.519C391.128 202.198 391.29 203.877 391.452 205.556C391.697 208.182 391.938 210.808 392.175 213.435C392.409 215.985 392.655 218.533 392.903 221.081C392.969 221.856 393.035 222.63 393.102 223.428C393.594 228.412 394.257 233.708 397.001 237.999C400.48 240.595 403.051 241.383 407.354 241.476C408.399 241.506 409.444 241.536 410.52 241.567C411.638 241.586 412.755 241.605 413.907 241.624C415.065 241.657 416.222 241.69 417.415 241.724C421.11 241.83 424.805 241.917 428.501 241.999C433.366 242.108 438.23 242.236 443.095 242.374C444.212 242.393 445.33 242.412 446.482 242.432C447.526 242.462 448.571 242.492 449.647 242.523C451.02 242.553 451.02 242.553 452.421 242.583C455.821 243.132 458.549 244.548 461.001 246.999C461.239 248.96 461.239 248.96 461.313 251.374C461.369 252.562 461.369 252.562 461.427 253.773C461.001 255.999 461.001 255.999 459.268 257.607C456.709 259.179 455.279 259.416 452.302 259.511C451.355 259.547 450.409 259.583 449.434 259.62C448.404 259.642 447.375 259.664 446.313 259.687C445.236 259.717 444.158 259.748 443.048 259.779C439.366 259.872 435.684 259.936 432.001 259.999C430.581 260.032 429.161 260.064 427.741 260.098C424.055 260.183 420.369 260.242 416.682 260.283C415.241 260.302 413.8 260.327 412.359 260.359C402.628 260.56 394.792 260.152 387.188 253.562C386.466 252.716 385.745 251.871 385.001 250.999C384.02 249.927 384.02 249.927 383.019 248.833C380.599 245.436 379.569 242.07 378.528 238.093C378.319 237.332 378.11 236.571 377.894 235.787C377.231 233.36 376.585 230.93 375.938 228.499C375.501 226.898 375.063 225.296 374.624 223.695C366.317 193.221 366.317 193.221 369.032 188.027C372.339 183.406 375.221 182.031 380.884 182.507Z" fill="white"/>
<path d="M138.868 206.613C139.728 206.608 140.587 206.602 141.473 206.597C144.296 206.584 147.118 206.593 149.94 206.603C151.911 206.601 153.882 206.598 155.854 206.594C159.977 206.59 164.099 206.596 168.222 206.61C173.501 206.627 178.778 206.617 184.056 206.599C188.124 206.588 192.191 206.592 196.258 206.6C198.204 206.602 200.15 206.599 202.096 206.592C204.817 206.585 207.538 206.596 210.259 206.613C211.059 206.607 211.858 206.601 212.682 206.595C218.358 206.659 222.648 207.728 226.874 211.814C228.423 214.825 228.469 216.647 227.999 220.001C226.332 223.212 225.104 225.395 221.895 227.156C218.04 228.281 214.336 228.288 210.357 228.276C209.068 228.283 209.068 228.283 207.753 228.291C204.92 228.305 202.086 228.304 199.253 228.302C197.279 228.306 195.305 228.31 193.331 228.315C189.196 228.322 185.061 228.322 180.927 228.317C175.633 228.311 170.339 228.328 165.045 228.351C160.969 228.366 156.894 228.367 152.818 228.364C150.866 228.364 148.915 228.369 146.963 228.379C144.232 228.392 141.502 228.385 138.771 228.373C137.567 228.385 137.567 228.385 136.338 228.397C130.656 228.343 126.416 227.257 122.124 223.251C120.219 219.442 120.546 215.811 121.562 211.751C125.829 206.556 132.698 206.566 138.868 206.613Z" fill="#33CBCA"/>
<path d="M382 315C389.378 319.626 396.143 324.966 402.949 330.376C406.763 333.396 410.6 336.385 414.438 339.375C415.182 339.958 415.927 340.54 416.695 341.141C421.057 344.539 425.477 347.818 430 351C426.157 356.998 422.021 362.74 417.75 368.438C417.219 369.148 416.687 369.858 416.14 370.59C412.259 375.741 412.259 375.741 410 378C394.82 370.41 379.64 362.82 364 355C366.25 348.249 366.25 348.249 367.588 345.305C368.034 344.32 368.034 344.32 368.488 343.314C368.803 342.627 369.117 341.939 369.441 341.23C369.933 340.148 369.933 340.148 370.435 339.044C371.123 337.53 371.813 336.016 372.505 334.503C373.566 332.179 374.622 329.852 375.678 327.525C376.349 326.052 377.02 324.579 377.691 323.105C378.008 322.408 378.325 321.71 378.651 320.991C380.885 316.115 380.885 316.115 382 315Z" fill="#33CBCA"/>
<path d="M410.785 109.524C415.661 112.775 420.134 117.402 422 123C423.064 146.409 423.064 146.409 416 155C410.651 160.428 405.953 162.969 398.25 163.438C392.371 163.278 387.702 161.529 383 158C375.317 148.961 375.332 140.381 376 129C377.024 121.462 380.163 115.91 386 111C393.995 105.835 402.249 105.353 410.785 109.524Z" fill="white"/>
<path d="M322 174.001C321.663 174.797 321.325 175.594 320.977 176.415C320.308 178.004 320.308 178.004 319.625 179.626C319.185 180.67 318.744 181.714 318.289 182.79C316.94 185.98 316.94 185.98 316.079 189.333C315 192.001 315 192.001 313.196 192.849C312.513 192.919 311.829 192.99 311.125 193.063C308.261 193.374 307.231 193.771 305.16 195.838C302.072 200.36 300.323 205.223 298.375 210.321C297.495 212.57 296.615 214.819 295.735 217.067C294.362 220.606 292.993 224.146 291.627 227.687C290.304 231.111 288.965 234.529 287.625 237.946C287.019 239.54 287.019 239.54 286.4 241.166C286.013 242.151 285.626 243.135 285.227 244.15C284.893 245.016 284.558 245.883 284.214 246.776C282.803 249.363 281.532 250.515 279 252.001C275.463 252.38 272.946 252.374 269.625 251.063C267.004 247.736 266.906 244.099 267 240.001C267.899 235.678 269.273 231.554 270.688 227.376C271.439 225.063 272.188 222.749 272.934 220.434C273.295 219.327 273.656 218.22 274.027 217.078C275.246 213.225 276.268 209.358 277.25 205.438C280.006 194.928 283.176 187.311 292.629 181.341C301.757 176.394 311.588 173.718 322 174.001Z" fill="white"/>
<path d="M489 475.001C492.384 478.233 495.204 481.648 497 486.001C497 487.321 497 488.641 497 490.001C492.041 490.502 487.081 490.999 482.121 491.489C479.34 491.765 476.563 492.049 473.785 492.356C468.391 492.93 462.983 493.215 457.562 493.376C456.531 493.433 456.531 493.433 455.479 493.492C453.504 493.524 453.504 493.524 450 493.001C446.847 489.863 445.046 487.428 444.902 482.962C444.914 481.779 444.926 480.595 444.938 479.376C444.947 478.187 444.956 476.999 444.965 475.774C444.976 474.859 444.988 473.944 445 473.001C449.333 472.494 453.666 471.996 458 471.501C459.221 471.358 460.441 471.215 461.699 471.067C480.754 468.904 480.754 468.904 489 475.001Z" fill="white"/>
<path d="M179.188 417.439C180.818 417.592 180.818 417.592 182.48 417.747C183.312 417.831 184.143 417.915 185 418.001C184.241 429.963 182.799 445.072 174 454.001C167.713 459.295 161.493 463.501 153 463.001C154.358 456.342 156.216 450.044 158.438 443.626C160.391 437.93 162.254 432.309 163.625 426.439C164.511 422.986 164.934 422.07 167.5 419.376C171.735 417.047 174.451 416.98 179.188 417.439Z" fill="white"/>
<path d="M413 339C418.82 342.815 424.482 346.76 430 351C426.19 357.016 422.019 362.743 417.75 368.438C417.219 369.148 416.687 369.858 416.14 370.59C412.259 375.741 412.259 375.741 410 378C404.06 375.03 398.12 372.06 392 369C393.523 365.193 394.443 363.128 396.828 360.074C397.381 359.359 397.934 358.645 398.504 357.908C399.08 357.175 399.656 356.443 400.25 355.688C401.381 354.233 402.511 352.779 403.641 351.324C404.194 350.614 404.748 349.905 405.318 349.173C407.919 345.812 410.463 342.409 413 339Z" fill="#33CBCA"/>
<path d="M296 372C296.33 372.66 296.66 373.32 297 374C298.804 374.704 298.804 374.704 301.062 375.25C306.639 376.813 311.987 378.827 317.377 380.931C320.964 382.312 324.199 383.24 328 384C325.03 390.6 322.06 397.2 319 404C307.75 400.625 307.75 400.625 303.43 398.957C302.057 398.43 302.057 398.43 300.656 397.893C299.738 397.536 298.821 397.18 297.875 396.812C296.919 396.444 295.962 396.076 294.977 395.697C292.65 394.801 290.324 393.902 288 393C288.958 390.437 289.916 387.875 290.875 385.312C291.144 384.591 291.414 383.87 291.691 383.127C293.087 379.401 294.502 375.687 296 372Z" fill="#33CBCA"/>
<path d="M414 340C418.285 342.307 421.723 344.33 425 348C422.69 348.66 420.38 349.32 418 350C418 348.68 418 347.36 418 346C416.68 345.34 415.36 344.68 414 344C414 342.68 414 341.36 414 340Z" fill="#33CBCA"/>
<path d="M413 339C413.952 341.57 414.006 342.971 413.438 345.688C412 348 412 348 408.875 348.812C407.926 348.874 406.978 348.936 406 349C408.246 345.593 410.511 342.235 413 339Z" fill="#33CBCA"/>
<path d="M82.0009 114C83.3209 114 84.6409 114 86.0009 114C85.6709 114.99 85.3409 115.98 85.0009 117C84.0109 117 83.0209 117 82.0009 117C82.0009 117.99 82.0009 118.98 82.0009 120C82.6609 120 83.3209 120 84.0009 120C83.0009 123 83.0009 123 80.0009 125C79.7151 117.571 79.7151 117.571 82.0009 114Z" fill="#33CBCA"/>
<path d="M396 365C396.66 365.33 397.32 365.66 398 366C398 366.99 398 367.98 398 369C398.99 369 399.98 369 401 369C400.67 369.99 400.34 370.98 400 372C394.25 370.25 394.25 370.25 392 368C393.32 367.67 394.64 367.34 396 367C396 366.34 396 365.68 396 365Z" fill="#33CBCA"/>
<path d="M408 372C409.32 372.66 410.64 373.32 412 374C411.34 375.32 410.68 376.64 410 378C408.68 377.01 407.36 376.02 406 375C406.66 374.01 407.32 373.02 408 372Z" fill="#33CBCA"/>
<path d="M327 385C325.25 390.75 325.25 390.75 323 393C322.67 390.69 322.34 388.38 322 386C324 385 324 385 327 385Z" fill="#33CBCA"/>
<path d="M137 316C138.991 318.986 139.942 321.597 141 325C140.01 325 139.02 325 138 325C136.522 322.043 136.94 319.258 137 316Z" fill="#33CBCA"/>
<path d="M429 352C429.66 352.33 430.32 352.66 431 353C430.67 354.32 430.34 355.64 430 357C428.35 357.33 426.7 357.66 425 358C426.32 356.02 427.64 354.04 429 352Z" fill="white"/>
</g>
<defs>
<clipPath id="clip0_150_1387">
<rect width="640" height="640" fill="white"/>
</clipPath>
</defs>
</svg>
