<svg width="640" height="640" viewBox="0 0 640 640" fill="none" xmlns="http://www.w3.org/2000/svg">
<g clip-path="url(#clip0_150_1434)">
<path d="M398.937 95.625C400.201 95.6076 400.201 95.6076 401.49 95.5898C412.088 95.6388 420.71 99.4713 429 106C434.126 111.264 438.279 117.157 441 124C441.357 124.893 441.714 125.787 442.082 126.707C443.198 130.71 443.343 134.303 443.312 138.438C443.307 139.224 443.302 140.011 443.297 140.822C442.992 156.347 439.254 169.287 428.472 180.734C423.315 185.459 417.493 188.513 411 191C412.368 198.587 414.268 205.973 416.323 213.398C416.538 214.192 416.754 214.986 416.976 215.805C417.173 216.516 417.37 217.227 417.572 217.96C418 220 418 220 418 224C419.041 223.807 420.083 223.613 421.156 223.414C429.887 221.819 438.599 220.466 447.414 219.43C449.813 219.142 452.208 218.82 454.597 218.465C464.909 217.056 473.402 217.628 482.222 223.473C488.518 228.45 493.201 235.987 494.273 244.059C494.651 252.906 491.866 261.253 485.937 267.938C476.066 276.318 462.692 277.658 450.375 279.688C448.635 279.984 446.895 280.281 445.156 280.58C442.644 281.012 440.132 281.441 437.619 281.863C433.499 282.555 429.409 283.308 425.324 284.191C421.002 285.082 416.843 285.308 412.437 285.25C411.707 285.246 410.977 285.242 410.224 285.238C404.917 285.153 400.114 284.488 395 283C394.131 285.725 393.28 288.454 392.437 291.188C392.19 291.956 391.943 292.725 391.689 293.518C391.46 294.268 391.231 295.019 390.996 295.793C390.781 296.479 390.566 297.165 390.345 297.872C389.533 302.874 391.583 306.359 394.175 310.508C394.832 311.567 395.489 312.627 396.166 313.718C396.881 314.854 397.597 315.989 398.312 317.125C399.046 318.301 399.778 319.478 400.511 320.655C402.663 324.11 404.83 327.556 407 331C407.568 331.903 408.136 332.806 408.721 333.736C410.684 336.851 412.649 339.964 414.621 343.073C418.935 349.876 423.191 356.714 427.411 363.576C429.698 367.295 431.984 371.007 434.386 374.652C447.337 394.609 450.046 416.511 450.316 439.852C450.337 441.362 450.358 442.872 450.379 444.382C450.434 448.325 450.483 452.267 450.532 456.209C450.582 460.245 450.638 464.281 450.693 468.316C450.8 476.211 450.902 484.105 451 492C451.687 492.334 452.375 492.668 453.083 493.012C453.985 493.455 454.886 493.898 455.815 494.355C456.709 494.792 457.603 495.229 458.524 495.679C467.352 500.389 474.454 509.907 477.804 519.242C479.849 527.113 480.57 535.965 476.41 543.211C473.155 547.34 468.967 550.344 464 552C462.32 552.107 460.636 552.159 458.953 552.177C457.924 552.19 456.895 552.203 455.836 552.216C454.723 552.223 453.611 552.231 452.464 552.238C451.316 552.246 450.168 552.254 448.984 552.263C446.549 552.277 444.114 552.287 441.679 552.295C437.976 552.312 434.274 552.356 430.572 552.4C428.203 552.411 425.834 552.419 423.464 552.426C421.817 552.452 421.817 552.452 420.136 552.479C411.11 552.454 403.77 550.638 396.812 544.688C386.006 532.666 384.87 519.351 384.363 503.897C384.247 500.432 384.09 496.972 383.922 493.509C383.47 484.037 383.096 474.563 382.739 465.088C382.532 459.66 382.286 454.235 382.014 448.81C381.877 445.812 381.79 442.815 381.704 439.814C381.436 428.641 381.436 428.641 375.66 419.441C374.143 418.247 372.589 417.097 371 416C369.511 414.74 368.031 413.471 366.562 412.188C365.924 411.665 365.286 411.143 364.629 410.605C362.867 408.869 361.974 407.258 361 405C360.34 405 359.68 405 359 405C358.853 405.874 358.853 405.874 358.703 406.766C355.321 425.309 347.222 441.505 332.164 453.203C323.117 459.234 315.049 461.461 304.238 461.321C303.201 461.32 302.164 461.319 301.096 461.318C298.858 461.315 296.621 461.304 294.383 461.288C290.834 461.265 287.285 461.264 283.736 461.27C273.65 461.282 263.564 461.265 253.478 461.209C247.294 461.177 241.112 461.178 234.929 461.201C232.582 461.202 230.235 461.191 227.889 461.166C210.592 460.737 210.592 460.737 196 469C192.433 470.488 192.433 470.488 189.437 471.312C188.35 471.613 187.264 471.913 186.144 472.223C176.243 474.67 167.519 476.808 158 472C151.828 467.846 149.287 462.863 147 456C145.996 447.989 148.11 442.298 151.714 435.242C152.448 433.76 152.448 433.76 153.197 432.249C154.232 430.171 155.277 428.099 156.332 426.032C157.929 422.891 159.483 419.731 161.033 416.566C162.049 414.54 163.068 412.516 164.089 410.492C164.774 409.092 164.774 409.092 165.473 407.663C169.47 399.944 174.959 393.466 183.125 390C195.981 386.731 204.821 389.369 216.426 394.776C223.229 397.878 228.519 399.082 236 398C243.922 397.089 251.824 396.696 259.789 396.395C265.166 396.175 270.483 395.78 275.835 395.209C279.57 394.848 283.251 394.94 287 395C287.101 393.935 287.203 392.87 287.308 391.773C287.75 388.21 288.508 384.826 289.41 381.352C293.682 364.319 294.541 348.482 293.953 330.959C293.575 317.817 295.066 306.279 300 294C300.194 292.047 300.311 290.086 300.375 288.125C300.969 277.621 303.079 267.329 305 257C304.625 258.134 304.249 259.269 303.863 260.438C296.644 281.861 296.644 281.861 287 288C279.479 291.72 271.889 293.659 263.656 291.34C255.18 287.987 248.825 282.24 245 274C239.759 259.85 245.792 244.58 250.007 230.81C251.269 226.645 252.392 222.471 253.406 218.238C257.748 200.2 263.495 185.989 280 175.625C288.478 170.689 297.463 168.215 307.035 166.422C308.153 166.206 309.272 165.989 310.425 165.766C312.774 165.315 315.125 164.868 317.476 164.426C321.058 163.751 324.635 163.056 328.213 162.359C330.507 161.921 332.802 161.483 335.097 161.047C336.157 160.841 337.217 160.634 338.308 160.422C344.317 159.306 349.888 158.792 356 159C355.67 158.34 355.34 157.68 355 157C354.002 140.541 355.039 123.604 366.109 110.504C375.421 100.726 385.343 95.4386 398.937 95.625Z" fill="black"/>
<path d="M319 303C322.023 303.304 324.997 303.682 328 304.125C328.917 304.258 329.835 304.39 330.78 304.527C342.268 306.251 353.634 308.617 365 311C364.403 315.814 363.454 320.307 362.086 324.96C361.798 325.947 361.798 325.947 361.504 326.955C360.87 329.121 360.23 331.285 359.59 333.449C359.139 334.986 358.689 336.523 358.239 338.061C357.051 342.117 355.858 346.171 354.663 350.225C353.245 355.038 351.833 359.853 350.421 364.668C349.268 368.601 348.112 372.533 346.951 376.464C344.819 383.688 342.731 390.916 340.778 398.19C340.261 400.088 340.261 400.088 339.734 402.025C339.108 404.338 338.496 406.655 337.903 408.976C334.917 419.941 328.91 431.219 318.887 437.277C312.926 440.339 308.002 441.142 301.306 441.114C300.418 441.114 299.53 441.114 298.615 441.114C295.677 441.113 292.739 441.105 289.801 441.098C287.765 441.096 285.729 441.094 283.693 441.093C278.332 441.09 272.971 441.08 267.61 441.069C262.14 441.058 256.671 441.054 251.201 441.049C240.467 441.038 229.734 441.021 219 441C219.784 438.931 220.571 436.864 221.359 434.797C222.016 433.07 222.016 433.07 222.687 431.308C226.635 421.365 226.635 421.365 229 419C231.024 418.805 233.055 418.675 235.086 418.57C236.393 418.499 237.701 418.427 239.048 418.354C239.752 418.317 240.457 418.28 241.183 418.241C253.781 417.572 266.364 416.736 278.937 415.691C280.473 415.564 282.009 415.44 283.545 415.319C285.703 415.148 287.859 414.966 290.016 414.781C291.246 414.679 292.476 414.576 293.743 414.471C296.901 414.014 299.23 413.581 302 412C306.02 405.153 307.138 396.402 308.562 388.688C308.959 386.608 309.356 384.528 309.754 382.449C309.951 381.387 310.147 380.324 310.35 379.229C310.776 377.114 311.258 375.009 311.802 372.921C314.952 360.481 314.466 347.895 314.511 335.141C314.527 332.048 314.56 328.956 314.594 325.863C314.591 324.936 314.588 324.009 314.585 323.053C314.763 307.237 314.763 307.237 319 303Z" fill="white"/>
<path d="M381 330C384.093 332.883 386.283 335.797 388.469 339.41C389.116 340.473 389.764 341.536 390.431 342.632C391.121 343.775 391.81 344.919 392.5 346.062C393.936 348.426 395.377 350.787 396.816 353.148C397.174 353.736 397.531 354.323 397.899 354.928C401.02 360.052 404.216 365.126 407.438 370.188C409.295 373.123 411.148 376.061 413 379C413.435 379.687 413.869 380.373 414.317 381.081C426.56 400.512 429.187 418.355 429.098 441.074C429.096 442.493 429.094 443.913 429.093 445.332C429.09 449.029 429.08 452.726 429.069 456.423C429.058 460.211 429.054 463.999 429.049 467.787C429.038 475.191 429.021 482.596 429 490C426.965 490.168 424.93 490.333 422.895 490.496C421.761 490.588 420.628 490.68 419.46 490.775C414.636 491.089 409.832 491.087 405 491C403.346 474.667 402.444 458.334 401.698 441.939C401.256 431.995 401.256 431.995 400.602 422.062C400.547 421.356 400.492 420.65 400.436 419.922C399.176 414.369 394.625 410.433 390.449 406.879C385.304 402.417 380.303 397.826 375.375 393.125C374.44 392.278 373.506 391.431 372.543 390.559C366.156 384.398 366.156 384.398 365.75 380.76C366.257 378.356 367.058 376.268 368 374C368.522 372.196 369.026 370.387 369.516 368.574C370.091 366.611 370.669 364.649 371.25 362.688C371.554 361.652 371.859 360.617 372.172 359.551C375.077 349.689 378.028 339.841 381 330Z" fill="white"/>
<path d="M319 303C322.023 303.304 324.997 303.682 328 304.125C328.917 304.258 329.835 304.39 330.78 304.527C342.268 306.251 353.634 308.617 365 311C364.387 316.052 363.326 320.8 361.867 325.679C361.652 326.412 361.437 327.145 361.216 327.899C360.512 330.298 359.801 332.694 359.09 335.09C358.598 336.761 358.106 338.433 357.614 340.104C356.325 344.487 355.03 348.867 353.733 353.248C352.409 357.725 351.09 362.203 349.771 366.682C347.186 375.456 344.595 384.229 342 393C337.602 392.328 334.013 391.32 329.945 389.496C328.837 389.003 327.728 388.51 326.586 388.002C324.873 387.228 324.873 387.228 323.125 386.438C321.96 385.917 320.794 385.397 319.594 384.861C316.726 383.58 313.862 382.293 311 381C311.501 376.576 312.137 372.257 313.02 367.893C314.057 362.234 314.295 356.772 314.309 351.031C314.334 348.975 314.359 346.919 314.385 344.863C314.413 341.678 314.438 338.492 314.456 335.306C314.478 332.193 314.518 329.081 314.559 325.969C314.559 325.032 314.559 324.095 314.559 323.13C314.794 307.206 314.794 307.206 319 303Z" fill="#33CBCA"/>
<path d="M88.3569 110.861C89.4939 110.855 90.6309 110.85 91.8023 110.844C93.6825 110.842 93.6825 110.842 95.6008 110.84C97.5741 110.833 97.5741 110.833 99.5873 110.825C103.203 110.812 106.819 110.806 110.435 110.801C112.695 110.798 114.955 110.794 117.214 110.79C124.286 110.776 131.358 110.767 138.43 110.763C146.59 110.758 154.75 110.741 162.91 110.712C169.218 110.69 175.526 110.68 181.835 110.679C185.601 110.678 189.368 110.672 193.135 110.654C196.682 110.637 200.228 110.635 203.775 110.644C205.69 110.645 207.606 110.631 209.521 110.617C215.769 110.647 220.529 110.858 226 114.002C228.04 116.484 228.023 118.208 228.375 121.439C227.932 125.65 227.05 127.117 224 130.002C220.316 131.807 217.352 132.254 213.27 132.262C211.554 132.273 211.554 132.273 209.803 132.284C208.557 132.281 207.311 132.279 206.028 132.276C204.709 132.281 203.389 132.286 202.03 132.292C198.419 132.305 194.807 132.306 191.196 132.303C188.179 132.302 185.162 132.307 182.145 132.312C175.027 132.323 167.91 132.323 160.792 132.317C153.453 132.311 146.113 132.324 138.774 132.345C132.468 132.362 126.162 132.368 119.856 132.365C116.092 132.363 112.327 132.366 108.563 132.38C104.366 132.395 100.17 132.385 95.9731 132.374C94.1043 132.385 94.1043 132.385 92.1977 132.397C91.0538 132.39 89.9098 132.383 88.7312 132.376C87.7393 132.376 86.7475 132.376 85.7257 132.376C81.899 131.85 79.074 130.382 76.6879 127.314C75.6529 123.833 75.2882 120.556 76.0004 117.002C79.9086 112.168 82.3129 110.879 88.3569 110.861Z" fill="#33CBCA"/>
<path d="M349 187C350.253 190.759 349.47 192.725 348.472 196.453C347.332 202.596 348.195 207.572 350.5 213.289C350.767 213.974 351.034 214.66 351.309 215.366C354.325 223.008 357.611 230.537 360.959 238.039C362.007 240.391 363.042 242.748 364.078 245.105C367.289 252.36 370.512 259.383 374.871 266.042C376.483 268.839 377.178 270.87 376.67 274.091C376.357 275.181 376.357 275.181 376.039 276.293C375.702 277.485 375.702 277.485 375.359 278.701C375.117 279.522 374.874 280.342 374.625 281.188C374.39 282.02 374.155 282.852 373.914 283.709C372.153 289.847 372.153 289.847 371 291C365.241 291.334 359.977 290.395 354.347 289.25C353.447 289.072 352.547 288.895 351.62 288.712C348.766 288.147 345.914 287.574 343.062 287C341.119 286.614 339.175 286.229 337.232 285.844C332.486 284.903 327.743 283.954 323 283C322.823 276.165 323.466 269.8 324.574 263.062C324.82 261.517 324.82 261.517 325.071 259.939C325.601 256.625 326.143 253.312 326.687 250C326.87 248.876 327.054 247.753 327.243 246.595C328.319 240.006 329.413 233.421 330.522 226.838C330.942 224.341 331.358 221.844 331.773 219.347C332.362 215.85 332.982 212.362 333.625 208.875C333.781 207.944 333.938 207.014 334.1 206.055C335.412 199.349 338.246 193.671 343.935 189.623C345.58 188.67 347.286 187.823 349 187Z" fill="#33CBCA"/>
<path d="M102.793 206.861C104.312 206.853 104.312 206.853 105.861 206.844C106.975 206.843 108.09 206.842 109.239 206.84C110.41 206.835 111.581 206.83 112.787 206.825C116.004 206.813 119.221 206.806 122.438 206.801C124.449 206.798 126.459 206.794 128.47 206.79C134.762 206.776 141.054 206.767 147.346 206.763C154.605 206.758 161.865 206.741 169.125 206.712C174.738 206.69 180.351 206.68 185.963 206.679C189.315 206.678 192.666 206.672 196.018 206.654C199.76 206.637 203.501 206.639 207.243 206.645C208.35 206.636 209.456 206.627 210.597 206.617C217.115 206.653 221.969 207.072 226.875 211.814C228.424 214.826 228.469 216.647 228 220.002C226.267 223.338 225.084 225.462 221.677 227.156C218.909 228.03 216.74 228.26 213.845 228.276C212.829 228.286 211.813 228.296 210.765 228.306C209.661 228.307 208.557 228.307 207.42 228.308C206.249 228.316 205.077 228.325 203.871 228.333C199.998 228.357 196.126 228.366 192.254 228.373C190.917 228.377 189.581 228.381 188.245 228.386C181.248 228.41 174.252 228.424 167.255 228.427C160.741 228.431 154.228 228.461 147.714 228.502C142.114 228.537 136.514 228.553 130.914 228.553C127.572 228.554 124.231 228.565 120.89 228.591C117.162 228.618 113.436 228.613 109.709 228.601C108.607 228.616 107.505 228.631 106.369 228.646C98.0252 228.566 98.0252 228.566 94.3303 225.589C91.1236 222.029 90.6051 219.878 90.6403 215.041C91.2429 211.621 93.3675 210.07 95.9997 208.002C98.452 206.775 100.051 206.87 102.793 206.861Z" fill="#33CBCA"/>
<path d="M128.87 309.854C129.925 309.847 130.979 309.839 132.065 309.832C133.232 309.829 134.399 309.827 135.601 309.824C136.822 309.817 138.043 309.811 139.301 309.804C142.661 309.788 146.02 309.776 149.38 309.768C151.478 309.763 153.577 309.757 155.675 309.75C162.239 309.731 168.803 309.717 175.366 309.709C182.946 309.699 190.526 309.673 198.105 309.632C203.961 309.602 209.817 309.587 215.672 309.584C219.171 309.582 222.669 309.573 226.167 309.547C230.072 309.52 233.977 309.524 237.882 309.531C239.041 309.518 240.199 309.505 241.393 309.492C249.232 309.543 249.232 309.543 253.195 311.905C256.042 315.211 256.333 317.585 256.293 321.962C255.838 325.132 254.247 326.82 252 329.001C249.503 330.249 247.805 330.138 245.01 330.155C243.954 330.163 242.899 330.172 241.811 330.181C240.648 330.185 239.485 330.189 238.286 330.194C237.065 330.202 235.844 330.21 234.585 330.219C230.53 330.244 226.474 330.26 222.418 330.274C221.022 330.28 219.626 330.285 218.23 330.291C212.423 330.312 206.617 330.331 200.81 330.342C192.487 330.358 184.165 330.392 175.842 330.449C169.99 330.487 164.139 330.507 158.287 330.512C154.792 330.516 151.298 330.528 147.802 330.56C143.902 330.596 140.003 330.592 136.103 330.584C134.367 330.609 134.367 330.609 132.596 330.634C124.765 330.573 124.765 330.573 120.799 327.607C118.173 323.802 117.401 320.595 118 316.001C120.375 313.001 120.375 313.001 123 311.001C124.654 309.347 126.593 309.864 128.87 309.854Z" fill="#33CBCA"/>
<path d="M380.042 189.579C383.17 190.254 385.368 191.166 387.999 193.001C391.17 198.205 392.38 203.835 393.812 209.689C395.773 217.43 397.826 225.122 400.187 232.751C400.424 233.542 400.662 234.333 400.907 235.149C402.462 240.248 402.462 240.248 405.999 244.001C416.564 245.647 428.209 242.971 438.687 241.501C465.519 237.761 465.519 237.761 471.124 240.564C472.999 243.001 472.999 243.001 473.624 246.439C472.833 250.949 471.649 252.284 467.999 255.001C462.727 256.745 457.388 257.744 451.925 258.693C450.656 258.918 450.656 258.918 449.361 259.148C446.678 259.623 443.995 260.094 441.312 260.564C438.618 261.038 435.924 261.514 433.231 261.991C431.56 262.286 429.89 262.58 428.219 262.872C424.036 263.601 424.036 263.601 419.895 264.534C412.901 266.258 405.359 265.276 398.999 262.001C393.164 258.252 389.674 253.894 386.652 247.681C386.208 246.771 386.208 246.771 385.755 245.842C382.356 238.8 379.262 231.626 376.187 224.439C375.61 223.099 375.032 221.76 374.454 220.421C372.96 216.952 371.469 213.481 369.999 210.001C369.622 209.121 369.245 208.241 368.856 207.334C367.566 203.823 367.231 200.635 367.999 197.001C370.73 191.679 373.964 188.975 380.042 189.579Z" fill="white"/>
<path d="M412.73 119.365C416.929 122.393 419.703 126.408 422 131.002C423.31 155.159 423.31 155.159 415.688 164.502C411.933 168.632 407.967 170.744 402.414 171.47C394.645 171.534 388.818 171.503 383 166.002C378.688 161.757 376.208 157.678 375.734 151.584C375.823 130.254 375.823 130.254 383.605 122.377C392.24 114.447 402.545 113.767 412.73 119.365Z" fill="white"/>
<path d="M381 330C384.093 332.883 386.283 335.797 388.469 339.41C389.117 340.474 389.765 341.538 390.433 342.634C391.122 343.777 391.811 344.92 392.5 346.062C393.929 348.413 395.361 350.761 396.793 353.109C397.149 353.695 397.505 354.28 397.872 354.883C401.603 361.009 405.434 367.07 409.281 373.123C410.151 374.493 411.02 375.864 411.885 377.237C412.856 378.772 413.839 380.299 414.824 381.824C416 384 416 384 416 387C414.351 388.47 414.351 388.47 412.055 389.996C410.809 390.834 410.809 390.834 409.539 391.689C408.66 392.266 407.781 392.843 406.875 393.438C406.019 394.01 405.163 394.583 404.281 395.174C401.236 397.209 398.181 399.229 395.114 401.231C392.868 402.705 390.907 404.093 389 406C385.652 402.925 382.343 399.815 379.063 396.668C377.944 395.603 376.815 394.549 375.676 393.506C366.305 384.9 366.305 384.9 365.621 380.635C366.134 378.227 366.974 376.237 368 374C368.528 372.198 369.032 370.389 369.516 368.574C370.091 366.611 370.669 364.649 371.25 362.688C371.554 361.652 371.859 360.617 372.172 359.551C375.077 349.689 378.028 339.841 381 330Z" fill="#33CBCA"/>
<path d="M320 185.998C319.734 186.783 319.468 187.568 319.195 188.377C317.342 193.889 315.53 199.387 314 204.998C313.408 205.012 312.816 205.026 312.207 205.041C311.416 205.089 310.626 205.136 309.812 205.186C309.035 205.22 308.257 205.255 307.457 205.291C304 206.286 302.078 208.161 300 210.998C298.362 214.446 297.172 218.016 295.968 221.635C295.61 222.669 295.252 223.704 294.882 224.77C293.741 228.071 292.619 231.377 291.5 234.686C290.377 237.975 289.251 241.262 288.117 244.548C287.414 246.587 286.717 248.63 286.03 250.675C280.262 267.49 280.262 267.49 275 270.998C271.233 271.409 268.894 271.503 265.562 269.623C262.869 265.099 263.471 259.723 264.455 254.649C265.096 252.263 265.812 249.914 266.562 247.561C267.117 245.737 267.667 243.913 268.214 242.088C268.506 241.117 268.797 240.146 269.097 239.146C270.074 235.738 270.955 232.316 271.816 228.877C272.118 227.673 272.419 226.469 272.73 225.228C273.315 222.87 273.893 220.51 274.463 218.149C277.137 207.465 281.1 199.435 290.593 193.33C299.543 188.458 309.744 185.648 320 185.998Z" fill="white"/>
<path d="M429.24 509.889C443.108 509.226 443.108 509.226 449 514.001C453.364 518.178 457.164 522.148 459 528.001C459 529.321 459 530.641 459 532.001C452.683 532.128 446.367 532.216 440.049 532.276C437.9 532.301 435.752 532.335 433.604 532.378C430.513 532.439 427.423 532.467 424.332 532.489C423.374 532.515 422.415 532.541 421.428 532.568C416.826 532.57 414.713 532.548 410.968 529.674C407.536 525.012 405.825 521.055 405.926 515.267C405.937 514.465 405.948 513.664 405.959 512.838C405.972 512.232 405.986 511.626 406 511.001C412.103 510.673 418.206 510.376 424.311 510.117C425.954 510.046 427.597 509.971 429.24 509.889Z" fill="white"/>
<path d="M200 409.999C202.925 411.079 205.3 412.399 208 413.999C205.798 420.986 203.125 427.631 200.125 434.312C199.703 435.287 199.282 436.262 198.848 437.267C195.172 445.456 191.192 448.973 182.848 452.183C177.975 453.58 173.046 453.826 168 453.999C168.559 448.559 170.501 444.415 172.93 439.609C173.321 438.823 173.712 438.037 174.115 437.228C174.939 435.575 175.768 433.924 176.601 432.276C177.875 429.749 179.132 427.215 180.387 424.679C181.192 423.072 181.998 421.465 182.805 419.859C183.18 419.101 183.555 418.342 183.941 417.561C187.872 409.839 191.805 408.961 200 409.999Z" fill="white"/>
<path d="M405 368C407.81 371.419 410.352 374.906 412.75 378.625C413.67 380.037 413.67 380.037 414.609 381.477C416 384 416 384 416 387C414.351 388.47 414.351 388.47 412.055 389.996C410.809 390.834 410.809 390.834 409.539 391.689C408.66 392.266 407.781 392.843 406.875 393.438C406.019 394.01 405.163 394.583 404.281 395.174C401.236 397.209 398.181 399.229 395.114 401.231C392.868 402.705 390.907 404.093 389 406C384.05 401.05 379.1 396.1 374 391C379.626 386.499 379.626 386.499 382.383 384.484C382.988 384.041 383.593 383.598 384.217 383.142C384.846 382.683 385.476 382.223 386.125 381.75C386.779 381.272 387.432 380.794 388.106 380.302C393.73 376.191 399.362 372.091 405 368Z" fill="#33CBCA"/>
<path d="M310 380C310.685 380.287 311.37 380.574 312.076 380.87C315.217 382.186 318.358 383.499 321.5 384.812C322.578 385.264 323.655 385.716 324.766 386.182C325.823 386.623 326.88 387.065 327.969 387.52C328.932 387.923 329.896 388.326 330.889 388.741C334.566 390.229 338.286 391.607 342 393C340.02 399.93 338.04 406.86 336 414C332.102 412.401 328.207 410.796 324.312 409.188C323.21 408.736 322.107 408.284 320.971 407.818C319.904 407.377 318.837 406.935 317.738 406.48C316.759 406.077 315.78 405.674 314.771 405.259C312.039 404.018 309.539 402.595 307 401C307.117 399.374 307.244 397.75 307.375 396.125C307.445 395.22 307.514 394.315 307.586 393.383C308.139 388.867 309.063 384.449 310 380Z" fill="#33CBCA"/>
<path d="M398 395C398.99 395.33 399.98 395.66 401 396C399.35 397.65 397.7 399.3 396 401C395.34 400.01 394.68 399.02 394 398C395.812 396.438 395.812 396.438 398 395Z" fill="#33CBCA"/>
<path d="M374 390C376.475 390.495 376.475 390.495 379 391C379 391.66 379 392.32 379 393C379.99 393.33 380.98 393.66 382 394C381.01 394.66 380.02 395.32 379 396C377.35 394.02 375.7 392.04 374 390Z" fill="#33CBCA"/>
</g>
<defs>
<clipPath id="clip0_150_1434">
<rect width="640" height="640" fill="white"/>
</clipPath>
</defs>
</svg>
