<svg width="640" height="640" viewBox="0 0 640 640" fill="none" xmlns="http://www.w3.org/2000/svg">
<g clip-path="url(#clip0_150_1455)">
<path d="M426.251 108.564C434.722 115.564 442.092 125.867 443.199 136.995C444.265 153.801 441.898 170.195 430.688 183.314C424.374 189.984 417.401 193.521 409.001 197.002C409.278 197.561 409.555 198.121 409.841 198.697C412.748 205.133 413.552 210.864 413.825 217.9C413.884 220.832 413.884 220.832 414.52 222.916C415.292 226.265 415.058 229.573 415.001 233.002C415.617 232.941 416.233 232.881 416.867 232.818C429.427 231.616 441.943 230.78 454.563 230.689C455.685 230.672 456.807 230.655 457.963 230.637C468.147 230.643 474.503 232.821 482.016 239.881C488.43 246.737 489.344 253.912 489.2 263.014C488.664 271.06 485.015 275.974 479.552 281.795C475.748 285.086 471.785 286.629 467.001 288.002C466.011 288.332 465.021 288.662 464.001 289.002C462.543 289.224 461.081 289.411 459.615 289.574C458.73 289.674 457.844 289.774 456.931 289.878C455.492 290.034 455.492 290.034 454.024 290.193C453.026 290.303 452.027 290.412 450.998 290.525C448.875 290.757 446.751 290.986 444.628 291.214C441.436 291.558 438.246 291.915 435.055 292.273C404.258 295.645 404.258 295.645 393.001 292.002C391.43 297.531 390.159 302.607 392.11 308.158C393.923 311.381 395.893 314.401 398.001 317.439C398.748 318.573 399.491 319.709 400.231 320.848C401.738 323.155 403.263 325.448 404.805 327.732C407.961 332.432 410.977 337.216 414.001 342.002C415.135 343.778 416.269 345.554 417.403 347.33C421.143 353.21 424.839 359.117 428.505 365.043C429.529 366.697 430.557 368.347 431.585 369.998C447.842 396.36 447.302 419.584 443.188 449.502C442.923 451.506 442.66 453.51 442.397 455.514C440.744 468.032 438.915 480.521 437.001 493.002C437.768 493.298 438.535 493.595 439.325 493.9C451.842 499.053 457.833 509.212 463.001 521.002C465.057 527.17 465.334 534.718 462.872 540.783C459.305 546.371 455.338 549.89 449.001 552.002C447.321 552.109 445.637 552.161 443.954 552.179C442.925 552.192 441.896 552.205 440.837 552.218C439.724 552.225 438.612 552.233 437.466 552.24C436.317 552.248 435.169 552.256 433.985 552.265C431.55 552.278 429.115 552.289 426.68 552.297C422.977 552.314 419.275 552.358 415.573 552.402C413.204 552.412 410.835 552.421 408.466 552.428C406.818 552.454 406.818 552.454 405.137 552.481C396.988 552.458 390.313 550.888 383.485 546.318C375.503 538.246 371.085 527.817 370.438 516.564C370.395 515.915 370.352 515.266 370.307 514.598C370.174 512.399 370.081 510.203 370.001 508.002C369.948 506.705 369.948 506.705 369.895 505.382C369.719 497.285 370.72 489.461 371.91 481.478C372.377 478.339 372.824 475.197 373.272 472.055C373.618 469.632 373.967 467.21 374.316 464.788C375.282 458.059 376.213 451.326 377.106 444.587C377.371 442.603 377.645 440.62 377.92 438.637C378.078 437.439 378.236 436.241 378.399 435.006C378.54 433.962 378.681 432.919 378.826 431.844C379.003 428.957 378.827 426.769 378.001 424.002C375.729 421.462 375.729 421.462 372.938 419.189C372.019 418.399 371.1 417.609 370.153 416.795C369.443 416.203 368.733 415.612 368.001 415.002C367.782 415.897 367.562 416.791 367.337 417.713C362.675 435.489 352.038 449.295 336.087 458.725C333.074 460.309 330.168 461.749 327.001 463.002C326.038 463.386 326.038 463.386 325.056 463.777C315.83 466.857 306.384 466.381 296.778 466.321C293.532 466.302 290.286 466.305 287.04 466.314C277.817 466.336 268.595 466.325 259.373 466.287C253.712 466.265 248.053 466.272 242.392 466.297C240.245 466.301 238.098 466.293 235.95 466.274C232.945 466.248 229.941 466.258 226.936 466.277C226.06 466.26 225.184 466.243 224.281 466.225C218.282 466.314 214.774 467.93 209.992 471.536C201.069 478.103 186.992 482.039 176.001 481.002C168.827 478.528 164.689 475.698 161.251 468.939C158.367 462.87 156.765 457.42 158.623 450.776C159.517 448.351 160.491 445.979 161.509 443.603C161.872 442.728 162.235 441.853 162.609 440.952C163.377 439.109 164.153 437.268 164.934 435.431C166.117 432.649 167.275 429.858 168.43 427.064C179.159 401.35 179.159 401.35 190.001 396.002C199.193 392.464 207.703 392.415 216.719 396.271C218.776 397.193 220.828 398.124 222.876 399.064C233.482 403.877 240.65 405.028 252.001 403.002C254.562 402.68 257.125 402.368 259.688 402.064C260.981 401.893 262.274 401.722 263.606 401.545C268.892 400.867 274.194 400.367 279.501 399.877C280.421 399.789 281.341 399.702 282.289 399.612C287.551 399.136 292.717 398.915 298.001 399.002C298.294 394.254 298.294 394.254 298.564 389.504C298.79 385.353 299.061 381.216 299.43 377.076C300.221 367.227 299.822 358.302 298.063 348.564C295.184 332.566 294.42 317.684 298.989 301.99C300.431 296.779 300.797 291.478 301.277 286.109C302 278.287 303.439 270.697 305.001 263.002C304.699 263.869 304.397 264.736 304.086 265.629C302.946 268.883 301.792 272.133 300.631 275.38C300.133 276.778 299.64 278.179 299.153 279.581C295.676 289.572 292.168 298.891 283.001 305.002C282.485 305.373 281.969 305.744 281.438 306.127C274.489 310.44 265.574 310.177 257.759 308.529C256.063 307.877 256.063 307.877 253.001 306.002C252.337 305.6 251.673 305.198 250.989 304.783C244.347 300.363 240.857 294.552 238.688 286.939C237.002 277.282 239.221 269.914 242.126 260.689C242.54 259.345 242.954 258 243.366 256.655C244.563 252.766 245.78 248.884 247.001 245.002C247.32 243.982 247.639 242.963 247.968 241.913C249.234 237.869 250.511 233.829 251.809 229.795C252.772 226.73 253.624 223.67 254.438 220.564C258.831 205.966 271.07 191.67 284.438 184.377C290.91 181.353 297.792 179.574 304.652 177.665C308.638 176.539 312.599 175.328 316.563 174.127C319.107 173.364 321.652 172.603 324.197 171.842C326.181 171.247 328.165 170.651 330.148 170.053C333.41 169.071 336.674 168.098 339.938 167.127C340.963 166.816 341.988 166.506 343.044 166.186C344.008 165.901 344.972 165.616 345.966 165.322C346.818 165.067 347.67 164.812 348.547 164.549C351.108 163.978 353.386 163.903 356.001 164.002C355.671 163.012 355.341 162.022 355.001 161.002C354.071 144.898 355.476 128.39 366.11 115.432C382.331 98.484 406.41 95.4538 426.251 108.564Z" fill="black"/>
<path d="M319 308C329.52 309.146 339.809 311.077 350.166 313.235C355.772 314.395 361.307 315.39 367 316C366.128 322.897 364.739 329.686 363.375 336.5C363.244 337.154 363.114 337.808 362.979 338.481C360.725 349.738 358.257 360.938 355.686 372.127C354.095 379.075 352.557 386.029 351.105 393.008C350.949 393.756 350.793 394.505 350.632 395.276C349.879 398.896 349.132 402.517 348.397 406.14C345.358 420.933 340.691 430.813 327.977 439.754C320.207 444.652 313.939 446.157 304.721 446.114C303.901 446.114 303.081 446.114 302.236 446.114C299.537 446.113 296.837 446.106 294.137 446.098C292.261 446.096 290.384 446.094 288.508 446.093C283.578 446.09 278.648 446.08 273.717 446.069C268.683 446.058 263.649 446.054 258.615 446.049C248.743 446.038 238.872 446.021 229 446C229.911 441.274 231.381 437.172 233.25 432.75C233.537 432.018 233.825 431.286 234.121 430.531C235.016 428.422 235.016 428.422 237 425C241.651 423.479 246.951 423.502 251.812 423.098C252.777 423.015 253.741 422.932 254.734 422.847C257.823 422.583 260.911 422.323 264 422.062C270.02 421.552 276.04 421.038 282.059 420.512C286.029 420.166 290 419.841 293.973 419.531C295.857 419.374 297.741 419.216 299.625 419.059C300.484 418.996 301.342 418.934 302.227 418.87C307.041 418.451 310.959 417.879 315 415C317.065 410.737 317.409 406.415 317.816 401.73C317.878 401.05 317.939 400.37 318.002 399.669C318.196 397.509 318.38 395.348 318.562 393.188C318.751 391.043 318.941 388.899 319.132 386.754C319.254 385.37 319.375 383.986 319.495 382.602C319.802 379.076 320.156 375.563 320.59 372.051C321.424 364.626 321.028 358.346 319 351.125C316.953 343.003 316.616 335.106 316.625 326.75C316.624 325.584 316.622 324.417 316.621 323.215C316.692 317.668 317.05 313.246 319 308Z" fill="white"/>
<path d="M384 334C388.209 338.877 391.437 344.348 394.812 349.812C396.15 351.966 397.487 354.12 398.824 356.273C399.51 357.38 400.197 358.487 400.904 359.628C402.974 362.959 405.057 366.281 407.145 369.602C407.812 370.664 408.479 371.726 409.167 372.821C410.439 374.846 411.712 376.869 412.988 378.892C425.799 399.322 427.301 415.4 423.75 439C423.405 441.364 423.064 443.728 422.722 446.092C422.491 447.692 422.258 449.291 422.024 450.891C421.245 456.237 420.51 461.588 419.812 466.945C419.721 467.644 419.63 468.344 419.536 469.064C419.106 472.37 418.679 475.677 418.257 478.984C418.105 480.147 417.953 481.31 417.797 482.508C417.666 483.525 417.536 484.542 417.401 485.59C417 488 417 488 416 490C408.08 490.33 400.16 490.66 392 491C393.201 479.993 394.453 468.993 395.738 457.996C395.91 456.518 396.082 455.041 396.253 453.564C396.5 451.433 396.749 449.302 397 447.172C397.121 446.139 397.121 446.139 397.245 445.085C397.924 439.424 398.748 433.79 399.633 428.157C400.321 422.242 400.774 417.842 397 413C394.714 410.866 394.714 410.866 392.062 408.875C387.126 404.966 382.475 400.852 377.885 396.542C375.162 393.97 375.162 393.97 372 392C373.515 380.497 376.038 369.252 378.562 357.938C378.979 356.055 379.395 354.173 379.811 352.291C380.569 348.864 381.328 345.437 382.092 342.011C382.244 341.331 382.395 340.651 382.552 339.95C383.009 337.96 383.498 335.98 384 334Z" fill="white"/>
<path d="M319 308C329.52 309.146 339.809 311.077 350.166 313.235C355.772 314.395 361.307 315.39 367 316C366.128 322.897 364.739 329.686 363.375 336.5C363.246 337.146 363.117 337.792 362.984 338.458C360.384 351.456 357.484 364.379 354.516 377.297C353.245 382.847 352.072 388.408 351 394C343.752 393.481 336.916 392.203 329.875 390.438C328.44 390.087 328.44 390.087 326.977 389.729C324.649 389.158 322.324 388.582 320 388C319.857 377.492 319.857 377.492 320.5 372.375C321.441 364.857 321.055 358.445 319 351.125C316.953 343.003 316.616 335.106 316.625 326.75C316.623 325 316.623 325 316.621 323.215C316.692 317.668 317.05 313.246 319 308Z" fill="#33CBCA"/>
<path d="M93.1097 206.865C94.1668 206.86 95.2238 206.856 96.3129 206.852C97.4725 206.852 98.6321 206.852 99.8267 206.853C101.048 206.85 102.269 206.846 103.528 206.843C106.879 206.835 110.23 206.832 113.582 206.831C116.38 206.83 119.178 206.826 121.976 206.823C128.579 206.815 135.181 206.812 141.784 206.813C148.593 206.814 155.402 206.803 162.211 206.787C168.058 206.774 173.905 206.769 179.753 206.769C183.244 206.77 186.736 206.767 190.227 206.756C194.123 206.745 198.018 206.749 201.913 206.755C203.646 206.747 203.646 206.747 205.414 206.738C207.008 206.745 207.008 206.745 208.635 206.751C209.555 206.75 210.476 206.75 211.424 206.749C215.541 207.147 218.263 208.359 221.374 211.061C223.395 214.714 223.278 216.865 222.612 220.908C221.745 223.864 220.525 225.267 217.999 226.998C214.877 228.009 211.999 228.128 208.73 228.139C207.663 228.144 206.597 228.15 205.497 228.156C203.749 228.158 203.749 228.158 201.966 228.159C200.119 228.167 200.119 228.167 198.235 228.174C194.861 228.187 191.487 228.194 188.113 228.198C186.005 228.201 183.896 228.205 181.787 228.21C175.187 228.224 168.587 228.233 161.987 228.237C154.372 228.242 146.758 228.259 139.143 228.288C133.253 228.31 127.364 228.32 121.474 228.321C117.958 228.322 114.442 228.328 110.925 228.346C107.004 228.366 103.083 228.361 99.1615 228.355C97.9982 228.364 96.8349 228.373 95.6364 228.383C94.0318 228.374 94.0318 228.374 92.3949 228.366C91.0048 228.368 91.0048 228.368 89.5866 228.37C86.4242 227.916 84.5715 226.87 81.9991 224.998C79.3278 220.991 79.1726 217.709 79.9991 212.998C83.847 208.006 86.9987 206.876 93.1097 206.865Z" fill="#33CBCA"/>
<path d="M350.001 192C349.784 192.594 349.568 193.189 349.345 193.801C349.066 194.63 348.788 195.459 348.501 196.312C348.222 197.113 347.944 197.914 347.657 198.738C345.832 207.809 347.271 215.419 350.376 224C350.73 225.015 351.083 226.031 351.447 227.077C352.611 230.392 353.804 233.696 355.001 237C355.423 238.18 355.846 239.361 356.281 240.577C357.572 244.181 358.877 247.779 360.188 251.375C360.592 252.485 360.995 253.595 361.411 254.738C365.598 266.804 365.598 266.804 372.938 277C375.001 280 375.001 280 374.938 282.375C374.046 287.06 372.511 291.483 371.001 296C361.66 295.532 352.672 294.199 343.513 292.416C341.345 291.994 339.175 291.582 337.005 291.172C326.511 289.17 326.511 289.17 323.001 288C322.775 280.651 323.636 273.783 324.829 266.539C325.019 265.354 325.21 264.169 325.406 262.948C325.809 260.444 326.216 257.941 326.626 255.439C327.243 251.673 327.847 247.905 328.45 244.137C330.181 233.402 331.954 222.677 334.118 212.02C334.266 211.265 334.415 210.51 334.568 209.732C336.134 202.332 339.209 197.847 345.251 193.5C348.001 192 348.001 192 350.001 192Z" fill="#33CBCA"/>
<path d="M382 196C385.681 197.938 388.365 200.463 389.962 204.331C390.681 207.118 391.214 209.889 391.695 212.726C391.895 213.752 392.095 214.777 392.302 215.833C392.936 219.093 393.533 222.357 394.125 225.625C394.726 228.899 395.335 232.17 395.969 235.438C396.362 237.466 396.736 239.499 397.088 241.535C397.892 245.713 398.446 248.347 401.233 251.634C404.644 253.318 406.893 253.433 410.691 253.312C411.339 253.296 411.987 253.28 412.655 253.263C414.772 253.201 416.885 253.105 419 253C419.717 252.967 420.434 252.934 421.174 252.9C426.432 252.652 431.684 252.333 436.937 252C439.25 251.855 441.564 251.712 443.877 251.572C445.299 251.485 446.72 251.396 448.142 251.305C462.495 250.423 462.495 250.423 467 254C469.35 257.525 469.664 258.85 469 263C464.213 268.126 460.069 268.946 453.25 269.625C452.302 269.735 451.355 269.846 450.379 269.96C448.336 270.197 446.291 270.424 444.245 270.644C440.879 271.013 437.52 271.426 434.16 271.847C431.877 272.128 429.595 272.408 427.312 272.687C426.251 272.819 425.19 272.951 424.096 273.086C411.941 274.505 400.963 275.483 390.687 267.75C384.774 261.699 381.803 254.57 379.011 246.691C378.663 245.725 378.315 244.759 377.957 243.763C377.228 241.732 376.505 239.699 375.786 237.665C374.689 234.569 373.567 231.482 372.443 228.396C371.735 226.412 371.029 224.427 370.324 222.441C369.99 221.528 369.655 220.616 369.311 219.675C367.401 214.186 365.953 208.834 367 203C370.475 196.859 375.066 194.732 382 196Z" fill="white"/>
<path d="M126.383 309.846C127.304 309.838 128.225 309.829 129.174 309.82C130.694 309.814 130.694 309.814 132.245 309.808C133.311 309.799 134.376 309.791 135.473 309.783C139.009 309.758 142.546 309.741 146.082 309.727C147.288 309.722 148.493 309.716 149.735 309.711C156.114 309.684 162.494 309.665 168.873 309.65C175.471 309.634 182.069 309.589 188.666 309.538C193.732 309.504 198.798 309.493 203.863 309.487C206.296 309.48 208.729 309.465 211.161 309.441C214.563 309.41 217.964 309.409 221.366 309.417C222.374 309.4 223.381 309.384 224.419 309.367C229.132 309.409 231.279 309.445 235.109 312.394C237.849 316.171 238.604 319.371 238 324C235.625 327 235.625 327 233 329C232.505 329.495 232.505 329.495 232 330C230.58 330.1 229.154 330.131 227.731 330.134C226.349 330.141 226.349 330.141 224.939 330.147C223.921 330.147 222.902 330.146 221.852 330.146C220.786 330.149 219.719 330.152 218.62 330.156C215.074 330.165 211.527 330.167 207.98 330.168C205.525 330.172 203.07 330.175 200.615 330.178C195.459 330.184 190.303 330.186 185.147 330.186C178.533 330.186 171.918 330.199 165.303 330.216C160.229 330.228 155.155 330.23 150.081 330.229C147.642 330.23 145.203 330.235 142.764 330.242C139.354 330.252 135.945 330.249 132.536 330.243C131.523 330.249 130.511 330.255 129.467 330.26C128.538 330.256 127.608 330.252 126.65 330.248C125.441 330.248 125.441 330.248 124.207 330.249C121.709 329.968 120.131 329.319 118 328C115.919 325.324 115.07 323.409 114.5 320.063C115.204 315.75 116.961 314.112 120 311C122.35 309.825 123.763 309.865 126.383 309.846Z" fill="#33CBCA"/>
<path d="M92.2207 110.84C93.655 110.833 93.655 110.833 95.1184 110.825C98.2928 110.811 101.467 110.804 104.642 110.798C106.844 110.793 109.046 110.787 111.249 110.781C115.872 110.771 120.496 110.765 125.12 110.761C131.042 110.756 136.965 110.732 142.888 110.703C147.44 110.685 151.992 110.68 156.544 110.678C158.727 110.675 160.91 110.667 163.093 110.654C166.15 110.637 169.207 110.639 172.264 110.645C173.615 110.631 173.615 110.631 174.994 110.617C180.065 110.651 183.641 111.116 188.001 114.002C190.489 117.734 190.394 120.687 190.001 125.002C189.438 127.314 189.438 127.314 188.001 129.002C182.313 132.017 177.66 132.434 171.29 132.39C169.866 132.398 169.866 132.398 168.414 132.406C165.295 132.419 162.175 132.41 159.056 132.4C156.88 132.402 154.705 132.405 152.53 132.409C147.979 132.413 143.428 132.407 138.877 132.393C133.045 132.376 127.214 132.385 121.382 132.403C116.893 132.414 112.405 132.411 107.917 132.403C105.766 132.401 103.615 132.403 101.465 132.41C98.4608 132.418 95.4575 132.406 92.4536 132.39C91.5662 132.396 90.6788 132.402 89.7645 132.408C85.0135 132.359 81.8692 132.073 78.0009 129.002C75.6766 126.013 75.5298 122.705 75.6064 118.97C76.2789 115.615 78.4038 114.042 81.0009 112.002C84.4486 110.278 88.4256 110.845 92.2207 110.84Z" fill="#33CBCA"/>
<path d="M412.731 124.369C417.235 127.609 420.254 131.761 422.001 137.001C422.253 140.038 422.232 143.08 422.251 146.126C422.271 146.944 422.292 147.761 422.313 148.603C422.37 157.551 420.24 164.72 414.016 171.271C408.775 175.771 403.006 177.696 396.122 177.314C389.13 176.284 383.618 172.171 379.001 167.001C375.837 162.039 375.521 157.956 375.626 152.251C375.637 151.453 375.647 150.655 375.659 149.832C375.914 140.357 377.537 133.616 384.231 126.626C392.452 119.077 403.253 119.144 412.731 124.369Z" fill="white"/>
<path d="M318 197.001C317.795 197.714 317.59 198.427 317.379 199.162C315.894 204.441 314.606 209.549 314 215.001C312.969 215.27 311.937 215.538 310.875 215.814C304.329 217.665 304.329 217.665 299.504 222.181C297.826 225.327 296.492 228.496 295.187 231.814C294.927 232.476 294.666 233.137 294.397 233.819C292.663 238.24 290.979 242.68 289.312 247.126C288.962 248.058 288.962 248.058 288.604 249.008C287.062 253.118 285.55 257.239 284.059 261.369C283.104 264.004 282.136 266.634 281.166 269.264C280.683 270.581 280.206 271.899 279.735 273.22C279.066 275.095 278.375 276.962 277.684 278.83C277.089 280.468 277.089 280.468 276.482 282.139C274.776 285.435 273.088 286.98 270 289.001C267 289.564 267 289.564 264 289.001C261.125 287.001 261.125 287.001 259 284.001C258.255 276.801 260.331 270.796 262.562 264.001C263.303 261.69 264.041 259.377 264.777 257.064C265.151 255.893 265.525 254.723 265.91 253.517C266.96 250.13 267.936 246.732 268.879 243.314C269.174 242.252 269.469 241.19 269.773 240.095C270.323 238.098 270.862 236.098 271.389 234.095C274.752 222.029 282.131 209.916 293 203.189C299.43 199.997 311.085 194.696 318 197.001Z" fill="white"/>
<path d="M384 334C388.209 338.877 391.437 344.348 394.812 349.812C396.144 351.958 397.476 354.104 398.809 356.25C399.837 357.909 399.837 357.909 400.886 359.602C403.005 363.014 405.144 366.414 407.285 369.812C407.971 370.902 408.656 371.991 409.362 373.114C410.686 375.217 412.011 377.319 413.339 379.419C413.936 380.37 414.533 381.321 415.148 382.301C415.676 383.138 416.204 383.975 416.748 384.837C418 387 418 387 419 390C417.693 390.926 417.693 390.926 416.359 391.871C408.483 397.466 400.699 403.163 393 409C387.027 404.79 381.658 400.048 376.32 395.074C374.186 392.984 374.186 392.984 372 392C373.515 380.497 376.038 369.252 378.562 357.938C378.979 356.055 379.395 354.173 379.811 352.291C380.569 348.864 381.328 345.437 382.092 342.011C382.244 341.331 382.395 340.651 382.552 339.95C383.009 337.96 383.498 335.98 384 334Z" fill="#33CBCA"/>
<path d="M434.989 514.475C439.07 518.303 442.226 522.653 444 527.998C444 529.318 444 530.638 444 531.998C437.683 532.125 431.367 532.213 425.049 532.273C422.9 532.298 420.752 532.332 418.604 532.376C415.513 532.436 412.423 532.465 409.332 532.487C408.374 532.513 407.415 532.538 406.428 532.565C401.826 532.567 399.713 532.545 395.968 529.671C392.536 525.01 390.825 521.052 390.926 515.264C390.937 514.463 390.948 513.661 390.959 512.835C390.972 512.229 390.986 511.623 391 510.998C395.188 510.83 399.375 510.664 403.563 510.498C404.744 510.451 405.926 510.403 407.143 510.354C428.321 509.523 428.321 509.523 434.989 514.475Z" fill="white"/>
<path d="M209 415C211.82 416.158 214.335 417.498 217 419C215.003 426.175 212.532 433.021 209.625 439.875C209.064 441.26 209.064 441.26 208.492 442.672C205.655 449.375 202.979 452.814 196.188 455.703C194.795 456.229 193.399 456.744 192 457.25C191.301 457.518 190.603 457.786 189.883 458.063C186.147 459.444 182.993 460.343 179 460C179.566 454.393 181.053 449.738 183.203 444.547C183.683 443.374 183.683 443.374 184.172 442.177C184.847 440.535 185.526 438.895 186.209 437.256C187.25 434.75 188.264 432.235 189.277 429.719C189.939 428.119 190.601 426.52 191.266 424.922C191.565 424.172 191.864 423.422 192.172 422.649C195.653 414.461 200.616 412.89 209 415Z" fill="white"/>
<path d="M408.051 373.161C410.457 374.195 411.07 375.122 412.359 377.377C412.949 378.388 412.949 378.388 413.551 379.418C413.947 380.125 414.342 380.832 414.75 381.561C415.161 382.272 415.572 382.983 415.996 383.715C417.009 385.47 418.006 387.233 419 388.998C415.352 393.014 411.055 395.923 406.625 398.998C405.882 399.519 405.14 400.04 404.375 400.577C400.285 403.438 396.166 406.248 392 408.998C391.348 408.407 390.695 407.815 390.023 407.205C385.42 403.043 380.809 398.922 376 394.998C380.483 391.317 385.166 387.944 389.875 384.561C390.652 384.001 391.43 383.441 392.23 382.864C393.761 381.761 395.295 380.663 396.831 379.569C398.236 378.552 399.624 377.51 400.989 376.439C405.498 372.959 405.498 372.959 408.051 373.161Z" fill="#33CBCA"/>
<path d="M319 384C319.33 385.32 319.66 386.64 320 388C320.741 388.098 321.482 388.196 322.246 388.297C331.651 389.632 340.783 391.726 350 394C348.588 408.824 348.588 408.824 346 414C339.751 413.307 333.656 412.204 327.5 410.938C326.582 410.751 325.664 410.565 324.719 410.373C322.478 409.918 320.239 409.46 318 409C317.864 400.61 318.245 392.356 319 384Z" fill="#33CBCA"/>
<path d="M407 373C410 374 410 374 411.688 377.062C412.121 378.032 412.554 379.001 413 380C411.68 380.33 410.36 380.66 409 381C407 375.25 407 375.25 407 373Z" fill="#33CBCA"/>
</g>
<defs>
<clipPath id="clip0_150_1455">
<rect width="640" height="640" fill="white"/>
</clipPath>
</defs>
</svg>
