<svg width="640" height="640" viewBox="0 0 640 640" fill="none" xmlns="http://www.w3.org/2000/svg">
<g clip-path="url(#clip0_150_1474)">
<path d="M415.001 100.001C416.232 100.529 416.232 100.529 417.489 101.067C429.285 106.491 437.008 115.139 441.938 127.188C446.093 141.499 442.667 159.501 436.251 172.563C430.761 181.512 423.055 188.607 413.001 192.001C411.681 192.001 410.361 192.001 409.001 192.001C409.434 193.113 409.434 193.113 409.876 194.247C415.537 210.306 413.198 224.13 408.001 240.001C408.663 240.11 409.326 240.218 410.009 240.33C413.741 241.167 417.277 242.425 420.864 243.731C421.615 244.004 422.366 244.277 423.139 244.558C424.724 245.137 426.309 245.718 427.892 246.301C430.29 247.18 432.695 248.041 435.1 248.901C454.856 256.093 454.856 256.093 460.001 266.001C462.987 273.681 464.57 280.604 461.438 288.501C457.781 295.892 452.708 301.761 445.029 305.064C433.581 308.605 421.445 305.081 410.313 302.001C408.174 301.425 406.033 300.855 403.891 300.289C401.976 299.781 400.065 299.258 398.154 298.735C394.891 297.85 394.891 297.85 391.001 298.001C391.553 304.014 393.38 308.944 395.727 314.481C396.107 315.395 396.487 316.309 396.878 317.251C398.12 320.233 399.373 323.211 400.626 326.188C401.489 328.257 402.351 330.325 403.212 332.394C405.387 337.611 407.57 342.825 409.757 348.037C412.636 354.899 415.506 361.765 418.374 368.632C419.281 370.798 420.191 372.962 421.103 375.127C434.005 405.86 434.397 427.872 426.023 460.039C424.587 465.567 423.281 471.123 422.001 476.688C421.794 477.548 421.586 478.407 421.373 479.292C420.301 483.903 419.337 488.257 420.001 493.001C422.105 495.041 422.105 495.041 425.001 496.376C435.532 502.487 440.766 510.689 445.001 522.001C446.744 529.134 446.998 535.609 443.344 542.145C440.315 546.328 436.254 549.165 432.001 552.001C429.581 552.275 429.581 552.275 426.678 552.307C425.045 552.331 425.045 552.331 423.379 552.356C422.201 552.361 421.023 552.366 419.809 552.372C418.594 552.381 417.379 552.39 416.127 552.399C413.551 552.414 410.974 552.423 408.398 552.426C404.478 552.438 400.559 552.487 396.639 552.538C394.133 552.547 391.628 552.555 389.122 552.559C387.958 552.579 386.794 552.599 385.595 552.619C377.102 552.572 370.265 550.932 363.891 545.056C359.941 540.877 357.173 536.302 355.001 531.001C354.48 529.842 353.959 528.683 353.423 527.489C351.447 522.126 351.469 516.851 351.501 511.188C351.503 510.065 351.505 508.941 351.507 507.784C351.722 495.934 353.881 484.576 356.367 473.021C357.344 468.365 358.177 463.686 359.001 459.001C343.939 461.06 328.927 463.413 313.915 465.799C305.407 467.151 296.897 468.485 288.376 469.751C287.608 469.869 286.841 469.986 286.05 470.107C282.846 470.597 279.654 471.037 276.43 471.376C270.006 472.134 266.875 473.445 262.313 477.997C254.038 485.168 239.758 492.646 228.751 492.001C221.497 490.83 216.821 487.555 212.29 481.849C208.213 476.005 207.416 470.895 208.001 464.001C208.7 460.736 209.701 457.605 210.751 454.438C211.307 452.68 211.86 450.921 212.411 449.161C212.819 447.86 212.819 447.86 213.236 446.533C214.35 442.844 215.285 439.121 216.188 435.376C216.504 434.095 216.82 432.813 217.145 431.493C217.669 429.354 218.189 427.213 218.7 425.071C220.879 416.782 224.586 411.262 231.876 406.626C241.337 401.421 250.182 400.775 260.452 403.745C262.677 404.416 264.894 405.109 267.11 405.809C278.483 409.343 287.496 407.433 298.876 404.626C322.063 399.001 322.063 399.001 328.001 399.001C326.453 394.447 324.889 389.898 323.313 385.353C322.782 383.815 322.254 382.275 321.731 380.734C318.644 371.65 315.268 362.963 310.762 354.477C304.595 342.799 302.114 329.922 300.001 317.001C299.513 317.29 299.026 317.578 298.524 317.876C291.508 321.55 284.809 322.037 277.001 321.001C273.328 319.769 270.229 318.126 267.001 316.001C266.073 315.403 265.144 314.805 264.188 314.188C258.311 308.312 254.923 301.366 254.846 293.033C254.889 286.989 255.73 281.237 256.794 275.298C256.982 274.217 257.169 273.136 257.363 272.022C257.761 269.749 258.164 267.477 258.571 265.205C259.184 261.777 259.774 258.344 260.362 254.911C264.35 232.109 269.722 208.699 289.13 193.94C295.209 189.834 301.8 186.606 308.313 183.251C311.363 181.666 314.41 180.076 317.458 178.485C318.201 178.098 318.945 177.711 319.711 177.313C323.957 175.096 328.16 172.821 332.325 170.454C333.22 169.946 334.115 169.438 335.037 168.914C336.61 168.012 338.177 167.099 339.736 166.174C344.994 163.171 350.023 161.885 356.001 161.001C355.671 160.341 355.341 159.681 355.001 159.001C353.99 142.321 355.167 125.648 366.227 112.317C378.909 98.7697 397.297 91.9715 415.001 100.001Z" fill="black"/>
<path d="M321 305C327.371 305.631 333.572 306.594 339.848 307.848C341.194 308.112 341.194 308.112 342.567 308.381C345.399 308.938 348.231 309.5 351.062 310.062C352.997 310.444 354.931 310.825 356.865 311.205C361.578 312.133 366.289 313.065 371 314C371.241 315.613 371.241 315.613 371.487 317.259C372.241 322.298 372.995 327.336 373.75 332.375C373.887 333.287 374.023 334.199 374.164 335.139C375.815 346.159 377.481 357.176 379.188 368.188C379.647 371.177 380.105 374.166 380.562 377.155C380.857 379.073 381.156 380.99 381.458 382.907C386.087 412.379 386.087 412.379 381.441 420.035C372.848 431.75 364.689 437.261 350.449 439.577C345.889 440.256 341.322 440.872 336.752 441.48C330.803 442.304 324.877 443.268 318.949 444.235C316.95 444.561 314.95 444.883 312.95 445.204C304.747 446.529 296.568 447.94 288.41 449.52C284.534 450.066 280.91 450.082 277 450C277.646 445.886 278.448 441.857 279.438 437.812C279.807 436.275 279.807 436.275 280.184 434.707C281 432 281 432 283 429C285.498 428.242 287.859 427.666 290.41 427.168C291.537 426.932 291.537 426.932 292.687 426.692C294.304 426.355 295.921 426.024 297.54 425.697C300.915 425.015 304.285 424.303 307.655 423.593C310.182 423.061 312.71 422.532 315.239 422.003C321.675 420.652 328.093 419.236 334.5 417.75C335.506 417.529 336.511 417.307 337.547 417.079C344.57 415.49 344.57 415.49 350 411C351.534 404.237 350.372 399.571 348.098 393.121C347.782 392.191 347.467 391.262 347.142 390.304C346.471 388.34 345.793 386.38 345.106 384.422C344.077 381.478 343.078 378.524 342.084 375.568C338.67 365.581 334.927 356.196 329.698 347.017C322.271 333.822 320.749 319.895 321 305Z" fill="white"/>
<path d="M321 305C327.37 305.631 333.572 306.594 339.847 307.848C340.745 308.024 341.642 308.2 342.566 308.381C345.399 308.938 348.231 309.5 351.062 310.062C352.996 310.444 354.931 310.825 356.865 311.205C361.577 312.133 366.289 313.065 371 314C371.171 315.149 371.342 316.298 371.519 317.481C372.163 321.798 372.808 326.114 373.453 330.431C373.731 332.289 374.008 334.147 374.285 336.005C374.687 338.696 375.089 341.387 375.492 344.078C375.687 345.391 375.687 345.391 375.887 346.731C376.583 351.373 377.349 355.992 378.195 360.609C379.141 366.091 379.196 371.451 379 377C374.98 377.575 370.96 378.144 366.939 378.709C365.573 378.902 364.208 379.095 362.842 379.291C360.872 379.573 358.901 379.849 356.929 380.125C355.746 380.293 354.562 380.46 353.343 380.633C350.195 380.979 347.163 381.067 344 381C341.873 375.795 339.839 370.571 337.927 365.283C335.268 357.976 332.212 351.076 328.613 344.184C322.14 331.411 320.762 319.154 321 305Z" fill="#33CBCA"/>
<path d="M84.9522 206.861C86.4852 206.853 86.4852 206.853 88.0491 206.844C89.1697 206.843 90.2903 206.842 91.4448 206.84C92.6255 206.835 93.8063 206.83 95.0228 206.825C98.2626 206.813 101.502 206.806 104.742 206.801C106.767 206.798 108.792 206.794 110.817 206.79C117.156 206.776 123.495 206.767 129.834 206.763C137.146 206.758 144.458 206.741 151.77 206.712C157.425 206.69 163.08 206.68 168.736 206.679C172.112 206.678 175.488 206.672 178.864 206.654C182.632 206.637 186.399 206.639 190.167 206.645C191.282 206.636 192.396 206.627 193.545 206.617C199.069 206.647 203.307 206.725 208 210.002C210.483 213.725 210.41 216.693 210 221.002C209.11 223.995 208.313 224.782 205.745 226.583C202.775 228.118 201.075 228.378 197.763 228.383C196.211 228.395 196.211 228.395 194.628 228.408C193.504 228.402 192.379 228.396 191.221 228.39C190.029 228.395 188.836 228.4 187.608 228.406C184.345 228.417 181.083 228.414 177.821 228.405C174.402 228.397 170.984 228.404 167.566 228.409C161.826 228.414 156.086 228.407 150.346 228.393C143.716 228.376 137.085 228.382 130.454 228.398C124.756 228.412 119.057 228.414 113.358 228.406C109.957 228.401 106.556 228.401 103.155 228.41C99.3631 228.418 95.5715 228.406 91.7795 228.39C90.6552 228.396 89.5309 228.402 88.3725 228.408C87.3379 228.4 86.3033 228.391 85.2374 228.383C84.3414 228.381 83.4455 228.38 82.5224 228.379C78.657 227.8 76.0109 225.943 73.1877 223.314C71.438 219.907 71.2018 216.693 72.0002 213.002C75.8463 208.116 78.9009 206.881 84.9522 206.861Z" fill="#33CBCA"/>
<path d="M379 193C382.658 195.04 384.669 196.504 387 200C387.23 202.101 387.23 202.101 387.187 204.625C387.17 205.611 387.154 206.597 387.136 207.613C387.014 210.657 386.838 213.693 386.636 216.733C386.131 224.423 385.809 232.107 385.687 239.812C385.643 241.236 385.643 241.236 385.597 242.689C385.507 247.847 385.507 247.847 387.558 252.445C390.69 254.44 393.903 255.799 397.375 257.062C398.128 257.348 398.881 257.633 399.656 257.927C404.318 259.68 409.004 261.362 413.694 263.035C416.41 264.005 419.123 264.982 421.836 265.958C423.852 266.679 425.871 267.386 427.892 268.092C429.155 268.544 430.417 268.996 431.679 269.449C432.801 269.844 433.922 270.24 435.077 270.647C438.151 272.07 439.924 273.332 442 276C442 279.562 442 279.562 441 283C439.042 284.86 437.758 285.902 435.054 286.25C428.633 285.513 422.579 283.886 416.392 282.08C412.1 280.833 407.814 279.702 403.449 278.734C402.056 278.423 402.056 278.423 400.636 278.106C398.845 277.713 397.052 277.331 395.256 276.964C387.718 275.292 381.37 272.181 376.25 266.25C375.719 265.657 375.188 265.064 374.64 264.453C368.948 255.941 368.095 247.449 367.416 237.447C367.252 235.032 367.064 232.62 366.871 230.207C366.266 222.336 365.855 214.46 365.726 206.566C365.705 205.863 365.683 205.159 365.661 204.435C365.644 201.289 365.823 199.294 367.458 196.57C370.846 193.252 374.293 191.998 379 193Z" fill="white"/>
<path d="M412.992 121.38C418.014 125.435 421.674 130.638 422.999 137.001C423.808 145.893 422.519 157.163 417.312 164.626C415.703 166.415 415.703 166.415 413.999 168.001C413.187 168.786 413.187 168.786 412.359 169.587C407.005 173.8 401.17 173.727 394.566 173.478C387.481 172.531 383.876 169.365 379.562 163.876C374.416 156.669 375.425 147.52 376.308 139.036C377.407 132.722 379.034 127.415 384.121 123.274C393.093 117.057 403.329 115.267 412.992 121.38Z" fill="white"/>
<path d="M346 190C346.66 190.33 347.32 190.66 348 191C347.512 192.309 347.512 192.309 347.013 193.645C343.946 203.804 346.315 216.017 347.172 226.502C347.375 228.996 347.567 231.49 347.758 233.984C349.428 255.267 352.274 270.459 368 286C368.759 286.761 369.519 287.521 370.301 288.305C370.862 288.864 371.422 289.424 372 290C371.505 291.485 371.505 291.485 371 293C366.19 293.121 361.882 292.74 357.176 291.758C355.899 291.496 354.622 291.234 353.307 290.965C351.975 290.685 350.644 290.405 349.312 290.125C340.233 288.237 331.163 286.439 322 285C323.71 270.177 325.997 255.467 328.438 240.75C328.583 239.867 328.728 238.985 328.877 238.075C329.871 232.041 330.908 226.017 332 220C332.159 219.123 332.318 218.246 332.482 217.343C332.961 214.751 333.463 212.164 333.973 209.578C334.116 208.802 334.26 208.026 334.407 207.227C336.003 199.414 339.807 194.786 346 190Z" fill="#33CBCA"/>
<path d="M130.226 309.808C131.502 309.795 131.502 309.795 132.803 309.783C135.625 309.758 138.447 309.741 141.27 309.727C142.232 309.722 143.195 309.716 144.187 309.711C149.283 309.684 154.378 309.665 159.474 309.65C164.74 309.634 170.006 309.589 175.272 309.538C179.318 309.504 183.365 309.493 187.411 309.487C189.353 309.48 191.294 309.465 193.235 309.441C195.953 309.41 198.668 309.409 201.386 309.417C202.589 309.392 202.589 309.392 203.816 309.367C207.958 309.413 209.744 309.788 212.976 312.474C213.644 313.308 214.312 314.142 215 315C215.495 315.495 215.495 315.495 216 316C216.293 318.933 216.5 321.145 216 324C213.562 326.938 213.562 326.938 211 329C210.505 329.495 210.505 329.495 210 330C207.282 330.106 204.59 330.147 201.872 330.146C200.594 330.151 200.594 330.151 199.29 330.156C196.458 330.165 193.625 330.167 190.793 330.168C188.831 330.172 186.869 330.175 184.907 330.178C180.787 330.184 176.667 330.186 172.547 330.186C167.264 330.186 161.981 330.199 156.698 330.216C152.643 330.228 148.588 330.23 144.533 330.229C142.585 330.23 140.637 330.235 138.69 330.242C135.965 330.252 133.241 330.249 130.516 330.243C129.306 330.252 129.306 330.252 128.071 330.26C121.112 330.221 121.112 330.221 118 328C115.919 325.324 115.07 323.409 114.5 320.063C115.204 315.75 116.961 314.112 120 311C123.207 309.397 126.701 309.826 130.226 309.808Z" fill="#33CBCA"/>
<path d="M315 204C314.582 207.086 314.137 210.168 313.688 213.25C313.57 214.123 313.452 214.995 313.331 215.895C312.639 220.541 311.995 223.313 309 227C308.12 229.695 307.367 232.317 306.688 235.062C306.478 235.883 306.269 236.703 306.053 237.547C302.839 250.345 300.121 263.269 297.312 276.16C296.679 279.047 296.029 281.93 295.375 284.812C295.194 285.659 295.012 286.506 294.825 287.378C293.671 292.388 292.212 295.956 289 300C286.112 301.444 284.204 301.377 281 301C278.125 299.062 278.125 299.062 276 296C275.187 289.881 276.358 283.63 277.426 277.609C277.574 276.743 277.723 275.876 277.875 274.984C278.189 273.161 278.506 271.339 278.826 269.518C279.309 266.773 279.78 264.025 280.248 261.277C287.103 221.449 287.103 221.449 299 212C311.095 204 311.095 204 315 204Z" fill="white"/>
<path d="M402 385C404.148 387.148 404.8 388.633 405.91 391.43C406.26 392.308 406.61 393.185 406.971 394.09C407.331 395.009 407.691 395.928 408.062 396.875C408.427 397.786 408.791 398.698 409.166 399.637C415.829 416.46 412.328 430.116 407.949 447.238C405.691 456.075 403.811 464.972 401.955 473.901C401.726 474.993 401.497 476.086 401.262 477.211C401.065 478.163 400.869 479.115 400.667 480.095C399.902 483.428 398.939 486.712 398 490C390.41 490.33 382.82 490.66 375 491C375.796 483.041 376.818 475.289 378.254 467.44C378.502 466.062 378.738 464.681 378.963 463.299C380.416 454.409 382.199 448.196 389 442C394.496 435.717 399.236 429.948 402 422C402.357 421.06 402.714 420.121 403.082 419.152C405.565 410.626 404.15 401.193 402.438 392.621C402.005 390.028 401.924 387.623 402 385Z" fill="white"/>
<path d="M88.916 110.839C90.1578 110.83 91.3995 110.82 92.679 110.81C94.0415 110.805 95.404 110.801 96.7666 110.797C98.1618 110.791 99.557 110.786 100.952 110.78C103.881 110.769 106.81 110.764 109.739 110.76C113.482 110.755 117.226 110.731 120.969 110.702C123.854 110.683 126.738 110.678 129.622 110.677C131.002 110.674 132.381 110.666 133.76 110.653C135.696 110.635 137.632 110.639 139.568 110.644C140.668 110.64 141.768 110.637 142.901 110.633C147.297 111.154 150.641 112.731 153.876 115.75C155.521 119.041 155.447 121.371 155.001 125C152.809 128.523 150.842 130.497 147.001 132C144.124 132.261 144.124 132.261 140.751 132.275C139.486 132.284 138.221 132.294 136.918 132.304C135.541 132.304 134.163 132.303 132.786 132.301C131.369 132.305 129.952 132.309 128.534 132.314C125.566 132.322 122.598 132.321 119.63 132.316C115.833 132.31 112.035 132.327 108.238 132.35C105.312 132.365 102.386 132.366 99.4592 132.363C98.0594 132.363 96.6596 132.369 95.2599 132.379C93.3 132.391 91.34 132.382 89.3801 132.373C88.2663 132.373 87.1525 132.374 86.005 132.375C82.6191 131.953 80.7453 130.989 78.0009 129C75.6766 126.012 75.5298 122.703 75.6064 118.969C76.2789 115.613 78.4038 114.041 81.0009 112C83.7182 110.642 85.8738 110.858 88.916 110.839Z" fill="#33CBCA"/>
<path d="M395.16 509.873C403.504 509.38 410.182 509.774 417 515.001C419.36 517.483 421.265 520.052 423 523.001C423.381 523.639 423.763 524.277 424.156 524.934C425.165 527.406 425.059 529.354 425 532.001C418.825 532.1 412.651 532.172 406.476 532.22C404.376 532.241 402.276 532.268 400.176 532.302C397.155 532.351 394.135 532.374 391.113 532.391C389.708 532.422 389.708 532.422 388.275 532.454C384.048 532.455 381.66 532.401 377.981 530.172C373.842 525.637 372.833 521.729 372.926 515.759C372.936 514.865 372.947 513.972 372.958 513.052C372.972 512.375 372.986 511.698 373 511.001C378.805 510.674 384.61 510.378 390.418 510.121C391.999 510.047 393.58 509.966 395.16 509.873Z" fill="white"/>
<path d="M252 422.999C255.382 423.864 258.694 424.881 262 425.999C260.901 430.561 259.761 435.11 258.59 439.654C258.009 441.963 257.472 444.28 256.938 446.6C255.132 454.019 253.568 460.4 246.758 464.706C241.311 467.259 235.743 469.226 230 470.999C229.67 470.669 229.34 470.339 229 469.999C229.916 460.826 232.636 451.881 235 442.999C235.212 442.199 235.424 441.4 235.643 440.576C236.238 438.376 236.863 436.187 237.5 433.999C237.861 432.74 238.222 431.482 238.594 430.186C241.42 423.781 245.265 422.226 252 422.999Z" fill="white"/>
<path d="M379 373C379.33 373 379.66 373 380 373C380.99 380.92 381.98 388.84 383 397C379.105 397.596 375.21 398.186 371.312 398.764C369.338 399.059 367.365 399.362 365.393 399.666C364.145 399.85 362.898 400.033 361.613 400.223C360.466 400.395 359.32 400.568 358.138 400.746C355.074 400.994 352.895 401.03 350 400C348.882 398.358 348.882 398.358 348.199 396.254C347.945 395.499 347.69 394.744 347.428 393.967C347.183 393.173 346.939 392.38 346.688 391.562C346.424 390.773 346.16 389.983 345.889 389.17C344 383.416 344 383.416 344 381C348.52 380.325 353.041 379.662 357.562 379C359.478 378.714 359.478 378.714 361.432 378.422C362.672 378.241 363.913 378.061 365.191 377.875C366.328 377.707 367.464 377.54 368.635 377.367C372.117 376.987 375.5 376.938 379 377C379 375.68 379 374.36 379 373Z" fill="#33CBCA"/>
<path d="M362 380C361.34 380 360.68 380 360 380C360 380.66 360 381.32 360 382C358.397 382.337 356.792 382.67 355.188 383C354.294 383.186 353.401 383.371 352.48 383.563C350 384 350 384 347 384C347 383.34 347 382.68 347 382C346.01 381.67 345.02 381.34 344 381C346.248 380.636 348.499 380.284 350.75 379.938C352.003 379.74 353.256 379.543 354.547 379.34C357.5 379.049 359.26 379.011 362 380Z" fill="#33CBCA"/>
<path d="M402 385C404.408 387.408 405.008 389.422 406.125 392.625C406.478 393.628 406.831 394.631 407.195 395.664C407.461 396.435 407.726 397.206 408 398C406.02 398.99 406.02 398.99 404 400C402.059 398.059 402.601 394.527 402.438 391.938C402.354 390.647 402.27 389.357 402.184 388.027C402.123 387.028 402.062 386.029 402 385Z" fill="#33CBCA"/>
<path d="M71.9997 213C72.3297 213.66 72.6597 214.32 72.9997 215C73.6597 215 74.3197 215 74.9997 215C75.6597 216.98 76.3197 218.96 76.9997 221C76.3397 221 75.6797 221 74.9997 221C74.6697 221.99 74.3397 222.98 73.9997 224C71.3205 219.981 71.8437 217.758 71.9997 213Z" fill="#33CBCA"/>
<path d="M362 379.999C361.34 379.999 360.68 379.999 360 379.999C360 380.659 360 381.319 360 381.999C358.35 382.329 356.7 382.659 355 382.999C355 382.339 355 381.679 355 380.999C353.35 380.999 351.7 380.999 350 380.999C350 380.669 350 380.339 350 379.999C358.571 378.714 358.571 378.714 362 379.999Z" fill="#33CBCA"/>
<path d="M370 396C370 396.99 370 397.98 370 399C368.68 399 367.36 399 366 399C366 398.34 366 397.68 366 397C365.01 396.67 364.02 396.34 363 396C366.133 394.956 366.99 395.066 370 396Z" fill="#33CBCA"/>
</g>
<defs>
<clipPath id="clip0_150_1474">
<rect width="640" height="640" fill="white"/>
</clipPath>
</defs>
</svg>
