<svg width="640" height="640" viewBox="0 0 640 640" fill="none" xmlns="http://www.w3.org/2000/svg">
<g clip-path="url(#clip0_150_1511)">
<path d="M423.923 98.7979C433.523 106.071 441.113 115.888 443.001 128.001C443.959 142.969 442.739 158.389 434.001 171.001C433.339 171.979 433.339 171.979 432.665 172.978C428.541 178.389 422.835 181.661 417.001 185.001C416.312 185.397 415.624 185.792 414.915 186.2C413.001 187.001 413.001 187.001 409.001 187.001C409.289 187.563 409.578 188.125 409.876 188.704C417.724 206.472 411.789 224.27 406.061 241.718C404.466 246.655 403.039 251.635 401.626 256.626C401.388 257.448 401.15 258.269 400.905 259.116C400.463 260.657 400.031 262.2 399.612 263.747C399.191 265.298 398.746 266.842 398.28 268.38C397.196 272.318 396.689 274.235 398.266 278.11C399.249 279.417 399.249 279.417 400.251 280.751C405.475 287.897 406.862 293.187 406.001 302.001C405.385 304.073 404.739 306.136 404.063 308.189C402.901 312.229 402.901 312.229 403.973 316.114C405.85 318.257 407.88 320.098 410.001 322.001C411.852 323.988 413.683 325.984 415.501 328.001C416.456 329.041 417.411 330.08 418.368 331.118C421.044 334.049 423.665 337.019 426.266 340.017C428.282 342.322 430.326 344.6 432.376 346.876C433.136 347.727 433.897 348.578 434.68 349.454C436.177 351.096 437.701 352.714 439.259 354.298C450.109 365.564 457.895 379.6 458.438 395.376C458.15 407.293 454.094 418.954 445.49 427.502C441.484 431.194 437.255 434.602 433.001 438.001C431.146 439.521 429.291 441.041 427.438 442.564C426.557 443.279 425.675 443.994 424.766 444.731C421.707 447.242 418.698 449.806 415.688 452.376C411.085 456.301 406.392 460.088 401.626 463.814C401.035 464.284 400.443 464.755 399.834 465.24C397.505 467.091 395.209 468.874 392.669 470.427C389.036 472.775 388.149 474.394 387.098 478.685C386.708 480.894 386.37 483.106 386.054 485.327C384.595 495.575 381.293 505.388 374.001 513.001C373.341 513.331 372.681 513.661 372.001 514.001C372.096 515.135 372.192 516.27 372.29 517.439C372.402 518.959 372.514 520.48 372.626 522.001C372.722 523.117 372.722 523.117 372.821 524.255C373.36 531.998 372.257 538.956 367.001 545.001C360.345 550.315 355.379 551.621 347.001 551.001C342.791 550.5 338.619 549.829 334.438 549.126C327.474 547.99 320.543 546.889 313.518 546.209C303.94 545.28 297.348 543.25 290.606 536.138C284.161 527.56 282.819 518.803 282.813 508.439C282.801 507.391 282.789 506.344 282.776 505.265C282.774 504.228 282.772 503.191 282.77 502.122C282.766 501.188 282.762 500.254 282.758 499.292C283.374 490.947 285.709 483.494 288.817 475.771C289.192 474.818 289.568 473.866 289.955 472.885C291.15 469.858 292.356 466.836 293.563 463.814C294.346 461.838 295.128 459.862 295.909 457.886C296.296 456.908 296.683 455.931 297.082 454.924C297.865 452.944 298.646 450.963 299.425 448.981C301.422 443.919 303.465 438.884 305.598 433.877C306.016 432.873 306.434 431.868 306.864 430.833C307.65 428.946 308.454 427.067 309.281 425.198C312.354 417.719 312.432 411.01 312.001 403.001C311.945 401.91 311.89 400.82 311.833 399.696C311.633 396.381 311.385 393.073 311.118 389.763C311.021 388.558 310.924 387.353 310.825 386.111C310.618 383.582 310.408 381.054 310.194 378.526C309.982 375.974 309.781 373.421 309.59 370.867C308.471 355.93 306.71 342.859 301.001 329.001C298.485 321.34 298.735 313.622 298.813 305.626C298.814 304.356 298.815 303.087 298.815 301.778C298.86 292.423 298.86 292.423 300.001 289.001C300.3 286.46 300.566 283.923 300.813 281.376C301.586 273.791 302.766 266.325 304.063 258.814C305.682 249.391 306.509 240.177 306.497 230.612C306.567 225.229 307.332 221.821 309.976 217.157C312.481 211.888 312.985 205.726 313.979 200.021C316.625 186 323.276 175.548 335.001 167.251C336.664 166.163 338.331 165.079 340.001 164.001C340.788 163.431 341.576 162.861 342.387 162.274C347.005 158.966 350.29 157.244 356.001 157.001C355.671 156.011 355.341 155.021 355.001 154.001C353.944 136.05 355.722 119.069 368.001 105.001C369.743 103.564 371.538 102.189 373.376 100.876C374.291 100.213 375.206 99.5508 376.149 98.8682C391.026 89.127 408.814 89.5064 423.923 98.7979Z" fill="black"/>
<path d="M319 300C321.548 300.154 324.074 300.368 326.613 300.641C328.917 300.885 331.229 301.06 333.543 301.172C344.871 302.366 349.539 307.761 356.562 316.215C360.348 320.656 365.007 324.298 371 325C372.072 324.954 373.145 324.907 374.25 324.859C380.148 324.687 384.843 324.563 389.406 328.676C392.058 331.428 394.449 334.373 396.772 337.405C398.321 339.416 399.991 341.301 401.687 343.188C402.22 343.802 402.752 344.417 403.301 345.051C405.302 347.347 407.336 349.612 409.375 351.875C410.135 352.719 410.896 353.564 411.68 354.434C413.201 356.117 414.727 357.797 416.258 359.473C438.157 383.547 438.157 383.547 437.457 398.613C435.971 409.625 428.974 415.221 420.659 421.704C418.239 423.595 415.872 425.549 413.5 427.5C412.614 428.221 411.729 428.941 410.816 429.684C407.662 432.278 404.548 434.916 401.437 437.562C393.845 444.011 386.182 450.308 378 456C377.128 454.447 376.278 452.882 375.437 451.312C374.962 450.442 374.486 449.572 373.996 448.676C372.811 445.494 372.835 444.171 374 441C375.75 438.711 375.75 438.711 378 436.375C381.291 432.866 384.426 429.315 387.437 425.562C391.407 420.642 395.604 416.011 399.933 411.41C402.818 408.046 403.894 405.974 404.375 401.562C403.918 397.223 402.958 396.16 400 393C397.55 391.028 394.976 389.265 392.375 387.5C390.842 386.44 389.309 385.379 387.777 384.316C386.988 383.771 386.199 383.226 385.386 382.665C381.531 379.975 377.737 377.204 373.937 374.438C363.8 367.089 353.616 359.797 342.937 353.25C330.181 345.172 322.746 332.005 319.305 317.426C318.581 311.669 318.864 305.791 319 300Z" fill="#33CBCA"/>
<path d="M408 353C411.968 354.563 414.417 357.32 417.188 360.438C417.906 361.238 417.906 361.238 418.639 362.054C420.102 363.695 421.553 365.346 423 367C423.839 367.953 424.678 368.905 425.543 369.887C433.317 379.015 438.03 386.281 437.457 398.613C435.971 409.625 428.974 415.221 420.659 421.704C418.239 423.595 415.872 425.549 413.5 427.5C412.614 428.221 411.729 428.941 410.816 429.684C407.662 432.278 404.548 434.916 401.438 437.562C393.845 444.011 386.182 450.308 378 456C377.129 454.447 376.278 452.882 375.438 451.312C374.962 450.442 374.486 449.572 373.996 448.676C372.812 445.494 372.836 444.171 374 441C375.75 438.711 375.75 438.711 378 436.375C381.291 432.866 384.426 429.315 387.438 425.562C391.407 420.642 395.604 416.011 399.934 411.41C402.818 408.046 403.894 405.974 404.375 401.562C403.915 397.194 402.998 396.175 400 393C397.256 390.845 394.391 388.889 391.5 386.938C382.351 380.717 382.351 380.717 379 377C386.371 370.669 393.822 364.481 401.504 358.53C403.778 356.765 405.962 355.038 408 353Z" fill="white"/>
<path d="M362.001 186.249C367.224 186.634 369.548 188.114 373.001 191.999C375.103 195.725 375.265 198.767 375.001 202.999C373.95 205.537 373.95 205.537 372.473 208.053C371.932 208.991 371.391 209.928 370.834 210.894C370.249 211.877 369.665 212.86 369.063 213.874C368.182 215.398 368.182 215.398 367.283 216.954C365.044 220.827 362.778 224.684 360.502 228.535C359.619 230.032 358.741 231.53 357.868 233.032C357.105 234.345 356.33 235.651 355.542 236.949C353.278 240.846 352.127 243.531 353.001 247.999C354.77 251.245 356.925 254.16 359.126 257.124C360.407 258.9 361.689 260.676 362.97 262.452C363.965 263.818 363.965 263.818 364.981 265.212C368.252 269.726 371.436 274.301 374.626 278.874C375.205 279.699 375.784 280.524 376.38 281.374C377.452 282.903 378.521 284.434 379.586 285.967C380.469 287.236 381.361 288.499 382.265 289.753C385.449 294.267 385.786 296.592 385.001 301.999C382.938 304.561 382.938 304.561 380.001 305.999C376.091 306.375 373.947 305.752 370.868 303.3C365.904 298.482 361.57 293.148 357.255 287.753C355.066 285.078 352.783 282.537 350.438 279.999C340.165 268.611 333.256 258.093 333.443 242.304C334.196 234.023 337.86 226.168 340.934 218.528C342.129 215.553 343.282 212.564 344.43 209.571C345.183 207.651 345.938 205.733 346.696 203.815C347.037 202.933 347.378 202.05 347.729 201.141C350.314 194.79 354.02 185.891 362.001 186.249Z" fill="white"/>
<path d="M330 369C339.204 373.446 347.114 379.276 355.102 385.601C356.964 387.039 356.964 387.039 359.021 388.106C361.056 389.26 362.491 390.207 364 392C364.908 395.614 364.753 399.048 364.562 402.75C364.548 403.701 364.533 404.653 364.518 405.633C364.253 415.551 363.136 424.54 356 432C352.689 434.142 349.22 435.609 345.562 437.062C336.656 440.654 330.255 444.807 326.062 453.75C323.191 462.998 324.817 470.951 328.906 479.504C330 482 330 482 330 485C322.934 485.138 316.026 484.748 309 484C309.742 479.057 311.562 474.594 313.352 469.957C313.689 469.075 314.026 468.192 314.373 467.283C315.453 464.458 316.539 461.635 317.625 458.812C318.332 456.964 319.039 455.116 319.746 453.268C320.094 452.359 320.442 451.45 320.801 450.514C321.501 448.684 322.2 446.854 322.898 445.023C324.569 440.652 326.276 436.304 328.083 431.987C332.777 420.713 332.777 420.713 333.062 408.625C332.989 407.765 332.916 406.905 332.84 406.019C332.602 403.34 332.305 400.672 332 398C331.817 396.18 331.638 394.36 331.461 392.539C331.211 389.969 330.955 387.401 330.662 384.834C330.067 379.522 329.92 374.347 330 369Z" fill="white"/>
<path d="M412.249 115.661C416.805 119.149 421.482 124.156 422.274 130.04C422.303 132.403 422.328 134.762 422.312 137.125C422.304 138.406 422.304 138.406 422.295 139.712C422.127 148.453 421.065 156 414.785 162.528C408.994 167.305 402.98 168.631 395.574 168.321C388.601 167.453 383.099 163.867 378.738 158.426C373.916 150.627 375.291 140.174 376.749 131.5C378.579 123.933 381.731 119.744 387.999 115.164C394.984 111.099 405.397 111.649 412.249 115.661Z" fill="white"/>
<path d="M85.0546 206.726C86.2676 206.719 86.2676 206.719 87.505 206.711C90.1768 206.697 92.8484 206.698 95.5202 206.7C97.381 206.696 99.2418 206.692 101.103 206.687C105.004 206.68 108.905 206.68 112.807 206.685C117.797 206.691 122.786 206.674 127.776 206.651C131.621 206.636 135.465 206.635 139.309 206.638C141.148 206.638 142.987 206.633 144.826 206.623C147.404 206.61 149.981 206.617 152.559 206.629C153.69 206.617 153.69 206.617 154.843 206.605C159.926 206.656 163.472 207.655 168.001 210.001C170.009 212.446 170.027 214.205 170.438 217.376C169.852 222.236 168.515 223.647 165.001 227.001C161.196 228.488 157.049 228.156 153.023 228.162C152.222 228.167 151.422 228.172 150.597 228.177C147.953 228.192 145.309 228.199 142.665 228.204C140.824 228.21 138.983 228.216 137.142 228.221C133.284 228.232 129.426 228.238 125.567 228.241C120.629 228.247 115.69 228.271 110.752 228.299C106.95 228.318 103.147 228.323 99.3453 228.325C97.5249 228.328 95.7044 228.336 93.884 228.349C91.335 228.366 88.7866 228.364 86.2375 228.357C85.4892 228.367 84.741 228.376 83.97 228.385C78.3669 228.341 74.2546 227.105 70.1257 223.251C68.4805 219.961 68.555 217.63 69.0007 214.001C73.178 207.287 77.5542 206.702 85.0546 206.726Z" fill="#33CBCA"/>
<path d="M126.003 309.837C126.828 309.828 127.652 309.818 128.502 309.808C129.395 309.804 130.287 309.8 131.207 309.795C132.125 309.79 133.042 309.784 133.987 309.778C135.932 309.768 137.876 309.762 139.821 309.758C142.79 309.748 145.759 309.717 148.729 309.686C150.617 309.679 152.506 309.674 154.395 309.67C155.281 309.658 156.168 309.646 157.081 309.633C161.868 309.65 165.149 309.827 169 312.998C171.457 316.683 171.701 319.718 171 323.998C169.206 326.808 167.981 328.508 165 329.998C163.632 330.097 162.26 330.137 160.889 330.144C160.041 330.15 159.193 330.156 158.32 330.163C157.402 330.164 156.485 330.165 155.539 330.166C154.126 330.171 154.126 330.171 152.684 330.176C150.689 330.181 148.693 330.184 146.697 330.184C143.644 330.186 140.592 330.204 137.539 330.223C135.602 330.226 133.664 330.228 131.727 330.229C130.813 330.236 129.899 330.243 128.958 330.251C128.104 330.248 127.25 330.244 126.37 330.241C125.621 330.243 124.872 330.244 124.1 330.246C121.661 329.958 120.088 329.278 118 327.998C115.919 325.322 115.07 323.407 114.5 320.061C115.204 315.748 116.961 314.11 120 310.998C122.254 309.871 123.502 309.861 126.003 309.837Z" fill="#33CBCA"/>
<path d="M303 504.002C310.239 503.903 317.406 504.151 324.625 504.689C325.61 504.743 326.595 504.796 327.61 504.851C335.351 505.445 340.305 507.635 346.024 512.845C350.702 518.578 352.298 522.416 352 530.002C343.583 529.269 335.17 528.485 326.773 527.547C325.331 527.391 323.889 527.245 322.445 527.108C320.327 526.907 318.215 526.671 316.102 526.427C314.857 526.298 313.613 526.168 312.331 526.034C307.83 524.639 306.658 522.833 304 519.002C302.72 515.81 302.897 512.667 302.938 509.252C302.947 508.267 302.956 507.282 302.965 506.267C302.977 505.52 302.988 504.772 303 504.002Z" fill="white"/>
<path d="M330 369C339.212 373.45 347.073 379.304 355.102 385.582C356.986 387.028 356.986 387.028 359.026 388.28C363.846 391.345 363.846 391.345 364.684 394.895C364.603 395.857 364.522 396.82 364.438 397.812C364.375 398.788 364.312 399.764 364.246 400.77C364.165 401.506 364.084 402.242 364 403C353.968 404.248 344.133 405.358 334 405C334 406.65 334 408.3 334 410C333.67 410 333.34 410 333 410C332.568 405.608 332.141 401.216 331.719 396.823C331.575 395.332 331.429 393.841 331.282 392.351C330.514 384.555 329.788 376.845 330 369Z" fill="#33CBCA"/>
<path d="M408 353C412.249 354.598 414.822 357.813 417.75 361.125C418.257 361.688 418.763 362.252 419.285 362.832C420.529 364.217 421.765 365.608 423 367C404.389 385.805 404.389 385.805 396 390C390.39 386.04 384.78 382.08 379 378C384.633 372.367 384.633 372.367 387.199 370.168C387.764 369.683 388.329 369.198 388.912 368.698C389.498 368.2 390.084 367.701 390.688 367.188C391.297 366.667 391.906 366.147 392.534 365.61C397.604 361.297 402.76 357.105 408 353Z" fill="#33CBCA"/>
<path d="M355.999 456.001C358.077 459.162 359.574 462.646 361.187 466.063C361.65 466.993 362.114 467.923 362.591 468.882C365.824 475.657 367.203 480.466 365.23 487.899C364.886 488.716 364.541 489.534 364.187 490.376C363.85 491.208 363.514 492.041 363.167 492.899C361.999 495.001 361.999 495.001 358.999 497.001C358.255 495.421 358.255 495.421 357.495 493.809C357.17 493.119 356.844 492.428 356.509 491.717C355.789 490.187 355.071 488.656 354.355 487.125C352.565 483.3 350.756 479.489 348.874 475.708C348.548 475.04 348.221 474.372 347.884 473.685C346.982 471.843 346.067 470.008 345.152 468.173C343.916 464.772 343.635 463.329 344.999 460.001C346.742 458.384 346.742 458.384 348.874 457.126C349.573 456.695 350.272 456.265 350.992 455.821C352.999 455.001 352.999 455.001 355.999 456.001Z" fill="white"/>
<path d="M101 114.002C103.669 117.004 104 118.471 104 122.502C102.821 126.628 101.271 128.29 98.0003 131.002C95.1993 132.402 92.8114 132.209 89.6878 132.252C88.5573 132.277 87.4268 132.303 86.2621 132.33C82.6596 131.967 80.8661 131.173 78.0003 129.002C75.326 124.99 75.1813 121.717 76.0003 117.002C82.0833 108.891 92.7341 109.207 101 114.002Z" fill="#33CBCA"/>
<path d="M391 214C392.336 218.008 391.1 220.75 389.875 224.625C389.41 226.147 388.945 227.669 388.48 229.191C388.237 229.978 387.994 230.764 387.744 231.575C386.522 235.56 385.357 239.562 384.188 243.562C383.765 245.001 383.341 246.44 382.918 247.879C382.615 248.909 382.312 249.939 382 251C381.01 251 380.02 251 379 251C376.688 248.375 376.688 248.375 375 245C376.075 240.592 378.03 236.875 380.258 232.945C380.883 231.837 381.508 230.728 382.152 229.586C382.803 228.444 383.454 227.302 384.125 226.125C384.791 224.948 385.456 223.771 386.121 222.594C387.743 219.726 389.369 216.862 391 214Z" fill="#33CBCA"/>
<path d="M329.999 369C337.263 372.706 343.735 376.772 349.999 382C346.291 384.351 342.513 384.432 338.249 384.625C337.552 384.664 336.855 384.702 336.136 384.742C334.424 384.836 332.712 384.919 330.999 385C330.376 380.987 329.874 377.125 329.937 373.062C329.946 372.29 329.955 371.518 329.964 370.723C329.976 370.154 329.987 369.586 329.999 369Z" fill="#33CBCA"/>
<path d="M418 367C418.99 367.33 419.98 367.66 421 368C419.883 371.35 419.253 371.793 416.438 373.688C415.797 374.124 415.156 374.561 414.496 375.012C414.002 375.338 413.509 375.664 413 376C412 375 412 375 411.938 372.438C411.958 371.633 411.979 370.829 412 370C414.475 370.495 414.475 370.495 417 371C417.33 369.68 417.66 368.36 418 367Z" fill="#33CBCA"/>
<path d="M103 119C103.688 120.625 103.688 120.625 104 123C102.562 126.25 102.562 126.25 101 129C100.34 128.67 99.68 128.34 99 128C99.3125 124.625 99.3125 124.625 100 121C100.99 120.34 101.98 119.68 103 119Z" fill="#33CBCA"/>
</g>
<defs>
<clipPath id="clip0_150_1511">
<rect width="640" height="640" fill="white"/>
</clipPath>
</defs>
</svg>
