<svg width="640" height="640" viewBox="0 0 640 640" fill="none" xmlns="http://www.w3.org/2000/svg">
<g clip-path="url(#clip0_150_1530)">
<path d="M422.879 96.5697C432.015 102.727 439.458 111.467 442.567 122.242C445.165 138.769 442.784 156.923 432.813 170.624C427.816 176.758 421.438 182.126 414 184.999C412.334 185.041 410.666 185.047 409 184.999C409.434 186.094 409.434 186.094 409.875 187.21C415.882 204.105 412.853 219.12 407.5 235.749C406.708 238.275 405.923 240.802 405.147 243.333C404.667 244.888 404.178 246.44 403.678 247.988C402.39 252.094 401.549 255.643 402 259.999C403.539 262.237 404.98 264.039 406.813 265.999C407.824 267.135 408.833 268.273 409.84 269.413C410.362 269.999 410.884 270.585 411.422 271.188C414.016 274.164 416.447 277.263 418.875 280.374C419.534 281.212 419.534 281.212 420.207 282.066C429.079 293.413 431.324 301.563 430 315.999C429.032 319.523 427.898 321.856 426 324.999C426.668 325.215 427.336 325.43 428.024 325.652C431.987 327.446 435.186 329.921 438.625 332.562C439.692 333.374 439.692 333.374 440.779 334.203C442.859 335.794 444.93 337.396 447 338.999C447.99 339.759 448.98 340.518 450 341.3C463.469 351.942 478.028 364.605 482 381.999C483.437 396.442 478.223 407.055 472.313 419.874C471.656 421.308 471 422.741 470.344 424.175C468.959 427.2 467.571 430.225 466.182 433.248C463.932 438.145 461.692 443.046 459.454 447.949C455.639 456.301 451.821 464.651 448 472.999C448.39 473.489 448.78 473.979 449.181 474.484C452.669 478.98 455.439 483.37 457.75 488.562C458.04 489.183 458.33 489.803 458.629 490.443C463.096 500.223 464.94 510.436 461.813 520.937C459.062 527.923 454.655 531.733 448 534.999C444.723 536.044 441.619 536.197 438.188 536.249C437.191 536.275 436.195 536.301 435.168 536.328C427.843 535.569 421.722 531.196 415.563 527.437C414.692 526.909 413.821 526.381 412.924 525.837C410.279 524.23 407.639 522.616 405 520.999C404.212 520.519 403.423 520.038 402.61 519.543C400.445 518.222 398.284 516.894 396.125 515.562C395.491 515.174 394.856 514.786 394.202 514.386C387.057 509.937 381.246 505.528 378.407 497.273C377.807 493.919 377.816 490.582 377.813 487.187C377.801 486.5 377.788 485.814 377.776 485.107C377.747 475.02 381.981 468.504 387.569 460.466C391.736 454.192 393.516 448.341 395 440.999C395.523 438.661 396.046 436.322 396.571 433.984C397.091 431.573 397.609 429.161 398.125 426.749C398.522 424.928 398.522 424.928 398.926 423.07C400.217 417.054 401.376 411.121 402 404.999C401.455 404.827 400.909 404.654 400.347 404.477C394.765 402.669 389.399 400.561 384.028 398.206C383.219 397.856 382.411 397.505 381.578 397.143C379.03 396.036 376.484 394.924 373.938 393.812C372.197 393.054 370.455 392.297 368.713 391.54C364.474 389.697 360.237 387.85 356 385.999C355.881 386.573 355.761 387.146 355.638 387.737C354.084 394.984 351.795 401.83 349.313 408.812C348.904 410.006 348.494 411.201 348.073 412.431C343.939 424.095 337.793 434.063 330.875 444.249C324.387 453.89 317.995 463.592 311.625 473.312C310.67 474.77 309.714 476.228 308.758 477.686C306.505 481.123 304.252 484.561 302 487.999C302.397 488.455 302.794 488.91 303.203 489.379C311.215 498.635 318.085 508.41 319 520.999C319.052 521.697 319.104 522.394 319.157 523.113C319.458 530.394 317.83 536.229 313.813 542.312C307.914 547.949 303.001 549.345 294.926 549.213C290.362 548.88 286.182 547.749 281.813 546.437C280.884 546.167 279.955 545.896 278.997 545.618C277.022 545.043 275.048 544.464 273.075 543.88C269.927 542.978 266.765 542.161 263.59 541.359C241.189 535.555 241.189 535.555 234.61 524.706C233.529 522.495 232.725 520.35 232 517.999C231.668 517.013 231.668 517.013 231.329 516.007C226.247 498.907 233.913 480.664 241.438 465.499C242.155 464.02 242.87 462.54 243.583 461.059C245.695 456.692 247.843 452.344 250 447.999C250.467 447.058 250.467 447.058 250.942 446.098C252.89 442.165 254.849 438.237 256.813 434.312C257.337 433.261 257.861 432.21 258.401 431.128C260.889 426.153 263.415 421.208 266.039 416.304C273.241 402.547 276.519 389.253 279.245 374.026C280.577 366.766 282.253 359.575 283.875 352.374C284.213 350.866 284.55 349.358 284.886 347.849C287.354 336.809 289.858 325.778 292.375 314.749C292.545 314.008 292.714 313.266 292.888 312.502C293.916 307.999 294.954 303.498 296 298.999C296.198 298.138 296.396 297.276 296.599 296.388C297.402 293 298.392 290.078 300 286.999C300.927 280.619 299.63 276.73 296.625 271.124C289.891 258.427 288.983 242.813 291.618 228.691C292.536 225.956 293.639 223.543 295 220.999C295.525 219.989 296.05 218.978 296.59 217.937C301.552 208.874 307.276 200.278 312.957 191.656C315.305 188.088 317.546 184.47 319.75 180.812C323.141 175.463 327.337 171.251 332 166.999C332.684 166.372 333.367 165.744 334.071 165.097C345.991 154.416 345.991 154.416 354 151.999C354.045 151.294 354.09 150.589 354.136 149.863C354.35 146.616 354.581 143.37 354.813 140.124C354.918 138.462 354.918 138.462 355.026 136.765C355.975 123.862 359.203 111.797 368.621 102.378C373.676 98.109 378.82 94.4155 385 91.9994C386.052 91.5869 387.104 91.1744 388.188 90.7494C400.383 88.3503 412.22 90.1474 422.879 96.5697Z" fill="black"/>
<path d="M316 308C316.66 308 317.32 308 318 308C319.226 309.758 319.226 309.758 320.625 312.125C325.244 319.256 331.648 324.079 340 326C347.966 327.191 355.83 324.961 362.371 320.316C365.704 317.473 368.439 314.559 371 311C375.784 312.555 379.215 315.263 383.125 318.312C389.124 322.909 395.234 327.275 401.5 331.5C408.337 336.12 415.003 340.906 421.569 345.902C425.03 348.534 428.517 351.071 432.125 353.5C441.87 360.261 451.467 368 458 378C458.639 378.949 459.278 379.897 459.937 380.875C463.609 391.674 459.102 400.529 454.437 410.125C453.76 411.554 453.086 412.985 452.413 414.416C451.363 416.647 450.311 418.878 449.252 421.104C446.675 426.521 444.199 431.977 441.769 437.461C441.088 438.991 440.407 440.521 439.726 442.05C438.74 444.266 437.757 446.484 436.782 448.705C435.88 450.755 434.965 452.8 434.047 454.844C433.529 456.011 433.012 457.178 432.479 458.381C431 461 431 461 428 462C425.653 460.883 423.568 459.74 421.375 458.375C420.777 458.031 420.178 457.687 419.562 457.332C415.204 454.66 415.204 454.66 414.271 451.65C413.991 448.92 414.199 446.987 414.82 444.324C415.023 443.425 415.227 442.526 415.436 441.599C415.664 440.638 415.891 439.678 416.125 438.688C416.59 436.63 417.055 434.573 417.519 432.516C417.762 431.45 418.005 430.385 418.256 429.287C419.487 423.847 420.656 418.394 421.812 412.938C422.031 411.934 422.249 410.93 422.475 409.895C424.118 402.987 424.118 402.987 424 396C420.271 390.937 415.168 388.92 409.562 386.5C408.135 385.868 408.135 385.868 406.679 385.222C403.458 383.801 400.23 382.399 397 381C395.203 380.218 393.407 379.436 391.61 378.654C385.92 376.178 380.227 373.712 374.531 371.25C373.903 370.978 373.274 370.707 372.627 370.427C368.369 368.588 364.107 366.762 359.843 364.938C357.625 363.98 355.406 363.021 353.187 362.062C352.186 361.638 351.186 361.214 350.155 360.778C334.169 353.838 323.575 344.203 317 328C315.809 323.761 315.883 319.559 315.937 315.188C315.942 314.495 315.946 313.802 315.951 313.088C315.963 311.392 315.98 309.696 316 308Z" fill="#33CBCA"/>
<path d="M306 352C306.639 352.639 307.279 353.279 307.938 353.938C308.626 354.62 308.626 354.62 309.328 355.316C310.562 356.559 311.778 357.82 312.984 359.09C320.401 366.783 328.307 372.512 338 377C336.76 381.363 335.399 385.685 334 390C333.699 390.928 333.398 391.856 333.088 392.812C332.042 395.988 330.962 399.15 329.875 402.312C329.546 403.319 329.216 404.325 328.877 405.361C325.577 414.791 320.481 422.725 315 431C314.555 431.676 314.111 432.352 313.653 433.048C310.946 437.161 308.214 441.257 305.469 445.344C303.066 448.921 300.672 452.503 298.277 456.086C297.815 456.778 297.352 457.469 296.876 458.182C291.833 465.734 286.885 473.345 282 481C276.75 480.402 271.666 479.58 266.5 478.438C265.273 478.168 264.046 477.899 262.781 477.621C261.863 477.416 260.946 477.211 260 477C260.628 472.633 262.215 469.239 264.211 465.32C264.697 464.358 264.697 464.358 265.193 463.377C265.888 462.003 266.586 460.631 267.286 459.259C269.124 455.657 270.942 452.045 272.762 448.434C273.125 447.713 273.489 446.993 273.863 446.251C277.047 439.933 280.144 433.575 283.188 427.188C283.608 426.308 284.028 425.428 284.46 424.522C285.256 422.848 286.045 421.171 286.828 419.49C287.624 417.798 288.443 416.117 289.281 414.445C292.941 406.927 294.847 399.334 296.625 391.188C296.911 389.924 297.197 388.66 297.492 387.357C299.16 379.953 300.747 372.532 302.298 365.102C303.303 360.662 304.594 356.328 306 352Z" fill="white"/>
<path d="M433 355C442.837 359.076 452.311 369.292 458 378C458.639 378.949 459.279 379.897 459.938 380.875C463.609 391.674 459.102 400.529 454.438 410.125C453.761 411.554 453.086 412.985 452.413 414.416C451.363 416.647 450.312 418.878 449.252 421.104C446.675 426.521 444.199 431.977 441.77 437.461C441.089 438.991 440.408 440.521 439.727 442.05C438.741 444.266 437.757 446.484 436.782 448.705C435.88 450.755 434.965 452.8 434.047 454.844C433.53 456.011 433.012 457.178 432.479 458.381C431 461 431 461 428 462C425.653 460.883 423.568 459.74 421.375 458.375C420.478 457.859 420.478 457.859 419.562 457.332C415.205 454.66 415.205 454.66 414.271 451.65C413.992 448.92 414.2 446.987 414.82 444.324C415.024 443.425 415.227 442.526 415.437 441.599C415.664 440.638 415.891 439.678 416.125 438.688C416.591 436.63 417.056 434.573 417.52 432.516C417.763 431.45 418.006 430.385 418.256 429.287C419.487 423.847 420.657 418.394 421.812 412.938C422.031 411.934 422.25 410.93 422.475 409.895C423.975 403.011 423.975 403.011 424 396C420.226 390.843 414.669 388.587 409 386C410.314 383.177 411.778 380.861 413.758 378.461C414.298 377.802 414.837 377.144 415.394 376.465C415.965 375.775 416.536 375.086 417.125 374.375C418.3 372.944 419.474 371.513 420.648 370.082C421.22 369.387 421.792 368.691 422.382 367.975C425.159 364.585 427.883 361.154 430.609 357.723C432 356 432 356 433 355Z" fill="white"/>
<path d="M355 182.998C359.916 185.62 362.169 189.892 364 194.998C364.717 198.583 364.753 200.711 362.883 203.908C361.027 206.378 359.041 208.679 357 210.998C355.996 212.16 354.994 213.323 353.992 214.486C352.891 215.761 351.789 217.036 350.687 218.311C350.131 218.955 349.574 219.599 349 220.262C346.346 223.324 343.676 226.363 340.937 229.35C340.02 230.378 339.104 231.407 338.187 232.436C337.376 233.321 336.566 234.207 335.73 235.119C333.496 238.837 333.435 241.807 334 245.998C335.117 249.71 336.619 253.224 338.156 256.779C338.789 258.299 338.789 258.299 339.434 259.849C340.776 263.071 342.136 266.285 343.5 269.498C345.297 273.731 347.076 277.971 348.844 282.217C349.259 283.179 349.675 284.14 350.103 285.131C352.419 290.7 353.675 294.956 353 300.998C350.558 304.445 349.17 305.779 345 306.561C341.254 305.858 339.793 304.573 337 301.998C335.15 299.224 335.15 299.224 333.441 296.053C333.13 295.483 332.818 294.913 332.497 294.326C331.508 292.514 330.535 290.694 329.562 288.873C328.594 287.082 327.622 285.292 326.649 283.502C325.701 281.759 324.756 280.013 323.812 278.268C322.164 275.295 320.446 272.388 318.672 269.49C312.08 258.652 308.923 245.997 311.812 233.436C313.981 226.959 317.966 221.489 321.754 215.869C324.114 212.367 326.373 208.816 328.59 205.221C329.198 204.24 329.806 203.26 330.432 202.249C331.617 200.333 332.795 198.412 333.964 196.486C339.176 188.133 344.277 180.696 355 182.998Z" fill="white"/>
<path d="M408.426 111.648C414.719 114.508 419.251 119.71 422 126C423.909 135.705 423.34 147.639 418.27 156.355C415.07 160.5 410.917 164.115 406 166C402.539 166.336 402.539 166.336 398.625 166.375C397.339 166.403 396.052 166.431 394.727 166.461C388.946 165.746 385.286 162.571 381.25 158.562C380.678 158.007 380.105 157.451 379.516 156.879C375.758 152.221 375.689 147.467 375.75 141.687C375.742 140.966 375.735 140.245 375.727 139.502C375.754 131.954 376.984 123.947 382 118C390.193 111.515 397.915 108.839 408.426 111.648Z" fill="white"/>
<path d="M83.1428 206.693C84.3844 206.677 85.626 206.661 86.9053 206.644C88.2574 206.638 89.6095 206.632 90.9616 206.628C92.354 206.619 93.7464 206.61 95.1388 206.601C98.0556 206.584 100.972 206.576 103.889 206.573C107.618 206.568 111.345 206.53 115.073 206.485C117.948 206.455 120.824 206.448 123.7 206.447C125.074 206.442 126.447 206.43 127.821 206.409C139.896 206.24 139.896 206.24 143.827 209.409C146.354 212.421 146.925 213.347 147.376 217.249C146.879 222.213 145.526 223.556 142.001 226.999C138.812 228.062 136.507 228.138 133.156 228.16C131.954 228.17 130.752 228.179 129.514 228.189C127.564 228.196 127.564 228.196 125.575 228.202C124.226 228.208 122.877 228.214 121.528 228.219C118.699 228.23 115.871 228.236 113.042 228.239C109.427 228.245 105.813 228.269 102.198 228.297C99.4109 228.316 96.6236 228.321 93.8362 228.323C91.8587 228.327 89.8813 228.346 87.9039 228.364C86.6928 228.361 85.4816 228.358 84.2338 228.355C82.6419 228.361 82.6419 228.361 81.0178 228.366C76.6688 227.837 73.3261 226.236 70.1257 223.249C68.4805 219.959 68.555 217.628 69.0007 213.999C72.7098 208.038 76.3272 206.759 83.1428 206.693Z" fill="#33CBCA"/>
<path d="M382.001 186C387.547 189.869 391.12 194.425 393.001 201C394.449 211.088 390.863 220.4 387.876 229.875C387.365 231.535 386.856 233.195 386.348 234.855C385.353 238.108 384.352 241.359 383.347 244.608C381.671 250.049 380.1 255.518 378.563 261C376.482 268.368 374.304 275.697 372.001 283C371.341 283 370.681 283 370.001 283C367.806 277.831 365.634 272.654 363.482 267.467C362.747 265.704 362.006 263.943 361.259 262.185C360.185 259.657 359.134 257.121 358.087 254.582C357.579 253.407 357.579 253.407 357.061 252.208C354.834 246.72 354.834 246.72 355.665 243.134C357.481 240.233 359.693 237.821 362.063 235.375C363.059 234.317 364.052 233.257 365.044 232.195C365.541 231.663 366.037 231.131 366.549 230.583C375.655 220.653 383.153 212.35 383.126 198.562C383.128 197.264 383.131 195.966 383.134 194.629C383.023 191.599 382.713 188.935 382.001 186Z" fill="#33CBCA"/>
<path d="M306 352C306.639 352.639 307.279 353.279 307.938 353.938C308.396 354.393 308.855 354.848 309.328 355.316C310.562 356.559 311.778 357.82 312.984 359.09C320.401 366.783 328.307 372.512 338 377C335.757 384.366 333.472 391.708 331 399C330.67 398.34 330.34 397.68 330 397C328.053 396.624 328.053 396.624 325.695 396.535C319.618 396.043 313.813 394.786 307.875 393.438C306.297 393.087 306.297 393.087 304.688 392.729C302.124 392.158 299.561 391.581 297 391C298.293 382.515 300.023 374.21 302.062 365.875C302.331 364.754 302.6 363.632 302.877 362.477C304.863 354.273 304.863 354.273 306 352Z" fill="#33CBCA"/>
<path d="M405.001 472C408.377 473.267 411.357 474.713 414.399 476.645C415.614 477.413 415.614 477.413 416.852 478.197C417.685 478.73 418.518 479.263 419.376 479.812C420.613 480.595 420.613 480.595 421.876 481.393C424.263 482.91 426.635 484.45 429.001 486C430.021 486.655 430.021 486.655 431.061 487.323C434.798 489.826 437.034 491.953 438.876 496.062C439.46 497.317 439.46 497.317 440.055 498.598C441.642 502.628 442.12 505.912 442.063 510.25C442.054 511.142 442.045 512.034 442.036 512.953C442.024 513.629 442.013 514.304 442.001 515C438.614 515.874 436.673 516.292 433.415 514.875C432.494 514.256 431.574 513.637 430.626 513C429.509 512.267 428.392 511.535 427.274 510.805C426.627 510.375 425.979 509.946 425.312 509.503C422.52 507.687 419.689 505.941 416.852 504.195C415.767 503.526 414.683 502.857 413.565 502.168C411.366 500.812 409.165 499.458 406.964 498.105C405.95 497.475 404.936 496.845 403.891 496.195C402.974 495.628 402.056 495.061 401.111 494.477C398.767 492.836 398.183 491.963 397.657 489.188C397.128 481.785 400.439 477.575 405.001 472Z" fill="white"/>
<path d="M251.999 496C254.66 496.419 257.314 496.859 259.968 497.32C263.024 497.85 266.086 498.301 269.155 498.742C286.684 501.436 286.684 501.436 292.468 507.871C292.973 508.574 293.479 509.276 293.999 510C294.463 510.63 294.927 511.261 295.405 511.91C298.69 517.314 298.406 522.849 297.999 529C289.765 527.211 281.645 525.147 273.544 522.835C270.231 521.89 266.942 520.987 263.581 520.223C255.863 518.462 255.863 518.462 252.812 515.562C249.719 509.485 250.103 502.497 251.999 496Z" fill="white"/>
<path d="M416 343C419.886 344.751 423.278 347.183 426.75 349.625C427.352 350.045 427.954 350.465 428.574 350.898C430.051 351.93 431.526 352.965 433 354C431.696 356.803 430.253 359.095 428.277 361.469C427.743 362.117 427.208 362.766 426.657 363.434C426.09 364.116 425.522 364.797 424.938 365.5C419.422 372.2 414.151 379.016 409 386C402.73 383.36 396.46 380.72 390 378C390.921 374.317 391.349 373.231 393.625 370.496C394.163 369.843 394.7 369.19 395.254 368.517C396.118 367.487 396.118 367.487 397 366.438C397.585 365.729 398.17 365.021 398.773 364.292C399.955 362.862 401.14 361.435 402.327 360.009C404.609 357.269 406.868 354.51 409.125 351.75C409.808 350.92 410.491 350.09 411.195 349.234C412.847 347.19 414.439 345.114 416 343Z" fill="#33CBCA"/>
<path d="M133.812 309.752C135.453 309.721 135.453 309.721 137.127 309.689C138.185 309.684 139.242 309.679 140.332 309.674C141.299 309.664 142.265 309.655 143.261 309.645C146.526 310.07 148.358 311.062 151 313.002C153.484 316.727 153.38 318.589 153 323.002C151.298 326.83 149.855 328.471 146 330.002C141.888 330.526 137.766 330.51 133.625 330.564C132.501 330.614 131.377 330.663 130.219 330.715C122.147 330.815 122.147 330.815 118.898 328.511C116.392 325.686 115.145 323.65 114.312 319.939C115.276 315.823 117.05 314.022 120 311.002C124.083 308.96 129.325 309.773 133.812 309.752Z" fill="#33CBCA"/>
<path d="M306 352C306.64 352.639 307.279 353.279 307.938 353.938C308.397 354.393 308.855 354.848 309.328 355.316C310.562 356.559 311.779 357.82 312.985 359.09C320.401 366.783 328.307 372.512 338 377C338 377.33 338 377.66 338 378C330.437 377.169 322.984 375.795 315.5 374.438C314.188 374.201 312.875 373.965 311.563 373.729C308.375 373.154 305.187 372.578 302 372C301.792 366.901 302.404 362.901 304 358.062C304.371 356.919 304.743 355.776 305.125 354.598C305.414 353.74 305.703 352.883 306 352Z" fill="#33CBCA"/>
<path d="M393 282C396.949 285.783 400.344 289.803 403.688 294.125C404.415 295.055 404.415 295.055 405.158 296.004C411.045 303.556 411.045 303.556 410.625 307.688C410.316 309.327 410.316 309.327 410 311C405.218 311 402.182 307.951 398.375 305.25C397.586 304.711 396.797 304.172 395.984 303.617C394.859 302.824 394.859 302.824 393.711 302.016C393.023 301.534 392.335 301.052 391.626 300.556C389.694 298.707 389.287 297.637 389 295C389.777 291.766 389.777 291.766 390.938 288.25C391.508 286.494 391.508 286.494 392.09 284.703C392.39 283.811 392.691 282.919 393 282Z" fill="white"/>
<path d="M147 316C149 316 151 316 153 316C153 318.31 153 320.62 153 323C152.381 322.526 151.762 322.051 151.125 321.562C149.093 319.976 149.093 319.976 147 319C147 318.01 147 317.02 147 316Z" fill="#33CBCA"/>
<path d="M395 375C395.33 376.65 395.66 378.3 396 380C394.02 379.34 392.04 378.68 390 378C390 377.34 390 376.68 390 376C393 375 393 375 395 375Z" fill="#33CBCA"/>
</g>
<defs>
<clipPath id="clip0_150_1530">
<rect width="640" height="640" fill="white"/>
</clipPath>
</defs>
</svg>
