<svg width="640" height="640" viewBox="0 0 640 640" fill="none" xmlns="http://www.w3.org/2000/svg">
<g clip-path="url(#clip0_150_1549)">
<path d="M426.001 92.0014C434.639 98.7002 439.577 107.73 443.001 118.001C444.045 134.42 442.742 152.399 431.891 165.56C427.44 170.234 422.694 173.966 417.001 177.001C416.347 177.374 415.694 177.746 415.02 178.13C413.001 179.001 413.001 179.001 409.001 179.001C409.434 179.879 409.434 179.879 409.876 180.775C415.318 193.359 414.087 207.189 410.001 220.001C409.209 222.554 408.423 225.109 407.644 227.666C407.101 229.438 406.547 231.208 405.983 232.974C403.936 239.367 403.936 239.367 404.001 246.001C405.605 248.008 405.605 248.008 408.001 249.564C409.362 250.571 409.362 250.571 410.751 251.599C411.264 251.973 411.777 252.347 412.305 252.732C415.622 255.215 418.799 257.874 422.001 260.501C426.494 264.175 431.018 267.785 435.626 271.314C443.269 277.454 447.92 284.423 449.317 294.22C449.819 303.413 445.506 310.967 440.001 318.001C440.716 318.272 441.432 318.543 442.169 318.822C459.789 326.161 478.144 339.977 487.001 357.001C487.513 357.901 487.513 357.901 488.036 358.818C494.856 372.997 488.109 391.089 484.001 405.001C483.418 407.023 482.836 409.045 482.255 411.068C479.946 419.061 477.594 427.041 475.188 435.005C474.626 436.9 474.063 438.794 473.501 440.689C473.233 441.556 472.966 442.423 472.69 443.316C470.868 449.151 470.868 449.151 472.001 455.001C473.82 457.117 473.82 457.117 476.126 459.064C484.644 467.188 490.081 477.568 491.02 489.349C490.973 495.783 489.223 501.143 484.813 505.876C477.861 511.978 472.134 513.748 462.798 513.443C456.758 512.741 451.246 510.839 445.542 508.845C442.544 507.85 439.521 506.972 436.485 506.099C435.334 505.763 434.184 505.427 432.998 505.081C430.714 504.417 428.427 503.763 426.137 503.121C418.093 500.732 412.067 497.731 406.688 491.189C402.159 482.633 399.765 473.473 402.637 463.877C403.191 462.287 403.749 460.699 404.309 459.111C410.393 441.842 411.186 423.947 412.456 405.802C412.765 401.48 413.197 397.267 414.001 393.001C413.01 392.884 412.019 392.767 410.998 392.647C406.89 392.057 402.992 390.918 399.04 389.673C398.291 389.442 397.542 389.212 396.771 388.974C394.387 388.238 392.007 387.495 389.626 386.751C386.514 385.786 383.402 384.823 380.29 383.861C379.527 383.624 378.764 383.388 377.978 383.144C370.01 380.68 362.009 378.332 354.001 376.001C353.91 376.648 353.82 377.295 353.726 377.962C352.745 382.073 351.091 385.771 349.395 389.634C349.034 390.467 348.672 391.299 348.299 392.157C347.533 393.918 346.763 395.678 345.992 397.437C344.828 400.093 343.675 402.754 342.522 405.415C337.53 416.885 332.384 428.01 325.126 438.251C324.667 438.91 324.207 439.569 323.734 440.247C322.717 441.705 321.697 443.161 320.676 444.616C317.521 449.11 314.388 453.619 311.251 458.126C310.581 459.087 309.912 460.048 309.222 461.038C302.073 471.308 295.028 481.648 288.001 492.001C288.403 492.535 288.805 493.069 289.219 493.62C289.751 494.328 290.284 495.037 290.833 495.767C291.359 496.466 291.884 497.165 292.426 497.885C299.681 507.633 303.811 518.638 302.001 531.001C299.883 538.58 296.954 544.906 290.001 549.001C283.721 551.891 277.553 552.546 270.894 550.287C265.791 548.218 260.868 545.775 255.919 543.366C252.792 541.904 249.629 540.578 246.434 539.271C245.324 538.81 244.214 538.349 243.07 537.874C240.913 536.982 238.749 536.106 236.578 535.248C228.286 531.751 221.968 526.672 218.063 518.376C216.948 514.834 216.315 511.705 216.001 508.001C215.936 507.273 215.872 506.545 215.805 505.794C215.443 498.316 217.487 491.982 220.001 485.001C220.585 483.34 220.585 483.34 221.18 481.646C226.741 466.824 234.675 453.023 242.279 439.176C243.74 436.51 245.191 433.838 246.64 431.166C248.312 428.083 249.995 425.011 251.721 421.959C262.73 402.481 269.737 382.978 275.821 361.511C276.959 357.52 278.129 353.538 279.298 349.556C280.654 344.926 282.007 340.296 283.334 335.657C285.237 329.011 287.169 322.385 289.282 315.801C289.623 314.732 289.964 313.662 290.315 312.56C290.937 310.628 291.572 308.701 292.223 306.779C293.786 302.062 293.786 302.062 293.358 297.217C292.412 295.672 291.452 294.136 290.481 292.606C288.736 289.536 288.064 286.779 287.317 283.33C287.177 282.694 287.036 282.059 286.891 281.405C286.44 279.355 286.001 277.304 285.563 275.251C285.103 273.13 284.64 271.008 284.177 268.887C283.873 267.495 283.57 266.102 283.269 264.71C282.31 260.313 281.239 255.962 280.083 251.615C275.674 234.742 276.969 217.567 285.727 202.267C292.034 193.208 300.642 186.063 309.243 179.255C312.342 176.722 315.263 174.043 318.188 171.314C328.601 161.7 342.099 152.001 357.001 152.001C356.676 151.157 356.351 150.313 356.016 149.443C352.366 137.074 354.935 119.823 360.001 108.001C366.625 96.3027 376.168 88.7009 388.911 84.3491C402.356 82.1123 414.728 84.4588 426.001 92.0014Z" fill="black"/>
<path d="M340 295C343.628 295.564 347.252 296.155 350.875 296.75C352.395 296.986 352.395 296.986 353.945 297.227C365.832 299.208 375.266 304.034 385.688 309.938C386.88 310.607 388.072 311.276 389.265 311.945C392.847 313.956 396.424 315.978 400 318C402.022 319.14 404.044 320.279 406.067 321.418C409.833 323.541 413.593 325.672 417.352 327.809C421.247 330.019 425.16 332.193 429.086 334.348C439.71 340.204 449.817 346.019 459 354C459.723 354.624 460.446 355.248 461.192 355.891C466.322 360.646 469.519 365.57 470.5 372.562C470.286 376.189 469.403 379.532 468.453 383.031C468.282 383.663 468.111 384.294 467.935 384.945C464.76 396.623 461.496 408.278 458.25 419.938C457.546 422.471 456.841 425.004 456.137 427.537C454.425 433.692 452.713 439.846 451 446C449.75 445.855 448.501 445.71 447.213 445.561C446.51 445.479 445.807 445.398 445.083 445.314C440.213 444.58 435.626 442.63 431 441C430.748 430.492 431.543 420.203 432.5 409.75C433.037 403.836 433.548 397.921 434 392C434.116 390.547 434.116 390.547 434.234 389.064C434.392 385.668 434.13 383.278 432.684 380.184C428.587 376.85 424.067 375.6 419.063 374.062C417.996 373.721 416.929 373.38 415.83 373.028C407.204 370.296 398.514 367.793 389.801 365.355C383.598 363.616 377.45 361.723 371.32 359.742C369.602 359.192 367.88 358.652 366.156 358.117C348.467 352.623 331.992 347.496 322.625 330C319.425 322.718 317.557 315.972 318 308C318.857 307.781 319.715 307.562 320.598 307.336C329.196 304.951 334.993 302.51 340 295Z" fill="#33CBCA"/>
<path d="M304 339C306.664 341.46 308.579 344.202 310.625 347.188C317.265 356.367 325.345 362.225 335 368C334.351 372.004 333.102 375.405 331.488 379.121C330.977 380.305 330.466 381.489 329.939 382.709C329.397 383.952 328.855 385.195 328.312 386.438C327.795 387.633 327.277 388.829 326.744 390.061C325.697 392.481 324.646 394.9 323.594 397.317C322.501 399.831 321.426 402.352 320.362 404.878C320.095 405.508 319.828 406.139 319.554 406.788C318.818 408.532 318.085 410.277 317.353 412.022C315.365 416.397 312.803 420.117 310 424C308.822 425.718 307.644 427.435 306.47 429.156C300.73 437.559 294.898 445.898 289.081 454.247C282.667 463.461 276.32 472.721 270 482C264.7 481.406 260.419 479.626 255.625 477.438C254.889 477.108 254.153 476.779 253.395 476.439C251.594 475.633 249.796 474.817 248 474C249.306 469.754 250.933 465.997 253.055 462.098C253.664 460.971 254.273 459.845 254.9 458.684C255.222 458.094 255.544 457.503 255.876 456.895C257.581 453.767 259.27 450.631 260.961 447.496C261.303 446.864 261.645 446.231 261.997 445.579C266.688 436.89 271.242 428.131 275.768 419.355C276.82 417.344 277.904 415.358 279.016 413.379C284.669 402.977 287.635 391.762 290.966 380.453C292.647 374.839 294.448 369.264 296.25 363.688C298.892 355.476 301.505 347.258 304 339Z" fill="white"/>
<path d="M419 329C464.627 352.752 464.627 352.752 470 369C470.565 374.083 469.805 378.124 468.461 383.043C468.204 383.989 468.204 383.989 467.941 384.954C467.3 387.304 466.65 389.652 466 392C465.726 392.994 465.451 393.988 465.168 395.012C462.873 403.323 460.562 411.631 458.25 419.938C457.546 422.471 456.841 425.004 456.137 427.537C454.425 433.692 452.713 439.846 451 446C449.75 445.855 448.501 445.71 447.213 445.561C446.51 445.479 445.807 445.398 445.083 445.314C440.213 444.58 435.626 442.63 431 441C430.748 430.492 431.543 420.203 432.5 409.75C433.037 403.836 433.548 397.921 434 392C434.077 391.031 434.155 390.063 434.234 389.064C434.39 385.694 434.127 383.279 432.723 380.195C428.454 376.754 423.631 375.471 418.438 373.875C417.403 373.541 416.369 373.207 415.303 372.863C408.586 370.718 401.817 368.8 395 367C396.485 366.505 396.485 366.505 398 366C398.695 364.345 399.354 362.675 400 361C401.629 358.226 403.413 355.557 405.188 352.875C406.179 351.358 407.169 349.841 408.16 348.324C409.5 346.283 410.841 344.242 412.183 342.202C413.169 340.7 414.147 339.194 415.125 337.688C415.664 336.866 416.203 336.045 416.758 335.199C417.942 333.102 418.558 331.355 419 329Z" fill="white"/>
<path d="M353.999 175.999C357.37 178.817 359.818 182.244 360.273 186.644C360.323 188.212 360.323 188.212 360.374 189.812C360.423 190.85 360.472 191.887 360.523 192.956C359.808 197.112 358.235 198.346 354.999 200.999C352.645 202.651 350.216 204.146 347.749 205.624C346.335 206.493 344.921 207.363 343.507 208.234C342.774 208.683 342.041 209.132 341.285 209.595C337.381 211.994 333.495 214.421 329.624 216.874C328.893 217.326 328.162 217.778 327.409 218.244C326.729 218.676 326.05 219.109 325.351 219.554C324.751 219.93 324.151 220.306 323.533 220.694C321.569 222.366 320.837 223.547 319.999 225.999C319.918 229.153 319.918 229.153 320.277 232.659C320.33 233.313 320.383 233.967 320.437 234.64C320.613 236.761 320.805 238.88 320.999 240.999C321.124 242.426 321.248 243.853 321.371 245.28C321.821 250.419 322.293 255.557 322.773 260.693C322.978 262.898 323.178 265.103 323.378 267.308C323.498 268.595 323.617 269.882 323.74 271.208C324.499 282.294 324.499 282.294 321.874 285.999C318.999 287.999 318.999 287.999 315.999 288.687C311.928 287.754 310.17 285.39 307.999 281.999C306.821 278.492 306.821 278.492 306.05 274.659C305.835 273.632 305.835 273.632 305.615 272.583C305.164 270.412 304.737 268.238 304.312 266.062C303.871 263.891 303.424 261.721 302.976 259.551C302.573 257.581 302.181 255.609 301.79 253.636C301.007 250.036 300.035 246.534 298.999 242.999C297.032 233.197 298.013 222.637 302.804 213.781C305.723 209.431 308.878 206.1 312.999 202.874C317.149 199.552 321.115 196.121 324.999 192.499C344.291 174.612 344.291 174.612 353.999 175.999Z" fill="white"/>
<path d="M379 177C385.844 180.748 389.91 186.913 393 194C394.341 203.013 391.539 211.46 388.949 219.977C388.529 221.396 388.11 222.816 387.693 224.237C386.597 227.949 385.484 231.656 384.367 235.362C383.239 239.118 382.129 242.88 381.017 246.641C374.245 269.49 374.245 269.49 371 279C362.173 278.547 353.662 277.855 345 276C343.512 271.206 342.609 266.729 342.113 261.711C342.047 261.045 341.981 260.378 341.913 259.692C341.776 258.295 341.643 256.899 341.512 255.502C341.312 253.373 341.097 251.245 340.881 249.117C340.749 247.753 340.618 246.388 340.488 245.023C340.37 243.795 340.252 242.567 340.13 241.302C340.009 238.236 340.041 235.908 341 233C343.427 231.17 345.693 229.683 348.312 228.188C349.774 227.314 351.235 226.439 352.695 225.562C353.423 225.132 354.15 224.701 354.899 224.258C357.88 222.473 360.785 220.598 363.687 218.688C364.599 218.093 365.51 217.499 366.449 216.887C373.602 211.596 377.942 205.659 380 197C380.276 193.205 380.276 193.205 380.187 189.375C380.178 187.468 380.178 187.468 380.168 185.523C380.026 182.55 379.691 179.887 379 177Z" fill="#33CBCA"/>
<path d="M411.703 107.449C417.414 111.305 420.988 116.406 423 123C424.131 131.873 422.254 141.895 418.375 149.938C414.636 154.759 409.793 158.069 404 160C396.105 160.729 390.012 159.519 383.312 155.313C379.033 151.033 375.785 146.602 375.406 140.414C375.406 138.817 375.438 137.221 375.5 135.625C375.53 134.371 375.53 134.371 375.56 133.091C375.902 123.78 377.342 116.589 383.984 109.695C392.644 102.412 402.011 102.107 411.703 107.449Z" fill="white"/>
<path d="M304 339C306.664 341.46 308.579 344.202 310.625 347.188C317.265 356.367 325.345 362.225 335 368C334.36 371.84 333.228 375.156 331.715 378.738C331.267 379.805 330.819 380.872 330.357 381.971C329.889 383.073 329.42 384.176 328.938 385.312C328.229 386.996 328.229 386.996 327.506 388.713C326.341 391.477 325.173 394.239 324 397C319.497 396.31 314.995 395.616 310.493 394.919C308.961 394.682 307.43 394.446 305.898 394.212C303.696 393.874 301.494 393.533 299.293 393.191C298.266 393.035 298.266 393.035 297.219 392.876C294.366 392.43 291.746 391.915 289 391C289.588 386.259 290.509 381.852 291.891 377.281C292.268 376.025 292.646 374.769 293.035 373.475C293.44 372.15 293.845 370.825 294.25 369.5C294.66 368.148 295.069 366.795 295.478 365.443C298.17 356.578 300.946 347.747 304 339Z" fill="#33CBCA"/>
<path d="M81.1391 206.726C82.3457 206.712 82.3457 206.712 83.5767 206.697C84.8674 206.698 84.8674 206.698 86.1843 206.7C87.523 206.693 87.523 206.693 88.8889 206.687C90.7742 206.681 92.6595 206.681 94.5449 206.685C97.4244 206.688 100.303 206.665 103.182 206.639C105.016 206.637 106.85 206.636 108.684 206.637C109.543 206.628 110.401 206.619 111.286 206.609C116.005 206.646 119.194 206.898 123.001 210.001C125.483 213.724 125.411 216.692 125.001 221.001C124.153 223.852 123.323 224.748 120.983 226.581C116.91 228.52 113.429 228.432 108.973 228.399C107.674 228.403 107.674 228.403 106.347 228.408C104.519 228.41 102.691 228.404 100.863 228.392C98.0758 228.376 95.2899 228.392 92.5026 228.411C90.722 228.409 88.9414 228.405 87.1608 228.399C86.3325 228.405 85.5042 228.411 84.6508 228.417C78.8454 228.347 74.5203 227.352 70.1257 223.251C68.4805 219.96 68.555 217.629 69.0007 214.001C72.0615 209.081 75.3355 206.764 81.1391 206.726Z" fill="#33CBCA"/>
<path d="M239 493C245.799 493.93 251.643 496.491 257.938 499.125C259.092 499.586 260.246 500.048 261.436 500.523C269.57 503.921 276.153 507.55 279.938 515.812C281.439 520.473 281.268 525.157 281 530C276.111 529.467 272.167 528.442 267.691 526.418C266.532 525.898 265.372 525.378 264.178 524.842C262.985 524.296 261.792 523.75 260.562 523.188C259.373 522.653 258.184 522.119 256.959 521.568C253.63 520.065 250.314 518.536 247 517C246.156 516.624 245.311 516.249 244.441 515.862C240.569 514.075 238.577 512.978 237 509C236.734 506.379 236.734 506.379 236.75 503.562C236.745 502.636 236.74 501.709 236.734 500.754C237.015 497.839 237.788 495.651 239 493Z" fill="white"/>
<path d="M425.001 461C430.895 461.657 436.338 463.142 442.001 464.875C442.865 465.132 443.728 465.388 444.618 465.652C455.882 469.059 462.65 472.929 469.001 483.25C470.034 486.092 470.416 488.008 470.001 491C469.341 491.66 468.681 492.32 468.001 493C459.895 492.618 451.881 489.54 444.251 487C442.09 486.291 439.928 485.582 437.767 484.875C436.767 484.544 435.767 484.213 434.737 483.873C432.455 483.145 430.18 482.507 427.86 481.914C425.001 481 425.001 481 423.001 478.375C421.174 472.209 422.778 466.927 425.001 461Z" fill="white"/>
<path d="M419 329C421.422 330.241 423.837 331.492 426.25 332.75C427.273 333.272 427.273 333.272 428.316 333.805C428.98 334.153 429.644 334.501 430.328 334.859C430.936 335.174 431.543 335.488 432.169 335.812C434.426 337.276 436.153 339.054 438 341C435.961 344.314 433.918 347.626 431.875 350.938C431.305 351.864 430.735 352.79 430.148 353.744C426.92 358.973 423.616 364.107 420.071 369.127C418.752 371.075 418.752 371.075 419 374C410.935 371.867 402.961 369.493 395 367C396.485 366.505 396.485 366.505 398 366C398.695 364.345 399.354 362.675 400 361C401.629 358.226 403.413 355.557 405.188 352.875C406.179 351.358 407.169 349.841 408.16 348.324C409.5 346.283 410.841 344.242 412.183 342.202C413.169 340.7 414.147 339.194 415.125 337.688C415.664 336.866 416.203 336.045 416.758 335.199C417.942 333.102 418.558 331.355 419 329Z" fill="#33CBCA"/>
<path d="M304 339C306.664 341.46 308.579 344.202 310.625 347.188C317.265 356.367 325.345 362.225 335 368C334.443 371.344 333.648 374.033 332 377C319.525 375.659 307.298 373.465 295 371C295.665 364.469 297.551 358.439 299.5 352.188C299.981 350.615 299.981 350.615 300.473 349.01C302.847 341.307 302.847 341.307 304 339Z" fill="#33CBCA"/>
<path d="M396 267C398.805 268.307 401.116 269.758 403.504 271.723C404.157 272.257 404.811 272.792 405.484 273.343C406.17 273.91 406.856 274.478 407.562 275.062C408.268 275.642 408.974 276.222 409.701 276.82C411.128 277.991 412.553 279.164 413.978 280.339C415.797 281.833 417.625 283.315 419.461 284.789C420.443 285.581 421.425 286.372 422.438 287.188C423.302 287.882 424.167 288.577 425.059 289.293C427.793 291.697 427.966 292.69 428.375 296.375C428 300 428 300 425.875 302.438C422.4 304.326 420.921 304.491 417 304C414.213 302.587 411.76 300.79 409.25 298.938C408.551 298.439 407.853 297.94 407.133 297.427C405.734 296.427 404.338 295.422 402.947 294.411C400.323 292.509 397.662 290.661 395 288.812C393.666 287.876 392.333 286.939 391 286C392.429 270.571 392.429 270.571 396 267Z" fill="white"/>
<path d="M134 310.002C137.074 311.81 138.43 312.862 140 316.002C140.579 323.063 140.579 323.063 138.188 326.939C134.058 330.833 129.3 330.398 123.895 330.345C121 330.002 121 330.002 117.812 327.877C115.806 324.694 115.078 322.758 115 319.002C115.744 315.877 116.855 314.18 118.875 311.689C123.757 309.053 128.574 309.236 134 310.002Z" fill="#33CBCA"/>
<path d="M292 377C293.456 381.521 292.27 384.516 291 389C291.66 389 292.32 389 293 389C293 389.66 293 390.32 293 391C291.68 391 290.36 391 289 391C289.596 386.131 290.57 381.672 292 377Z" fill="#33CBCA"/>
<path d="M403 357C404 359 404 359 403.062 362.125C402.712 363.074 402.361 364.022 402 365C401.01 365 400.02 365 399 365C399 365.66 399 366.32 399 367C397.68 366.67 396.36 366.34 395 366C395.99 366 396.98 366 398 366C398.268 365.257 398.536 364.515 398.812 363.75C399.942 361.134 401.209 359.198 403 357Z" fill="#33CBCA"/>
<path d="M327.001 384C327.661 384.33 328.321 384.66 329.001 385C327.681 387.97 326.361 390.94 325.001 394C324.671 394 324.341 394 324.001 394C323.708 387.945 323.708 387.945 324.001 386C324.991 385.34 325.981 384.68 327.001 384Z" fill="#33CBCA"/>
</g>
<defs>
<clipPath id="clip0_150_1549">
<rect width="640" height="640" fill="white"/>
</clipPath>
</defs>
</svg>
