<svg width="640" height="640" viewBox="0 0 640 640" fill="none" xmlns="http://www.w3.org/2000/svg">
<g clip-path="url(#clip0_150_1569)">
<path d="M424.472 84.4352C432.45 89.9229 440.078 99.9948 442.64 109.447C444.867 125.277 443.4 143.662 433.687 156.752C427.141 164.629 419.777 169.742 409.999 173.002C410.216 173.671 410.432 174.34 410.656 175.029C412.484 181.335 413.3 187.22 413.312 193.752C413.32 194.796 413.32 194.796 413.327 195.861C413.262 200.784 412.378 205.277 410.999 210.002C410.64 211.247 410.64 211.247 410.273 212.518C409.207 216.178 408.13 219.836 407.034 223.488C406.773 224.383 406.511 225.278 406.242 226.201C406.003 227.003 405.764 227.806 405.518 228.633C404.965 231.159 404.964 233.424 404.999 236.002C405.581 236.284 406.162 236.567 406.761 236.859C412.854 239.827 418.936 242.816 425.013 245.816C427.277 246.931 429.543 248.04 431.813 249.144C435.089 250.739 438.355 252.353 441.62 253.97C442.624 254.454 443.627 254.938 444.661 255.436C453.999 260.102 462.404 265.814 465.999 276.002C468.776 285.27 467.163 293.027 462.702 301.408C461.02 303.97 459.19 305.875 456.999 308.002C457.603 308.338 458.207 308.674 458.828 309.02C492.339 327.836 492.339 327.836 498.378 346.459C499.469 350.92 499.397 355.307 499.312 359.877C499.301 360.89 499.291 361.903 499.28 362.947C499.133 371.405 498.356 379.698 497.338 388.088C496.687 393.695 496.133 399.312 495.58 404.93C495.38 406.947 495.172 408.962 494.965 410.978C494.601 414.651 494.282 418.322 493.999 422.002C493.914 423.077 493.829 424.152 493.741 425.259C493.618 427.933 493.565 430.361 493.999 433.002C495.979 435.425 495.979 435.425 498.937 436.564C508.261 441.604 515.752 449.745 518.999 460.002C520.204 467.501 518.955 474.498 514.999 481.002C509.963 486.803 503.989 490.619 496.277 491.358C494.962 491.349 493.647 491.339 492.292 491.33C491.573 491.328 490.855 491.327 490.114 491.326C487.804 491.317 485.496 491.286 483.187 491.252C481.598 491.236 480.009 491.222 478.419 491.207C474.606 491.168 470.794 491.106 466.981 491.035C465.243 491.006 463.505 490.987 461.767 490.971C451.533 490.866 443.121 490.228 435.023 483.314C425.962 474.06 424.367 463.191 424.433 450.835C424.458 449.041 424.484 447.248 424.511 445.455C424.52 443.589 424.527 441.722 424.532 439.856C424.551 434.983 424.6 430.111 424.656 425.238C424.707 420.251 424.73 415.263 424.755 410.275C424.809 400.517 424.894 390.759 424.999 381.002C424.156 380.947 423.312 380.892 422.443 380.835C416.121 380.392 410.017 379.802 403.812 378.513C403.109 378.37 402.407 378.227 401.683 378.079C399.454 377.623 397.227 377.156 394.999 376.689C392.676 376.211 390.351 375.735 388.027 375.26C386.496 374.946 384.966 374.632 383.435 374.316C376.29 372.846 369.126 371.48 361.952 370.157C358.887 369.585 355.962 368.989 352.999 368.002C352.756 368.827 352.512 369.652 352.261 370.502C350.793 374.575 348.877 378.205 346.812 382.002C343.557 388.05 340.418 394.14 337.425 400.322C330.948 413.668 324.458 426.434 315.352 438.233C313.176 441.079 311.127 444.013 309.062 446.939C303.646 454.525 298.178 462.073 292.717 469.626C290.938 472.086 289.162 474.547 287.386 477.009C286.798 477.824 286.21 478.639 285.604 479.479C284.477 481.041 283.351 482.603 282.225 484.165C281.715 484.871 281.205 485.578 280.679 486.306C280.233 486.925 279.787 487.543 279.327 488.181C278.355 489.514 277.35 490.823 276.328 492.118C274.809 493.868 274.809 493.868 275.066 495.841C276.121 498.284 277.432 500.512 278.832 502.772C284.974 512.733 287.577 522.285 284.999 534.002C282.14 542.418 277.13 548.32 269.249 552.439C268.177 552.625 267.104 552.81 265.999 553.002C265.228 553.176 264.458 553.35 263.663 553.529C253.111 554.844 245.274 548.356 236.879 542.855C233.818 540.885 230.712 539.01 227.585 537.146C225.431 535.848 223.278 534.55 221.124 533.252C219.6 532.35 219.6 532.35 218.045 531.431C209.921 526.442 204.134 520.833 201.476 511.466C197.015 488.395 215.255 463.96 226.417 445.088C230.455 438.257 234.362 431.355 238.238 424.432C240.811 419.842 243.414 415.28 246.128 410.771C253.165 399.011 258.517 387.121 263.36 374.315C265.362 369.03 267.413 363.765 269.46 358.498C270.279 356.39 271.098 354.282 271.918 352.175C272.332 351.107 272.747 350.04 273.174 348.94C274.844 344.641 276.509 340.339 278.173 336.038C282.301 325.371 286.444 314.71 290.624 304.064C291.067 302.935 291.51 301.806 291.966 300.643C292.361 299.639 292.756 298.634 293.163 297.599C293.665 296.323 293.665 296.323 294.178 295.021C294.999 293.002 294.999 293.002 295.999 291.002C295.423 291.16 294.847 291.319 294.253 291.482C286.302 293.315 279.233 291.536 271.999 288.002C265.189 283.634 261.645 277.561 258.999 270.002C258.741 267.539 258.741 267.539 258.734 264.916C258.73 263.917 258.725 262.919 258.721 261.891C258.731 260.814 258.74 259.736 258.749 258.627C258.755 257.499 258.761 256.372 258.768 255.21C258.871 246.001 259.269 236.818 259.812 227.627C259.882 226.351 259.952 225.076 260.024 223.762C261.223 205.56 266.743 191.122 279.019 177.564C287.921 169.911 298.431 165.224 309.033 160.43C311.499 159.314 313.958 158.185 316.417 157.054C339.961 146.275 339.961 146.275 350.187 146.752C350.948 146.77 351.709 146.788 352.493 146.806C354.329 146.852 356.165 146.924 357.999 147.002C357.512 145.859 357.025 144.717 356.523 143.541C354.853 139.065 354.535 135.12 354.624 130.377C354.634 129.596 354.643 128.816 354.653 128.011C355.04 112.894 359.018 100.407 369.464 89.3336C385.15 74.9041 406.298 73.8981 424.472 84.4352Z" fill="black"/>
<path d="M318.999 285C323.288 285.558 327.575 286.129 331.86 286.712C333.852 286.98 335.845 287.24 337.839 287.499C363.377 291.011 385.787 299.739 409.269 310.158C417.446 313.785 425.689 317.238 433.962 320.639C472.443 336.511 472.443 336.511 478.308 350.564C480.966 359.936 478.657 371.303 477.687 380.832C477.552 382.203 477.417 383.575 477.283 384.946C476.934 388.509 476.577 392.071 476.218 395.633C475.851 399.287 475.492 402.941 475.132 406.596C474.428 413.731 473.716 420.866 472.999 428C464.419 428 455.839 428 446.999 428C445.874 419.002 445.874 419.002 445.81 415.594C445.793 414.83 445.776 414.065 445.759 413.277C445.745 412.478 445.732 411.679 445.718 410.855C445.699 410.005 445.681 409.155 445.662 408.278C445.604 405.581 445.551 402.885 445.499 400.188C445.369 393.457 445.219 386.728 444.999 380C444.943 378.232 444.943 378.232 444.886 376.428C444.83 375.458 444.775 374.488 444.718 373.488C444.676 372.696 444.634 371.904 444.591 371.087C443.735 368.07 442.479 366.909 439.999 365C436.693 363.765 436.693 363.765 432.901 362.965C432.201 362.801 431.501 362.638 430.78 362.469C423.226 360.744 415.606 359.347 407.978 357.992C403.82 357.253 399.666 356.494 395.511 355.738C394.692 355.59 393.873 355.441 393.03 355.288C385.966 354.003 378.916 352.654 371.874 351.25C370.93 351.064 369.986 350.878 369.013 350.686C364.201 349.718 359.414 348.66 354.64 347.523C353.684 347.296 352.727 347.068 351.742 346.833C340.18 343.32 329.905 333.926 324.179 323.477C319.599 313.862 318.832 304.516 318.937 294C318.941 293.13 318.946 292.26 318.95 291.363C318.962 289.242 318.98 287.121 318.999 285Z" fill="#33CBCA"/>
<path d="M303 328C303.66 328 304.32 328 305 328C305.402 328.909 305.402 328.909 305.812 329.836C311.83 342.703 321.261 353.495 334 360C332.339 365.881 329.488 371.015 326.625 376.375C323.31 382.624 320.03 388.876 316.961 395.25C311.334 406.924 305.357 417.602 297.543 427.945C295.383 430.822 293.29 433.745 291.192 436.667C289.566 438.932 287.933 441.192 286.297 443.449C278.946 453.595 271.599 463.745 264.312 473.938C263.902 474.511 263.492 475.084 263.07 475.675C261.342 478.095 259.649 480.526 258 483C252.631 481.545 248.637 478.997 244.125 475.875C243.092 475.173 243.092 475.173 242.039 474.457C240.355 473.311 238.677 472.156 237 471C237.594 466.886 238.952 463.953 241.035 460.371C241.672 459.267 242.309 458.163 242.965 457.026C243.307 456.442 243.648 455.858 244 455.256C245.078 453.41 246.149 451.56 247.217 449.708C248.714 447.114 250.215 444.522 251.719 441.932C255.01 436.263 258.283 430.583 261.545 424.896C262.528 423.185 263.517 421.476 264.506 419.767C273.215 404.611 279.795 389.264 285.938 372.938C286.704 370.914 287.472 368.892 288.24 366.869C289.752 362.885 291.26 358.9 292.765 354.914C295.021 348.939 297.292 342.971 299.566 337.004C299.913 336.095 300.26 335.186 300.617 334.249C301.411 332.166 302.205 330.083 303 328Z" fill="white"/>
<path d="M424 317C435.216 320.826 445.932 325.134 456.25 331C457.093 331.473 457.937 331.947 458.805 332.435C467.052 337.263 476.348 343.332 479 353C479.632 362.292 478.628 371.594 477.688 380.832C477.552 382.203 477.418 383.575 477.284 384.946C476.934 388.509 476.577 392.071 476.219 395.633C475.852 399.287 475.493 402.941 475.133 406.596C474.429 413.731 473.716 420.866 473 428C464.42 428 455.84 428 447 428C445.875 419.002 445.875 419.002 445.811 415.594C445.794 414.83 445.777 414.065 445.76 413.277C445.746 412.478 445.733 411.679 445.719 410.855C445.7 410.005 445.682 409.155 445.663 408.278C445.605 405.581 445.552 402.885 445.5 400.188C445.37 393.457 445.22 386.728 445 380C444.944 378.232 444.944 378.232 444.887 376.428C444.591 371.138 444.591 371.138 442.363 366.438C439.343 364.601 436.635 363.809 433.188 363C432.513 362.84 431.839 362.681 431.145 362.517C421.187 360.244 411.076 358.648 401 357C401 356.67 401 356.34 401 356C402.65 356 404.3 356 406 356C406.232 355.219 406.464 354.438 406.703 353.633C408.399 348.881 410.558 344.415 412.75 339.875C413.418 338.482 413.418 338.482 414.099 337.062C417.331 330.34 420.615 323.646 424 317Z" fill="white"/>
<path d="M379 171C385.012 173.603 388.7 178.778 391.938 184.312C394.591 193.521 392.585 202.044 389.875 211C389.557 212.092 389.24 213.183 388.912 214.308C386.787 221.553 384.535 228.758 382.207 235.94C379.917 243.069 377.971 250.283 376.092 257.53C374.758 262.584 373.197 267.255 371 272C354.315 271.954 338.256 268.397 322 265C322.785 257.237 323.879 249.527 325.047 241.814C325.267 240.345 325.482 238.875 325.692 237.404C325.999 235.259 326.322 233.118 326.648 230.977C326.836 229.709 327.023 228.441 327.216 227.135C328.008 223.97 328.34 222.798 331 221C333.154 220.188 333.154 220.188 335.648 219.57C336.566 219.335 337.483 219.1 338.427 218.858C339.4 218.616 340.373 218.374 341.375 218.125C360.433 213.799 360.433 213.799 374.234 200.984C375.274 199.01 376.181 197.075 377 195C377.543 193.683 377.543 193.683 378.098 192.34C379.263 188.026 379.217 184.067 379.125 179.625C379.116 178.794 379.107 177.962 379.098 177.105C379.074 175.07 379.038 173.035 379 171Z" fill="#33CBCA"/>
<path d="M352.999 167.999C356.659 169.89 358.675 172.027 359.999 175.999C360.771 182.526 359.918 186.704 355.999 191.999C352.244 194.649 348.523 195.889 344.116 197.12C343.462 197.306 342.807 197.492 342.132 197.684C340.048 198.275 337.961 198.856 335.874 199.436C330.571 200.919 325.281 202.44 319.999 203.999C318.897 204.306 317.796 204.613 316.66 204.929C315.682 205.232 314.703 205.534 313.695 205.846C312.43 206.22 312.43 206.22 311.14 206.601C307.29 209.115 306.45 213.136 305.421 217.392C304.846 220.16 304.337 222.934 303.843 225.717C303.56 227.243 303.56 227.243 303.272 228.798C302.673 232.03 302.085 235.264 301.499 238.499C300.727 242.761 299.945 247.021 299.156 251.28C298.984 252.25 298.812 253.22 298.634 254.219C297.651 259.52 296.516 264.209 293.999 268.999C290.279 271.479 288.401 271.462 283.999 270.999C281.634 269.132 280.339 267.678 278.999 264.999C278.532 255.996 279.173 246.938 279.744 237.95C279.875 235.869 279.994 233.788 280.113 231.706C281.358 210.957 281.358 210.957 286.187 202.249C286.737 201.223 287.288 200.197 287.855 199.139C294.553 189.329 303.199 185.625 313.749 180.874C315.263 180.179 316.776 179.482 318.288 178.784C321.2 177.443 324.117 176.114 327.04 174.796C329.482 173.694 331.905 172.568 334.324 171.416C335.278 170.964 336.232 170.512 337.214 170.046C338.012 169.66 338.81 169.274 339.632 168.877C344.036 167.243 348.416 167.073 352.999 167.999Z" fill="white"/>
<path d="M410.312 99.9999C416.147 103.265 419.216 107.756 422.375 113.5C424.557 122.231 422.636 134.681 418.675 142.672C414.787 148.102 409.48 152.192 403 154C395.687 155.092 390.059 153.115 384 149C379.531 144.872 376.234 140.703 375.699 134.531C375.548 124.35 375.508 113.796 382.187 105.5C390.166 97.5048 399.777 95.3264 410.312 99.9999Z" fill="white"/>
<path d="M303 328C303.66 328 304.32 328 305 328C305.268 328.606 305.536 329.212 305.812 329.836C311.83 342.703 321.261 353.495 334 360C332.744 364.028 331.258 367.678 329.285 371.406C328.764 372.398 328.242 373.389 327.705 374.41C327.163 375.43 326.621 376.449 326.062 377.5C324.99 379.531 323.919 381.562 322.848 383.594C322.35 384.535 321.853 385.476 321.34 386.445C319.854 389.279 318.411 392.129 317 395C313.083 394.717 309.166 394.422 305.25 394.125C304.158 394.046 303.066 393.968 301.941 393.887C294.541 393.317 287.299 392.345 280 391C280.637 385.615 282.391 381.001 284.387 376.008C284.726 375.144 285.066 374.281 285.415 373.391C286.501 370.633 287.594 367.879 288.688 365.125C290.11 361.524 291.53 357.922 292.949 354.32C293.294 353.447 293.639 352.574 293.994 351.675C297.089 343.818 300.069 335.92 303 328Z" fill="#33CBCA"/>
<path d="M397 256C401.653 256.627 405.506 258.544 409.645 260.641C410.373 261.005 411.102 261.369 411.852 261.744C413.391 262.514 414.928 263.288 416.464 264.064C418.791 265.239 421.122 266.403 423.455 267.566C424.956 268.32 426.457 269.074 427.957 269.828C428.987 270.342 428.987 270.342 430.038 270.867C444.994 278.452 444.994 278.452 447 283C447 287.133 446.596 289.256 444 292.5C439.796 294.602 436.44 294.018 432 293C427.293 291.314 422.745 289.298 418.188 287.25C415.785 286.192 413.383 285.135 410.98 284.078C409.822 283.564 408.664 283.051 407.47 282.521C402.344 280.274 397.177 278.128 392 276C392.545 268.913 394.609 262.672 397 256Z" fill="white"/>
<path d="M446 447.999C450.784 447.969 455.565 447.985 460.349 448.042C461.972 448.055 463.594 448.056 465.216 448.044C475.877 447.975 483.605 448.621 492 455.999C494.769 458.746 496.836 461.753 499 464.999C498.641 467.96 498.153 468.846 496 470.999C493.289 471.201 493.289 471.201 489.848 471.136C488.586 471.117 487.324 471.098 486.024 471.079C485.361 471.065 484.698 471.051 484.015 471.037C482.051 471 480.085 470.989 478.12 470.978C474.225 470.956 470.332 470.888 466.437 470.812C465.773 470.809 465.109 470.807 464.425 470.804C462.47 470.795 460.514 470.751 458.558 470.706C456.846 470.683 456.846 470.683 455.099 470.659C451.109 469.81 449.609 468.051 447 464.999C446.67 464.669 446.34 464.339 446 463.999C445.927 461.303 445.907 458.633 445.937 455.937C445.942 455.178 445.946 454.42 445.951 453.638C445.963 451.759 445.981 449.879 446 447.999Z" fill="white"/>
<path d="M226.001 489C231.011 490.727 235.326 493.486 239.813 496.25C240.582 496.715 241.351 497.181 242.143 497.66C251.5 503.393 260.996 509.252 265.001 520C265.55 524.312 265.73 527.755 263.501 531.562C263.006 532.037 262.511 532.511 262.001 533C258.545 531.706 255.5 530.201 252.376 528.242C251.51 527.702 250.644 527.163 249.752 526.607C248.844 526.035 247.936 525.464 247.001 524.875C245.121 523.699 243.24 522.523 241.36 521.348C240.447 520.775 239.533 520.203 238.592 519.614C236.327 518.203 234.052 516.811 231.766 515.434C230.859 514.886 230.859 514.886 229.934 514.327C228.359 513.378 226.782 512.433 225.204 511.488C223.001 510 223.001 510 222.001 508C221.387 501.541 222.011 496.741 225.001 491C225.331 490.34 225.661 489.68 226.001 489Z" fill="white"/>
<path d="M424 317C430.93 319.64 437.86 322.28 445 325C443.35 327.64 441.7 330.28 440 333C438.883 335.197 437.805 337.414 436.773 339.652C436.217 340.84 435.66 342.028 435.086 343.252C434.222 345.109 433.361 346.967 432.506 348.828C431.667 350.649 430.814 352.463 429.961 354.277C429.464 355.352 428.967 356.427 428.455 357.535C427 360 427 360 424 361C421.548 360.746 421.548 360.746 418.676 360.223C417.648 360.039 416.62 359.855 415.561 359.666C414.489 359.467 413.417 359.268 412.312 359.062C411.229 358.867 410.146 358.672 409.029 358.471C406.352 357.987 403.675 357.497 401 357C401 356.67 401 356.34 401 356C402.65 356 404.3 356 406 356C406.232 355.219 406.464 354.438 406.703 353.633C408.399 348.881 410.558 344.415 412.75 339.875C413.418 338.482 413.418 338.482 414.099 337.062C417.331 330.339 420.629 323.654 424 317Z" fill="#33CBCA"/>
<path d="M287 370C287.776 370.121 288.552 370.242 289.352 370.367C292.9 370.918 296.45 371.46 300 372C301.744 372.269 301.744 372.269 303.523 372.543C311.337 373.711 319.116 374.502 327 375C322 385 322 385 317 395C313.083 394.717 309.166 394.422 305.25 394.125C304.158 394.046 303.066 393.968 301.941 393.887C294.541 393.317 287.299 392.345 280 391C280.516 387.545 281.077 384.366 282.41 381.133C282.678 380.475 282.945 379.818 283.221 379.141C283.498 378.475 283.776 377.81 284.062 377.125C284.344 376.437 284.626 375.748 284.916 375.039C285.605 373.357 286.302 371.678 287 370Z" fill="#33CBCA"/>
<path d="M87.8134 206.751C88.7035 206.731 89.5935 206.71 90.5106 206.689C96.6848 206.652 101.182 207.37 105.876 211.751C107.546 215.091 107.51 217.313 107.001 221.001C104.977 224.475 102.891 226.705 99.0009 228.001C95.4015 228.283 91.7974 228.279 88.1884 228.314C87.2029 228.343 86.2174 228.372 85.202 228.402C79.1362 228.455 75.5932 228.091 71.0009 224.001C69.2374 221.088 68.9925 219.403 69.0634 216.001C70.2484 212.209 71.9738 210.524 75.0009 208.001C79.2654 206.58 83.3458 206.777 87.8134 206.751Z" fill="#33CBCA"/>
<path d="M420 325C420.99 325.66 421.98 326.32 423 327C421.707 329.884 420.34 331.872 418 334C417 331 417 331 418.437 327.812C418.953 326.884 419.468 325.956 420 325Z" fill="#33CBCA"/>
<path d="M443 326C444.65 326.33 446.3 326.66 448 327C446.106 328.894 444.155 330.42 442 332C441.34 331.67 440.68 331.34 440 331C440.99 329.35 441.98 327.7 443 326Z" fill="white"/>
<path d="M282 383C283.5 384.375 283.5 384.375 285 386C285 386.66 285 387.32 285 388C283.35 388.66 281.7 389.32 280 390C280.66 387.69 281.32 385.38 282 383Z" fill="#33CBCA"/>
<path d="M75 208C75.99 208.66 76.98 209.32 78 210C76.1875 211.562 76.1875 211.562 74 213C73.01 212.67 72.02 212.34 71 212C72.32 210.68 73.64 209.36 75 208Z" fill="#33CBCA"/>
</g>
<defs>
<clipPath id="clip0_150_1569">
<rect width="640" height="640" fill="white"/>
</clipPath>
</defs>
</svg>
