<svg width="640" height="640" viewBox="0 0 640 640" fill="none" xmlns="http://www.w3.org/2000/svg">
<g clip-path="url(#clip0_150_1625)">
<path d="M418.737 90.1837C428.9 95.843 437.433 104.942 441.421 115.91C445.402 130.301 443.828 148.553 436.577 161.656C429.29 172.479 421.093 178.645 408.999 183C409.474 184.052 409.948 185.104 410.437 186.188C412.508 190.782 413.111 195.292 413.316 200.301C413.357 201.277 413.399 202.254 413.443 203.26C413.482 204.267 413.521 205.275 413.562 206.313C413.605 207.339 413.648 208.366 413.693 209.424C413.798 211.949 413.9 214.475 413.999 217C414.874 216.779 415.749 216.557 416.651 216.329C425.797 214.019 434.949 211.732 444.107 209.469C445.768 209.057 447.428 208.643 449.088 208.229C472.903 202.322 472.903 202.322 483.816 208.59C484.536 209.055 485.257 209.521 485.999 210C486.586 210.373 487.172 210.745 487.776 211.129C493.093 215.011 496.809 221.551 497.999 228C498.849 237.504 497.559 245.693 491.624 253.375C485.957 259.042 480.192 261.193 472.659 263.531C471.66 263.849 470.661 264.167 469.632 264.494C467.519 265.164 465.405 265.83 463.29 266.491C460.101 267.488 456.916 268.499 453.732 269.512C421.521 279.719 421.521 279.719 411.062 279.375C409.904 279.373 409.904 279.373 408.724 279.371C403.539 279.292 398.984 278.418 393.999 277C393.464 278.725 392.947 280.455 392.437 282.188C392.147 283.151 391.857 284.113 391.558 285.106C390.931 288.354 390.761 289.925 391.999 293C394.148 295.053 396.2 296.791 398.562 298.563C399.231 299.081 399.9 299.599 400.589 300.133C402.714 301.771 404.854 303.388 406.999 305C408.014 305.766 408.014 305.766 409.05 306.547C411.719 308.558 414.391 310.564 417.072 312.558C421.567 315.903 425.986 319.329 430.374 322.813C437.67 328.579 445.014 333.918 453.124 338.5C464.957 345.327 472.373 353.735 475.999 367C476.735 371.006 477.216 375.029 477.683 379.074C477.823 380.225 477.962 381.375 478.107 382.56C478.403 385.008 478.696 387.456 478.986 389.904C479.439 393.71 479.913 397.513 480.391 401.316C481.716 411.905 483.027 422.476 483.851 433.117C484.145 444.545 484.145 444.545 488.371 454.717C492.145 457.72 496.417 458.654 500.999 460C509.671 465.92 515.518 474.149 518.999 484C520.277 491.25 518 496.999 513.999 503C508.44 510.038 500.212 511.331 491.689 512.425C488.252 512.738 484.819 512.982 481.374 513.188C480.151 513.264 478.928 513.34 477.667 513.418C474.112 513.628 470.556 513.815 466.999 514C466.06 514.059 465.12 514.118 464.152 514.178C452.988 514.851 444.008 513.964 435.112 506.395C426.696 497.469 424.838 486.425 423.087 474.778C422.398 470.217 421.652 465.665 420.901 461.113C420.673 459.724 420.673 459.724 420.44 458.306C418.272 445.359 415.288 432.593 412.336 419.807C411.297 415.305 410.265 410.803 409.265 406.293C409.02 405.199 408.776 404.105 408.524 402.977C408.04 400.23 407.96 397.778 407.999 395C407.386 394.824 406.773 394.648 406.141 394.467C400.193 392.727 394.408 390.739 388.632 388.496C387.79 388.172 386.948 387.848 386.08 387.515C384.32 386.836 382.561 386.157 380.802 385.475C378.112 384.433 375.419 383.397 372.726 382.361C371.007 381.698 369.288 381.035 367.569 380.371C366.768 380.063 365.967 379.754 365.142 379.437C364.02 379.001 364.02 379.001 362.875 378.556C362.221 378.304 361.567 378.051 360.893 377.79C358.877 376.949 356.942 375.998 354.999 375C354.761 375.794 354.522 376.588 354.277 377.406C352.669 381.93 350.646 386.179 348.562 390.5C348.122 391.413 347.683 392.326 347.23 393.266C346.297 395.197 345.362 397.127 344.425 399.055C343.02 401.957 341.633 404.867 340.245 407.777C330.314 428.379 317.916 448.29 296.124 457.875C285.688 461.4 274.385 460.823 263.483 460.874C260.76 460.973 258.143 461.182 255.441 461.479C249.08 462.149 242.717 462.288 236.327 462.473C233.022 462.592 229.716 462.715 226.411 462.841C222.977 462.97 219.545 463.084 216.11 463.17C212.118 463.27 208.13 463.433 204.14 463.598C202.912 463.619 201.683 463.64 200.418 463.662C194.181 463.832 194.181 463.832 188.936 466.796C187.438 468.8 186.227 470.825 184.999 473C177.355 480.061 167.646 484.092 157.249 484.438C149.794 484.106 144.047 481.886 138.542 476.797C134.447 472.028 132.578 466.786 132.712 460.494C133.364 454.836 135.161 449.39 136.749 443.938C137.31 441.981 137.868 440.023 138.426 438.066C138.965 436.173 139.508 434.281 140.051 432.388C140.824 429.628 141.546 426.87 142.21 424.082C144.464 414.632 147.191 407.466 155.249 401.625C163.567 396.601 172.422 394.49 181.96 396.68C183.557 397.086 183.557 397.086 185.187 397.5C200.032 401.058 214.202 397.899 229.007 395.479C242.261 393.359 255.639 392.216 268.999 391C269.252 389.757 269.505 388.515 269.765 387.234C271.055 381.448 272.882 375.874 274.745 370.25C275.113 369.13 275.48 368.01 275.859 366.856C276.643 364.469 277.429 362.082 278.217 359.695C279.445 355.976 280.667 352.255 281.888 348.533C285.416 337.791 288.963 327.057 292.601 316.352C292.861 315.582 293.122 314.812 293.391 314.019C294.553 310.587 295.723 307.157 296.913 303.734C299.064 297.413 300.592 291.675 300.999 285C300.312 285.157 299.625 285.315 298.917 285.477C290.295 287.023 281.876 287.115 274.183 282.606C267.384 277.607 262.843 271.261 260.999 263C260.857 260.137 260.792 257.349 260.823 254.488C260.828 253.662 260.834 252.836 260.839 251.985C260.939 243.048 261.433 234.14 262.061 225.227C262.251 222.475 262.416 219.722 262.581 216.969C263.748 199.2 268.467 185.469 281.765 172.93C291.552 164.478 304.106 161.461 316.303 157.954C322.799 156.085 329.237 154.049 335.668 151.967C341.101 150.224 346.057 148.852 351.812 148.938C352.997 148.951 352.997 148.951 354.206 148.965C355.094 148.982 355.094 148.982 355.999 149C355.669 148.01 355.339 147.02 354.999 146C353.805 129.582 356.381 113.594 367.187 100.75C380.832 86.3111 400.441 82.7247 418.737 90.1837Z" fill="black"/>
<path d="M321.999 295C332.178 296.187 342.298 297.562 352.384 299.385C353.764 299.63 355.145 299.866 356.528 300.094C365.224 301.526 372.089 303.331 378.999 309C380.394 310.052 381.788 311.104 383.183 312.156C384.603 313.268 386.021 314.382 387.437 315.5C389.022 316.741 390.606 317.982 392.191 319.223C393.794 320.482 395.397 321.741 396.999 323C402.982 327.689 408.981 332.357 414.999 337C415.844 337.652 416.688 338.305 417.559 338.977C430.169 348.773 430.169 348.773 443.871 356.891C450.027 360.099 453.648 364.433 455.999 371C457 375.906 457.555 380.852 458.105 385.824C458.275 387.258 458.446 388.692 458.619 390.126C459.067 393.879 459.498 397.634 459.924 401.389C460.446 405.954 460.988 410.517 461.527 415.08C461.947 418.629 462.363 422.178 462.769 425.728C462.99 427.641 462.99 427.641 463.215 429.593C463.343 430.712 463.471 431.831 463.602 432.985C463.959 435.692 464.463 438.325 464.999 441C465.065 442.937 465.085 444.875 465.062 446.812C465.053 447.788 465.044 448.764 465.035 449.77C465.017 450.874 465.017 450.874 464.999 452C458.175 455.412 448.42 454.093 440.999 454C438.532 444.723 436.413 435.412 434.527 426C434.21 424.419 434.21 424.419 433.886 422.805C433.012 418.424 432.142 414.043 431.279 409.66C430.638 406.418 429.989 403.178 429.339 399.938C429.053 398.467 429.053 398.467 428.761 396.967C428.224 394.297 427.635 391.649 426.999 389C426.736 387.854 426.736 387.854 426.468 386.684C425.623 383.772 424.884 381.698 422.464 379.789C420.353 378.675 418.238 377.829 415.999 377C415.09 376.637 414.181 376.274 413.243 375.9C410.045 374.639 406.83 373.43 403.609 372.227C401.183 371.31 398.757 370.393 396.332 369.477C392.543 368.05 388.754 366.627 384.964 365.205C381.28 363.823 377.601 362.431 373.921 361.039C372.805 360.623 371.689 360.207 370.539 359.779C352.388 352.902 337.19 343.913 328.374 325.938C324.112 316.005 321.268 305.86 321.999 295Z" fill="#33CBCA"/>
<path d="M309 333C311.274 335.927 313.211 338.953 315.125 342.125C320.999 351.381 328.095 358.642 337 365C335.506 369.845 333.555 374.314 331.375 378.875C331.024 379.615 330.673 380.354 330.311 381.116C326.948 388.167 323.505 395.175 319.953 402.132C319.035 403.931 318.129 405.735 317.223 407.539C313.513 414.724 309.361 420.945 304 427C303.435 427.659 302.871 428.317 302.289 428.996C292.081 440.139 279.28 440.016 265.137 440.754C263.91 440.819 262.682 440.884 261.418 440.951C258.825 441.088 256.232 441.223 253.639 441.357C249.738 441.56 245.837 441.771 241.936 441.982C227.943 442.722 214.013 443.213 200 443C200.149 441.582 200.3 440.164 200.453 438.746C200.537 437.957 200.621 437.167 200.708 436.354C201.394 430.828 202.788 425.429 204 420C212.185 418.8 220.377 417.675 228.578 416.598C229.522 416.473 230.465 416.349 231.437 416.221C235.353 415.706 239.269 415.19 243.185 414.68C248.89 413.935 254.592 413.173 260.291 412.378C262.087 412.127 263.884 411.881 265.682 411.638C268.181 411.296 270.677 410.931 273.172 410.559C273.909 410.461 274.647 410.363 275.406 410.262C279.968 409.548 282.07 408.526 285 405C286.293 402.239 286.293 402.239 287.242 399.105C287.633 397.916 288.023 396.728 288.426 395.503C288.837 394.208 289.249 392.913 289.66 391.617C290.095 390.279 290.53 388.941 290.967 387.603C292.112 384.083 293.243 380.557 294.371 377.031C295.512 373.473 296.668 369.921 297.822 366.367C302.789 351.131 302.789 351.131 307.405 335.787C308 334 308 334 309 333Z" fill="white"/>
<path d="M385 185C389.446 188.811 392.448 193.386 393.34 199.225C393.602 208.435 390.834 216.778 388.188 225.48C387.693 227.146 387.2 228.812 386.708 230.478C385.419 234.83 384.112 239.177 382.802 243.522C381.464 247.971 380.143 252.424 378.82 256.877C376.23 265.59 373.621 274.297 371 283C363.635 281.978 356.291 280.954 348.992 279.527C348.333 279.399 347.675 279.271 346.996 279.14C345.637 278.875 344.278 278.609 342.919 278.341C340.842 277.931 338.765 277.527 336.688 277.123C325.775 274.993 325.775 274.993 322 274C322.596 266.96 323.606 260.073 324.875 253.125C326.423 244.509 327.815 235.887 328.96 227.208C329.479 223.5 329.892 221.162 332 218C334.439 217.356 334.439 217.356 337.496 216.973C338.613 216.82 339.73 216.667 340.881 216.51C342.641 216.288 342.641 216.288 344.438 216.062C356.592 214.529 368.701 212.86 377 203C380.736 197.351 383.53 191.616 385 185Z" fill="#33CBCA"/>
<path d="M415 338C417.759 339.296 420.107 340.731 422.504 342.609C423.157 343.114 423.81 343.619 424.483 344.138C425.512 344.936 425.512 344.936 426.562 345.75C432.077 349.969 437.551 353.589 443.73 356.785C449.921 360.099 453.611 364.327 456 371C457 375.906 457.556 380.852 458.105 385.824C458.275 387.258 458.447 388.692 458.619 390.126C459.068 393.879 459.498 397.634 459.925 401.389C460.447 405.954 460.988 410.517 461.528 415.08C461.947 418.629 462.363 422.178 462.77 425.728C462.917 427.004 463.064 428.279 463.216 429.593C463.407 431.272 463.407 431.272 463.603 432.985C463.959 435.692 464.464 438.325 465 441C465.065 442.937 465.086 444.875 465.062 446.812C465.053 447.788 465.044 448.764 465.035 449.77C465.024 450.506 465.012 451.242 465 452C458.175 455.412 448.421 454.093 441 454C438.533 444.723 436.414 435.412 434.527 426C434.21 424.419 434.21 424.419 433.887 422.805C433.012 418.424 432.143 414.043 431.279 409.66C430.638 406.418 429.99 403.178 429.34 399.938C429.149 398.957 428.958 397.977 428.762 396.967C427.305 387.409 427.305 387.409 422.332 379.738C420.273 378.623 418.198 377.811 416 377C414.565 376.434 414.565 376.434 413.102 375.857C409.913 374.619 406.711 373.429 403.5 372.25C401.837 371.633 401.837 371.633 400.141 371.004C397.429 369.999 394.715 368.997 392 368C392.691 367.358 393.382 366.716 394.094 366.055C397.707 362.438 400.554 358.287 403.5 354.125C404.056 353.348 404.611 352.57 405.184 351.77C406.793 349.516 408.397 347.258 410 345C411.665 342.666 413.333 340.333 415 338Z" fill="white"/>
<path d="M360.562 171.875C363.106 174.094 363.876 174.88 364.237 178.172C364.405 183.987 364.068 187.491 359.999 192C355.551 195.371 351.134 195.829 345.753 196.5C344.864 196.622 343.976 196.744 343.06 196.869C340.228 197.257 337.395 197.63 334.562 198C330.832 198.488 327.105 198.99 323.378 199.5C322.528 199.607 321.678 199.713 320.802 199.822C316.033 200.476 312.111 201.318 307.999 204C306.248 206.859 305.624 209.432 305.177 212.734C305.047 213.668 304.916 214.603 304.782 215.567C304.649 216.571 304.515 217.575 304.378 218.61C304.079 220.748 303.78 222.886 303.482 225.024C303.02 228.385 302.562 231.747 302.106 235.109C301.663 238.36 301.208 241.61 300.753 244.86C300.556 246.354 300.556 246.354 300.355 247.878C299.544 253.634 298.437 258.702 295.999 264C292.481 266.346 291.141 266.58 286.999 266C284.326 263.981 284.326 263.981 281.999 261C281.601 258.069 281.493 255.77 281.648 252.867C281.68 251.686 281.68 251.686 281.714 250.481C281.763 248.821 281.824 247.16 281.895 245.501C281.995 243.087 282.059 240.675 282.109 238.259C282.198 234.334 282.346 230.415 282.524 226.493C282.591 224.904 282.647 223.315 282.692 221.725C283.067 208.687 285.161 197.965 294.995 188.5C300.657 184.262 306.262 182.07 312.999 180.188C314.768 179.68 316.536 179.171 318.304 178.66C319.228 178.395 320.152 178.13 321.104 177.856C324.108 176.968 327.088 176.022 330.069 175.059C331.079 174.737 332.088 174.415 333.128 174.083C335.074 173.461 337.017 172.829 338.956 172.185C345.838 170.013 354.036 167.718 360.562 171.875Z" fill="white"/>
<path d="M410.785 109.524C415.661 112.775 420.134 117.402 422 123C423.064 146.409 423.064 146.409 416 155C410.651 160.428 405.953 162.969 398.25 163.438C392.371 163.278 387.702 161.529 383 158C375.317 148.961 375.332 140.381 376 129C377.024 121.462 380.163 115.91 386 111C393.995 105.835 402.249 105.353 410.785 109.524Z" fill="white"/>
<path d="M309 333C311.274 335.927 313.211 338.953 315.125 342.125C320.999 351.381 328.095 358.642 337 365C335.506 369.845 333.555 374.313 331.375 378.875C331.028 379.607 330.681 380.338 330.324 381.092C326.66 388.783 322.844 396.398 319 404C318.67 404.66 318.34 405.32 318 406C314.236 405.32 310.681 404.328 307.043 403.152C305.375 402.616 305.375 402.616 303.674 402.068C302.523 401.695 301.373 401.322 300.188 400.938C299.018 400.56 297.848 400.183 296.643 399.795C293.761 398.866 290.88 397.934 288 397C292.661 381.817 297.391 366.657 302.262 351.54C302.755 350.012 303.246 348.483 303.736 346.954C304.425 344.807 305.118 342.661 305.812 340.516C306.211 339.281 306.609 338.046 307.02 336.774C308 334 308 334 309 333Z" fill="#33CBCA"/>
<path d="M476.062 228.062C478 230.999 478 230.999 477.938 234.624C477 237.999 477 237.999 475 240.999C473.284 241.797 473.284 241.797 471.172 242.417C470.364 242.665 469.557 242.913 468.725 243.168C467.825 243.443 466.926 243.717 466 243.999C463.982 244.676 461.967 245.36 459.953 246.05C411.929 262.301 411.929 262.301 400 256.999C400.288 255.477 400.58 253.957 400.875 252.437C401.037 251.59 401.2 250.743 401.367 249.87C402.103 246.534 403.036 243.276 404 239.999C404.55 239.884 405.1 239.769 405.667 239.651C418.965 236.859 432.166 233.782 445.329 230.411C470.154 224.083 470.154 224.083 476.062 228.062Z" fill="white"/>
<path d="M493.992 480.777C497.038 483.984 497.038 483.984 498 486C497.714 487.675 497.384 489.344 497 491C471.034 493.174 471.034 493.174 459.625 493.437C458.914 493.471 458.203 493.505 457.471 493.541C453.763 493.573 452.119 493.09 449.137 490.824C446.946 487.928 446.014 485.883 445.188 482.375C444.954 481.434 444.721 480.493 444.48 479.523C444 477 444 477 444 474C448.27 473.63 452.541 473.282 456.812 472.937C458.606 472.781 458.606 472.781 460.436 472.623C473.719 471.573 483.68 471.577 493.992 480.777Z" fill="white"/>
<path d="M174.062 416.564C174.899 416.586 175.736 416.608 176.598 416.63C179.103 417.017 180.776 417.827 183 419.001C180.042 450.298 180.042 450.298 169.391 459.372C165.657 462.043 162.345 463.138 157.812 463.064C156.554 463.043 155.296 463.023 154 463.001C154.586 455.828 156.476 449.081 158.409 442.175C159.039 439.859 159.621 437.534 160.199 435.204C160.612 433.595 161.025 431.986 161.438 430.376C161.618 429.618 161.799 428.861 161.985 428.08C163.688 421.604 166.57 416.205 174.062 416.564Z" fill="white"/>
<path d="M415 338C419.052 339.745 422.306 342.423 425.75 345.125C426.352 345.593 426.954 346.061 427.574 346.543C429.052 347.692 430.526 348.846 432 350C426.255 358.844 420.096 367.398 414 376C406.74 373.36 399.48 370.72 392 368C393.65 366.35 395.3 364.7 397 363C398.088 361.635 399.144 360.242 400.156 358.82C400.704 358.056 401.252 357.291 401.816 356.504C402.372 355.719 402.928 354.934 403.5 354.125C404.056 353.348 404.611 352.57 405.184 351.77C406.793 349.516 408.397 347.258 410 345C411.665 342.666 413.333 340.333 415 338Z" fill="#33CBCA"/>
<path d="M295 377C305.812 379.955 316.384 383.407 327 387C324.03 393.27 321.06 399.54 318 406C314.177 405.235 310.732 404.344 307.043 403.152C305.931 402.795 304.819 402.437 303.674 402.068C302.523 401.695 301.373 401.322 300.188 400.938C299.018 400.56 297.848 400.183 296.643 399.795C293.761 398.866 290.88 397.934 288 397C288.974 393.853 289.955 390.707 290.938 387.562C291.354 386.216 291.354 386.216 291.779 384.842C292.047 383.988 292.314 383.134 292.59 382.254C292.836 381.463 293.082 380.672 293.336 379.858C294 378 294 378 295 377Z" fill="#33CBCA"/>
<path d="M294 378C295.132 382.527 294.496 384.634 293.277 388.977C293.186 389.644 293.094 390.312 293 391C293.66 391.66 294.32 392.32 295 393C295 393.99 295 394.98 295 396C292.69 396.33 290.38 396.66 288 397C289.98 390.73 291.96 384.46 294 378Z" fill="#33CBCA"/>
<path d="M409 369C410.32 369 411.64 369 413 369C413 369.66 413 370.32 413 371C413.66 371 414.32 371 415 371C414.67 372.65 414.34 374.3 414 376C412.02 375.34 410.04 374.68 408 374C408.33 372.35 408.66 370.7 409 369Z" fill="#33CBCA"/>
</g>
<defs>
<clipPath id="clip0_150_1625">
<rect width="640" height="640" fill="white"/>
</clipPath>
</defs>
</svg>
