<svg width="640" height="640" viewBox="0 0 640 640" fill="none" xmlns="http://www.w3.org/2000/svg">
<g clip-path="url(#clip0_150_1164)">
<path d="M399.25 100.5C400.486 100.507 400.486 100.507 401.747 100.515C412.288 100.813 422.478 104.401 430 112C441.079 125.062 444.082 135.997 443 153C441.46 167.412 436.55 178.052 426 188C420.877 192.006 414.976 194.523 409 197C409.231 197.559 409.461 198.119 409.699 198.695C412.289 205.062 414.612 211.497 416.851 217.996C417.917 221.115 417.917 221.115 420 224C424.354 222.918 428.708 221.834 433.062 220.75C433.704 220.59 434.346 220.431 435.007 220.267C442.266 218.465 449.494 216.608 456.687 214.562C467.143 211.774 475.574 212.663 485.25 217.687C491.669 223.085 496.283 229.943 497.281 238.375C497.677 248.94 494.689 255.98 487.644 263.773C481.246 269.16 473.441 271.321 465.562 273.75C463.35 274.443 461.138 275.137 458.926 275.832C457.791 276.186 456.656 276.54 455.487 276.904C451.979 278.006 448.479 279.13 444.98 280.261C443.852 280.626 442.724 280.99 441.562 281.366C439.394 282.067 437.227 282.769 435.061 283.473C434.076 283.79 433.092 284.107 432.078 284.433C431.216 284.712 430.354 284.991 429.466 285.279C418.174 288.58 407.202 286.826 396 284C394.989 287.392 393.993 290.789 393 294.187C392.714 295.147 392.427 296.107 392.133 297.095C391.862 298.027 391.591 298.958 391.312 299.918C391.061 300.771 390.81 301.625 390.551 302.504C389.724 306.249 389.446 308.838 391.123 312.358C391.649 313.172 392.176 313.985 392.719 314.824C393.313 315.756 393.907 316.689 394.519 317.65C395.173 318.652 395.826 319.654 396.5 320.687C397.888 322.86 399.274 325.033 400.66 327.207C401.019 327.766 401.378 328.326 401.747 328.902C405.556 334.845 409.251 340.856 412.937 346.875C417.037 353.565 421.148 360.248 425.32 366.894C439.789 389.995 447.162 404.566 443.25 432.187C442.878 434.904 442.513 437.622 442.148 440.34C442.054 441.038 441.959 441.737 441.861 442.457C441.158 447.696 440.52 452.94 439.914 458.191C439.826 458.95 439.738 459.71 439.648 460.492C439.306 463.464 438.966 466.436 438.632 469.409C437.704 477.666 436.635 485.848 435 494C435.779 494.141 436.559 494.282 437.362 494.427C446.169 496.339 453.957 504.647 458.75 511.937C462.674 518.673 465.244 525.092 464 533C461.758 539.7 457.72 544.65 451.525 548.107C446.37 550.612 441.497 550.577 435.851 550.531C434.272 550.537 434.272 550.537 432.662 550.543C430.445 550.545 428.228 550.538 426.01 550.521C422.642 550.5 419.275 550.521 415.906 550.547C413.742 550.544 411.578 550.539 409.414 550.531C408.419 550.539 407.424 550.547 406.398 550.555C395.572 550.412 387.87 546.823 380.125 539.332C373.864 532.461 372.425 523.726 370.427 514.884C370.056 513.248 369.665 511.618 369.269 509.988C369.077 509.146 368.885 508.304 368.687 507.437C368.526 506.735 368.365 506.032 368.199 505.308C367.923 502.11 368.534 499.176 369 496C369.301 493.283 369.592 490.567 369.867 487.847C370.031 486.261 370.194 484.674 370.358 483.088C370.443 482.267 370.527 481.445 370.614 480.599C371.963 467.48 373.344 454.376 375.136 441.309C375.46 438.875 375.742 436.441 376 434C376.095 433.277 376.189 432.555 376.287 431.811C376.513 428.993 376.499 426.73 374.87 424.348C373.327 422.763 371.727 421.381 370 420C369.427 419.511 368.855 419.023 368.265 418.519C366.861 417.325 365.433 416.16 364 415C363.587 416.134 363.175 417.268 362.75 418.437C355.644 437.21 345.19 448.841 328 459C327.256 459.444 326.512 459.889 325.746 460.347C314.521 466.511 302.225 466.447 289.783 466.504C286.742 466.519 283.702 466.556 280.661 466.598C272.026 466.714 263.39 466.8 254.753 466.857C249.448 466.894 244.144 466.96 238.839 467.043C236.829 467.069 234.818 467.083 232.808 467.087C218.232 466.852 218.232 466.852 206 474C196.758 478.179 185.922 480.169 176.07 477.082C169.948 474.275 165.776 470.852 162.914 464.644C160.541 457.78 161.049 451.304 164.206 444.763C165.637 442.009 167.128 439.291 168.625 436.573C170.227 433.574 171.724 430.532 173.215 427.476C173.777 426.327 174.339 425.177 174.919 423.992C176.034 421.709 177.146 419.423 178.254 417.136C184.092 405.33 188.913 399.06 200.937 393.687C210.746 391.485 217.129 393.971 225.592 398.8C238.624 405.671 255.426 401.127 269.437 399.5C272.569 399.14 275.701 398.783 278.834 398.43C280.769 398.211 282.705 397.988 284.64 397.762C289.121 397.251 293.48 396.869 298 397C298.025 395.988 298.05 394.976 298.076 393.933C298.171 390.103 298.271 386.273 298.372 382.443C298.415 380.799 298.457 379.156 298.497 377.512C298.696 369.462 298.93 361.438 299.535 353.406C300.132 345.117 300.077 336.866 300 328.562C299.973 325.605 299.953 322.648 299.937 319.691C299.926 318.404 299.914 317.117 299.902 315.791C299.975 312.973 300.194 310.47 300.614 307.708C301.107 302.97 299.812 301.728 297 298C295.944 295.476 294.997 293.021 294.125 290.437C293.872 289.706 293.619 288.975 293.359 288.222C291.091 281.532 289.136 274.757 287.263 267.947C286.063 263.603 284.799 259.321 283.289 255.074C278.59 241.763 275.845 227.914 281.742 214.449C282.157 213.641 282.572 212.832 283 212C283.653 210.71 283.653 210.71 284.32 209.394C288.924 201.079 294.625 195.286 302.746 190.371C303.305 190.031 303.864 189.691 304.441 189.342C306.29 188.222 308.144 187.11 310 186C310.649 185.611 311.297 185.223 311.966 184.823C316.803 181.931 321.65 179.058 326.5 176.187C328.644 174.917 330.787 173.646 332.931 172.375C334.25 171.594 335.569 170.812 336.888 170.031C339.534 168.464 342.173 166.892 344.786 165.271C347.244 163.86 349.003 163.522 351.812 163.312C352.998 163.214 352.998 163.214 354.207 163.113C355.094 163.057 355.094 163.057 356 163C355.76 161.961 355.76 161.961 355.515 160.902C352.913 146.256 355.883 130.457 364 118C373.222 106.762 384.62 100.382 399.25 100.5Z" fill="black"/>
<path d="M347.807 312.657C350.194 313.031 352.568 313.234 354.976 313.434C368.687 314.883 368.687 314.883 373.23 320.234C375.707 323.772 377.686 327.552 379.636 331.399C382.133 336.163 385.044 340.68 387.874 345.25C389.069 347.219 390.262 349.189 391.453 351.16C394.805 356.693 398.208 362.194 401.624 367.688C405.978 374.704 410.297 381.741 414.562 388.813C415.051 389.618 415.539 390.424 416.043 391.255C417.386 393.49 418.702 395.738 419.999 398C420.392 398.682 420.785 399.365 421.19 400.068C421.728 401.061 421.728 401.061 422.277 402.074C422.587 402.641 422.898 403.208 423.218 403.792C426.095 411.921 424.516 420.025 423.417 428.359C423.241 429.754 423.065 431.149 422.889 432.544C422.521 435.459 422.147 438.374 421.767 441.288C421.284 444.989 420.813 448.692 420.345 452.395C419.893 455.967 419.437 459.538 418.98 463.109C418.895 463.774 418.81 464.439 418.723 465.123C417.656 473.451 416.429 481.727 414.999 490C407.079 490 399.159 490 390.999 490C391.616 476.037 393.077 462.357 394.918 448.509C398.472 431.248 398.472 431.248 395.123 415.282C392.89 412.883 390.58 410.895 387.999 408.875C383.85 405.553 379.883 402.123 375.999 398.5C371.368 394.189 366.578 390.149 361.648 386.18C358.17 383.318 354.862 380.289 351.539 377.25C348.887 374.901 346.149 372.701 343.374 370.5C330.871 360.269 322.238 347.284 319.999 331C319.337 318.988 319.337 318.988 320.999 314C321.663 313.951 322.327 313.902 323.011 313.852C323.894 313.777 324.777 313.702 325.687 313.625C326.557 313.555 327.427 313.486 328.324 313.414C331.028 313.113 331.028 313.113 333.453 311.922C338.206 310.201 342.953 311.77 347.807 312.657Z" fill="#33CBCA"/>
<path d="M319 376C324.171 379.747 328.996 383.666 333.625 388.062C337.645 391.854 341.722 395.499 346 399C342.705 414.868 339.182 427.423 325.031 437.012C314.492 443.359 306.534 445.473 294.312 445.688C292.948 445.721 291.583 445.754 290.219 445.789C270.486 446.238 250.736 446.086 231 446C231.279 445.187 231.558 444.375 231.845 443.538C232.97 440.277 232.97 440.277 233.457 437.982C234.874 431.975 236.976 426.819 242 423C252.031 419.385 263.292 419.332 273.849 418.763C278.625 418.489 283.394 418.111 288.164 417.741C291.874 417.453 295.582 417.184 299.297 416.971C299.979 416.927 300.662 416.884 301.365 416.839C303.202 416.722 305.04 416.616 306.878 416.512C310.265 415.957 312.251 415.026 315 413C317.281 409.022 317.381 405.031 317.633 400.512C317.674 399.809 317.716 399.105 317.759 398.381C317.889 396.15 318.007 393.919 318.125 391.688C318.211 390.169 318.299 388.65 318.387 387.131C318.6 383.421 318.803 379.711 319 376Z" fill="white"/>
<path d="M407 376C408.357 377.893 408.357 377.893 409.898 380.531C410.46 381.488 411.022 382.444 411.602 383.43C412.479 384.949 412.479 384.949 413.375 386.5C413.952 387.482 414.53 388.465 415.125 389.477C416.776 392.304 418.396 395.146 420 398C420.629 399.1 420.629 399.1 421.271 400.223C421.627 400.881 421.984 401.54 422.352 402.219C422.651 402.765 422.951 403.311 423.26 403.873C426.08 411.98 424.512 420.06 423.418 428.359C423.241 429.754 423.065 431.149 422.89 432.544C422.522 435.459 422.147 438.374 421.767 441.288C421.285 444.989 420.813 448.692 420.345 452.395C419.894 455.967 419.437 459.538 418.98 463.109C418.896 463.774 418.811 464.439 418.724 465.123C417.657 473.451 416.43 481.727 415 490C407.08 490 399.16 490 391 490C391.616 476.037 393.077 462.357 394.919 448.509C398.471 431.256 398.471 431.256 395.134 415.293C392.805 412.791 390.366 410.687 387.688 408.562C383.387 405.115 379.665 401.61 375.5 398C378.381 394.929 380.839 392.652 384.375 390.375C389.86 386.795 395.184 383.039 400.455 379.15C404.784 376 404.784 376 407 376Z" fill="white"/>
<path d="M363 183C366.097 184.54 368.438 186.876 370 190C370.523 194.362 370.591 197.893 368.5 201.812C363.242 206.413 356.36 208.764 349.922 211.312C348.417 211.919 346.911 212.526 345.406 213.133C343.069 214.072 340.73 215.008 338.389 215.937C336.104 216.844 333.825 217.765 331.547 218.687C330.5 219.097 330.5 219.097 329.432 219.515C325.527 221.108 322.598 222.63 320 226C318.392 237.856 323.698 251.16 326.984 262.441C328.128 266.448 329.211 270.465 330.25 274.5C330.425 275.159 330.601 275.818 330.781 276.496C332.093 281.667 333.098 286.023 330.438 290.812C327.23 293.691 325.285 294.075 321 294C316.476 291.183 315.083 288.553 313.535 283.531C313.336 282.903 313.137 282.274 312.932 281.627C312.292 279.589 311.677 277.545 311.063 275.5C310.628 274.088 310.192 272.677 309.754 271.266C308.89 268.466 308.034 265.664 307.185 262.859C306.182 259.565 305.117 256.296 304.02 253.031C300.413 242.146 296.589 230.059 301.938 219.062C307.302 211.134 314.693 206.327 322.992 201.867C327.533 199.423 331.938 196.827 336.313 194.094C337.416 193.409 338.519 192.725 339.656 192.02C341.852 190.652 344.04 189.272 346.219 187.877C352.073 184.259 356.063 181.835 363 183Z" fill="white"/>
<path d="M389 205C391 206 391 206 392.125 208.438C394.646 218.703 391.69 227.808 388.695 237.641C388.251 239.136 387.807 240.632 387.364 242.128C386.203 246.042 385.026 249.951 383.845 253.859C382.648 257.833 381.468 261.811 380.285 265.789C378.553 271.607 376.815 277.423 375.063 283.235C374.712 284.4 374.361 285.564 374 286.764C373.044 289.859 372.037 292.932 371 296C364.325 296.455 358.406 294.767 352 293C352.046 292.236 352.093 291.471 352.141 290.684C352.425 282.248 351.029 275.172 348.621 267.119C347.462 263.162 346.425 259.174 345.375 255.188C345.169 254.424 344.963 253.66 344.751 252.873C343.267 247.29 342.077 241.675 341 236C341.958 235.607 342.916 235.215 343.902 234.81C347.493 233.334 351.077 231.843 354.66 230.348C356.204 229.706 357.75 229.068 359.297 228.434C374.174 222.901 374.174 222.901 384.875 211.812C385.244 211.159 385.612 210.505 385.992 209.832C386.325 209.227 386.657 208.623 387 208C387.66 207.01 388.32 206.02 389 205Z" fill="#33CBCA"/>
<path d="M412.731 124.367C417.235 127.607 420.254 131.759 422.001 136.999C422.253 140.037 422.232 143.078 422.251 146.124C422.271 146.942 422.292 147.759 422.313 148.601C422.37 157.549 420.24 164.719 414.016 171.269C408.775 175.769 403.006 177.694 396.122 177.312C389.13 176.282 383.618 172.169 379.001 166.999C375.837 162.037 375.521 157.954 375.626 152.249C375.637 151.451 375.647 150.653 375.659 149.83C375.914 140.355 377.537 133.614 384.231 126.624C392.452 119.075 403.253 119.142 412.731 124.367Z" fill="white"/>
<path d="M474.625 235.5C476.511 238.929 477.014 242.181 476 246C472.896 249.828 469.455 251.213 464.883 252.656C464.189 252.885 463.496 253.114 462.781 253.35C460.566 254.078 458.346 254.789 456.125 255.5C454.672 255.977 453.218 256.454 451.766 256.933C443.777 259.55 435.759 261.981 427.656 264.22C425.055 264.898 425.055 264.898 423 266C420.383 266.125 417.805 266.185 415.188 266.187C414.119 266.206 414.119 266.206 413.029 266.224C408.898 266.236 405.712 265.845 402 264C402.453 261.769 402.912 259.54 403.375 257.312C403.63 256.071 403.885 254.829 404.148 253.55C404.874 250.526 405.751 247.839 407 245C407.66 245.33 408.32 245.66 409 246C415.928 246.478 421.951 245.015 428.625 243.25C429.685 242.977 430.745 242.704 431.838 242.423C440.794 240.1 449.699 237.623 458.547 234.914C464.007 233.468 469.571 232.612 474.625 235.5Z" fill="white"/>
<path d="M207.625 413.438C212.585 414.264 216.631 416.582 221 419C218.996 425.413 216.019 431.083 212.875 437C212.059 438.601 212.059 438.601 211.227 440.234C207.124 447.94 203.079 452.367 195.363 456.367C192.551 457.12 190.095 457.195 187.188 457.125C186.212 457.107 185.236 457.089 184.23 457.07C183.126 457.036 183.126 457.036 182 457C183.469 452.153 185.466 447.82 187.773 443.336C188.138 442.621 188.503 441.907 188.88 441.171C189.649 439.669 190.421 438.168 191.194 436.668C192.373 434.379 193.538 432.085 194.703 429.789C195.455 428.325 196.208 426.862 196.961 425.398C197.306 424.716 197.651 424.034 198.006 423.331C202.594 414.516 202.594 414.516 207.625 413.438Z" fill="white"/>
<path d="M391 511C395.677 510.9 400.354 510.828 405.032 510.78C406.62 510.76 408.207 510.733 409.795 510.698C419.808 510.484 428.07 510.486 436.34 516.781C436.867 517.348 437.394 517.916 437.938 518.5C438.483 519.067 439.028 519.634 439.59 520.219C441.94 523.187 443 525.177 443 529C436.986 529.124 430.973 529.214 424.958 529.275C422.913 529.3 420.869 529.334 418.824 529.377C415.88 529.438 412.937 529.466 409.992 529.488C409.083 529.514 408.173 529.54 407.236 529.566C402.879 529.568 399.927 529.417 396.453 526.63C393.97 523.967 392.99 522.365 392.125 518.875C391.901 518.027 391.676 517.178 391.445 516.305C391 514 391 514 391 511Z" fill="white"/>
<path d="M407 376C408.145 377.561 408.145 377.561 409.383 379.719C409.828 380.486 410.272 381.253 410.73 382.043C411.191 382.854 411.651 383.665 412.125 384.5C412.593 385.311 413.061 386.122 413.543 386.957C414.702 388.968 415.854 390.982 417 393C412.683 396.499 408.235 399.775 403.73 403.027C402.081 404.219 400.436 405.418 398.801 406.629C394.22 410 394.22 410 392 410C391.67 410.66 391.34 411.32 391 412C388.895 410.063 386.791 408.126 384.688 406.188C384.093 405.64 383.498 405.093 382.885 404.529C382.308 403.998 381.731 403.466 381.137 402.918C380.608 402.431 380.079 401.944 379.534 401.442C377.991 399.991 376.49 399.005 375 397.5C375.993 396.822 376.985 395.644 378.008 394.945C379.38 394.005 380.128 392.44 381.5 391.5C382.217 391.009 383.261 390.506 384 390C387.631 387.505 391.54 385.626 395.109 383.043C395.745 382.583 396.38 382.124 397.035 381.65C398.245 380.77 399.453 379.887 400.657 378.999C404.782 376 404.782 376 407 376Z" fill="#33CBCA"/>
<path d="M303.25 110.749C304.084 110.729 304.918 110.708 305.778 110.687C311.29 110.652 315.151 111.311 320 113.999C322.672 118.006 322.827 121.288 322 125.999C319.471 129.281 317.923 130.692 314 131.999C310.38 132.28 306.755 132.277 303.125 132.312C301.634 132.355 301.634 132.355 300.114 132.4C292.772 132.464 292.772 132.464 288.891 130.128C285.931 126.795 284.97 124.471 285.063 119.999C286.248 116.207 287.973 114.522 291 111.999C295.107 110.63 298.948 110.775 303.25 110.749Z" fill="#33CBCA"/>
<path d="M318.999 376C324.843 380.125 330.055 384.703 335.254 389.597C338.735 392.869 342.301 395.974 345.999 399C345.578 401.316 345.137 403.627 344.687 405.938C344.443 407.225 344.199 408.513 343.948 409.84C343.635 410.883 343.322 411.926 342.999 413C339.41 414.196 338.587 413.722 335.147 412.383C334.214 412.023 333.281 411.664 332.319 411.293C331.347 410.908 330.375 410.522 329.374 410.125C328.394 409.747 327.415 409.37 326.405 408.98C319.159 406.16 319.159 406.16 317.999 405C317.46 395.347 318.307 385.628 318.999 376Z" fill="#33CBCA"/>
<path d="M336 385C336.625 387.062 336.625 387.062 337 389C334 389 334 389 331.812 387C331.214 386.34 330.616 385.68 330 385C333.75 383.875 333.75 383.875 336 385Z" fill="black"/>
</g>
<defs>
<clipPath id="clip0_150_1164">
<rect width="640" height="640" fill="white"/>
</clipPath>
</defs>
</svg>
