<svg width="640" height="640" viewBox="0 0 640 640" fill="none" xmlns="http://www.w3.org/2000/svg">
<g clip-path="url(#clip0_150_1188)">
<path d="M423.875 104.813C425.273 105.846 426.649 106.908 428 108.001C428.614 108.479 429.228 108.957 429.86 109.45C436.484 115.268 441.903 125.238 443 134.001C444.05 151.022 442.293 166.875 431 180.395C425.837 185.955 420.072 190.161 413 193.001C411.68 193.001 410.36 193.001 409 193.001C409.433 194.095 409.433 194.095 409.875 195.212C414.485 208.177 414.288 221.674 411 235.001C413.458 235.732 415.916 236.461 418.375 237.188C419.513 237.526 419.513 237.526 420.674 237.87C425.493 239.29 430.326 240.638 435.179 241.937C457.337 247.915 457.337 247.915 463.321 258.29C466.441 265.163 467.422 272.166 465.27 279.485C461.701 288.166 456.384 293.06 448 297.001C437 300.668 423.405 296.768 412.25 295.001C410.378 294.711 408.506 294.422 406.633 294.134C402.087 293.432 397.543 292.72 393 292.001C392.299 294.226 391.615 296.456 390.938 298.688C390.555 299.93 390.172 301.171 389.778 302.45C388.378 308.841 390.929 313.574 393.403 319.384C393.752 320.215 394.102 321.046 394.462 321.902C395.22 323.702 395.98 325.502 396.741 327.301C397.951 330.157 399.155 333.016 400.357 335.875C403.74 343.919 407.136 351.957 410.535 359.994C412.576 364.822 414.612 369.653 416.646 374.484C417.784 377.182 418.928 379.877 420.072 382.572C434.357 416.388 434.357 416.388 429.375 434.751C426.659 445.153 424.299 455.598 422.094 466.119C421.863 467.218 421.632 468.318 421.395 469.45C421.17 470.524 420.945 471.599 420.714 472.705C419.734 477.232 418.653 481.734 417.558 486.235C416.869 489.184 416.869 489.184 417 493.001C418.135 493.517 419.269 494.032 420.438 494.563C432.355 500.606 440.169 509.589 444.344 522.329C445.668 527.72 445.749 532.053 443.75 537.251C443.173 538.158 442.595 539.066 442 540.001C441.485 540.847 440.969 541.692 440.438 542.563C434.62 548.381 427.743 550.563 419.653 550.67C418.17 550.65 418.17 550.65 416.657 550.63C415.607 550.632 414.557 550.635 413.476 550.637C411.27 550.636 409.065 550.623 406.86 550.598C403.509 550.563 400.16 550.577 396.809 550.597C394.654 550.59 392.499 550.58 390.344 550.567C389.355 550.572 388.366 550.577 387.348 550.582C378.694 550.438 370.712 548.264 364.188 542.313C363.157 541.41 363.157 541.41 362.106 540.489C356.615 534 354.036 526.885 352.188 518.688C351.972 517.828 351.756 516.967 351.534 516.081C348.758 504.212 350.184 493.187 352.454 481.381C352.878 479.176 353.286 476.969 353.692 474.761C354.875 468.414 356.152 462.189 358 456.001C357.37 456.103 356.739 456.204 356.09 456.309C355.191 456.454 354.293 456.599 353.368 456.748C352.349 456.912 351.33 457.076 350.28 457.245C347.976 457.617 345.672 457.987 343.368 458.358C336.996 459.382 330.626 460.412 324.258 461.452C302.253 465.035 302.253 465.035 291.508 466.36C290.041 466.551 288.573 466.742 287.106 466.934C284.543 467.268 281.993 467.549 279.418 467.8C271.308 468.862 267.583 471.572 262.158 477.642C259.497 480.551 257.319 481.902 253.75 483.501C252.796 483.944 251.843 484.388 250.86 484.845C241.856 488.486 231.866 489.975 222.325 487.231C216.906 484.254 212.937 478.795 211 473.001C210.074 464.987 211.729 458.442 214.563 451.001C214.925 450.012 215.287 449.023 215.66 448.004C216.403 445.979 217.153 443.957 217.91 441.937C218.933 439.181 219.915 436.415 220.879 433.638C229.108 410.123 229.108 410.123 241 404.001C248.001 400.668 256.177 400.772 263.489 403.122C265.604 404 267.701 404.923 269.77 405.907C278.978 409.025 288.431 405.814 297.563 403.688C300.292 403.063 303.023 402.443 305.754 401.825C306.759 401.597 306.759 401.597 307.785 401.363C315.152 399.707 322.57 398.34 330 397.001C330.228 394.788 330.228 394.788 328.129 393.005C327.282 392.199 326.435 391.393 325.563 390.563C310.798 376.028 298.026 357.605 297.832 336.052C297.82 334.139 297.814 332.226 297.813 330.313C297.801 329.37 297.788 328.427 297.776 327.456C297.764 321.832 298.272 316.697 299.582 311.224C300.857 304.454 298.58 298.443 296.168 292.2C294.536 287.728 293.23 283.179 291.938 278.599C290.933 275.064 289.883 271.595 288.571 268.161C283.489 254.534 281.98 237.354 287.688 223.681C288.121 222.796 288.554 221.912 289 221.001C289.475 219.952 289.949 218.902 290.438 217.821C294.68 209.154 300.278 202.762 307 196.001C307.727 195.248 308.454 194.495 309.203 193.72C312.928 189.907 316.823 186.378 320.875 182.919C323.333 180.701 325.587 178.331 327.875 175.938C333.366 170.372 340.505 164.2 348.7 163.903C349.686 163.915 350.672 163.926 351.688 163.938C352.682 163.947 353.676 163.956 354.7 163.966C355.459 163.977 356.218 163.989 357 164.001C356.67 163.135 356.34 162.268 356 161.376C352.61 149.203 354.939 133.002 360.188 121.563C366.321 110.717 376.297 101.907 388.438 98.4384C400.853 96.3187 413.155 98.0589 423.875 104.813Z" fill="black"/>
<path d="M349.999 311C352.765 311.348 352.765 311.348 355.999 312C357.484 312.056 357.484 312.056 358.999 312.113C362.317 312.334 364.887 312.812 367.999 314C369.628 316.153 369.628 316.153 370.894 318.973C371.39 320.058 371.886 321.143 372.396 322.261C372.933 323.507 373.467 324.753 373.999 326C374.289 326.666 374.579 327.333 374.878 328.02C377.202 333.366 379.448 338.743 381.687 344.125C382.396 345.823 383.106 347.52 383.816 349.217C384.881 351.763 385.946 354.309 387.01 356.856C389.51 362.843 392.043 368.815 394.591 374.781C398.524 384.005 402.389 393.257 406.124 402.562C406.693 403.946 406.693 403.946 407.273 405.357C407.618 406.231 407.964 407.104 408.32 408.004C408.772 409.13 408.772 409.13 409.234 410.28C411.386 417.929 410.921 424.29 409.085 431.949C408.874 432.883 408.662 433.817 408.444 434.779C407.768 437.752 407.072 440.72 406.374 443.688C405.929 445.628 405.485 447.569 405.042 449.51C404.158 453.38 403.263 457.248 402.362 461.115C401.416 465.181 400.491 469.252 399.582 473.327C399.355 474.345 399.127 475.363 398.892 476.411C398.456 478.365 398.022 480.32 397.592 482.276C397.397 483.145 397.202 484.014 397.002 484.909C396.832 485.677 396.662 486.446 396.487 487.237C395.999 489 395.999 489 394.999 490C393.365 490.087 391.726 490.107 390.089 490.098C389.1 490.094 388.111 490.091 387.091 490.088C386.05 490.08 385.009 490.071 383.937 490.062C382.892 490.058 381.847 490.053 380.771 490.049C378.18 490.037 375.59 490.02 372.999 490C373.509 482.141 374.5 474.571 376.101 466.863C376.513 464.802 376.924 462.74 377.335 460.678C377.98 457.484 378.629 454.292 379.285 451.1C379.923 447.982 380.544 444.86 381.164 441.738C381.362 440.794 381.561 439.85 381.766 438.878C383.004 432.573 384.045 425.681 380.792 419.828C380.263 419.307 379.733 418.787 379.187 418.25C378.555 417.599 377.924 416.948 377.273 416.277C376.148 415.15 376.148 415.15 374.999 414C373.606 412.492 372.213 410.983 370.827 409.468C369.283 407.781 367.73 406.102 366.175 404.426C363.111 401.122 360.055 397.812 356.999 394.5C353.467 390.672 349.933 386.846 346.396 383.023C344.892 381.394 343.391 379.761 341.89 378.129C340.022 376.099 338.137 374.087 336.234 372.09C324.381 359.474 318.776 347.944 318.937 330.625C318.941 329.698 318.946 328.771 318.951 327.816C318.962 325.544 318.979 323.272 318.999 321C320.038 321.058 321.077 321.116 322.148 321.176C330.821 321.514 337.713 321.353 344.999 316C345.907 315.051 346.814 314.103 347.749 313.125C348.492 312.424 349.234 311.723 349.999 311Z" fill="#33CBCA"/>
<path d="M398 383C399.532 386.734 401.062 390.47 402.59 394.206C403.109 395.475 403.629 396.743 404.149 398.012C404.901 399.843 405.65 401.675 406.398 403.508C406.849 404.608 407.299 405.707 407.763 406.84C412.751 419.583 409.187 430.535 406.312 443.5C405.952 445.143 405.592 446.786 405.232 448.429C404.165 453.288 403.085 458.145 402 463C401.84 463.716 401.68 464.432 401.516 465.17C400.542 469.532 399.556 473.892 398.562 478.25C398.193 479.881 398.193 479.881 397.816 481.545C397.589 482.525 397.362 483.506 397.129 484.516C396.934 485.364 396.738 486.213 396.537 487.087C396 489 396 489 395 490C393.365 490.087 391.727 490.107 390.09 490.098C389.1 490.094 388.111 490.091 387.092 490.088C386.051 490.08 385.01 490.071 383.938 490.062C382.893 490.058 381.848 490.053 380.771 490.049C378.181 490.037 375.591 490.02 373 490C373.51 482.141 374.5 474.571 376.102 466.863C376.513 464.802 376.925 462.74 377.336 460.678C377.981 457.484 378.629 454.292 379.285 451.1C379.923 447.982 380.545 444.86 381.164 441.738C381.363 440.794 381.562 439.85 381.767 438.878C383.009 432.552 384.054 425.65 380.758 419.793C380.219 419.263 379.68 418.733 379.125 418.188C378.508 417.552 377.89 416.916 377.254 416.262C376.51 415.515 375.766 414.769 375 414C373.515 412.398 372.045 410.782 370.576 409.165C368.396 406.766 366.197 404.384 364 402C369.068 397.768 374.619 394.568 380.321 391.29C382.131 390.246 383.935 389.192 385.738 388.137C386.879 387.478 388.02 386.819 389.195 386.141C390.237 385.538 391.279 384.935 392.352 384.313C395 383 395 383 398 383Z" fill="white"/>
<path d="M360.001 185.001C362.937 187.562 364.616 189.157 365.411 192.965C365.621 197.727 364.444 200.855 362.001 205.001C359.68 207.317 359.68 207.317 356.876 209.563C356.111 210.183 356.111 210.183 355.331 210.816C352.137 213.382 348.877 215.858 345.606 218.325C344.478 219.177 344.478 219.177 343.327 220.047C341.85 221.159 340.367 222.263 338.877 223.358C334.611 226.55 330.937 229.518 328.001 234.001C327.611 239.567 328.5 244.776 329.497 250.223C329.65 251.087 329.803 251.951 329.96 252.841C330.447 255.582 330.943 258.323 331.438 261.063C331.768 262.907 332.096 264.752 332.425 266.596C333.028 269.984 333.635 273.372 334.245 276.759C337.259 293.585 337.259 293.585 334.438 299.001C331.202 301.656 329.171 302.074 325.001 302.001C320.42 299.161 319.059 296.467 317.501 291.391C317.299 290.752 317.097 290.112 316.89 289.453C316.243 287.391 315.621 285.321 315.001 283.251C314.563 281.83 314.125 280.409 313.685 278.989C312.829 276.222 311.981 273.451 311.138 270.679C310.222 267.716 309.265 264.781 308.243 261.852C304.389 250.76 303.044 240.739 307.704 229.665C314.449 215.81 325.53 205.359 337.239 195.555C339.329 193.711 341.208 191.711 343.126 189.688C348.275 184.509 352.782 182.9 360.001 185.001Z" fill="white"/>
<path d="M386 198C389.834 201.731 392.711 204.803 393.214 210.373C393.284 217.165 392.307 223.007 390.375 229.5C390.105 230.445 389.836 231.39 389.559 232.363C387.306 240.184 384.858 247.944 382.367 255.691C380.825 260.504 379.443 265.357 378.078 270.223C375.808 278.175 373.39 286.084 371 294C368.686 293.693 366.374 293.379 364.062 293.062C362.774 292.888 361.487 292.714 360.16 292.535C357 292 357 292 356 291C355.704 289.693 355.462 288.373 355.243 287.05C355.103 286.212 354.963 285.374 354.819 284.51C354.671 283.597 354.523 282.683 354.371 281.742C354.217 280.806 354.063 279.869 353.904 278.905C353.578 276.916 353.255 274.927 352.933 272.938C352.442 269.908 351.941 266.88 351.439 263.852C351.124 261.919 350.809 259.987 350.496 258.055C350.346 257.153 350.196 256.252 350.041 255.323C349.274 250.519 348.61 245.879 349 241C350.891 238.83 352.432 237.38 354.687 235.688C355.559 234.989 355.559 234.989 356.449 234.276C359.428 231.907 362.479 229.639 365.546 227.387C376.751 219.127 381.397 211.176 386 198Z" fill="#33CBCA"/>
<path d="M409.539 119.884C414.954 123.041 420.003 128.009 422 134.001C423.132 158.896 423.132 158.896 415 168.001C409.219 172.895 404.027 174.809 396.465 174.321C389.947 173.474 384.556 170.778 380 166.001C376.345 160.491 375.368 155.656 375.562 149.126C375.577 148.337 375.592 147.548 375.607 146.736C375.885 138.131 377.159 130.828 383.363 124.473C390.646 117.921 400.129 116.612 409.539 119.884Z" fill="white"/>
<path d="M351.027 416.469C351.658 417.139 352.288 417.809 352.938 418.5C353.617 419.222 354.296 419.944 354.996 420.687C357.858 423.99 360.489 427.424 363 431C356.921 436.319 349.515 437.43 341.75 438.25C327.375 439.933 313.114 442.333 298.833 444.663C297.886 444.816 296.939 444.97 295.964 445.128C294.167 445.419 292.37 445.713 290.574 446.009C289.767 446.14 288.96 446.27 288.128 446.405C287.425 446.52 286.721 446.636 285.997 446.754C284 447 284 447 280 447C282.233 432.795 282.233 432.795 286 427C291.058 424.309 296.186 423.679 301.812 422.937C303.345 422.689 304.877 422.433 306.407 422.172C309.477 421.653 312.55 421.164 315.629 420.698C321.746 419.752 327.772 418.406 333.812 417.062C335.693 416.651 337.574 416.246 339.457 415.848C340.22 415.683 340.983 415.518 341.769 415.348C348.114 414.358 348.114 414.358 351.027 416.469Z" fill="white"/>
<path d="M282.734 110.797C283.605 110.791 284.476 110.786 285.373 110.78C287.219 110.77 289.065 110.764 290.911 110.76C293.725 110.75 296.538 110.719 299.351 110.688C301.146 110.681 302.94 110.676 304.734 110.672C305.572 110.66 306.41 110.647 307.273 110.635C312.25 110.654 315.711 111.192 320 114C322.485 117.728 322.401 120.689 322 125C321.141 128.177 320.294 128.816 317.484 130.576C313.129 132.356 309.53 132.468 304.875 132.469C304.01 132.477 303.145 132.484 302.253 132.492C300.431 132.503 298.609 132.506 296.787 132.501C294.008 132.5 291.232 132.542 288.453 132.586C286.677 132.591 284.901 132.594 283.125 132.594C282.3 132.61 281.474 132.627 280.624 132.644C276.446 132.594 273.799 132.263 270.492 129.588C267.092 126.058 266.605 123.978 266.64 119.039C267.243 115.62 269.368 114.068 272 112C275.332 110.334 279.07 110.816 282.734 110.797Z" fill="#33CBCA"/>
<path d="M372 510.999C376.677 510.9 381.354 510.827 386.032 510.78C387.62 510.76 389.207 510.732 390.795 510.698C401.07 510.478 409.681 510.39 417.812 517.437C418.534 518.282 419.256 519.128 420 519.999C420.763 520.845 421.526 521.691 422.312 522.562C424 524.999 424 524.999 424 528.999C417.986 529.123 411.973 529.214 405.958 529.274C403.913 529.299 401.869 529.333 399.824 529.377C396.88 529.437 393.937 529.466 390.992 529.488C390.083 529.513 389.173 529.539 388.236 529.566C383.889 529.568 380.926 529.417 377.453 526.645C374.823 523.808 373.952 522.052 373.125 518.312C372.901 517.359 372.676 516.407 372.445 515.425C372 512.999 372 512.999 372 510.999Z" fill="white"/>
<path d="M255.672 422.418C258.966 423.242 261.901 424.612 265 426C263.65 430.342 262.266 434.672 260.875 439C260.496 440.221 260.117 441.442 259.727 442.699C256.788 451.761 253.266 459.686 245 465C240.689 467.033 236.838 468.454 232 468C232.58 462.95 233.681 458.562 235.398 453.746C235.634 453.082 235.87 452.418 236.112 451.734C236.609 450.341 237.108 448.948 237.61 447.557C238.373 445.443 239.125 443.324 239.875 441.205C246.959 421.373 246.959 421.373 255.672 422.418Z" fill="white"/>
<path d="M398 383C399.171 385.79 400.337 388.582 401.5 391.375C401.834 392.169 402.168 392.963 402.512 393.781C402.828 394.542 403.143 395.302 403.469 396.086C403.762 396.788 404.055 397.489 404.357 398.212C405 400 405 400 405 402C401.251 404.127 397.501 406.251 393.75 408.375C392.687 408.978 391.623 409.582 390.527 410.203C389.503 410.783 388.478 411.363 387.422 411.961C386.479 412.495 385.537 413.029 384.565 413.58C382.407 414.775 380.207 415.896 378 417C373.38 412.05 368.76 407.1 364 402C369.189 397.849 374.587 394.587 380.321 391.29C382.131 390.246 383.935 389.192 385.738 388.137C386.879 387.478 388.02 386.819 389.195 386.141C390.237 385.538 391.279 384.935 392.352 384.313C395 383 395 383 398 383Z" fill="#33CBCA"/>
<path d="M403 255C410.068 256.542 417.101 258.205 424.125 259.938C425.17 260.19 426.216 260.442 427.293 260.701C441.118 264.118 441.118 264.118 445 268C445.25 271.5 445.25 271.5 445 275C442.472 277.528 441.635 277.298 438.125 277.312C428.983 277.169 419.998 275.498 411 274C409.682 273.785 408.365 273.57 407.047 273.355C404.363 272.913 401.681 272.463 399 272C399.619 267.952 400.457 264.067 401.562 260.125C401.832 259.158 402.101 258.191 402.379 257.195C402.584 256.471 402.789 255.746 403 255Z" fill="white"/>
<path d="M261.749 309.749C265.982 309.804 268.749 310.054 271.999 312.999C273.894 316.099 274.003 317.907 273.874 321.562C272.92 325.31 271.995 326.639 268.999 328.999C265.532 330.733 261.79 330.476 257.999 329.999C252.536 327.072 252.536 327.072 250.999 323.999C250.492 318.845 250.492 318.845 250.999 315.999C253.437 313.062 253.437 313.062 255.999 310.999C257.639 309.36 259.497 309.789 261.749 309.749Z" fill="#33CBCA"/>
<path d="M366 400C366.99 400.66 367.98 401.32 369 402C369 402.66 369 403.32 369 404C370.32 404 371.64 404 373 404C373 405.32 373 406.64 373 408C373.66 408.33 374.32 408.66 375 409C374.67 409.99 374.34 410.98 374 412C370.404 408.506 367.165 404.889 364 401C364.66 400.67 365.32 400.34 366 400Z" fill="#33CBCA"/>
<path d="M395 383C395.33 383.99 395.66 384.98 396 386C395.67 386.66 395.34 387.32 395 388C392.934 388.414 392.934 388.414 390.438 388.625C389.611 388.7 388.785 388.775 387.934 388.852C386.976 388.925 386.976 388.925 386 389C388.88 386.76 391.849 384.838 395 383Z" fill="#33CBCA"/>
<path d="M269 323C270.32 323.66 271.64 324.32 273 325C271.68 326.32 270.36 327.64 269 329C268.34 328.67 267.68 328.34 267 328C267.66 326.35 268.32 324.7 269 323Z" fill="#33CBCA"/>
<path d="M397 402C398.32 402 399.64 402 401 402C400.67 402.99 400.34 403.98 400 405C397.438 406.188 397.438 406.188 395 407C394.67 406.34 394.34 405.68 394 405C394.66 405 395.32 405 396 405C396.33 404.01 396.66 403.02 397 402Z" fill="#33CBCA"/>
</g>
<defs>
<clipPath id="clip0_150_1188">
<rect width="640" height="640" fill="white"/>
</clipPath>
</defs>
</svg>
