<svg width="640" height="640" viewBox="0 0 640 640" fill="none" xmlns="http://www.w3.org/2000/svg">
<g clip-path="url(#clip0_150_1274)">
<path d="M427.313 92.68C435.614 99.4389 442.02 109.138 443.218 119.968C443.341 122.109 443.38 124.231 443.375 126.375C443.373 127.151 443.372 127.927 443.37 128.726C443.055 143.983 439.026 158.132 428 169C422.588 173.884 416.851 176.614 410 179C410.217 179.502 410.433 180.003 410.656 180.52C415.863 194.669 413.381 210.008 409 224C408.754 224.801 408.508 225.602 408.254 226.427C406.987 230.535 405.694 234.634 404.367 238.723C401.305 246.725 401.305 246.725 401 255C402.91 257.144 404.71 258.903 406.875 260.75C407.464 261.275 408.053 261.801 408.66 262.342C411.366 264.746 414.113 267.095 416.879 269.43C423.593 275.191 430.487 282.336 431.203 291.637C431.331 299.932 429.969 305.673 426 313C427.053 313.39 427.053 313.39 428.127 313.787C431.251 315.106 434.054 316.687 436.973 318.414C437.536 318.748 438.1 319.081 438.681 319.424C439.873 320.13 441.064 320.838 442.254 321.548C444.03 322.606 445.811 323.657 447.592 324.707C482.863 345.596 482.863 345.596 489.309 364.852C492.566 379.686 487.881 393.545 483.461 407.61C482.792 409.767 482.122 411.925 481.453 414.082C480.411 417.429 479.367 420.776 478.319 424.121C477.298 427.386 476.285 430.654 475.273 433.922C474.96 434.915 474.646 435.908 474.323 436.931C472.665 442.304 471.364 447.376 471 453C472.094 454.817 472.094 454.817 474 455.813C481.839 461.602 486.915 471.591 489 481C489.718 488.362 490.227 496.57 486 503C482.018 507.603 477.009 510.829 471 512C465.293 512.314 460.689 511.602 455.25 509.813C448.755 507.781 442.241 506.032 435.625 504.438C411.563 498.482 411.563 498.482 404.332 487.457C400.517 480.052 399.61 472.397 401.709 464.247C402.672 461.527 403.725 458.86 404.813 456.188C408.806 445.546 410.625 435.442 411.692 424.166C412.159 419.363 412.72 414.571 413.266 409.777C413.863 404.52 414.433 399.26 415 394C414.078 393.778 413.156 393.555 412.205 393.325C404.479 391.438 396.801 389.421 389.152 387.239C388.317 387 387.482 386.762 386.622 386.517C383.184 385.533 379.747 384.546 376.312 383.556C373.76 382.821 371.206 382.092 368.652 381.364C367.886 381.141 367.119 380.918 366.329 380.688C361.889 379.425 357.585 378.546 353 378C352.634 378.815 352.267 379.629 351.889 380.469C344.77 396.214 337.622 411.59 328 426C327.214 427.188 327.214 427.188 326.411 428.4C318.86 439.773 311.192 451.068 303.554 462.383C293.237 477.664 293.237 477.664 283 493C283.866 493.99 284.733 494.98 285.625 496C286.755 497.33 287.879 498.663 289 500C289.789 500.938 289.789 500.938 290.594 501.895C298.074 511.264 301.144 522.082 300 534C297.978 541.809 293.473 546.341 286.688 550.375C272.865 553.59 261.848 546.027 250.117 539.723C246.69 537.884 243.24 536.106 239.758 534.371C238.908 533.942 238.059 533.513 237.183 533.071C235.568 532.257 233.947 531.453 232.319 530.664C225.794 527.338 220.865 522.869 218 516C217.587 512.845 217.668 509.68 217.688 506.5C217.692 505.601 217.696 504.702 217.7 503.776C217.818 496.787 218.861 490.657 221 484C221.264 483.117 221.528 482.234 221.8 481.324C224.348 473.129 227.976 465.744 232 458.188C232.672 456.91 233.343 455.632 234.013 454.353C235.363 451.78 236.718 449.21 238.077 446.641C239.807 443.37 241.522 440.091 243.231 436.809C243.725 435.858 244.22 434.908 244.73 433.929C245.7 432.062 246.67 430.195 247.639 428.328C250.102 423.594 252.601 418.884 255.164 414.203C268.249 390.125 275.362 363.893 280.789 337.106C283.213 325.51 287.345 314.868 292 304C292.302 303.294 292.603 302.588 292.914 301.861C293.607 300.24 294.303 298.62 295 297C294.319 296.835 293.639 296.67 292.938 296.5C286.829 293.381 282.515 287.288 280 281C276.737 267.709 277.813 252.724 277.659 239.098C277.637 237.426 277.606 235.754 277.565 234.083C277.103 213.887 284.262 198.92 298 184C304.153 178.111 311.789 173.893 318.987 169.414C323.198 166.792 327.315 164.13 331.313 161.188C339.017 155.7 347.312 150.397 357 151C356.677 150.173 356.353 149.345 356.02 148.492C354.893 144.634 354.655 141.108 354.688 137.125C354.693 136.387 354.699 135.649 354.705 134.888C354.994 121.404 357.299 108.759 366.375 98.2503C367.241 97.5078 368.108 96.7653 369 96.0003C369.895 95.1553 369.895 95.1553 370.809 94.2933C387.298 79.0257 409.526 79.7609 427.313 92.68Z" fill="black"/>
<path d="M327.703 291.734C333.007 292.344 338.248 293.239 343.5 294.186C345.296 294.481 345.296 294.481 347.129 294.781C354.009 296.02 358.705 297.365 364 301.998C363.431 306.851 361.908 310.826 359.789 315.178C359.465 315.859 359.141 316.54 358.808 317.241C358.114 318.698 357.417 320.154 356.716 321.608C355.238 324.678 353.775 327.755 352.312 330.832C351.576 332.38 350.838 333.927 350.1 335.474C347.11 341.746 344.191 348.049 341.312 354.373C337.558 362.6 333.785 370.818 329.982 379.023C329.154 380.81 328.328 382.598 327.501 384.386C326.988 385.493 326.474 386.6 325.945 387.74C325.497 388.708 325.048 389.676 324.586 390.673C324.063 391.771 323.539 392.868 323 393.998C322.642 394.755 322.283 395.513 321.914 396.293C319.035 402.236 315.749 407.678 312.012 413.115C311.153 414.381 311.153 414.381 310.277 415.672C308.419 418.41 306.553 421.141 304.688 423.873C302.741 426.738 300.796 429.604 298.852 432.471C297.531 434.419 296.209 436.366 294.886 438.312C288.263 448.066 281.718 457.87 275.188 467.686C274.146 469.25 273.105 470.814 272.063 472.379C269.708 475.918 267.353 479.458 265 482.998C260.56 481.59 257.023 479.94 253.125 477.373C252.158 476.742 251.191 476.11 250.195 475.459C249.471 474.977 248.746 474.495 248 473.998C249.818 469.117 252.163 464.521 254.5 459.873C254.945 458.986 255.39 458.098 255.849 457.184C258.377 452.162 260.939 447.159 263.563 442.186C264.374 440.65 265.178 439.11 265.978 437.568C268.273 433.164 270.665 428.858 273.215 424.596C282.112 409.234 287.327 393.498 292.25 376.498C292.576 375.371 292.903 374.245 293.239 373.084C294.177 369.819 295.101 366.551 296.016 363.279C296.289 362.306 296.562 361.333 296.844 360.33C298.379 354.72 299.606 349.127 300.58 343.392C303.263 328.098 309.337 314.413 317 300.998C317.507 300.067 318.013 299.137 318.535 298.178C319.019 297.355 319.502 296.533 320 295.686C320.412 294.968 320.825 294.25 321.25 293.51C323.413 291.642 324.898 291.578 327.703 291.734Z" fill="#33CBCA"/>
<path d="M381 316C381.883 316.494 382.766 316.987 383.676 317.496C391.754 321.943 391.754 321.943 400.73 323.578C407.013 323.794 411.117 326.404 416.312 329.75C418.231 330.937 420.151 332.123 422.07 333.309C423.045 333.919 424.02 334.53 425.024 335.16C428.919 337.568 432.875 339.862 436.837 342.157C465.855 359.011 465.855 359.011 469.47 370.82C471.642 379.758 468.574 387.928 465.914 396.406C465.492 397.781 465.071 399.156 464.65 400.531C463.772 403.394 462.886 406.255 461.992 409.113C460.846 412.782 459.718 416.456 458.596 420.133C457.731 422.964 456.857 425.792 455.981 428.62C455.562 429.975 455.145 431.331 454.73 432.687C454.152 434.573 453.562 436.456 452.971 438.338C452.638 439.41 452.305 440.482 451.962 441.587C451 444 451 444 449 445C447.121 444.746 447.121 444.746 444.867 444.223C444.062 444.039 443.256 443.855 442.426 443.666C441.163 443.367 441.163 443.367 439.875 443.062C439.026 442.867 438.176 442.672 437.301 442.471C435.199 441.987 433.099 441.494 431 441C431.931 427.155 433.016 413.387 435.034 399.652C436.846 389.599 436.846 389.599 434.312 380.188C429.8 377.208 425.217 375.961 420.031 374.553C416.593 373.617 413.162 372.658 409.73 371.703C404.093 370.135 398.454 368.572 392.814 367.015C389.666 366.146 386.519 365.276 383.371 364.405C381.762 363.961 380.153 363.517 378.543 363.073C376.174 362.421 373.806 361.765 371.438 361.109C370.717 360.911 369.996 360.714 369.254 360.51C364.228 359.114 364.228 359.114 362 358C363.546 352.942 365.64 348.297 367.914 343.539C368.289 342.748 368.663 341.958 369.049 341.143C370.238 338.636 371.431 336.13 372.625 333.625C373.435 331.918 374.245 330.211 375.055 328.504C377.033 324.334 379.015 320.167 381 316Z" fill="white"/>
<path d="M174.097 110.612C175.935 110.597 175.935 110.597 177.81 110.582C179.16 110.586 180.51 110.59 181.859 110.595C183.287 110.59 184.715 110.583 186.143 110.575C190.015 110.557 193.887 110.558 197.759 110.563C200.994 110.567 204.23 110.56 207.465 110.554C215.1 110.54 222.736 110.542 230.371 110.553C238.24 110.565 246.109 110.551 253.978 110.524C260.741 110.502 267.504 110.495 274.266 110.501C278.303 110.504 282.338 110.502 286.375 110.485C290.172 110.469 293.968 110.473 297.766 110.492C299.156 110.496 300.546 110.493 301.937 110.482C315.101 110.391 315.101 110.391 321 114.999C322.737 118.472 322.602 122.211 322 125.999C319.819 128.755 318.129 130.435 315 131.999C313.099 132.097 311.193 132.13 309.289 132.133C308.073 132.137 306.858 132.142 305.605 132.146C304.251 132.146 302.897 132.145 301.542 132.145C300.121 132.148 298.701 132.151 297.28 132.155C293.414 132.164 289.548 132.166 285.683 132.167C282.457 132.168 279.231 132.171 276.006 132.175C268.395 132.183 260.784 132.185 253.174 132.185C245.321 132.184 237.469 132.195 229.616 132.21C222.877 132.224 216.138 132.229 209.399 132.228C205.373 132.228 201.347 132.231 197.321 132.241C193.533 132.251 189.746 132.251 185.958 132.244C184.568 132.243 183.179 132.245 181.789 132.251C179.89 132.259 177.992 132.253 176.093 132.247C174.5 132.247 174.5 132.247 172.875 132.248C168.536 131.873 165.849 130.802 162.688 127.812C160.551 124.251 160.554 122.092 161 117.999C161.891 115.083 162.716 114.204 165.201 112.414C168.435 110.78 170.49 110.62 174.097 110.612Z" fill="#33CBCA"/>
<path d="M293 372C305.21 373.98 317.42 375.96 330 378C322.943 394.937 314.887 409.086 304.562 424.125C302.629 426.963 300.698 429.802 298.767 432.642C297.457 434.568 296.146 436.493 294.835 438.417C288.217 448.129 281.695 457.902 275.188 467.688C274.146 469.252 273.104 470.817 272.063 472.381C269.707 475.92 267.353 479.46 265 483C260.56 481.592 257.023 479.942 253.125 477.375C251.675 476.428 251.675 476.428 250.195 475.461C249.471 474.979 248.746 474.497 248 474C249.818 469.119 252.163 464.523 254.5 459.875C254.945 458.988 255.39 458.1 255.849 457.186C258.759 451.406 261.729 445.66 264.75 439.938C265.151 439.171 265.552 438.404 265.965 437.614C268.384 433 270.873 428.436 273.426 423.895C282.882 406.771 288.03 390.937 293 372Z" fill="white"/>
<path d="M373 184.001C376.556 186.106 377.694 187.085 379 191.001C380.154 200.015 376.25 206.707 372.25 214.501C371.607 215.78 370.967 217.06 370.328 218.341C369.397 220.204 368.467 222.066 367.532 223.927C365.836 227.307 364.153 230.69 362.558 234.118C362.254 234.769 361.951 235.42 361.638 236.09C360.377 239.863 360.614 243.307 362 247.001C364 249.76 366.385 251.834 369 254.001C370.23 255.083 371.459 256.167 372.687 257.251C373.351 257.823 374.015 258.396 374.699 258.985C377.507 261.446 380.254 263.971 383 266.501C386.3 269.54 389.609 272.563 393 275.501C396.52 278.56 399.986 281.676 403.437 284.814C404.237 285.535 404.237 285.535 405.052 286.271C408.703 289.604 409.872 290.876 410.437 295.876C410.414 298.025 410.414 298.025 410 300.001C407.268 302.542 405.349 303.8 401.644 304.353C397.954 303.862 396.245 302.231 393.375 299.876C392.228 298.955 391.079 298.035 389.929 297.118C389.305 296.618 388.681 296.117 388.038 295.602C384.264 292.638 380.374 289.831 376.5 287.001C369.827 282.104 363.175 277.189 356.664 272.079C355.105 270.863 353.524 269.672 351.898 268.548C346.07 264.286 341.747 256.975 340 250.001C338.871 240.463 340.884 232.848 344.437 224.064C345.111 222.33 345.111 222.33 345.799 220.561C346.725 218.192 347.662 215.827 348.609 213.466C349.939 210.153 351.236 206.829 352.527 203.501C353.307 201.521 354.09 199.542 354.875 197.564C355.231 196.653 355.587 195.742 355.954 194.804C359.601 185.843 362.977 182.363 373 184.001Z" fill="white"/>
<path d="M381 316C381.883 316.494 382.766 316.987 383.676 317.496C391.729 321.939 391.729 321.939 400.68 323.547C407.244 323.763 411.707 326.768 417.125 330.25C418.981 331.402 420.838 332.553 422.695 333.703C423.579 334.258 424.462 334.813 425.372 335.385C429.176 337.723 433.072 339.879 437 342C436.652 342.516 436.305 343.031 435.947 343.562C431.74 349.834 427.668 356.185 423.625 362.562C422.984 363.571 422.344 364.58 421.684 365.619C420.121 368.079 418.56 370.539 417 373C410.344 371.765 403.868 370.22 397.375 368.312C396.496 368.058 395.616 367.803 394.71 367.541C391.806 366.698 388.903 365.849 386 365C383.767 364.35 381.534 363.7 379.301 363.051C373.532 361.372 367.766 359.688 362 358C363.546 352.942 365.64 348.297 367.914 343.539C368.289 342.748 368.663 341.958 369.049 341.143C370.238 338.636 371.431 336.13 372.625 333.625C373.435 331.918 374.245 330.211 375.055 328.504C377.033 324.334 379.015 320.167 381 316Z" fill="#33CBCA"/>
<path d="M408.425 104.648C414.791 107.541 418.589 112.415 421.874 118.437C424.764 127.588 422.628 140.468 418.312 149.062C414.955 153.325 410.86 156.569 405.999 159C397.746 159.806 390.559 160.167 383.804 154.789C378.599 149.629 375.892 144.959 375.809 137.503C375.835 118.154 375.835 118.154 381.999 111C390.202 104.522 397.905 101.836 408.425 104.648Z" fill="white"/>
<path d="M221.316 309.407C222.606 309.407 223.895 309.407 225.223 309.406C227.944 309.408 230.665 309.427 233.385 309.458C236.865 309.498 240.343 309.502 243.822 309.495C247.154 309.491 250.485 309.512 253.816 309.532C255.062 309.532 256.308 309.532 257.592 309.532C258.753 309.548 259.915 309.564 261.112 309.58C262.64 309.593 262.64 309.593 264.199 309.606C268.088 310.154 270.885 311.632 273.375 314.688C274.339 318.254 274.024 321.464 273 325C271.106 327.383 269.7 328.65 267 330C265.148 330.112 263.292 330.16 261.436 330.177C259.689 330.197 259.689 330.197 257.906 330.216C256.009 330.227 256.009 330.227 254.074 330.239C252.779 330.247 251.484 330.255 250.15 330.263C247.406 330.278 244.661 330.288 241.916 330.296C238.406 330.307 234.895 330.341 231.385 330.381C228.031 330.413 224.678 330.418 221.324 330.426C219.437 330.452 219.437 330.452 217.511 330.479C216.336 330.476 215.162 330.473 213.952 330.47C212.921 330.476 211.89 330.482 210.828 330.488C207.26 329.873 205.589 328.478 203 326C201.87 323.74 201.702 322.203 201.562 319.688C201.502 318.929 201.441 318.169 201.379 317.387C202.145 314.443 203.503 312.947 205.865 311.07C210.601 308.698 216.142 309.338 221.316 309.407Z" fill="#33CBCA"/>
<path d="M425.001 461C437.382 461.535 452.621 463.128 462.001 472C466.374 476.807 468.882 481.785 469.126 488.375C469.085 489.241 469.043 490.108 469.001 491C460.946 490.435 453.598 488.352 445.876 486.062C444.64 485.702 443.403 485.342 442.13 484.971C439.769 484.282 437.409 483.59 435.051 482.895C432.623 482.183 430.192 481.492 427.755 480.816C423.438 479.537 423.438 479.537 422.001 477C421.373 470.827 422.574 466.664 425.001 461Z" fill="white"/>
<path d="M418 332C424.436 335.17 430.822 338.349 437 342C436.652 342.516 436.305 343.031 435.947 343.562C431.74 349.834 427.668 356.185 423.625 362.562C422.984 363.571 422.344 364.58 421.684 365.619C420.121 368.079 418.56 370.539 417 373C411.574 371.954 406.197 370.876 400.875 369.375C399.944 369.115 399.014 368.854 398.055 368.586C397.377 368.393 396.699 368.199 396 368C397.427 364.072 399.291 360.762 401.555 357.254C402.601 355.627 402.601 355.627 403.668 353.967C404.404 352.832 405.139 351.697 405.875 350.562C406.603 349.432 407.331 348.301 408.059 347.17C411.335 342.087 414.638 337.026 418 332Z" fill="#33CBCA"/>
<path d="M206.313 206.749C207.442 206.728 208.57 206.708 209.733 206.686C216.579 206.654 221.715 206.822 226.876 211.811C228.425 214.823 228.47 216.644 228.001 219.999C226.276 223.32 225.087 225.452 221.704 227.154C218.804 228.06 216.471 228.257 213.438 228.264C212.394 228.267 211.35 228.27 210.274 228.272C209.194 228.265 208.114 228.257 207.001 228.249C205.92 228.257 204.84 228.264 203.727 228.272C202.683 228.27 201.639 228.267 200.563 228.264C199.616 228.262 198.668 228.26 197.692 228.258C193.496 227.854 190.787 226.721 187.688 223.874C185.5 220.146 184.993 217.225 186.001 212.999C191.654 205.818 197.872 206.787 206.313 206.749Z" fill="#33CBCA"/>
<path d="M293 372C305.21 373.98 317.42 375.96 330 378C327.066 385.042 324.14 392.053 321 399C320.126 398.818 319.252 398.636 318.352 398.449C308.271 396.389 298.157 394.64 288 393C289 386 289 386 293 372Z" fill="#33CBCA"/>
<path d="M240 493C247.089 496.397 253.942 500.136 260.727 504.098C262.621 505.198 264.527 506.28 266.461 507.309C272.33 510.558 276.377 515.477 278.66 521.84C279.142 524.902 279.059 527.907 279 531C269.798 526.782 260.706 522.409 251.75 517.688C250.953 517.267 250.156 516.847 249.335 516.415C247.859 515.63 246.386 514.839 244.918 514.04C243.287 513.155 241.635 512.308 239.98 511.469C238 510 238 510 237.441 508.02C237.481 507.291 237.521 506.563 237.562 505.812C237.605 505.026 237.648 504.24 237.691 503.43C238.148 499.831 238.987 496.483 240 493Z" fill="white"/>
<path d="M312.001 199C312.331 199 312.661 199 313.001 199C312.387 206.109 311.401 213.095 310.188 220.125C309.829 222.245 309.47 224.365 309.11 226.484C308.835 228.1 308.835 228.1 308.554 229.748C307.669 234.955 306.804 240.165 305.938 245.375C305.609 247.352 305.28 249.328 304.95 251.305C304.792 252.253 304.634 253.202 304.471 254.179C303.314 261.119 302.158 268.06 301.001 275C298.123 272.122 298.529 269.125 298.376 265.25C298.34 264.437 298.304 263.625 298.267 262.788C297.981 255.318 297.837 247.843 297.771 240.369C297.751 238.411 297.719 236.454 297.686 234.497C297.636 220.261 302.336 209.493 312.001 199Z" fill="white"/>
<path d="M427 337C430.3 338.65 433.6 340.3 437 342C435.35 343.65 433.7 345.3 432 347C431.34 345.35 430.68 343.7 430 342C429.34 342 428.68 342 428 342C427.67 340.35 427.34 338.7 427 337Z" fill="#33CBCA"/>
<path d="M430 341C432.458 343.458 432.843 344.543 433 348C431.062 351.312 431.062 351.312 429 354C428.34 353.34 427.68 352.68 427 352C428 349 428 349 430 346C429.601 343.902 429.601 343.902 429 342C429.33 341.67 429.66 341.34 430 341Z" fill="#33CBCA"/>
<path d="M323 263C325.154 265.622 326.401 267.644 327 271C325.35 270.67 323.7 270.34 322 270C322.33 267.69 322.66 265.38 323 263Z" fill="#33CBCA"/>
<path d="M326 378C328.062 378.438 328.062 378.438 330 379C328.515 382.465 328.515 382.465 327 386C326.67 386 326.34 386 326 386C325.619 383.674 325.287 381.339 325 379C325.33 378.67 325.66 378.34 326 378Z" fill="#33CBCA"/>
<path d="M293 372C293.99 372.99 294.98 373.98 296 375C295.01 376.98 294.02 378.96 293 381C292.34 381 291.68 381 291 381C291.66 378.03 292.32 375.06 293 372Z" fill="#33CBCA"/>
<path d="M402 357C402.99 357.33 403.98 357.66 405 358C403.719 359.707 402.382 361.374 401 363C400.34 363 399.68 363 399 363C400.875 358.125 400.875 358.125 402 357Z" fill="#33CBCA"/>
</g>
<defs>
<clipPath id="clip0_150_1274">
<rect width="640" height="640" fill="white"/>
</clipPath>
</defs>
</svg>
