<svg width="640" height="640" viewBox="0 0 640 640" fill="none" xmlns="http://www.w3.org/2000/svg">
<g clip-path="url(#clip0_150_1297)">
<path d="M398.251 76.6888C399.38 76.6972 399.38 76.6972 400.532 76.7058C412.578 76.9676 422.404 81.4815 431.251 89.6888C440.177 99.1032 443.537 109.846 443.247 122.568C442.53 138.693 438.792 152.487 426.661 163.868C421.293 168.172 415.775 170.838 409.001 172.001C409.29 172.754 409.578 173.507 409.876 174.283C416.145 192.219 412.067 206.561 406.757 224.187C405.971 227.11 405.451 230.01 405.001 233.001C406.202 233.582 406.202 233.582 407.428 234.175C410.446 235.641 413.459 237.117 416.469 238.598C417.764 239.233 419.061 239.864 420.359 240.492C441.045 250.496 441.045 250.496 446.001 261.001C446.354 261.572 446.707 262.143 447.071 262.732C449.593 268.887 448.903 277.646 447.196 283.993C444.259 290.496 439.484 294.606 434.001 299.001C433.341 299.661 432.681 300.321 432.001 301.001C433.023 301.419 434.046 301.837 435.099 302.267C438.958 303.846 442.813 305.434 446.668 307.025C448.324 307.708 449.981 308.387 451.639 309.064C471.813 317.306 489.821 324.756 499.001 346.001C503.64 357.306 500.832 371.368 499.251 383.064C499.071 384.443 498.891 385.821 498.713 387.2C498.156 391.469 497.58 395.735 497.001 400.001C496.856 401.067 496.856 401.067 496.709 402.155C495.497 411.107 494.262 420.056 493.001 429.001C493.603 429.394 494.204 429.786 494.824 430.191C506.069 437.591 514.701 446.427 517.673 460.091C519.21 473.725 519.21 473.725 515.337 479.439C511.257 484.21 506.602 488.548 500.104 489.188C497.69 489.276 495.29 489.277 492.876 489.251C491.949 489.244 491.023 489.238 490.069 489.231C481.366 489.111 472.667 488.783 463.974 488.362C462.419 488.289 460.864 488.221 459.309 488.159C443.989 487.526 443.989 487.526 437.001 483.001C436.135 482.465 435.268 481.929 434.376 481.376C428.172 475.172 424.904 468.132 424.688 459.439C424.708 453.542 425.687 448.211 427.001 442.501C428.745 434.812 429.452 427.909 429.001 420.001C428.92 418.293 428.84 416.585 428.762 414.876C428.632 412.029 428.5 409.182 428.36 406.335C427.969 398.214 427.918 390.13 428.001 382.001C427.013 381.886 426.025 381.771 425.007 381.652C414.343 380.403 403.683 379.123 393.025 377.824C390.371 377.501 387.717 377.179 385.063 376.857C383.321 376.645 381.579 376.432 379.837 376.22C378.994 376.117 378.151 376.015 377.283 375.909C373.385 375.431 369.49 374.938 365.599 374.4C364.92 374.306 364.241 374.212 363.541 374.116C361.744 373.865 359.948 373.608 358.152 373.351C353.579 372.821 353.579 372.821 349.001 373.001C347.185 374.71 347.185 374.71 345.985 377.197C345.466 378.125 344.946 379.054 344.411 380.011C343.863 381.039 343.315 382.067 342.751 383.126C341.52 385.331 340.287 387.534 339.052 389.736C338.729 390.318 338.406 390.9 338.073 391.5C334.17 398.543 330.072 405.467 325.938 412.376C325.555 413.018 325.172 413.659 324.778 414.32C318.817 424.275 312.421 433.773 305.446 443.048C303.066 446.265 300.815 449.568 298.563 452.876C294.349 459.047 290.095 465.189 285.813 471.314C285.22 472.166 284.626 473.019 284.014 473.897C281.502 477.494 278.983 481.07 276.298 484.54C275.56 485.497 274.823 486.453 274.063 487.439C273.122 488.612 273.122 488.612 272.161 489.81C270.781 491.962 270.781 491.962 271.134 494.533C272.049 497.138 273.146 498.873 274.813 501.064C281.948 511.447 283.508 522.623 281.251 534.876C279.643 541.092 276.332 545.447 271.001 549.001C265.596 551.575 259.863 551.866 254.001 551.001C250.261 549.56 247.235 547.346 244.001 545.001C242.657 544.044 241.313 543.087 239.97 542.13C236.888 539.925 233.824 537.697 230.766 535.458C227.619 533.16 224.446 530.91 221.235 528.7C220.471 528.173 219.708 527.645 218.921 527.101C217.476 526.106 216.026 525.117 214.571 524.136C208.504 519.94 203.619 515.504 202.001 508.001C199.748 484.722 215.801 462.256 227.067 443.284C231.177 436.306 235.166 429.257 239.172 422.219C242.168 416.958 245.167 411.7 248.223 406.474C256.109 392.951 263.178 379.088 270.001 365.001C270.479 364.03 270.956 363.058 271.449 362.057C277.211 350.294 281.431 338.82 284.645 326.126C288.053 312.82 293.366 297.453 301.001 286.001C299.659 286.106 299.659 286.106 298.29 286.212C288.374 286.656 282.538 285.035 275.196 278.361C267.743 270.425 266.635 262.745 266.923 252.158C267.159 245.62 267.587 239.095 268.063 232.569C268.251 229.94 268.417 227.31 268.583 224.679C270.124 202.266 277.952 185.177 295.004 170.247C300.579 165.686 306.398 162.588 312.938 159.626C314.968 158.684 316.996 157.74 319.024 156.794C320.027 156.329 321.029 155.864 322.062 155.386C327.178 152.976 332.213 150.406 337.241 147.818C343.575 144.598 348.759 142.712 356.001 143.001C355.84 142.31 355.678 141.619 355.512 140.908C352.982 126.538 355.013 108.15 363.188 95.8138C371.794 84.3032 383.614 76.5743 398.251 76.6888Z" fill="black"/>
<path d="M324 285C330.98 285.957 337.892 287.232 344.815 288.529C346.994 288.936 349.172 289.338 351.352 289.74C352.755 290.002 354.159 290.265 355.562 290.527C357.452 290.879 357.452 290.879 359.379 291.238C362.994 291.999 366.464 292.942 370 294C368.576 297.81 366.821 301.244 364.797 304.77C363.832 306.455 363.832 306.455 362.847 308.174C362.148 309.387 361.449 310.6 360.75 311.812C360.025 313.075 359.301 314.337 358.576 315.599C353.5 324.436 348.377 333.246 343.23 342.042C338.873 349.49 334.556 356.96 330.25 364.438C324.552 374.323 318.841 384.198 313 394C312.206 395.34 312.206 395.34 311.396 396.707C304.898 407.644 298.313 418.336 290.633 428.484C287.867 432.141 285.268 435.899 282.688 439.688C278.459 445.885 274.183 452.046 269.875 458.188C264.556 465.773 259.26 473.374 254 481C249.459 479.534 246.237 476.955 242.688 473.875C242.138 473.407 241.588 472.939 241.021 472.457C239.676 471.31 238.337 470.156 237 469C238.345 465.456 239.912 462.192 241.766 458.887C242.319 457.898 242.872 456.909 243.442 455.891C244.039 454.834 244.635 453.777 245.25 452.688C246.18 451.033 246.18 451.033 247.128 449.345C251.433 441.71 255.819 434.125 260.25 426.562C269.281 411.127 277.772 395.699 285.387 379.508C287.327 375.388 289.337 371.313 291.41 367.26C296.022 358.238 299.371 349.311 302.104 339.564C307.507 320.292 315.147 302.954 324 285Z" fill="#33CBCA"/>
<path d="M387 305C393.123 306.943 399.032 309.181 404.926 311.73C405.753 312.085 406.581 312.439 407.434 312.804C410.062 313.928 412.687 315.057 415.312 316.188C418.745 317.663 422.178 319.136 425.613 320.605C426.464 320.97 427.314 321.334 428.191 321.709C435.149 324.672 442.159 327.498 449.205 330.247C461.503 335.084 471.497 339.745 479 351C482.322 363.655 479.238 377.935 477.546 390.642C477.124 393.822 476.715 397.004 476.309 400.186C476.042 402.234 475.776 404.283 475.508 406.332C475.387 407.27 475.266 408.207 475.141 409.174C474.961 410.516 474.961 410.516 474.778 411.886C474.676 412.659 474.574 413.431 474.468 414.228C473.801 418.181 472.87 422.086 472 426C464.74 426 457.48 426 450 426C449.955 424.396 449.91 422.791 449.864 421.138C449.694 415.178 449.505 409.218 449.31 403.258C449.229 400.68 449.152 398.102 449.081 395.524C448.977 391.815 448.856 388.107 448.73 384.398C448.702 383.248 448.674 382.098 448.645 380.913C448.396 374.17 447.994 368.994 443 364C440.682 363.409 440.682 363.409 437.942 363.062C436.354 362.829 436.354 362.829 434.734 362.593C433.578 362.433 432.422 362.274 431.23 362.109C430.029 361.938 428.827 361.766 427.589 361.59C413.85 359.652 400.083 357.941 386.312 356.25C383.738 355.931 381.163 355.612 378.588 355.293C372.392 354.525 366.196 353.761 360 353C362.625 347.674 365.252 342.383 368.27 337.266C368.845 336.285 369.42 335.305 370.013 334.295C370.904 332.788 370.904 332.788 371.812 331.25C373.051 329.141 374.29 327.032 375.527 324.922C376.121 323.911 376.716 322.899 377.328 321.857C380.6 316.266 383.805 310.636 387 305Z" fill="white"/>
<path d="M148.964 110.733C149.665 110.728 150.365 110.723 151.087 110.719C153.436 110.706 155.784 110.708 158.132 110.709C159.816 110.703 161.5 110.697 163.183 110.689C167.758 110.671 172.332 110.667 176.907 110.665C180.726 110.664 184.546 110.656 188.365 110.649C197.378 110.633 206.391 110.628 215.404 110.629C224.698 110.631 233.992 110.609 243.286 110.578C251.268 110.552 259.249 110.541 267.23 110.542C271.996 110.543 276.762 110.537 281.528 110.516C286.013 110.497 290.496 110.496 294.98 110.511C296.624 110.513 298.267 110.508 299.911 110.496C302.159 110.481 304.407 110.49 306.655 110.505C307.912 110.504 309.169 110.503 310.464 110.502C314.913 111.129 317.288 112.495 321 115C322.736 118.473 322.602 122.212 322 126C319.818 128.756 318.128 130.436 315 132C312.746 132.103 310.489 132.14 308.232 132.147C307.176 132.153 307.176 132.153 306.099 132.158C303.728 132.169 301.358 132.173 298.987 132.177C297.292 132.183 295.597 132.19 293.902 132.197C289.289 132.214 284.675 132.225 280.061 132.233C277.18 132.238 274.298 132.244 271.416 132.251C262.404 132.27 253.391 132.284 244.378 132.292C233.969 132.302 223.56 132.328 213.151 132.369C205.109 132.399 197.068 132.414 189.026 132.417C184.221 132.419 179.417 132.428 174.612 132.453C170.091 132.477 165.571 132.481 161.05 132.471C159.391 132.47 157.733 132.477 156.074 132.49C153.808 132.508 151.542 132.501 149.276 132.488C148.008 132.49 146.741 132.492 145.435 132.495C141.351 131.906 139.189 130.572 136 128C134.123 124.672 133.431 121.792 134 118C138.102 111.701 141.651 110.752 148.964 110.733Z" fill="#33CBCA"/>
<path d="M290 370C290.495 370.99 290.495 370.99 291 372C293.648 372.628 293.648 372.628 296.863 373C298.659 373.248 298.659 373.248 300.49 373.5C301.752 373.665 303.013 373.83 304.312 374C306.789 374.327 309.264 374.66 311.738 375C312.842 375.144 313.946 375.289 315.083 375.438C317.758 375.953 319.663 376.638 322 378C310.947 397.978 298.959 416.829 285.79 435.465C282.89 439.573 280.008 443.693 277.125 447.812C276.563 448.615 276.001 449.418 275.422 450.244C268.258 460.48 261.129 470.74 254 481C249.512 479.343 246.274 476.986 242.688 473.875C242.138 473.407 241.588 472.939 241.021 472.457C239.676 471.31 238.337 470.156 237 469C238.345 465.456 239.912 462.192 241.766 458.887C242.596 457.404 242.596 457.404 243.442 455.891C244.337 454.305 244.337 454.305 245.25 452.688C246.18 451.033 246.18 451.033 247.128 449.345C251.433 441.71 255.819 434.125 260.25 426.562C269.888 410.089 278.841 393.582 286.922 376.28C287.919 374.171 288.948 372.082 290 370Z" fill="white"/>
<path d="M387 305C393.296 306.99 399.359 309.322 405.418 311.941C406.279 312.31 407.14 312.678 408.027 313.058C410.748 314.223 413.468 315.392 416.188 316.562C418.918 317.736 421.648 318.909 424.38 320.078C426.072 320.802 427.763 321.529 429.452 322.258C433.588 324.03 437.7 325.655 442 327C440.651 330.044 439.295 333.085 437.938 336.125C437.567 336.962 437.196 337.798 436.814 338.66C433.432 346.221 429.742 353.613 426 361C423.33 360.676 420.66 360.353 417.991 360.029C417.313 359.947 416.635 359.865 415.937 359.78C415.224 359.694 414.512 359.607 413.777 359.518C413.046 359.43 412.315 359.341 411.562 359.25C408.555 358.885 405.547 358.521 402.539 358.156C401.762 358.062 400.985 357.968 400.184 357.871C393.839 357.102 387.495 356.333 381.15 355.564C380.4 355.473 379.65 355.382 378.877 355.288C375.939 354.932 373.001 354.576 370.063 354.22C369.385 354.138 368.707 354.055 368.009 353.971C366.175 353.748 364.34 353.526 362.506 353.304C361.679 353.203 360.852 353.103 360 353C363.594 345.535 367.599 338.381 371.812 331.25C373.051 329.141 374.29 327.032 375.527 324.922C376.121 323.911 376.716 322.899 377.328 321.857C380.6 316.266 383.805 310.636 387 305Z" fill="#33CBCA"/>
<path d="M381.75 176.189C384.463 178.375 385.721 179.734 387 183.001C386.982 189.273 385.247 194.92 383.058 200.728C382.469 202.353 381.88 203.978 381.291 205.603C380.363 208.123 379.432 210.642 378.499 213.16C377.593 215.617 376.7 218.078 375.808 220.541C375.527 221.285 375.246 222.03 374.956 222.798C373.063 228.036 371.971 232.785 373.728 238.279C375.355 240.482 376.902 241.331 379.347 242.56C380.251 243.022 381.155 243.484 382.086 243.96C383.068 244.448 384.05 244.936 385.062 245.439C386.073 245.955 387.083 246.47 388.124 247.002C391.411 248.679 394.705 250.341 398 252.001C402.548 254.301 407.088 256.616 411.625 258.939C412.684 259.47 413.744 260.001 414.836 260.548C424.396 265.441 424.396 265.441 428 270.001C428.712 273.801 428.312 275.439 426.437 278.814C423.213 281.708 421.308 281.812 417 282.001C414.21 281.088 411.835 280.15 409.222 278.88C408.493 278.543 407.764 278.205 407.013 277.857C404.688 276.776 402.376 275.67 400.062 274.564C398.544 273.855 397.025 273.147 395.506 272.441C391.735 270.681 387.982 268.889 384.235 267.079C382.735 266.356 381.233 265.638 379.729 264.924C377.542 263.886 375.362 262.834 373.183 261.779C372.532 261.472 371.88 261.166 371.209 260.85C365.494 258.044 361.526 254.302 358.25 248.876C357.842 248.214 357.435 247.551 357.015 246.869C350.546 234.976 356.675 217.337 359.337 205.139C359.97 202.14 360.54 199.139 361.082 196.123C361.248 195.213 361.415 194.304 361.587 193.367C361.895 191.674 362.193 189.979 362.479 188.282C363.505 182.813 365.135 179.076 369.812 175.689C374.051 174.357 377.674 174.429 381.75 176.189Z" fill="white"/>
<path d="M410.082 98.886C415.635 102.109 420.709 107.654 422.555 113.866C424.521 123.285 422.567 133.956 418.25 142.437C413.193 148.196 408.576 152.49 400.648 153.214C393.638 153.479 389.295 152.117 383.375 148.312C379.026 144.077 375.787 139.616 375.406 133.413C375.407 131.817 375.439 130.22 375.5 128.624C375.519 127.789 375.538 126.953 375.558 126.092C375.867 117.518 377.003 109.949 383.141 103.538C391.28 96.8009 400.248 94.7443 410.082 98.886Z" fill="white"/>
<path d="M197.557 309.383C198.3 309.378 199.044 309.372 199.81 309.366C202.26 309.355 204.707 309.379 207.156 309.405C208.863 309.406 210.571 309.406 212.278 309.405C215.852 309.406 219.426 309.425 223 309.456C227.577 309.496 232.153 309.5 236.73 309.493C240.254 309.49 243.778 309.502 247.302 309.519C248.989 309.526 250.677 309.529 252.364 309.528C254.724 309.53 257.083 309.552 259.443 309.578C260.137 309.576 260.832 309.573 261.547 309.57C265.852 309.645 268.568 310.377 272 312.998C273.894 316.098 274.003 317.906 273.875 321.561C272.921 325.31 271.995 326.638 269 328.998C266.069 330.464 263.106 330.172 259.891 330.191C258.794 330.204 258.794 330.204 257.674 330.216C255.246 330.241 252.818 330.257 250.39 330.272C249.561 330.277 248.732 330.282 247.878 330.288C243.488 330.315 239.098 330.334 234.708 330.348C230.177 330.365 225.647 330.41 221.117 330.461C217.63 330.495 214.144 330.506 210.657 330.512C208.987 330.518 207.318 330.534 205.648 330.558C203.307 330.589 200.967 330.589 198.626 330.582C197.597 330.606 197.597 330.606 196.547 330.632C191.019 330.56 188.726 328.795 185 324.998C184.238 322.498 184.238 322.498 184.312 319.998C184.308 319.173 184.305 318.348 184.301 317.498C186.197 310.719 191.185 309.261 197.557 309.383Z" fill="#33CBCA"/>
<path d="M314 182C315.081 185.318 314.897 187.629 314.215 191.031C313.918 192.562 313.918 192.562 313.615 194.124C313.391 195.238 313.168 196.352 312.938 197.5C312.469 199.932 312.003 202.364 311.539 204.797C311.416 205.444 311.292 206.09 311.165 206.757C309.737 214.289 308.462 221.846 307.203 229.408C306.947 230.946 306.689 232.484 306.431 234.021C306.062 236.217 305.696 238.413 305.332 240.609C305.216 241.31 305.099 242.01 304.978 242.732C304.402 246.262 303.891 249.787 303.486 253.342C303.405 254.034 303.324 254.726 303.241 255.439C303.025 257.335 302.828 259.232 302.632 261.13C302 264 302 264 299 266C297.063 266.082 297.063 266.082 295 265.812C294.32 265.736 293.639 265.66 292.938 265.582C290.527 264.858 289.618 263.911 288 262C286.253 253.9 287.365 245.668 288.097 237.49C288.312 235.073 288.512 232.655 288.709 230.236C290.242 212.046 293.482 200.214 307 187C309.271 185.149 311.526 183.579 314 182Z" fill="white"/>
<path d="M187.734 206.795C188.605 206.79 189.476 206.784 190.373 206.778C192.219 206.768 194.065 206.762 195.911 206.758C198.725 206.748 201.538 206.717 204.351 206.686C206.146 206.679 207.94 206.674 209.734 206.67C210.572 206.658 211.41 206.646 212.273 206.633C218.13 206.655 222.499 207.581 226.875 211.811C228.424 214.823 228.469 216.644 228 219.998C226.34 223.195 225.111 225.385 221.919 227.147C217.912 228.316 214.129 228.343 209.972 228.369C208.673 228.383 208.673 228.383 207.347 228.397C205.519 228.411 203.69 228.42 201.862 228.424C199.075 228.436 196.289 228.485 193.502 228.535C191.721 228.545 189.941 228.552 188.16 228.557C187.332 228.576 186.503 228.596 185.65 228.616C181.46 228.584 178.807 228.272 175.49 225.588C172.094 222.056 171.605 219.975 171.64 215.037C172.243 211.618 174.368 210.066 177 207.998C180.332 206.332 184.07 206.814 187.734 206.795Z" fill="#33CBCA"/>
<path d="M447.999 445.999C452.41 445.9 456.82 445.827 461.231 445.779C462.729 445.759 464.226 445.732 465.724 445.697C482.744 445.312 482.744 445.312 490.241 451.999C490.78 452.659 491.319 453.319 491.874 453.999C492.705 454.989 492.705 454.989 493.554 455.999C496.559 460.158 497.235 462.804 496.999 467.999C484.749 468.105 472.496 468.103 460.249 467.749C459.28 467.735 458.311 467.721 457.313 467.706C450.705 467.47 450.705 467.47 447.382 465.253C445.779 462.64 445.519 461.233 445.624 458.187C445.637 457.376 445.65 456.565 445.663 455.73C446.078 452.36 447.042 449.252 447.999 445.999Z" fill="white"/>
<path d="M347 169C347.66 169.33 348.32 169.66 349 170C348.534 170.699 348.069 171.399 347.589 172.119C345.898 175.185 345.237 177.665 344.574 181.094C344.327 182.33 344.08 183.566 343.826 184.84C343.694 185.509 343.563 186.179 343.428 186.869C342.818 189.907 342.153 192.932 341.491 195.959C340.765 199.286 340.06 202.618 339.356 205.95C338.993 207.651 338.626 209.351 338.253 211.05C334.152 229.785 332.735 245.89 343.535 262.879C344.973 264.961 346.464 266.99 348 269C345.354 268.544 342.708 268.085 340.062 267.625C338.959 267.436 338.959 267.436 337.834 267.242C332.518 266.314 327.258 265.212 322 264C325.33 239.635 328.78 215.179 333.625 191.062C333.807 190.124 333.988 189.185 334.175 188.218C335.475 182.041 337.144 176.641 341.922 172.223C343.615 171.148 345.307 170.074 347 169Z" fill="#33CBCA"/>
<path d="M422 320C426.567 320.701 430.57 322.313 434.812 324.062C435.505 324.344 436.198 324.626 436.912 324.916C438.61 325.607 440.305 326.303 442 327C436.918 338.468 431.743 349.846 426 361C422.874 360.723 419.749 360.426 416.625 360.125C415.736 360.046 414.846 359.968 413.93 359.887C413.079 359.803 412.228 359.719 411.352 359.633C410.566 359.559 409.781 359.486 408.971 359.411C407 359 407 359 405 357C407.26 352.052 409.52 347.104 411.781 342.156C412.55 340.472 413.32 338.788 414.089 337.104C415.193 334.687 416.298 332.269 417.402 329.852C417.747 329.096 418.092 328.341 418.447 327.563C420.886 322.228 420.886 322.228 422 320Z" fill="#33CBCA"/>
<path d="M227 487C232.258 490.877 237.394 494.884 242.477 498.988C244.89 500.913 247.346 502.769 249.812 504.625C254.983 508.645 258.937 512.629 261 519C261.195 522.113 261.195 522.113 261.125 525.312C261.107 526.381 261.089 527.45 261.07 528.551C261.047 529.359 261.024 530.167 261 531C255.47 527.987 250.441 524.545 245.375 520.812C238.769 515.939 238.769 515.939 231.938 511.395C231.331 511.006 230.725 510.618 230.1 510.218C228.481 509.192 226.847 508.193 225.211 507.195C223 505 223 505 222.539 501.613C222.983 498.131 223.714 495.318 225 492.062C225.371 491.105 225.743 490.147 226.125 489.16C226.414 488.447 226.702 487.734 227 487Z" fill="white"/>
<path d="M290 370C290.33 370.66 290.66 371.32 291 372C293.648 372.628 293.648 372.628 296.863 373C298.659 373.248 298.659 373.248 300.49 373.5C302.382 373.748 302.382 373.748 304.312 374C306.789 374.327 309.264 374.66 311.738 375C312.842 375.144 313.946 375.289 315.083 375.438C318 376 318 376 322 378C318.7 383.94 315.4 389.88 312 396C301.272 394.919 290.634 393.795 280 392C283.03 384.495 286.266 377.182 290 370Z" fill="#33CBCA"/>
<path d="M430 323C431.439 323.453 432.876 323.912 434.312 324.375C435.113 324.63 435.914 324.885 436.738 325.148C439 326 439 326 442 328C434.738 329.477 434.738 329.477 431 327.062C430.34 326.382 429.68 325.701 429 325C429.33 324.34 429.66 323.68 430 323Z" fill="#33CBCA"/>
<path d="M419 326C419.33 326 419.66 326 420 326C419.67 328.31 419.34 330.62 419 333C419.66 333.33 420.32 333.66 421 334C420.34 334.66 419.68 335.32 419 336C417.68 335.67 416.36 335.34 415 335C416.32 332.03 417.64 329.06 419 326Z" fill="#33CBCA"/>
<path d="M423 320C424.98 320.66 426.96 321.32 429 322C428.67 322.99 428.34 323.98 428 325C426.35 325 424.7 325 423 325C423 323.35 423 321.7 423 320Z" fill="#33CBCA"/>
<path d="M273 322C272.75 324.375 272.75 324.375 272 327C269.938 328.312 269.938 328.312 268 329C268 325 268 325 269.375 323.25C271 322 271 322 273 322Z" fill="#33CBCA"/>
</g>
<defs>
<clipPath id="clip0_150_1297">
<rect width="640" height="640" fill="white"/>
</clipPath>
</defs>
</svg>
