<svg width="206" height="142" viewBox="0 0 206 142" fill="none" xmlns="http://www.w3.org/2000/svg">
<g clip-path="url(#clip0_4135_12383)">
<path d="M113 3.99999C119.289 6.15352 125.623 8.12286 132 9.99999C132 10.66 132 11.32 132 12C132.887 12.1031 133.774 12.2062 134.688 12.3125C138.083 13.0172 140.219 13.9554 143 16C143 16.66 143 17.32 143 18C143.601 18.0902 144.201 18.1805 144.82 18.2734C147.547 19.1822 148.239 20.3045 149.875 22.625C151.329 24.5482 151.329 24.5482 153 26C156.31 26.1181 156.31 26.1181 159 25C159 24.34 159 23.68 159 23C169.243 18.4403 177.63 15.7358 188.438 19.8125C191.633 21.1865 194.371 22.706 197 25C197.33 25.99 197.66 26.98 198 28C198.99 28.99 198.99 28.99 200 30C200.899 31.7905 201.748 33.6068 202.562 35.4375C203.214 36.8896 203.214 36.8896 203.879 38.3711C206.211 43.8388 206.056 48.095 205.812 53.9375C205.794 54.8443 205.775 55.7512 205.756 56.6855C205.473 63.4221 205.473 63.4221 202.949 66.5039C202.306 66.9976 201.663 67.4913 201 68C201 68.66 201 69.32 201 70C192.132 77.6741 184.869 82.5886 172.863 82.2148C163.703 81.5275 159.159 77.2144 153 71C151.453 74.6375 150.365 78.2218 149.438 82.0625C149.189 83.0847 148.94 84.1069 148.684 85.1601C148.458 86.0973 148.232 87.0344 148 88C147.809 88.7244 147.618 89.4489 147.422 90.1953C146.204 95.404 147.248 100.036 149 105C149.66 105.33 150.32 105.66 151 106C151.816 108.109 151.816 108.109 152.562 110.75C152.811 111.611 153.06 112.472 153.316 113.359C154 116 154 116 154.465 118.766C154.73 119.872 154.73 119.872 155 121C155.66 121.33 156.32 121.66 157 122C157 123.65 157 125.3 157 127C157.66 127 158.32 127 159 127C160.298 132.625 159.697 135.726 159 142C147.78 142 136.56 142 125 142C120.781 131.527 116.596 121.046 112.562 110.5C112.221 109.611 111.879 108.722 111.527 107.806C111.21 106.973 110.893 106.14 110.566 105.281C110.287 104.55 110.008 103.818 109.721 103.064C106.535 93.9412 108.252 85.6161 110.5 76.4375C110.858 74.9245 110.858 74.9245 111.223 73.3809C111.806 70.9183 112.399 68.4583 113 66C111.907 65.5462 110.814 65.0925 109.688 64.625C107.179 63.5836 105.303 62.5352 103 61C100.679 60.2919 98.3462 59.6198 96 59C94.6372 61.1724 94.6372 61.1724 95.9258 64.4492C97.3004 69.586 97.2593 74.5235 97.1875 79.8125C97.1803 80.8172 97.1732 81.8218 97.1658 82.8569C97.0302 95.575 96.2995 108.256 95.2461 120.93C95.0705 123.121 94.9195 125.314 94.7852 127.508C94.7117 128.66 94.6382 129.813 94.5625 131C94.5019 132.031 94.4413 133.062 94.3789 134.125C94 137 94 137 92 142C61.64 142 31.28 142 0 142C0 123.084 0 123.084 4.53125 118.426C5.01594 117.955 5.50063 117.485 6 117C7.19028 114.401 7.19028 114.401 8 112C8.66 112 9.32 112 10 112C10 111.34 10 110.68 10 110C11.3333 108.667 12.6667 107.333 14 106C15.2351 103.867 15.2351 103.867 16 102C16.66 102 17.32 102 18 102C18.3558 101.201 18.3558 101.201 18.7188 100.387C20.368 97.3146 22.4045 94.5875 24.5 91.8125C24.9035 91.2666 25.307 90.7207 25.7227 90.1582C28.7521 86.1239 28.7521 86.1239 31 85C31.495 83.515 31.495 83.515 32 82C32.66 81.67 33.32 81.34 34 81C34.0249 77.0164 34.043 73.0329 34.0549 69.0493C34.0624 67.0368 34.0751 65.0242 34.0879 63.0117C34.1041 56.561 33.9284 50.3797 33 44C32.7543 32.7136 37.337 21.2278 45 13C61.0455 -3.58682 92.5823 -3.54566 113 3.99999ZM114 66C115 69 115 69 115 69L114 66ZM54 121C52.5339 122.723 51.0774 124.453 49.625 126.187C48.4068 127.632 48.4068 127.632 47.1641 129.105C45.1779 131.762 43.8874 133.819 43 137C43.33 137.99 43.66 138.98 44 140C47.3 140 50.6 140 54 140C53.7938 138.866 53.5875 137.731 53.375 136.562C52.8192 132.349 53.4921 128.947 54.625 124.883C55.2159 122.921 55.2159 122.921 54 121Z" fill="#080808"/>
<path d="M94.125 13.6875C111.136 13.8595 131.821 20.7488 144 33C147.942 37.3508 148.726 39.7602 148.523 45.5117C147.476 52.4947 145.063 59.1227 142.765 65.7793C141.746 68.7373 140.783 71.713 139.812 74.6875C138.734 77.9184 137.579 81.089 136.312 84.25C133.662 91.8226 133.631 96.6965 136.688 103.938C136.966 104.636 137.244 105.334 137.531 106.053C139.291 110.43 141.166 114.757 143.121 119.051C147.864 129.569 147.864 129.569 147 135C145.375 137.375 145.375 137.375 143 139C137.966 139.719 137.966 139.719 135.476 137.865C133.47 135.33 132.562 132.747 131.441 129.715C131.211 129.099 130.981 128.483 130.743 127.849C130.009 125.881 129.285 123.91 128.562 121.938C127.843 119.997 127.121 118.058 126.399 116.118C125.7 114.238 125.006 112.357 124.311 110.475C122.874 106.666 121.336 102.909 119.728 99.1689C116.198 88.6542 121.108 77.2577 124.156 67.1758C124.517 65.9628 124.878 64.7498 125.25 63.5C125.585 62.4172 125.92 61.3344 126.266 60.2188C127.064 56.7199 127.126 53.577 127 50C124.69 49.34 122.38 48.68 120 48C119.34 50.31 118.68 52.62 118 55C113.387 54.3732 109.311 53.139 104.938 51.5625C98.0525 49.155 91.2596 47.8202 84 47C85.5409 13.8699 85.5409 13.8699 94.125 13.6875Z" fill="#31CCC8"/>
<path d="M71.75 13.875C72.9205 13.893 74.0909 13.9111 75.2969 13.9297C76.6349 13.9645 76.6349 13.9645 78 14C78.1419 19.5734 77.6191 24.8633 76.8125 30.375C76.6823 31.2748 76.5521 32.1745 76.418 33.1016C74.7075 44.4836 72.3753 55.7413 70 67C69.8503 67.7282 69.7006 68.4563 69.5464 69.2065C65.7276 87.7612 56.4673 102.232 44.1992 116.445C41.8778 119.142 39.7477 121.924 37.6367 124.785C35.3847 127.833 33.1047 130.858 30.8125 133.875C30.3839 134.447 29.9553 135.02 29.5137 135.609C26.5394 139.513 24.6384 141.757 19.625 142.5C16 142 16 142 13.0625 139.438C11.4398 137.101 10.8981 135.592 10.1875 132.75C11.4524 126.912 15.1564 123.446 19 119C20.7959 116.769 22.5538 114.51 24.3125 112.25C25.2495 111.054 26.187 109.859 27.125 108.664C27.5968 108.062 28.0686 107.461 28.5547 106.841C30.0132 104.983 31.4749 103.128 32.9375 101.273C33.4192 100.662 33.9009 100.051 34.3972 99.4209C35.3042 98.27 36.2119 97.1195 37.1204 95.9697C37.9719 94.8883 38.8152 93.8004 39.6504 92.7063C40.6102 91.4928 41.6205 90.3186 42.6621 89.1746C46.6469 84.5542 47.6168 81.4601 47.1702 75.3879C47.0728 74.4555 46.9754 73.5231 46.875 72.5625C46.7314 70.5263 46.5923 68.4899 46.457 66.4531C46.3792 65.3993 46.3014 64.3455 46.2212 63.2598C44.1169 32.2478 44.1169 32.2478 52 23C54.8057 20.2864 57.6652 18.0251 61 16C61.9165 15.4199 61.9165 15.4199 62.8516 14.8281C65.8705 13.6644 68.5293 13.8106 71.75 13.875Z" fill="#32CDC8"/>
<path d="M48 72C54.4326 71.8791 60.6177 72.1765 67 73C68.2509 87.3859 56.6883 101.516 47.9634 112.059C46.7168 113.528 45.4581 114.987 44.1992 116.445C41.8778 119.142 39.7477 121.924 37.6367 124.785C35.3847 127.833 33.1047 130.858 30.8125 133.875C30.3839 134.447 29.9553 135.02 29.5137 135.609C26.5394 139.513 24.6384 141.757 19.625 142.5C16 142 16 142 13.0625 139.438C11.4398 137.101 10.8981 135.592 10.1875 132.75C11.4524 126.912 15.1564 123.446 19 119C20.7959 116.769 22.5538 114.51 24.3125 112.25C25.2495 111.054 26.187 109.859 27.125 108.664C27.5968 108.062 28.0686 107.461 28.5547 106.841C30.4951 104.369 32.4412 101.902 34.3879 99.4358C35.7797 97.6668 37.1614 95.8903 38.543 94.1133C39.9846 92.2866 41.4549 90.4808 42.9883 88.7305C47.4411 83.5125 47.9751 78.7773 48 72Z" fill="#FAFAFB"/>
<path d="M128 56C132.95 58.31 137.9 60.62 143 63C142.238 66.8065 141.359 70.1626 140.125 73.8125C139.77 74.8657 139.416 75.9188 139.051 77.0039C138.193 79.4488 137.278 81.8471 136.312 84.25C133.662 91.8226 133.631 96.6965 136.687 103.938C136.965 104.636 137.244 105.334 137.53 106.053C139.291 110.43 141.166 114.757 143.121 119.051C147.864 129.569 147.864 129.569 147 135C145.375 137.375 145.375 137.375 143 139C137.966 139.719 137.966 139.719 135.476 137.865C133.469 135.33 132.562 132.747 131.441 129.715C131.211 129.099 130.98 128.483 130.743 127.849C130.008 125.881 129.285 123.91 128.562 121.938C127.843 119.997 127.121 118.058 126.399 116.118C125.7 114.238 125.005 112.357 124.311 110.475C122.874 106.666 121.336 102.909 119.728 99.1689C116.798 90.4418 119.901 81.3999 122.422 72.9536C123.011 70.963 123.57 68.9661 124.121 66.9648C126.845 57.1543 126.845 57.1543 128 56Z" fill="#F7F7F8"/>
<path d="M184.688 32.0625C189.387 35.9995 193.614 40.0795 194.238 46.418C194.462 54.7631 192.863 59.7275 187.375 66C185 68 185 68 183 68C183 68.66 183 69.32 183 70C169.843 70.5748 169.843 70.5748 165 67C159.723 61.7232 157.83 57.9588 157.5 50.375C157.514 43.8078 158.886 40.4743 163.273 35.6719C164.128 34.8443 164.128 34.8443 165 34C165.66 33.34 166.32 32.68 167 32C172.681 30.6145 179.169 29.8807 184.688 32.0625Z" fill="#F6F6F6"/>
<path d="M81 59C81.66 59 82.32 59 83 59C85.2626 67.4846 86.4617 75.289 86.3125 84.0625C86.302 85.1829 86.2914 86.3032 86.2805 87.4575C86.1388 96.9596 85.768 106.457 85.3053 115.949C85.2271 117.558 85.1527 119.168 85.0822 120.778C84.9795 123.048 84.8579 125.317 84.7305 127.586C84.6624 128.896 84.5943 130.206 84.5242 131.556C83.9769 135.152 83.1855 137.123 81 140C77.2794 142.48 75.402 142.463 71 142C68.635 140.133 67.3397 138.679 66 136C65.0197 120.224 65.0125 102.894 73.1133 89.0703C77.8078 80.0585 78.9933 68.8786 81 59Z" fill="#F5F5F5"/>
<path d="M48 10C50.1875 10.3125 50.1875 10.3125 52 11C51.2768 11.5801 51.2768 11.5801 50.5391 12.1719C49.9074 12.6927 49.2758 13.2134 48.625 13.75C47.9985 14.2605 47.372 14.7709 46.7266 15.2969C44.9169 17.082 43.9988 18.6795 43 21C42.34 21 41.68 21 41 21C40.5669 22.7634 40.5669 22.7634 40.125 24.5625C39.5037 27.0921 38.8229 29.5138 37.9727 31.9805C36.5818 36.8621 36.7511 41.7067 36.8047 46.7461C36.8089 48.2628 36.8089 48.2628 36.8133 49.8101C36.8244 53.0193 36.8495 56.2283 36.875 59.4375C36.885 61.6217 36.8942 63.806 36.9023 65.9902C36.9243 71.3269 36.9577 76.6634 37 82C36.34 82 35.68 82 35 82C34.6133 82.8295 34.6133 82.8295 34.2188 83.6758C32.8259 86.332 31.2152 88.7274 29.5 91.1875C28.5873 92.5081 28.5873 92.5081 27.6562 93.8555C26 96 26 96 24 97C23.67 97.99 23.34 98.98 23 100C22.34 100 21.68 100 21 100C20.6171 100.859 20.6171 100.859 20.2266 101.734C18.8691 104.242 17.2803 106.133 15.375 108.25C14.7434 108.956 14.1117 109.663 13.4609 110.391C12.7378 111.187 12.7378 111.187 12 112C12 107.754 13.8175 105.615 16 102C16.66 102 17.32 102 18 102C18.2372 101.468 18.4744 100.935 18.7188 100.387C20.368 97.3146 22.4045 94.5875 24.5 91.8125C24.9035 91.2666 25.307 90.7207 25.7227 90.1582C28.7521 86.124 28.7521 86.124 31 85C31.495 83.515 31.495 83.515 32 82C32.99 81.505 32.99 81.505 34 81C34.0249 77.0164 34.043 73.0329 34.0549 69.0493C34.0624 67.0368 34.0751 65.0242 34.0879 63.0117C34.1041 56.561 33.9284 50.3797 33 44C32.752 32.6095 37.4301 21.3972 45 13C45.4718 12.4148 45.9436 11.8295 46.4297 11.2266C46.9479 10.8218 47.4661 10.417 48 10Z" fill="#2B2C30"/>
<path d="M113 3.99999C114.561 4.52488 116.124 5.04543 117.688 5.56249C121.344 6.78124 121.344 6.78124 125 7.99999C125 8.65999 125 9.31999 125 9.99999C120.405 9.44858 116.376 8.4586 112 6.99999C109.668 6.65596 107.335 6.3205 105 5.99999C104.505 5.50499 104.505 5.50499 104 4.99999C97.5376 3.71114 91.0676 3.85195 84.5 3.87499C83.3979 3.87113 82.2957 3.86726 81.1602 3.86327C71.2197 3.6933 71.2197 3.6933 61.875 6.56249C58.9122 8.0439 57.252 8.28693 54 7.99999C54 7.33999 54 6.67999 54 5.99999C72.4722 -1.49071 94.074 -2.99439 113 3.99999Z" fill="#1D1F14"/>
<path d="M203 63C201.525 70.328 198.067 72.8737 192.02 77.043C184.104 82.1729 177.17 83.0207 167.777 81.6836C164.77 80.9748 163.154 80.1692 161.062 77.875C160.712 77.2563 160.361 76.6375 160 76C162.567 76.6276 165.086 77.3184 167.625 78.0625C175.794 80.0291 182.233 79.6846 189.66 75.5664C193.219 73.1839 196.494 70.5012 199 67C199 66.01 199 65.02 199 64C201 63 201 63 203 63Z" fill="#131411"/>
<path d="M32 82C32.99 82.66 33.98 83.32 35 84C33.7315 85.606 32.4601 87.2097 31.1875 88.8125C30.126 90.1525 30.126 90.1525 29.043 91.5195C27 94 27 94 25.3008 95.6367C23.7355 97.0834 23.7355 97.0834 23 100C22.34 100 21.68 100 21 100C20.6171 100.859 20.6171 100.859 20.2266 101.734C18.8691 104.242 17.2803 106.133 15.375 108.25C14.7434 108.956 14.1117 109.663 13.4609 110.391C12.9788 110.922 12.4967 111.453 12 112C12 107.754 13.8175 105.615 16 102C16.66 102 17.32 102 18 102C18.3558 101.201 18.3558 101.201 18.7188 100.387C20.368 97.3146 22.4045 94.5875 24.5 91.8125C24.9035 91.2666 25.307 90.7207 25.7227 90.1582C28.7521 86.124 28.7521 86.124 31 85C31.33 84.01 31.66 83.02 32 82Z" fill="#201C21"/>
<path d="M102 1C105.085 1.78431 108.168 2.57873 111.25 3.375C112.123 3.59672 112.995 3.81844 113.895 4.04688C114.739 4.26602 115.583 4.48516 116.453 4.71094C117.228 4.90994 118.003 5.10894 118.802 5.31396C121.017 6.00529 122.958 6.90562 125 8C125 8.66 125 9.32 125 10C120.405 9.44859 116.376 8.45861 112 7C110.783 6.85563 109.566 6.71125 108.312 6.5625C105 6 105 6 103.062 4.5625C102 3 102 3 102 1Z" fill="#2C2C27"/>
<path d="M152 68C153.339 68.9504 154.671 69.9106 156 70.875C156.742 71.4087 157.485 71.9423 158.25 72.4922C158.827 72.9898 159.405 73.4873 160 74C160 74.66 160 75.32 160 76C157.115 74.707 155.128 73.3406 153 71C151.456 74.6201 150.399 78.1709 149.5 82C148.601 85.8291 147.544 89.3799 146 93C145.67 93 145.34 93 145 93C144.573 87.3731 146.106 82.9129 147.937 77.6875C148.215 76.8644 148.493 76.0414 148.779 75.1934C150.845 69.1547 150.845 69.1547 152 68Z" fill="#21211D"/>
<path d="M200 34C200.66 34 201.32 34 202 34C204.655 40.118 206.16 44.2498 205.688 51.0625C205.609 52.3116 205.53 53.5607 205.449 54.8477C205 58 205 58 203 60C203.035 59.2124 203.07 58.4248 203.105 57.6133C203.312 49.3065 202.2 42.0003 200 34Z" fill="#161512"/>
<path d="M157 127C157.66 127 158.32 127 159 127C160.206 132.227 159.756 136.765 159 142C157.68 142 156.36 142 155 142C155.144 141.381 155.289 140.762 155.438 140.125C156.221 135.775 156.598 131.4 157 127Z" fill="#272220"/>
<path d="M128 9C130.125 9.375 130.125 9.375 132 10C132 10.66 132 11.32 132 12C133.32 12 134.64 12 136 12C138.25 14.5 138.25 14.5 140 17C134.985 15.4594 130.385 13.9707 126 11C126.66 10.34 127.32 9.68 128 9Z" fill="#1E221E"/>
<path d="M137 13C138.98 13.99 140.96 14.98 143 16C143 16.66 143 17.32 143 18C143.598 18.0619 144.196 18.1238 144.812 18.1875C147.871 19.3237 148.55 21.1733 150 24C145.892 22.55 142.497 20.6021 139 18C139 17.34 139 16.68 139 16C138.34 15.67 137.68 15.34 137 15C137 14.34 137 13.68 137 13Z" fill="#121211"/>
<path d="M33 40C34.485 40.99 34.485 40.99 36 42C36.2214 44.627 36.2816 47.0089 36.1875 49.625C36.1672 50.6846 36.1672 50.6846 36.1465 51.7656C36.1111 53.5107 36.0573 55.2555 36 57C35.34 56.67 34.68 56.34 34 56C33.6876 53.2855 33.4866 50.6609 33.375 47.9375C33.3363 47.1789 33.2977 46.4203 33.2578 45.6387C33.1633 43.7595 33.0805 41.8798 33 40Z" fill="#202027"/>
<path d="M61.2266 17.3359C61.8118 17.5551 62.397 17.7742 63 18C61.7316 18.8044 61.7316 18.8044 60.4375 19.625C56.6923 22.1099 53.3567 25.0207 50 28C51.2147 23.411 53.7302 21.0959 57.1484 18.0391C59 17 59 17 61.2266 17.3359Z" fill="#4BC2BE"/>
<path d="M63 3C63.33 3.99 63.66 4.98 64 6C60.4922 7.60355 57.8565 8.22037 54 8C54 7.34 54 6.68 54 6C60.75 3 60.75 3 63 3Z" fill="#252621"/>
<path d="M16 102C16.66 102 17.32 102 18 102C17.8452 104.709 17.5183 106.466 15.5977 108.445C14.1023 109.677 12.5537 110.843 11 112C12.3325 108.412 13.8307 105.164 16 102Z" fill="#1B191B"/>
<path d="M7 114C7.99 114.33 8.98 114.66 10 115C7.03 118.96 7.03 118.96 4 123C3.67 122.01 3.34 121.02 3 120C3.47438 119.567 3.94875 119.134 4.4375 118.688C6.23687 116.977 6.23687 116.977 7 114Z" fill="#1B1B1B"/>
<path d="M102 1C103.98 1.66 105.96 2.32 108 3C108 3.99 108 4.98 108 6C106.125 5.75 106.125 5.75 104 5C102.75 2.9375 102.75 2.9375 102 1Z" fill="#20231E"/>
</g>
<defs>
<clipPath id="clip0_4135_12383">
<rect width="206" height="142" fill="white"/>
</clipPath>
</defs>
</svg>
