<svg width="640" height="640" viewBox="0 0 640 640" fill="none" xmlns="http://www.w3.org/2000/svg">
<g clip-path="url(#clip0_190_815)">
<path d="M373.999 125.999C374.918 126.155 375.837 126.311 376.783 126.472C404.418 131.247 438.068 139.624 457.999 160.999C458.533 160.298 459.067 159.597 459.616 158.874C468.624 147.404 480.351 136.854 495.273 134.249C512.827 132.64 528.274 135.029 542.659 146.035C553.807 155.568 560.892 167.358 562.999 181.999C563.919 196.003 564.828 210.342 557.999 222.999C557.468 223.987 556.937 224.974 556.39 225.992C548.195 239.863 535.421 249.383 519.839 253.581C503.231 256.026 487.77 254.001 473.999 243.999C470.556 241.11 467.246 238.108 463.999 234.999C460.603 244.825 457.906 254.833 455.164 264.857C454.552 267.084 453.935 269.309 453.313 271.533C452.41 274.762 451.523 277.995 450.64 281.23C450.36 282.221 450.08 283.211 449.791 284.232C449.54 285.164 449.29 286.095 449.031 287.055C448.695 288.273 448.695 288.273 448.352 289.516C447.632 294.585 449.216 298.981 451.069 303.647C451.496 304.732 451.924 305.817 452.364 306.935C452.828 308.095 453.291 309.254 453.769 310.449C454.499 312.296 455.228 314.143 455.958 315.99C456.979 318.571 458.006 321.15 459.033 323.73C460.82 328.221 462.598 332.715 464.376 337.21C465.321 339.597 466.268 341.983 467.217 344.369C469.281 349.568 471.323 354.775 473.291 360.01C473.769 361.278 473.769 361.278 474.257 362.572C476.865 371.102 474.356 379.03 470.999 386.999C466.323 395.295 459.557 400.665 450.874 404.312C441.2 406.028 431.591 406.214 422.999 400.999C409.893 391.774 405.578 376.868 399.999 362.499C399.351 360.84 398.702 359.182 398.053 357.523C396.71 354.088 395.371 350.651 394.033 347.214C392.349 342.889 390.65 338.57 388.945 334.252C387.644 330.957 386.349 327.661 385.054 324.363C384.438 322.798 383.821 321.233 383.201 319.669C382.339 317.489 381.485 315.307 380.632 313.124C380.379 312.489 380.125 311.853 379.864 311.198C373.084 293.718 377.761 274.49 381.999 256.999C382.207 256.134 382.415 255.268 382.629 254.376C383.708 249.905 384.828 245.447 385.999 240.999C385.379 240.901 384.759 240.803 384.12 240.703C378.676 239.783 373.432 238.589 368.124 237.062C358.57 234.424 348.818 233.231 338.999 231.999C339.325 232.822 339.652 233.644 339.988 234.492C348.583 256.449 349.989 276.448 347.774 299.813C347.41 303.671 347.066 307.53 346.726 311.39C346.659 312.144 346.593 312.898 346.524 313.675C346.016 319.549 345.663 325.42 345.437 331.312C345.137 339.019 344.548 346.663 343.795 354.339C343.296 359.487 342.881 364.629 342.566 369.792C340.443 404.318 340.443 404.318 331.552 414.044C326.731 417.737 321.455 417.282 315.593 417.195C314.314 417.203 313.034 417.212 311.716 417.221C309.019 417.234 306.325 417.215 303.628 417.173C300.19 417.121 296.758 417.151 293.32 417.205C290.015 417.245 286.711 417.217 283.406 417.195C282.181 417.213 280.957 417.231 279.696 417.25C271.33 417.044 271.33 417.044 267.391 413.951C261.999 407.992 261.999 407.992 261.999 405.999C263.649 405.999 265.299 405.999 266.999 405.999C266.711 405.356 266.422 404.713 266.124 404.05C260.963 391.487 263.113 379.667 264.931 366.577C265.698 360.986 266.161 355.643 265.999 349.999C259.03 359.145 252.274 368.386 245.808 377.894C242.292 383.057 238.676 388.149 235.058 393.241C229.978 399.856 229.978 399.856 226.249 407.187C224.441 409.808 222.155 410.215 219.167 411.093C216.838 411.904 216.838 411.904 214.996 414.016C210.686 416.868 206.946 416.629 201.878 416.636C200.901 416.647 199.923 416.658 198.916 416.669C196.853 416.685 194.789 416.69 192.726 416.686C189.575 416.687 186.429 416.747 183.279 416.81C181.27 416.818 179.262 416.823 177.253 416.824C176.316 416.847 175.378 416.871 174.412 416.895C168.047 416.806 168.047 416.806 165.07 414.515C161.453 410.465 160.111 407.01 159.312 401.562C158.393 395.677 158.393 395.677 156.312 390.124C155.257 387.243 154.828 384.806 154.812 381.742C154.806 380.965 154.801 380.189 154.795 379.39C154.819 375.924 154.893 372.464 154.999 368.999C155.659 368.999 156.319 368.999 156.999 368.999C158.498 367.073 159.88 365.141 161.249 363.124C165.247 357.378 169.421 351.812 173.749 346.312C178.612 340.119 183.355 333.857 187.999 327.499C193.237 320.333 198.611 313.291 204.081 306.301C208.805 300.263 213.461 294.18 217.999 287.999C218.417 287.498 218.835 286.996 219.266 286.479C222.688 282.175 223.706 278.789 223.535 273.267C223.533 272.527 223.53 271.788 223.528 271.026C223.514 268.599 223.465 266.173 223.417 263.745C223.403 262.04 223.391 260.335 223.381 258.63C223.351 254.145 223.292 249.661 223.226 245.177C223.124 238.027 223.059 230.876 223.004 223.725C222.98 221.249 222.942 218.774 222.901 216.298C222.745 204.074 223.319 192.028 227.624 180.437C227.883 179.727 228.142 179.017 228.408 178.286C235.806 158.9 249.928 142.642 268.874 134.062C281.06 128.706 294.884 127.37 307.999 125.812C309.084 125.682 309.084 125.682 310.191 125.55C331.266 123.085 353.034 122.268 373.999 125.999Z" fill="black"/>
<path d="M333.324 144.761C334.054 144.751 334.784 144.742 335.536 144.732C358.895 144.485 380.757 146.389 403 153.999C403.669 154.224 404.339 154.448 405.028 154.679C421.341 160.206 439.338 167.264 448 182.999C449.422 187.266 449.225 191.341 449.25 195.812C449.271 196.683 449.291 197.553 449.312 198.451C449.394 212.537 444.682 226.314 441.043 239.806C440.237 242.796 439.438 245.788 438.64 248.78C436.354 257.337 434.052 265.888 431.621 274.406C431.121 276.181 431.121 276.181 430.61 277.993C430.018 280.082 429.413 282.168 428.792 284.248C428.535 285.161 428.277 286.074 428.012 287.015C427.79 287.771 427.567 288.526 427.339 289.305C426.235 298.086 429.477 305.566 432.77 313.558C433.486 315.334 433.486 315.334 434.216 317.147C435.481 320.278 436.755 323.405 438.034 326.53C439.323 329.687 440.599 332.848 441.877 336.009C443.759 340.661 445.647 345.311 447.542 349.958C447.956 350.979 448.371 351.999 448.797 353.051C449.587 354.986 450.385 356.918 451.193 358.846C451.555 359.722 451.918 360.597 452.292 361.5C452.611 362.259 452.929 363.018 453.258 363.8C454.768 368.275 454.848 372.545 453.305 377.011C451.744 380.139 450.053 381.963 447.188 383.937C443.458 385.18 440.909 385.488 437 384.999C427.914 380.367 425.458 371.639 422.008 362.656C421.292 360.819 420.576 358.983 419.859 357.146C418.861 354.58 417.869 352.012 416.877 349.444C415.152 344.983 413.418 340.526 411.683 336.069C410.763 333.704 409.845 331.337 408.931 328.97C406.204 321.939 403.311 315.011 400.262 308.115C395.717 296.892 396.838 286.578 399.188 274.999C399.412 273.862 399.637 272.724 399.869 271.552C402.351 259.063 404.959 246.598 407.607 234.143C408.183 231.43 408.749 228.715 409.312 225.999C409.57 224.808 409.57 224.808 409.832 223.592C410.975 218.032 412.216 211.963 410 206.562C406.946 204.176 403.75 203.963 400 203.999C397.131 204.23 397.131 204.23 395 205.999C393.623 208.562 392.801 211.21 392 213.999C391.794 214.686 391.588 215.374 391.375 216.081C390.896 217.715 390.445 219.356 390 220.999C383.779 220.016 377.754 218.7 371.688 216.999C355.398 212.565 340.266 212.639 323 211.999C323 190.219 323 168.439 323 145.999C326.497 144.834 329.683 144.801 333.324 144.761Z" fill="#33CBCA"/>
<path d="M303 148.001C303.042 153.641 303.077 159.279 303.037 164.919C303.027 166.397 303.018 167.875 303.008 169.353C303.002 170.121 302.997 170.89 302.992 171.682C302.97 176.677 303.066 181.658 303.227 186.65C304.055 214.562 298.776 237.238 288.8 263.223C286.828 268.39 285.137 273.612 283.493 278.893C278.131 296.081 269.571 309.561 259 324.001C256.851 326.957 254.706 329.916 252.562 332.876C252.023 333.62 251.483 334.363 250.927 335.129C246.459 341.308 242.156 347.59 237.873 353.898C233.677 360.058 229.354 366.116 224.958 372.135C222.017 376.172 219.134 380.24 216.316 384.365C215.7 385.262 215.084 386.16 214.449 387.085C213.268 388.811 212.096 390.542 210.932 392.278C207.161 397.776 203.08 402.961 197 406.001C191.196 406.588 185.526 406.862 180.57 403.45C175.832 399.078 172.665 394.435 172.375 387.876C172.459 379.595 179.442 372.581 184.25 366.376C185.69 364.501 187.13 362.626 188.57 360.751C189.305 359.797 190.04 358.843 190.798 357.861C194.252 353.375 197.691 348.877 201.125 344.376C202.119 343.074 202.119 343.074 203.133 341.746C208.111 335.209 212.989 328.605 217.837 321.971C222.459 315.671 227.235 309.5 232.12 303.401C233.181 302.059 234.224 300.702 235.245 299.328C236.394 297.805 237.589 296.314 238.831 294.866C245.148 286.626 244.87 278.954 244.587 269.03C244.506 266.181 244.469 263.333 244.442 260.483C244.387 255.449 244.295 250.418 244.189 245.385C244.021 237.351 243.885 229.318 243.798 221.283C243.759 218.504 243.687 215.727 243.613 212.949C243.304 196.078 247.217 182.94 257 169.001C257.613 168.083 257.613 168.083 258.238 167.146C266.124 156.45 278.98 151.178 291.438 148.517C295.378 147.947 299.024 147.914 303 148.001Z" fill="white"/>
<path d="M317.999 238C320.333 240.334 321.156 242.335 322.437 245.375C322.848 246.331 323.259 247.288 323.683 248.273C326.865 257.28 328.496 265.749 328.339 275.297C328.33 276.359 328.321 277.421 328.312 278.515C328.096 291.793 326.911 305.012 325.74 318.233C325.209 324.243 324.7 330.254 324.191 336.266C324.082 337.542 323.973 338.818 323.861 340.134C323.165 348.48 322.622 356.818 322.301 365.187C321.235 392.963 321.235 392.963 314.687 400.75C309.42 405.159 305.197 406.576 298.398 406.352C293.582 405.646 290.897 402.997 287.749 399.5C279.89 388.272 284.741 371.082 286.374 358.25C286.599 356.443 286.823 354.636 287.046 352.828C287.377 350.15 287.708 347.472 288.042 344.794C288.942 337.559 289.766 330.317 290.556 323.069C290.632 322.405 290.708 321.741 290.785 321.057C290.934 319.63 291.054 318.199 291.153 316.768C291.596 311.184 293.06 307.007 295.538 302.02C300.895 290.606 304.567 278.686 308.374 266.688C309.439 263.364 310.506 260.041 311.575 256.719C312.233 254.672 312.887 252.624 313.539 250.576C313.833 249.653 314.127 248.731 314.431 247.78C314.686 246.975 314.942 246.17 315.205 245.34C316.049 242.854 317.004 240.429 317.999 238Z" fill="#33CBCA"/>
<path d="M524.485 158.525C532.433 163.19 537.733 169.603 541.313 178.126C544.473 191.341 544.77 204.949 538 217.001C531.815 225.889 523.77 231.509 513.122 233.716C501.949 235.218 493.778 233.074 484.75 226.314C478.001 220.615 472.561 213.504 471.781 204.45C471.658 201.402 471.629 198.364 471.625 195.314C471.601 194.288 471.576 193.263 471.551 192.206C471.512 181.837 474.258 173.043 480.938 165.009C484.492 161.549 488.566 159.176 493 157.001C493.76 156.627 494.519 156.254 495.301 155.868C504.653 152.864 515.819 154.287 524.485 158.525Z" fill="white"/>
<path d="M407.001 237C407.331 237 407.661 237 408.001 237C408.001 238.65 408.001 240.3 408.001 242C409.887 242.398 409.887 242.398 411.81 242.805C417.294 244.023 422.671 245.557 428.064 247.125C429.836 247.638 431.609 248.151 433.382 248.664C434.922 249.109 436.461 249.555 438.001 250C437.663 251.225 437.324 252.45 436.976 253.713C435.716 258.287 434.478 262.868 433.247 267.45C432.712 269.427 432.172 271.403 431.626 273.377C430.839 276.225 430.072 279.079 429.31 281.934C429.064 282.806 428.818 283.678 428.565 284.577C425.698 295.51 428.55 303.312 432.771 313.559C433.487 315.335 433.487 315.335 434.218 317.147C435.482 320.279 436.756 323.406 438.035 326.531C439.324 329.687 440.601 332.849 441.878 336.01C443.76 340.662 445.648 345.312 447.544 349.959C447.958 350.979 448.372 352 448.799 353.051C449.588 354.987 450.386 356.919 451.194 358.846C451.557 359.722 451.919 360.598 452.293 361.5C452.612 362.259 452.931 363.019 453.259 363.801C454.769 368.276 454.85 372.546 453.306 377.012C451.745 380.14 450.055 381.963 447.189 383.938C443.459 385.181 440.91 385.489 437.001 385C427.915 380.368 425.46 371.639 422.009 362.656C421.293 360.82 420.577 358.983 419.861 357.147C418.862 354.581 417.87 352.013 416.878 349.445C415.154 344.984 413.42 340.526 411.684 336.07C410.764 333.704 409.847 331.338 408.933 328.97C406.205 321.94 403.312 315.011 400.263 308.116C395.718 296.893 396.84 286.578 399.189 275C399.411 273.877 399.633 272.753 399.861 271.596C402.157 260.047 404.559 248.519 407.001 237Z" fill="white"/>
<path d="M205 339C210.756 343.242 216.352 347.648 221.875 352.188C222.633 352.803 223.391 353.419 224.172 354.053C224.896 354.648 225.621 355.243 226.367 355.855C227.018 356.388 227.669 356.921 228.339 357.469C230 359 230 359 232 362C231.12 363.259 230.24 364.518 229.359 365.777C228.504 367.001 228.504 367.001 227.631 368.25C226.367 370.055 225.102 371.86 223.836 373.665C220.749 378.062 217.674 382.466 214.645 386.902C214.123 387.658 213.602 388.415 213.065 389.194C212.094 390.604 211.129 392.02 210.173 393.441C206.674 398.49 202.579 403.21 197 406C191.196 406.587 185.526 406.861 180.57 403.449C175.832 399.077 172.665 394.434 172.375 387.875C172.46 379.477 179.628 372.345 184.5 366.062C185.928 364.206 187.355 362.349 188.781 360.492C189.489 359.573 190.197 358.653 190.926 357.706C193.98 353.722 196.994 349.708 200 345.688C200.51 345.006 201.02 344.325 201.545 343.623C202.697 342.083 203.849 340.541 205 339Z" fill="white"/>
<path d="M291.688 362.814C301.492 362.874 311.254 364.023 321 365.001C321.669 393.606 321.669 393.606 315.536 400.669C310.341 405.177 305.179 406.693 298.329 406.388C293.563 405.597 290.88 402.979 287.75 399.501C281.097 389.997 283.95 377.808 285.465 366.888C286.302 362.376 287.39 362.845 291.688 362.814Z" fill="white"/>
<path d="M289 343C296.562 342.88 304.075 343.036 311.625 343.438C312.407 343.477 313.188 343.516 313.994 343.557C317.195 343.739 319.943 343.981 323 345C322.67 353.91 322.34 362.82 322 372C321.67 372 321.34 372 321 372C321 369.69 321 367.38 321 365C303.509 364.106 303.509 364.106 286 364C286.306 360.875 286.621 357.75 286.938 354.625C287.025 353.736 287.112 352.847 287.201 351.93C287.288 351.079 287.375 350.229 287.465 349.352C287.543 348.567 287.622 347.781 287.703 346.972C288 345 288 345 289 343Z" fill="#33CBCA"/>
<path d="M244.338 263.711C251.468 264.505 258.495 265.395 265.572 266.504C266.537 266.649 267.503 266.794 268.498 266.944C269.887 267.161 269.887 267.161 271.304 267.382C272.135 267.511 272.967 267.639 273.823 267.771C276.031 268.247 283.754 267.431 287 269C287.793 275.471 281.85 282.99 280 289.5C272.901 288.758 263.793 287.487 256.745 286.361C255.787 286.211 254.828 286.062 253.841 285.908C249.861 285.277 246.033 284.598 242.124 283.589C242.855 277.029 243.585 270.47 244.338 263.711Z" fill="#33CBCA"/>
<path d="M243.232 210.919C242.732 203.418 246.138 173.653 254.232 174.92C263.732 147.918 301.094 147.748 302.232 147.919C303.821 148.167 302.379 204.747 304 205C304.951 205.147 300.5 225 299 229.5C299 236 295.77 241.597 294 248C292.038 255.097 288.346 262.163 286.23 269.608C278.111 268.759 267.804 270.896 259.743 269.608C258.647 269.437 257.551 269.266 256.422 269.09C251.87 268.368 248.703 264.574 244.233 263.419C245.068 255.917 242.371 218.648 243.232 210.919Z" fill="#33CBCA"/>
<path d="M407 237C407.33 237 407.66 237 408 237C408 238.65 408 240.3 408 242C409.885 242.398 409.885 242.398 411.809 242.805C417.293 244.023 422.67 245.556 428.062 247.125C429.023 247.402 429.984 247.679 430.975 247.965C433.317 248.641 435.659 249.32 438 250C436.35 256.27 434.7 262.54 433 269C428.2 269.96 427.136 270.04 422.84 268.566C421.881 268.247 420.923 267.928 419.936 267.6C418.452 267.086 418.452 267.086 416.938 266.562C414.969 265.892 412.999 265.226 411.027 264.566C410.158 264.267 409.29 263.967 408.394 263.658C405.771 262.823 405.771 262.823 402 263C403.65 254.42 405.3 245.84 407 237Z" fill="#33CBCA"/>
<path d="M254 143C254.66 143.33 255.32 143.66 256 144C251.38 148.62 246.76 153.24 242 158C242 153.399 244.898 151.193 248 148C249.947 146.242 251.935 144.622 254 143Z" fill="black"/>
</g>
<defs>
<clipPath id="clip0_190_815">
<rect width="640" height="640" fill="white"/>
</clipPath>
</defs>
</svg>
